G04 #@! TF.GenerationSoftware,KiCad,Pcbnew,9.0.3-9.0.3-0~ubuntu24.04.1*
G04 #@! TF.CreationDate,2025-08-01T09:32:50+02:00*
G04 #@! TF.ProjectId,PicoBalloon,5069636f-4261-46c6-9c6f-6f6e2e6b6963,rev?*
G04 #@! TF.SameCoordinates,Original*
G04 #@! TF.FileFunction,Copper,L1,Top*
G04 #@! TF.FilePolarity,Positive*
%FSLAX46Y46*%
G04 Gerber Fmt 4.6, Leading zero omitted, Abs format (unit mm)*
G04 Created by KiCad (PCBNEW 9.0.3-9.0.3-0~ubuntu24.04.1) date 2025-08-01 09:32:50*
%MOMM*%
%LPD*%
G01*
G04 APERTURE LIST*
G04 Aperture macros list*
%AMRoundRect*
0 Rectangle with rounded corners*
0 $1 Rounding radius*
0 $2 $3 $4 $5 $6 $7 $8 $9 X,Y pos of 4 corners*
0 Add a 4 corners polygon primitive as box body*
4,1,4,$2,$3,$4,$5,$6,$7,$8,$9,$2,$3,0*
0 Add four circle primitives for the rounded corners*
1,1,$1+$1,$2,$3*
1,1,$1+$1,$4,$5*
1,1,$1+$1,$6,$7*
1,1,$1+$1,$8,$9*
0 Add four rect primitives between the rounded corners*
20,1,$1+$1,$2,$3,$4,$5,0*
20,1,$1+$1,$4,$5,$6,$7,0*
20,1,$1+$1,$6,$7,$8,$9,0*
20,1,$1+$1,$8,$9,$2,$3,0*%
G04 Aperture macros list end*
G04 #@! TA.AperFunction,SMDPad,CuDef*
%ADD10RoundRect,0.237500X-0.300000X-0.237500X0.300000X-0.237500X0.300000X0.237500X-0.300000X0.237500X0*%
G04 #@! TD*
G04 #@! TA.AperFunction,SMDPad,CuDef*
%ADD11RoundRect,0.237500X0.237500X-0.300000X0.237500X0.300000X-0.237500X0.300000X-0.237500X-0.300000X0*%
G04 #@! TD*
G04 #@! TA.AperFunction,ComponentPad*
%ADD12R,1.700000X1.700000*%
G04 #@! TD*
G04 #@! TA.AperFunction,ComponentPad*
%ADD13C,1.700000*%
G04 #@! TD*
G04 #@! TA.AperFunction,SMDPad,CuDef*
%ADD14RoundRect,0.075000X-0.662500X-0.075000X0.662500X-0.075000X0.662500X0.075000X-0.662500X0.075000X0*%
G04 #@! TD*
G04 #@! TA.AperFunction,SMDPad,CuDef*
%ADD15RoundRect,0.075000X-0.075000X-0.662500X0.075000X-0.662500X0.075000X0.662500X-0.075000X0.662500X0*%
G04 #@! TD*
G04 #@! TA.AperFunction,SMDPad,CuDef*
%ADD16RoundRect,0.237500X-0.287500X-0.237500X0.287500X-0.237500X0.287500X0.237500X-0.287500X0.237500X0*%
G04 #@! TD*
G04 #@! TA.AperFunction,SMDPad,CuDef*
%ADD17RoundRect,0.237500X-0.237500X0.300000X-0.237500X-0.300000X0.237500X-0.300000X0.237500X0.300000X0*%
G04 #@! TD*
G04 #@! TA.AperFunction,SMDPad,CuDef*
%ADD18RoundRect,0.237500X-0.250000X-0.237500X0.250000X-0.237500X0.250000X0.237500X-0.250000X0.237500X0*%
G04 #@! TD*
G04 #@! TA.AperFunction,ComponentPad*
%ADD19R,1.350000X1.350000*%
G04 #@! TD*
G04 #@! TA.AperFunction,ComponentPad*
%ADD20C,1.350000*%
G04 #@! TD*
G04 #@! TA.AperFunction,SMDPad,CuDef*
%ADD21RoundRect,0.250000X0.475000X-0.337500X0.475000X0.337500X-0.475000X0.337500X-0.475000X-0.337500X0*%
G04 #@! TD*
G04 #@! TA.AperFunction,SMDPad,CuDef*
%ADD22RoundRect,0.237500X0.250000X0.237500X-0.250000X0.237500X-0.250000X-0.237500X0.250000X-0.237500X0*%
G04 #@! TD*
G04 #@! TA.AperFunction,SMDPad,CuDef*
%ADD23RoundRect,0.237500X0.237500X-0.250000X0.237500X0.250000X-0.237500X0.250000X-0.237500X-0.250000X0*%
G04 #@! TD*
G04 #@! TA.AperFunction,SMDPad,CuDef*
%ADD24R,4.000000X1.600000*%
G04 #@! TD*
G04 #@! TA.AperFunction,SMDPad,CuDef*
%ADD25RoundRect,0.100000X-0.100000X0.225000X-0.100000X-0.225000X0.100000X-0.225000X0.100000X0.225000X0*%
G04 #@! TD*
G04 #@! TA.AperFunction,ViaPad*
%ADD26C,0.600000*%
G04 #@! TD*
G04 #@! TA.AperFunction,Conductor*
%ADD27C,0.200000*%
G04 #@! TD*
G04 #@! TA.AperFunction,Conductor*
%ADD28C,0.500000*%
G04 #@! TD*
G04 #@! TA.AperFunction,Conductor*
%ADD29C,0.354575*%
G04 #@! TD*
G04 APERTURE END LIST*
D10*
G04 #@! TO.P,C7,1*
G04 #@! TO.N,GND*
X141988500Y-99572500D03*
G04 #@! TO.P,C7,2*
G04 #@! TO.N,Net-(U4-NRST)*
X143713500Y-99572500D03*
G04 #@! TD*
D11*
G04 #@! TO.P,C3,1*
G04 #@! TO.N,GND*
X161014000Y-118621000D03*
G04 #@! TO.P,C3,2*
G04 #@! TO.N,+3V3*
X161014000Y-116896000D03*
G04 #@! TD*
G04 #@! TO.P,C8,1*
G04 #@! TO.N,GND*
X153300000Y-107262500D03*
G04 #@! TO.P,C8,2*
G04 #@! TO.N,+3V3*
X153300000Y-105537500D03*
G04 #@! TD*
D12*
G04 #@! TO.P,J4,1,Pin_1*
G04 #@! TO.N,+3V3*
X159200000Y-101080000D03*
D13*
G04 #@! TO.P,J4,2,Pin_2*
G04 #@! TO.N,/SWDIO*
X159200000Y-98540000D03*
G04 #@! TO.P,J4,3,Pin_3*
G04 #@! TO.N,/SWCLK*
X159200000Y-96000000D03*
G04 #@! TO.P,J4,4,Pin_4*
G04 #@! TO.N,GND*
X159200000Y-93460000D03*
G04 #@! TD*
D14*
G04 #@! TO.P,U4,1,VBAT*
G04 #@! TO.N,+3V3*
X146087500Y-96587500D03*
G04 #@! TO.P,U4,2,PC13*
G04 #@! TO.N,unconnected-(U4-PC13-Pad2)*
X146087500Y-97087500D03*
G04 #@! TO.P,U4,3,PC14*
G04 #@! TO.N,unconnected-(U4-PC14-Pad3)*
X146087500Y-97587500D03*
G04 #@! TO.P,U4,4,PC15*
G04 #@! TO.N,unconnected-(U4-PC15-Pad4)*
X146087500Y-98087500D03*
G04 #@! TO.P,U4,5,PD0*
G04 #@! TO.N,unconnected-(U4-PD0-Pad5)*
X146087500Y-98587500D03*
G04 #@! TO.P,U4,6,PD1*
G04 #@! TO.N,unconnected-(U4-PD1-Pad6)*
X146087500Y-99087500D03*
G04 #@! TO.P,U4,7,NRST*
G04 #@! TO.N,Net-(U4-NRST)*
X146087500Y-99587500D03*
G04 #@! TO.P,U4,8,VSSA*
G04 #@! TO.N,GND*
X146087500Y-100087500D03*
G04 #@! TO.P,U4,9,VDDA*
G04 #@! TO.N,+3V3*
X146087500Y-100587500D03*
G04 #@! TO.P,U4,10,PA0*
G04 #@! TO.N,/V_SOLAR*
X146087500Y-101087500D03*
G04 #@! TO.P,U4,11,PA1*
G04 #@! TO.N,/V_SUPERCAP_SENSE*
X146087500Y-101587500D03*
G04 #@! TO.P,U4,12,PA2*
G04 #@! TO.N,/TEMP_ADC*
X146087500Y-102087500D03*
D15*
G04 #@! TO.P,U4,13,PA3*
G04 #@! TO.N,unconnected-(U4-PA3-Pad13)*
X147500000Y-103500000D03*
G04 #@! TO.P,U4,14,PA4*
G04 #@! TO.N,/LORA_CS*
X148000000Y-103500000D03*
G04 #@! TO.P,U4,15,PA5*
G04 #@! TO.N,/LORA_SCK*
X148500000Y-103500000D03*
G04 #@! TO.P,U4,16,PA6*
G04 #@! TO.N,/LORA_MISO*
X149000000Y-103500000D03*
G04 #@! TO.P,U4,17,PA7*
G04 #@! TO.N,/LORA_MOSI*
X149500000Y-103500000D03*
G04 #@! TO.P,U4,18,PB0*
G04 #@! TO.N,/LORA_RST*
X150000000Y-103500000D03*
G04 #@! TO.P,U4,19,PB1*
G04 #@! TO.N,/LORA_DIO0*
X150500000Y-103500000D03*
G04 #@! TO.P,U4,20,PB2*
G04 #@! TO.N,unconnected-(U4-PB2-Pad20)*
X151000000Y-103500000D03*
G04 #@! TO.P,U4,21,PB10*
G04 #@! TO.N,unconnected-(U4-PB10-Pad21)*
X151500000Y-103500000D03*
G04 #@! TO.P,U4,22,PB11*
G04 #@! TO.N,unconnected-(U4-PB11-Pad22)*
X152000000Y-103500000D03*
G04 #@! TO.P,U4,23,VSS*
G04 #@! TO.N,GND*
X152500000Y-103500000D03*
G04 #@! TO.P,U4,24,VDD*
G04 #@! TO.N,+3V3*
X153000000Y-103500000D03*
D14*
G04 #@! TO.P,U4,25,PB12*
G04 #@! TO.N,unconnected-(U4-PB12-Pad25)*
X154412500Y-102087500D03*
G04 #@! TO.P,U4,26,PB13*
G04 #@! TO.N,Net-(U4-PB13)*
X154412500Y-101587500D03*
G04 #@! TO.P,U4,27,PB14*
G04 #@! TO.N,Net-(U4-PB14)*
X154412500Y-101087500D03*
G04 #@! TO.P,U4,28,PB15*
G04 #@! TO.N,unconnected-(U4-PB15-Pad28)*
X154412500Y-100587500D03*
G04 #@! TO.P,U4,29,PA8*
G04 #@! TO.N,unconnected-(U4-PA8-Pad29)*
X154412500Y-100087500D03*
G04 #@! TO.P,U4,30,PA9*
G04 #@! TO.N,/GPS_RX*
X154412500Y-99587500D03*
G04 #@! TO.P,U4,31,PA10*
G04 #@! TO.N,/GPS_TX*
X154412500Y-99087500D03*
G04 #@! TO.P,U4,32,PA11*
G04 #@! TO.N,/GPS_ONOFF*
X154412500Y-98587500D03*
G04 #@! TO.P,U4,33,PA12*
G04 #@! TO.N,/~{GPS_RESET}*
X154412500Y-98087500D03*
G04 #@! TO.P,U4,34,PA13*
G04 #@! TO.N,/SWDIO*
X154412500Y-97587500D03*
G04 #@! TO.P,U4,35,VSS*
G04 #@! TO.N,GND*
X154412500Y-97087500D03*
G04 #@! TO.P,U4,36,VDD*
G04 #@! TO.N,+3V3*
X154412500Y-96587500D03*
D15*
G04 #@! TO.P,U4,37,PA14*
G04 #@! TO.N,/SWCLK*
X153000000Y-95175000D03*
G04 #@! TO.P,U4,38,PA15*
G04 #@! TO.N,unconnected-(U4-PA15-Pad38)*
X152500000Y-95175000D03*
G04 #@! TO.P,U4,39,PB3*
G04 #@! TO.N,unconnected-(U4-PB3-Pad39)*
X152000000Y-95175000D03*
G04 #@! TO.P,U4,40,PB4*
G04 #@! TO.N,/~{LNA_SHDN}*
X151500000Y-95175000D03*
G04 #@! TO.P,U4,41,PB5*
G04 #@! TO.N,/1PPS*
X151000000Y-95175000D03*
G04 #@! TO.P,U4,42,PB6*
G04 #@! TO.N,unconnected-(U4-PB6-Pad42)*
X150500000Y-95175000D03*
G04 #@! TO.P,U4,43,PB7*
G04 #@! TO.N,unconnected-(U4-PB7-Pad43)*
X150000000Y-95175000D03*
G04 #@! TO.P,U4,44,BOOT0*
G04 #@! TO.N,Net-(U4-BOOT0)*
X149500000Y-95175000D03*
G04 #@! TO.P,U4,45,PB8*
G04 #@! TO.N,/SUPERCAP_EN*
X149000000Y-95175000D03*
G04 #@! TO.P,U4,46,PB9*
G04 #@! TO.N,/BOOST_EN*
X148500000Y-95175000D03*
G04 #@! TO.P,U4,47,VSS*
G04 #@! TO.N,GND*
X148000000Y-95175000D03*
G04 #@! TO.P,U4,48,VDD*
G04 #@! TO.N,+3V3*
X147500000Y-95175000D03*
G04 #@! TD*
D16*
G04 #@! TO.P,D1,1,K*
G04 #@! TO.N,Net-(D1-K)*
X160118950Y-105851736D03*
G04 #@! TO.P,D1,2,A*
G04 #@! TO.N,+3V3*
X161868950Y-105851736D03*
G04 #@! TD*
D10*
G04 #@! TO.P,C12,1*
G04 #@! TO.N,GND*
X141962000Y-96524500D03*
G04 #@! TO.P,C12,2*
G04 #@! TO.N,+3V3*
X143687000Y-96524500D03*
G04 #@! TD*
G04 #@! TO.P,C6,1*
G04 #@! TO.N,GND*
X141902379Y-103031655D03*
G04 #@! TO.P,C6,2*
G04 #@! TO.N,/TEMP_ADC*
X143627379Y-103031655D03*
G04 #@! TD*
D17*
G04 #@! TO.P,C9,1*
G04 #@! TO.N,GND*
X145999500Y-92614000D03*
G04 #@! TO.P,C9,2*
G04 #@! TO.N,+3V3*
X145999500Y-94339000D03*
G04 #@! TD*
D18*
G04 #@! TO.P,R6,1*
G04 #@! TO.N,+3V3*
X141912000Y-98048500D03*
G04 #@! TO.P,R6,2*
G04 #@! TO.N,Net-(U4-NRST)*
X143737000Y-98048500D03*
G04 #@! TD*
D16*
G04 #@! TO.P,D2,1,K*
G04 #@! TO.N,Net-(D2-K)*
X160132950Y-104200736D03*
G04 #@! TO.P,D2,2,A*
G04 #@! TO.N,+3V3*
X161882950Y-104200736D03*
G04 #@! TD*
D17*
G04 #@! TO.P,C11,1*
G04 #@! TO.N,GND*
X154600000Y-92937500D03*
G04 #@! TO.P,C11,2*
G04 #@! TO.N,+3V3*
X154600000Y-94662500D03*
G04 #@! TD*
D19*
G04 #@! TO.P,J3,1,Pin_1*
G04 #@! TO.N,Net-(J3-Pin_1)*
X161900000Y-124700000D03*
D20*
G04 #@! TO.P,J3,2,Pin_2*
G04 #@! TO.N,GND*
X161900000Y-122700000D03*
G04 #@! TD*
D21*
G04 #@! TO.P,C4,1*
G04 #@! TO.N,+3V3*
X161600000Y-115137500D03*
G04 #@! TO.P,C4,2*
G04 #@! TO.N,GND*
X161600000Y-113062500D03*
G04 #@! TD*
D22*
G04 #@! TO.P,R4,1*
G04 #@! TO.N,Net-(D2-K)*
X158563450Y-104200736D03*
G04 #@! TO.P,R4,2*
G04 #@! TO.N,Net-(U4-PB14)*
X156738450Y-104200736D03*
G04 #@! TD*
D23*
G04 #@! TO.P,R5,1*
G04 #@! TO.N,Net-(U4-BOOT0)*
X149428500Y-93142500D03*
G04 #@! TO.P,R5,2*
G04 #@! TO.N,GND*
X149428500Y-91317500D03*
G04 #@! TD*
D22*
G04 #@! TO.P,R3,1*
G04 #@! TO.N,Net-(D1-K)*
X158563450Y-105851736D03*
G04 #@! TO.P,R3,2*
G04 #@! TO.N,Net-(U4-PB13)*
X156738450Y-105851736D03*
G04 #@! TD*
D10*
G04 #@! TO.P,C10,1*
G04 #@! TO.N,GND*
X141988500Y-101096500D03*
G04 #@! TO.P,C10,2*
G04 #@! TO.N,+3V3*
X143713500Y-101096500D03*
G04 #@! TD*
D24*
G04 #@! TO.P,MOD1,1,GND*
G04 #@! TO.N,GND*
X142000000Y-110774000D03*
G04 #@! TO.P,MOD1,2,MISO*
G04 #@! TO.N,/LORA_MISO*
X142000000Y-112774000D03*
G04 #@! TO.P,MOD1,3,MOSI*
G04 #@! TO.N,/LORA_MOSI*
X142000000Y-114774000D03*
G04 #@! TO.P,MOD1,4,SCK*
G04 #@! TO.N,/LORA_SCK*
X142000000Y-116774000D03*
G04 #@! TO.P,MOD1,5,NSS*
G04 #@! TO.N,/LORA_CS*
X142000000Y-118774000D03*
G04 #@! TO.P,MOD1,6,RESET*
G04 #@! TO.N,/LORA_RST*
X142000000Y-120774000D03*
G04 #@! TO.P,MOD1,7,DIO5*
G04 #@! TO.N,unconnected-(MOD1-DIO5-Pad7)*
X142000000Y-122774000D03*
G04 #@! TO.P,MOD1,8,GND*
G04 #@! TO.N,GND*
X142000000Y-124774000D03*
G04 #@! TO.P,MOD1,9,ANT*
G04 #@! TO.N,Net-(J3-Pin_1)*
X158000000Y-124774000D03*
G04 #@! TO.P,MOD1,10,GND*
G04 #@! TO.N,GND*
X158000000Y-122774000D03*
G04 #@! TO.P,MOD1,11,DIO3*
G04 #@! TO.N,unconnected-(MOD1-DIO3-Pad11)*
X158000000Y-120774000D03*
G04 #@! TO.P,MOD1,12,DIO4*
G04 #@! TO.N,unconnected-(MOD1-DIO4-Pad12)*
X158000000Y-118774000D03*
G04 #@! TO.P,MOD1,13,3.3V*
G04 #@! TO.N,+3V3*
X158000000Y-116774000D03*
G04 #@! TO.P,MOD1,14,DIO0*
G04 #@! TO.N,/LORA_DIO0*
X158000000Y-114774000D03*
G04 #@! TO.P,MOD1,15,DIO1*
G04 #@! TO.N,unconnected-(MOD1-DIO1-Pad15)*
X158000000Y-112774000D03*
G04 #@! TO.P,MOD1,16,DIO2*
G04 #@! TO.N,unconnected-(MOD1-DIO2-Pad16)*
X158000000Y-110774000D03*
G04 #@! TD*
D25*
G04 #@! TO.P,U3,1,NC*
G04 #@! TO.N,unconnected-(U3-NC-Pad1)*
X145065879Y-104494655D03*
G04 #@! TO.P,U3,2,GND*
G04 #@! TO.N,GND*
X144415879Y-104494655D03*
G04 #@! TO.P,U3,3,V_{OUT}*
G04 #@! TO.N,/TEMP_ADC*
X143765879Y-104494655D03*
G04 #@! TO.P,U3,4,V_{DD}*
G04 #@! TO.N,+3V3*
X143765879Y-106394655D03*
G04 #@! TO.P,U3,5,GND*
G04 #@! TO.N,GND*
X145065879Y-106394655D03*
G04 #@! TD*
D26*
G04 #@! TO.N,GND*
X161938000Y-109644000D03*
X161938000Y-108628000D03*
X161938000Y-107612000D03*
X144666000Y-94150000D03*
X144158000Y-94658000D03*
X143650000Y-95166000D03*
X138824000Y-98468000D03*
X139332000Y-97960000D03*
X139840000Y-97452000D03*
X140348000Y-96944000D03*
X140094000Y-100500000D03*
X140094000Y-101516000D03*
X140094000Y-102532000D03*
X140094000Y-103548000D03*
X139840000Y-106596000D03*
X151524000Y-109390000D03*
X147460000Y-120058000D03*
X148476000Y-122344000D03*
X148476000Y-121328000D03*
G04 #@! TO.N,/V_SUPERCAP_SENSE*
X146400000Y-108628000D03*
G04 #@! TO.N,GND*
X142888000Y-105580000D03*
X141872000Y-105580000D03*
X145575000Y-109400000D03*
X154800000Y-84300000D03*
X149746000Y-113454000D03*
X148500000Y-81800000D03*
X144920000Y-110406000D03*
X154826000Y-109898000D03*
X148600000Y-83500000D03*
X148500000Y-81000000D03*
X155100000Y-87100000D03*
X151400000Y-83500000D03*
X150300000Y-97000000D03*
X152900000Y-85200000D03*
X155588000Y-109390000D03*
X155100000Y-85000000D03*
X153800000Y-79800000D03*
X152900000Y-88900000D03*
X150400000Y-83500000D03*
X147714000Y-92626000D03*
X147460000Y-91864000D03*
X152900000Y-87400000D03*
X154900000Y-123800000D03*
X144666000Y-125138000D03*
X154800000Y-81800000D03*
X153100000Y-84500000D03*
X140856000Y-95928000D03*
X148500000Y-79400000D03*
X155588000Y-108628000D03*
X161430000Y-111676000D03*
X152794000Y-116248000D03*
X154400000Y-80300000D03*
X156350000Y-107866000D03*
X145936000Y-124376000D03*
X155000000Y-88200000D03*
X148500000Y-80200000D03*
X154064000Y-109898000D03*
X151400000Y-89900000D03*
X154800000Y-83500000D03*
X145682000Y-105580000D03*
X152900000Y-89600000D03*
X155100000Y-85700000D03*
X155100000Y-90400000D03*
X156350000Y-108628000D03*
X152200000Y-89900000D03*
X155100000Y-89700000D03*
X144920000Y-93134000D03*
X153100000Y-83800000D03*
X149500000Y-83500000D03*
X146444000Y-125138000D03*
X152900000Y-88200000D03*
X147700000Y-96900000D03*
X161938000Y-119042000D03*
X155100000Y-86400000D03*
X141872000Y-104310000D03*
X154800000Y-82700000D03*
X153048000Y-109898000D03*
X155100000Y-89000000D03*
X154800000Y-81000000D03*
X152900000Y-86000000D03*
X152900000Y-86700000D03*
X152300000Y-83500000D03*
X153048000Y-96944000D03*
X148500000Y-82600000D03*
X145682000Y-125138000D03*
X157800000Y-103000000D03*
X160600000Y-123800000D03*
X160600000Y-125800000D03*
G04 #@! TO.N,/V_SOLAR*
X147100000Y-113800000D03*
X147500000Y-100800000D03*
G04 #@! TO.N,+3V3*
X155900000Y-96700000D03*
X139700000Y-104700000D03*
X144700000Y-107400000D03*
X140100000Y-99200000D03*
X162192000Y-117010000D03*
G04 #@! TO.N,/V_SUPERCAP_SENSE*
X146400000Y-118700000D03*
X144734916Y-101487500D03*
G04 #@! TO.N,/BOOST_EN*
X152561000Y-111144000D03*
X149000000Y-118500000D03*
X152794000Y-108700000D03*
X151270000Y-101900000D03*
G04 #@! TO.N,/SUPERCAP_EN*
X149100000Y-96900000D03*
X154900000Y-124800000D03*
G04 #@! TO.N,/~{GPS_RESET}*
X151913265Y-99500000D03*
G04 #@! TO.N,/~{LNA_SHDN}*
X150533489Y-93433317D03*
G04 #@! TO.N,/GPS_RX*
X155700000Y-100487500D03*
G04 #@! TO.N,/GPS_ONOFF*
X152400000Y-102000000D03*
G04 #@! TO.N,/1PPS*
X151757780Y-100658613D03*
G04 #@! TO.N,/GPS_TX*
X156300000Y-99929018D03*
G04 #@! TD*
D27*
G04 #@! TO.N,GND*
X159200000Y-93460000D02*
X158677500Y-92937500D01*
X152500000Y-103500000D02*
X152500000Y-106462500D01*
D28*
X144552000Y-110774000D02*
X144920000Y-110406000D01*
D27*
X144415879Y-105744655D02*
X144415879Y-104494655D01*
D28*
X149428500Y-91317500D02*
X148006500Y-91317500D01*
D27*
X145065879Y-106394655D02*
X145065879Y-106196121D01*
D28*
X141962000Y-96524500D02*
X141452500Y-96524500D01*
X161600000Y-111846000D02*
X161430000Y-111676000D01*
D27*
X154412500Y-97087500D02*
X153191500Y-97087500D01*
X148000000Y-96658000D02*
X148000000Y-95175000D01*
D28*
X161014000Y-118621000D02*
X161517000Y-118621000D01*
D27*
X147110500Y-100087500D02*
X146087500Y-100087500D01*
D28*
X145682000Y-125138000D02*
X142364000Y-125138000D01*
X145999500Y-92614000D02*
X145440000Y-92614000D01*
D27*
X145065879Y-106394655D02*
X144415879Y-105744655D01*
X153191500Y-97087500D02*
X153048000Y-96944000D01*
D28*
X145936000Y-124376000D02*
X142398000Y-124376000D01*
D27*
X147968000Y-97168000D02*
X147968000Y-99230000D01*
D28*
X141988500Y-102945534D02*
X141902379Y-103031655D01*
D27*
X147700000Y-96900000D02*
X147968000Y-97168000D01*
D28*
X141902379Y-104279621D02*
X141872000Y-104310000D01*
D27*
X152500000Y-106462500D02*
X153300000Y-107262500D01*
D28*
X145440000Y-92614000D02*
X144920000Y-93134000D01*
X161600000Y-113062500D02*
X161600000Y-111846000D01*
X141988500Y-99572500D02*
X141988500Y-102945534D01*
X142398000Y-124376000D02*
X142000000Y-124774000D01*
X141452500Y-96524500D02*
X140856000Y-95928000D01*
D27*
X158677500Y-92937500D02*
X154600000Y-92937500D01*
D28*
X144666000Y-125138000D02*
X142364000Y-125138000D01*
D27*
X147758000Y-96900000D02*
X148000000Y-96658000D01*
D28*
X142000000Y-110774000D02*
X144552000Y-110774000D01*
D27*
X147968000Y-99230000D02*
X147110500Y-100087500D01*
X153300000Y-107262500D02*
X153903500Y-107866000D01*
D28*
X142364000Y-125138000D02*
X142000000Y-124774000D01*
X141902379Y-103031655D02*
X141902379Y-104279621D01*
D27*
X153903500Y-107866000D02*
X156350000Y-107866000D01*
D28*
X148006500Y-91317500D02*
X147460000Y-91864000D01*
D27*
X147700000Y-96900000D02*
X147758000Y-96900000D01*
D28*
X161517000Y-118621000D02*
X161938000Y-119042000D01*
X146444000Y-125138000D02*
X142364000Y-125138000D01*
D27*
X145065879Y-106196121D02*
X145682000Y-105580000D01*
G04 #@! TO.N,/V_SOLAR*
X147187500Y-101087500D02*
X146087500Y-101087500D01*
X147475000Y-100800000D02*
X147187500Y-101087500D01*
X147500000Y-100800000D02*
X147475000Y-100800000D01*
G04 #@! TO.N,+3V3*
X161143000Y-116848000D02*
X161095000Y-116896000D01*
D28*
X161600000Y-116310000D02*
X161014000Y-116896000D01*
D27*
X143713500Y-101096500D02*
X143713500Y-101452500D01*
D28*
X141394655Y-106394655D02*
X143765879Y-106394655D01*
D27*
X144222500Y-100587500D02*
X146087500Y-100587500D01*
D28*
X161882950Y-104200736D02*
X161882950Y-103762950D01*
X143765879Y-106865879D02*
X143765879Y-106394655D01*
X142163000Y-98048500D02*
X143687000Y-96524500D01*
D27*
X153000000Y-105237500D02*
X153300000Y-105537500D01*
D28*
X154662500Y-106900000D02*
X153300000Y-105537500D01*
X162078000Y-116896000D02*
X162192000Y-117010000D01*
X139700000Y-104700000D02*
X141394655Y-106394655D01*
X145999500Y-94339000D02*
X145872500Y-94339000D01*
X140100000Y-99200000D02*
X141251500Y-98048500D01*
X161014000Y-116896000D02*
X162078000Y-116896000D01*
D27*
X143750000Y-96587500D02*
X143687000Y-96524500D01*
X143713500Y-101096500D02*
X144222500Y-100587500D01*
D28*
X161868950Y-104214736D02*
X161882950Y-104200736D01*
X146563000Y-94339000D02*
X147399000Y-95175000D01*
X145872500Y-94339000D02*
X143687000Y-96524500D01*
X161882950Y-103762950D02*
X159200000Y-101080000D01*
D27*
X155739500Y-96587500D02*
X155842000Y-96690000D01*
D28*
X144300000Y-107400000D02*
X143765879Y-106865879D01*
X141251500Y-98048500D02*
X141912000Y-98048500D01*
X158000000Y-116774000D02*
X160892000Y-116774000D01*
D27*
X142875000Y-99011500D02*
X141912000Y-98048500D01*
D28*
X145999500Y-94339000D02*
X146563000Y-94339000D01*
D27*
X143713500Y-101096500D02*
X142875000Y-100258000D01*
D28*
X160892000Y-116774000D02*
X161014000Y-116896000D01*
X161868950Y-105851736D02*
X160820686Y-106900000D01*
D27*
X154600000Y-94662500D02*
X154600000Y-96400000D01*
D28*
X161868950Y-105851736D02*
X161868950Y-104214736D01*
X144700000Y-107400000D02*
X144300000Y-107400000D01*
D27*
X146087500Y-96587500D02*
X143750000Y-96587500D01*
X154600000Y-96400000D02*
X154412500Y-96587500D01*
D28*
X141912000Y-98048500D02*
X142163000Y-98048500D01*
D27*
X154412500Y-96587500D02*
X155739500Y-96587500D01*
X155842000Y-96690000D02*
X155852000Y-96700000D01*
X153000000Y-103500000D02*
X153000000Y-105237500D01*
D28*
X160820686Y-106900000D02*
X154662500Y-106900000D01*
D27*
X142875000Y-100258000D02*
X142875000Y-99011500D01*
D28*
X161600000Y-115137500D02*
X161600000Y-116310000D01*
D27*
X155852000Y-96700000D02*
X155900000Y-96700000D01*
G04 #@! TO.N,Net-(U4-NRST)*
X143737000Y-99549000D02*
X143713500Y-99572500D01*
X143737000Y-98048500D02*
X143737000Y-99549000D01*
X146072500Y-99572500D02*
X146087500Y-99587500D01*
X143713500Y-99572500D02*
X146072500Y-99572500D01*
G04 #@! TO.N,/TEMP_ADC*
X143765879Y-104494655D02*
X143765879Y-103170155D01*
X146087500Y-102087500D02*
X144571534Y-102087500D01*
X144571534Y-102087500D02*
X143627379Y-103031655D01*
X143765879Y-103170155D02*
X143627379Y-103031655D01*
G04 #@! TO.N,Net-(D1-K)*
X160118950Y-105851736D02*
X158563450Y-105851736D01*
G04 #@! TO.N,Net-(D2-K)*
X158563450Y-104200736D02*
X160132950Y-104200736D01*
D29*
G04 #@! TO.N,Net-(J3-Pin_1)*
X158000000Y-124774000D02*
X161826000Y-124774000D01*
X161826000Y-124774000D02*
G75*
G03*
X161900000Y-124700000I0J74000D01*
G01*
D27*
G04 #@! TO.N,/LORA_MOSI*
X149500000Y-109474000D02*
X149500000Y-103500000D01*
X142000000Y-114774000D02*
X144200000Y-114774000D01*
X144200000Y-114774000D02*
X149500000Y-109474000D01*
G04 #@! TO.N,/LORA_DIO0*
X150500000Y-109932943D02*
X150500000Y-103500000D01*
X155341057Y-114774000D02*
X150500000Y-109932943D01*
X158000000Y-114774000D02*
X155341057Y-114774000D01*
G04 #@! TO.N,/LORA_MISO*
X149000000Y-103500000D02*
X149000000Y-107974000D01*
X149000000Y-107974000D02*
X144200000Y-112774000D01*
X144200000Y-112774000D02*
X142000000Y-112774000D01*
G04 #@! TO.N,/LORA_CS*
X139733000Y-108735000D02*
X144559000Y-108735000D01*
X148000000Y-105294000D02*
X148000000Y-103500000D01*
X140598000Y-118774000D02*
X138824000Y-117000000D01*
X144559000Y-108735000D02*
X148000000Y-105294000D01*
X138824000Y-109644000D02*
X139733000Y-108735000D01*
X138824000Y-117000000D02*
X138824000Y-109644000D01*
X142000000Y-118774000D02*
X140598000Y-118774000D01*
G04 #@! TO.N,/LORA_SCK*
X142000000Y-116774000D02*
X139800000Y-116774000D01*
X139332000Y-116306000D02*
X139332000Y-110045000D01*
X140241000Y-109136000D02*
X144725100Y-109136000D01*
X148500000Y-105361100D02*
X148500000Y-103500000D01*
X139332000Y-110045000D02*
X140241000Y-109136000D01*
X144725100Y-109136000D02*
X148500000Y-105361100D01*
X139800000Y-116774000D02*
X139332000Y-116306000D01*
G04 #@! TO.N,/LORA_RST*
X150000000Y-103500000D02*
X150000000Y-110406000D01*
X148476000Y-111930000D02*
X148476000Y-115700000D01*
X150000000Y-110406000D02*
X148476000Y-111930000D01*
X143402000Y-120774000D02*
X142000000Y-120774000D01*
X148476000Y-115700000D02*
X143402000Y-120774000D01*
G04 #@! TO.N,/V_SUPERCAP_SENSE*
X144834916Y-101587500D02*
X146087500Y-101587500D01*
X144734916Y-101487500D02*
X144834916Y-101587500D01*
G04 #@! TO.N,/BOOST_EN*
X152447000Y-109649057D02*
X152447000Y-111030000D01*
X152794000Y-108700000D02*
X152794000Y-109302057D01*
X148500000Y-99130000D02*
X148500000Y-95175000D01*
X151270000Y-101900000D02*
X148500000Y-99130000D01*
X152794000Y-109302057D02*
X152447000Y-109649057D01*
X152447000Y-111030000D02*
X152561000Y-111144000D01*
G04 #@! TO.N,Net-(U4-PB13)*
X156574500Y-105974500D02*
X155700000Y-105100000D01*
X155700000Y-105100000D02*
X155700000Y-101736500D01*
X155700000Y-101736500D02*
X155551000Y-101587500D01*
X156615686Y-105974500D02*
X156574500Y-105974500D01*
X155551000Y-101587500D02*
X154412500Y-101587500D01*
X156738450Y-105851736D02*
X156615686Y-105974500D01*
G04 #@! TO.N,Net-(U4-PB14)*
X156600000Y-101900000D02*
X156600000Y-104062286D01*
X156600000Y-104062286D02*
X156738450Y-104200736D01*
X154412500Y-101087500D02*
X155787500Y-101087500D01*
X155787500Y-101087500D02*
X156600000Y-101900000D01*
G04 #@! TO.N,Net-(U4-BOOT0)*
X149428500Y-93142500D02*
X149500000Y-93214000D01*
X149500000Y-93214000D02*
X149500000Y-95175000D01*
G04 #@! TO.N,/SWDIO*
X154412500Y-97587500D02*
X154461500Y-97538500D01*
X158198500Y-97538500D02*
X159200000Y-98540000D01*
X154461500Y-97538500D02*
X158198500Y-97538500D01*
G04 #@! TO.N,/SUPERCAP_EN*
X149000000Y-96106062D02*
X149000000Y-95175000D01*
X149100000Y-96900000D02*
X149100000Y-96206062D01*
X149100000Y-96206062D02*
X149000000Y-96106062D01*
G04 #@! TO.N,/~{GPS_RESET}*
X151913265Y-99466881D02*
X153292646Y-98087500D01*
X153292646Y-98087500D02*
X154412500Y-98087500D01*
X151913265Y-99500000D02*
X151913265Y-99466881D01*
G04 #@! TO.N,/~{LNA_SHDN}*
X151500000Y-94399828D02*
X150533489Y-93433317D01*
X151500000Y-95175000D02*
X151500000Y-94399828D01*
G04 #@! TO.N,/SWCLK*
X153000000Y-95175000D02*
X153000000Y-94437501D01*
X153613501Y-93824000D02*
X157024000Y-93824000D01*
X157024000Y-93824000D02*
X159200000Y-96000000D01*
X153000000Y-94437501D02*
X153613501Y-93824000D01*
G04 #@! TO.N,/GPS_RX*
X155387500Y-99587500D02*
X154412500Y-99587500D01*
X155700000Y-99900000D02*
X155387500Y-99587500D01*
X155700000Y-100487500D02*
X155700000Y-99900000D01*
G04 #@! TO.N,/GPS_ONOFF*
X152500000Y-99728676D02*
X153641176Y-98587500D01*
X152400000Y-102000000D02*
X152500000Y-101900000D01*
X152500000Y-101900000D02*
X152500000Y-99728676D01*
X153641176Y-98587500D02*
X154412500Y-98587500D01*
G04 #@! TO.N,/1PPS*
X151313265Y-97749265D02*
X151000000Y-97436000D01*
X151313265Y-100214098D02*
X151313265Y-97749265D01*
X151757780Y-100658613D02*
X151313265Y-100214098D01*
X151000000Y-97436000D02*
X151000000Y-95175000D01*
G04 #@! TO.N,/GPS_TX*
X156300000Y-99929018D02*
X156300000Y-99673272D01*
X155714228Y-99087500D02*
X154412500Y-99087500D01*
X156300000Y-99673272D02*
X155714228Y-99087500D01*
G04 #@! TD*
G04 #@! TA.AperFunction,Conductor*
G04 #@! TO.N,GND*
G36*
X155799500Y-121593752D02*
G01*
X155811131Y-121652229D01*
X155811132Y-121652230D01*
X155855447Y-121718552D01*
X155921769Y-121762867D01*
X155921770Y-121762868D01*
X155980247Y-121774499D01*
X155980250Y-121774500D01*
X155980252Y-121774500D01*
X160019750Y-121774500D01*
X160019751Y-121774499D01*
X160034568Y-121771552D01*
X160078229Y-121762868D01*
X160078229Y-121762867D01*
X160078231Y-121762867D01*
X160144552Y-121718552D01*
X160188867Y-121652231D01*
X160188867Y-121652229D01*
X160188868Y-121652229D01*
X160200499Y-121593752D01*
X160200500Y-121593750D01*
X160200500Y-121400000D01*
X162900000Y-121400000D01*
X162900000Y-126300000D01*
X153900000Y-126300000D01*
X153900000Y-124734108D01*
X154399500Y-124734108D01*
X154399500Y-124865891D01*
X154433608Y-124993187D01*
X154466554Y-125050250D01*
X154499500Y-125107314D01*
X154592686Y-125200500D01*
X154706814Y-125266392D01*
X154834108Y-125300500D01*
X154834110Y-125300500D01*
X154965890Y-125300500D01*
X154965892Y-125300500D01*
X155093186Y-125266392D01*
X155207314Y-125200500D01*
X155300500Y-125107314D01*
X155366392Y-124993186D01*
X155400500Y-124865892D01*
X155400500Y-124734108D01*
X155366392Y-124606814D01*
X155300500Y-124492686D01*
X155207314Y-124399500D01*
X155102962Y-124339252D01*
X155093187Y-124333608D01*
X155029539Y-124316554D01*
X154965892Y-124299500D01*
X154834108Y-124299500D01*
X154706812Y-124333608D01*
X154592686Y-124399500D01*
X154592683Y-124399502D01*
X154499502Y-124492683D01*
X154499500Y-124492686D01*
X154433608Y-124606812D01*
X154399500Y-124734108D01*
X153900000Y-124734108D01*
X153900000Y-123954247D01*
X155799500Y-123954247D01*
X155799500Y-125593752D01*
X155811131Y-125652229D01*
X155811132Y-125652230D01*
X155855447Y-125718552D01*
X155921769Y-125762867D01*
X155921770Y-125762868D01*
X155980247Y-125774499D01*
X155980250Y-125774500D01*
X155980252Y-125774500D01*
X160019750Y-125774500D01*
X160019751Y-125774499D01*
X160034568Y-125771552D01*
X160078229Y-125762868D01*
X160078229Y-125762867D01*
X160078231Y-125762867D01*
X160144552Y-125718552D01*
X160188867Y-125652231D01*
X160188867Y-125652229D01*
X160188868Y-125652229D01*
X160200499Y-125593752D01*
X160200500Y-125593750D01*
X160200500Y-125275787D01*
X160220185Y-125208748D01*
X160272989Y-125162993D01*
X160324500Y-125151787D01*
X160900500Y-125151787D01*
X160967539Y-125171472D01*
X161013294Y-125224276D01*
X161024500Y-125275787D01*
X161024500Y-125394752D01*
X161036131Y-125453229D01*
X161036132Y-125453230D01*
X161080447Y-125519552D01*
X161146769Y-125563867D01*
X161146770Y-125563868D01*
X161205247Y-125575499D01*
X161205250Y-125575500D01*
X161205252Y-125575500D01*
X162594750Y-125575500D01*
X162594751Y-125575499D01*
X162609568Y-125572552D01*
X162653229Y-125563868D01*
X162653229Y-125563867D01*
X162653231Y-125563867D01*
X162719552Y-125519552D01*
X162763867Y-125453231D01*
X162763867Y-125453229D01*
X162763868Y-125453229D01*
X162775499Y-125394752D01*
X162775500Y-125394750D01*
X162775500Y-124005249D01*
X162775499Y-124005247D01*
X162763868Y-123946770D01*
X162763867Y-123946769D01*
X162719552Y-123880447D01*
X162653230Y-123836132D01*
X162653229Y-123836131D01*
X162594752Y-123824500D01*
X162594748Y-123824500D01*
X161205252Y-123824500D01*
X161205247Y-123824500D01*
X161146770Y-123836131D01*
X161146769Y-123836132D01*
X161080447Y-123880447D01*
X161036132Y-123946769D01*
X161036131Y-123946770D01*
X161024500Y-124005247D01*
X161024500Y-124272213D01*
X161004815Y-124339252D01*
X160952011Y-124385007D01*
X160900500Y-124396213D01*
X160324500Y-124396213D01*
X160257461Y-124376528D01*
X160211706Y-124323724D01*
X160200500Y-124272213D01*
X160200500Y-123954249D01*
X160200499Y-123954247D01*
X160188868Y-123895770D01*
X160188867Y-123895769D01*
X160144552Y-123829447D01*
X160078230Y-123785132D01*
X160078229Y-123785131D01*
X160019752Y-123773500D01*
X160019748Y-123773500D01*
X155980252Y-123773500D01*
X155980247Y-123773500D01*
X155921770Y-123785131D01*
X155921769Y-123785132D01*
X155855447Y-123829447D01*
X155811132Y-123895769D01*
X155811131Y-123895770D01*
X155799500Y-123954247D01*
X153900000Y-123954247D01*
X153900000Y-122613815D01*
X161025000Y-122613815D01*
X161025000Y-122786184D01*
X161058624Y-122955220D01*
X161058627Y-122955232D01*
X161124581Y-123114461D01*
X161124588Y-123114474D01*
X161198352Y-123224869D01*
X161198353Y-123224869D01*
X161542474Y-122880748D01*
X161579920Y-122945606D01*
X161654394Y-123020080D01*
X161719250Y-123057524D01*
X161375129Y-123401646D01*
X161485534Y-123475416D01*
X161485536Y-123475417D01*
X161644767Y-123541372D01*
X161644779Y-123541375D01*
X161813815Y-123574999D01*
X161813818Y-123575000D01*
X161986182Y-123575000D01*
X161986184Y-123574999D01*
X162155220Y-123541375D01*
X162155232Y-123541372D01*
X162314463Y-123475417D01*
X162314464Y-123475416D01*
X162424869Y-123401646D01*
X162424869Y-123401645D01*
X162080749Y-123057524D01*
X162145606Y-123020080D01*
X162220080Y-122945606D01*
X162257525Y-122880749D01*
X162601645Y-123224869D01*
X162601646Y-123224869D01*
X162675416Y-123114464D01*
X162675417Y-123114463D01*
X162741372Y-122955232D01*
X162741375Y-122955220D01*
X162774999Y-122786184D01*
X162775000Y-122786182D01*
X162775000Y-122613817D01*
X162774999Y-122613815D01*
X162741375Y-122444779D01*
X162741372Y-122444767D01*
X162675417Y-122285536D01*
X162675416Y-122285534D01*
X162601646Y-122175129D01*
X162257524Y-122519250D01*
X162220080Y-122454394D01*
X162145606Y-122379920D01*
X162080748Y-122342474D01*
X162424869Y-121998353D01*
X162424869Y-121998352D01*
X162314474Y-121924588D01*
X162314461Y-121924581D01*
X162155232Y-121858627D01*
X162155220Y-121858624D01*
X161986183Y-121825000D01*
X161813817Y-121825000D01*
X161644779Y-121858624D01*
X161644767Y-121858627D01*
X161485533Y-121924583D01*
X161485530Y-121924585D01*
X161375130Y-121998351D01*
X161375130Y-121998353D01*
X161719251Y-122342474D01*
X161654394Y-122379920D01*
X161579920Y-122454394D01*
X161542474Y-122519251D01*
X161198353Y-122175130D01*
X161198351Y-122175130D01*
X161124585Y-122285530D01*
X161124583Y-122285533D01*
X161058627Y-122444767D01*
X161058624Y-122444779D01*
X161025000Y-122613815D01*
X153900000Y-122613815D01*
X153900000Y-121400000D01*
X155799500Y-121400000D01*
X155799500Y-121593752D01*
G37*
G04 #@! TD.AperFunction*
G04 #@! TD*
G04 #@! TA.AperFunction,Conductor*
G04 #@! TO.N,GND*
G36*
X148618834Y-105769751D02*
G01*
X148674767Y-105811623D01*
X148699184Y-105877087D01*
X148699500Y-105885933D01*
X148699500Y-107798167D01*
X148679815Y-107865206D01*
X148663181Y-107885848D01*
X144412181Y-112136848D01*
X144350858Y-112170333D01*
X144281166Y-112165349D01*
X144225233Y-112123477D01*
X144200816Y-112058013D01*
X144200500Y-112049167D01*
X144200500Y-111954249D01*
X144200499Y-111954247D01*
X144188868Y-111895770D01*
X144188867Y-111895769D01*
X144144552Y-111829447D01*
X144078230Y-111785132D01*
X144078229Y-111785131D01*
X144019752Y-111773500D01*
X144019748Y-111773500D01*
X139980252Y-111773500D01*
X139980247Y-111773500D01*
X139921770Y-111785131D01*
X139921769Y-111785132D01*
X139855446Y-111829448D01*
X139846812Y-111838083D01*
X139844544Y-111835815D01*
X139805982Y-111868038D01*
X139736657Y-111876741D01*
X139673631Y-111846582D01*
X139636916Y-111787137D01*
X139632500Y-111754339D01*
X139632500Y-110220833D01*
X139652185Y-110153794D01*
X139668819Y-110133152D01*
X140329152Y-109472819D01*
X140390475Y-109439334D01*
X140416833Y-109436500D01*
X144764660Y-109436500D01*
X144764662Y-109436500D01*
X144841089Y-109416021D01*
X144909611Y-109376460D01*
X144965560Y-109320511D01*
X145687819Y-108598252D01*
X145749142Y-108564767D01*
X145818834Y-108569751D01*
X145874767Y-108611623D01*
X145899184Y-108677087D01*
X145899500Y-108685933D01*
X145899500Y-108693891D01*
X145933608Y-108821187D01*
X145966554Y-108878250D01*
X145999500Y-108935314D01*
X146092686Y-109028500D01*
X146206814Y-109094392D01*
X146334108Y-109128500D01*
X146334110Y-109128500D01*
X146465890Y-109128500D01*
X146465892Y-109128500D01*
X146593186Y-109094392D01*
X146707314Y-109028500D01*
X146800500Y-108935314D01*
X146866392Y-108821186D01*
X146900500Y-108693892D01*
X146900500Y-108562108D01*
X146866392Y-108434814D01*
X146864574Y-108431666D01*
X146842069Y-108392686D01*
X146800500Y-108320686D01*
X146707314Y-108227500D01*
X146650250Y-108194554D01*
X146593187Y-108161608D01*
X146529539Y-108144554D01*
X146465892Y-108127500D01*
X146457933Y-108127500D01*
X146390894Y-108107815D01*
X146345139Y-108055011D01*
X146335195Y-107985853D01*
X146364220Y-107922297D01*
X146370252Y-107915819D01*
X148487819Y-105798252D01*
X148549142Y-105764767D01*
X148618834Y-105769751D01*
G37*
G04 #@! TD.AperFunction*
G04 #@! TA.AperFunction,Conductor*
G36*
X150305943Y-96093016D02*
G01*
X150306223Y-96092342D01*
X150311590Y-96094565D01*
X150315162Y-96095545D01*
X150317351Y-96096951D01*
X150317506Y-96097016D01*
X150370957Y-96107647D01*
X150397867Y-96113000D01*
X150575499Y-96112999D01*
X150642539Y-96132683D01*
X150688294Y-96185487D01*
X150699500Y-96236999D01*
X150699500Y-97475562D01*
X150713152Y-97526513D01*
X150719979Y-97551990D01*
X150727347Y-97564751D01*
X150746544Y-97598001D01*
X150750021Y-97604023D01*
X150759539Y-97620510D01*
X150976446Y-97837417D01*
X151009931Y-97898740D01*
X151012765Y-97925098D01*
X151012765Y-100253660D01*
X151033244Y-100330087D01*
X151035277Y-100333608D01*
X151043030Y-100347038D01*
X151043033Y-100347041D01*
X151072804Y-100398608D01*
X151220961Y-100546765D01*
X151254446Y-100608088D01*
X151257280Y-100634446D01*
X151257280Y-100724504D01*
X151291388Y-100851800D01*
X151320757Y-100902668D01*
X151357280Y-100965927D01*
X151450466Y-101059113D01*
X151564594Y-101125005D01*
X151691888Y-101159113D01*
X151691890Y-101159113D01*
X151823670Y-101159113D01*
X151823672Y-101159113D01*
X151950966Y-101125005D01*
X152013500Y-101088900D01*
X152081399Y-101072428D01*
X152147426Y-101095280D01*
X152190617Y-101150201D01*
X152199500Y-101196288D01*
X152199500Y-101466238D01*
X152179815Y-101533277D01*
X152137503Y-101573624D01*
X152092686Y-101599500D01*
X152092683Y-101599502D01*
X151999502Y-101692683D01*
X151999500Y-101692686D01*
X151966889Y-101749170D01*
X151916321Y-101797385D01*
X151847714Y-101810607D01*
X151782850Y-101784639D01*
X151742322Y-101727725D01*
X151739727Y-101719262D01*
X151738716Y-101715489D01*
X151736392Y-101706814D01*
X151670500Y-101592686D01*
X151577314Y-101499500D01*
X151519703Y-101466238D01*
X151463187Y-101433608D01*
X151398774Y-101416349D01*
X151335892Y-101399500D01*
X151245833Y-101399500D01*
X151178794Y-101379815D01*
X151158152Y-101363181D01*
X148836819Y-99041848D01*
X148803334Y-98980525D01*
X148800500Y-98954167D01*
X148800500Y-97499504D01*
X148820185Y-97432465D01*
X148872989Y-97386710D01*
X148942147Y-97376766D01*
X148956571Y-97379724D01*
X149034108Y-97400500D01*
X149034111Y-97400500D01*
X149165890Y-97400500D01*
X149165892Y-97400500D01*
X149293186Y-97366392D01*
X149407314Y-97300500D01*
X149500500Y-97207314D01*
X149566392Y-97093186D01*
X149600500Y-96965892D01*
X149600500Y-96834108D01*
X149566392Y-96706814D01*
X149500500Y-96592686D01*
X149436818Y-96529004D01*
X149422113Y-96502073D01*
X149405523Y-96476258D01*
X149404631Y-96470055D01*
X149403334Y-96467680D01*
X149400500Y-96441323D01*
X149400500Y-96236999D01*
X149420185Y-96169960D01*
X149472989Y-96124205D01*
X149524498Y-96112999D01*
X149602132Y-96112999D01*
X149682495Y-96097015D01*
X149682498Y-96097012D01*
X149693778Y-96092341D01*
X149694376Y-96093786D01*
X149747782Y-96077063D01*
X149805943Y-96093016D01*
X149806223Y-96092342D01*
X149811590Y-96094565D01*
X149815162Y-96095545D01*
X149817351Y-96096951D01*
X149817506Y-96097016D01*
X149870957Y-96107647D01*
X149897867Y-96113000D01*
X150102132Y-96112999D01*
X150182495Y-96097015D01*
X150182498Y-96097012D01*
X150193778Y-96092341D01*
X150194376Y-96093786D01*
X150247782Y-96077063D01*
X150305943Y-96093016D01*
G37*
G04 #@! TD.AperFunction*
G04 #@! TA.AperFunction,Conductor*
G36*
X153828556Y-94130752D02*
G01*
X153850690Y-94132353D01*
X153861427Y-94140404D01*
X153874303Y-94144185D01*
X153888833Y-94160953D01*
X153906591Y-94174269D01*
X153911271Y-94186848D01*
X153920058Y-94196989D01*
X153923216Y-94218952D01*
X153930955Y-94239753D01*
X153929365Y-94261723D01*
X153930002Y-94266147D01*
X153928409Y-94274955D01*
X153927274Y-94280149D01*
X153924500Y-94309739D01*
X153924500Y-95015260D01*
X153927274Y-95044849D01*
X153970884Y-95169476D01*
X154049288Y-95275710D01*
X154049289Y-95275711D01*
X154155525Y-95354116D01*
X154216457Y-95375437D01*
X154273230Y-95416157D01*
X154298978Y-95481109D01*
X154299500Y-95492477D01*
X154299500Y-96113000D01*
X154279815Y-96180039D01*
X154227011Y-96225794D01*
X154175500Y-96237000D01*
X153722870Y-96237000D01*
X153642504Y-96252985D01*
X153551375Y-96313875D01*
X153490485Y-96405005D01*
X153490483Y-96405009D01*
X153474500Y-96485363D01*
X153474500Y-96689629D01*
X153490485Y-96769995D01*
X153551375Y-96861124D01*
X153587876Y-96885513D01*
X153642505Y-96922015D01*
X153642508Y-96922015D01*
X153642509Y-96922016D01*
X153682686Y-96930007D01*
X153722867Y-96938000D01*
X155102132Y-96937999D01*
X155182495Y-96922015D01*
X155182496Y-96922013D01*
X155182499Y-96922013D01*
X155202125Y-96908899D01*
X155220171Y-96903247D01*
X155236082Y-96893023D01*
X155267039Y-96888571D01*
X155268802Y-96888020D01*
X155271017Y-96888000D01*
X155359022Y-96888000D01*
X155426061Y-96907685D01*
X155466409Y-96949999D01*
X155499500Y-97007314D01*
X155499502Y-97007316D01*
X155518505Y-97026319D01*
X155551990Y-97087642D01*
X155547006Y-97157334D01*
X155505134Y-97213267D01*
X155439670Y-97237684D01*
X155430824Y-97238000D01*
X155118381Y-97238000D01*
X155106230Y-97237403D01*
X155102137Y-97237000D01*
X153722870Y-97237000D01*
X153642504Y-97252985D01*
X153551375Y-97313875D01*
X153490485Y-97405005D01*
X153490483Y-97405009D01*
X153474500Y-97485363D01*
X153474500Y-97485365D01*
X153474500Y-97485367D01*
X153474500Y-97587273D01*
X153474501Y-97662999D01*
X153454817Y-97730039D01*
X153402013Y-97775794D01*
X153350501Y-97787000D01*
X153253084Y-97787000D01*
X153206050Y-97799603D01*
X153176656Y-97807479D01*
X153157842Y-97818342D01*
X153157841Y-97818342D01*
X153108138Y-97847037D01*
X153108133Y-97847041D01*
X151991994Y-98963181D01*
X151930671Y-98996666D01*
X151922716Y-98998127D01*
X151913567Y-98999500D01*
X151847373Y-98999500D01*
X151763091Y-99022082D01*
X151756168Y-99023122D01*
X151728214Y-99019278D01*
X151700008Y-99018607D01*
X151694062Y-99014582D01*
X151686950Y-99013605D01*
X151665512Y-98995259D01*
X151642146Y-98979444D01*
X151639319Y-98972844D01*
X151633865Y-98968176D01*
X151625748Y-98941152D01*
X151614642Y-98915216D01*
X151613821Y-98901440D01*
X151613767Y-98901260D01*
X151613803Y-98901134D01*
X151613765Y-98900495D01*
X151613765Y-97709703D01*
X151613764Y-97709700D01*
X151608388Y-97689636D01*
X151607953Y-97688011D01*
X151593287Y-97633277D01*
X151590644Y-97628700D01*
X151586899Y-97622212D01*
X151553725Y-97564754D01*
X151336819Y-97347848D01*
X151303334Y-97286525D01*
X151300500Y-97260167D01*
X151300500Y-96236999D01*
X151320185Y-96169960D01*
X151372989Y-96124205D01*
X151424496Y-96112999D01*
X151602132Y-96112999D01*
X151682495Y-96097015D01*
X151682498Y-96097012D01*
X151693778Y-96092341D01*
X151694376Y-96093786D01*
X151747782Y-96077063D01*
X151805943Y-96093016D01*
X151806223Y-96092342D01*
X151811590Y-96094565D01*
X151815162Y-96095545D01*
X151817351Y-96096951D01*
X151817506Y-96097016D01*
X151870957Y-96107647D01*
X151897867Y-96113000D01*
X152102132Y-96112999D01*
X152182495Y-96097015D01*
X152182498Y-96097012D01*
X152193778Y-96092341D01*
X152194376Y-96093786D01*
X152247782Y-96077063D01*
X152305943Y-96093016D01*
X152306223Y-96092342D01*
X152311590Y-96094565D01*
X152315162Y-96095545D01*
X152317351Y-96096951D01*
X152317506Y-96097016D01*
X152370957Y-96107647D01*
X152397867Y-96113000D01*
X152602132Y-96112999D01*
X152682495Y-96097015D01*
X152682498Y-96097012D01*
X152693778Y-96092341D01*
X152694376Y-96093786D01*
X152747782Y-96077063D01*
X152805943Y-96093016D01*
X152806223Y-96092342D01*
X152811590Y-96094565D01*
X152815162Y-96095545D01*
X152817351Y-96096951D01*
X152817506Y-96097016D01*
X152870957Y-96107647D01*
X152897867Y-96113000D01*
X153102132Y-96112999D01*
X153182495Y-96097015D01*
X153273624Y-96036124D01*
X153334515Y-95944995D01*
X153350500Y-95864633D01*
X153350499Y-94563333D01*
X153370184Y-94496295D01*
X153386818Y-94475653D01*
X153701653Y-94160819D01*
X153762976Y-94127334D01*
X153789334Y-94124500D01*
X153807264Y-94124500D01*
X153828556Y-94130752D01*
G37*
G04 #@! TD.AperFunction*
G04 #@! TA.AperFunction,Conductor*
G36*
X148943039Y-78819685D02*
G01*
X148988794Y-78872489D01*
X149000000Y-78924000D01*
X149000000Y-83000000D01*
X153000000Y-83000000D01*
X153000000Y-78924000D01*
X153019685Y-78856961D01*
X153072489Y-78811206D01*
X153124000Y-78800000D01*
X154285927Y-78800000D01*
X154305697Y-78805805D01*
X154326284Y-78806751D01*
X154349489Y-78818664D01*
X154352966Y-78819685D01*
X154357641Y-78822842D01*
X154415093Y-78863607D01*
X154425948Y-78872264D01*
X154632931Y-79057236D01*
X154642764Y-79067068D01*
X154827731Y-79274046D01*
X154836401Y-79284918D01*
X154997030Y-79511304D01*
X155004428Y-79523078D01*
X155138701Y-79766026D01*
X155144734Y-79778554D01*
X155250959Y-80035005D01*
X155255552Y-80048130D01*
X155332397Y-80314865D01*
X155335491Y-80328422D01*
X155381988Y-80602082D01*
X155383545Y-80615900D01*
X155399305Y-80896527D01*
X155399500Y-80903480D01*
X155399500Y-86024557D01*
X155399501Y-86024574D01*
X155432017Y-86271560D01*
X155432019Y-86271570D01*
X155433220Y-86276051D01*
X155496497Y-86512206D01*
X155496500Y-86512213D01*
X155591834Y-86742369D01*
X155591839Y-86742380D01*
X155716400Y-86958125D01*
X155868060Y-87155773D01*
X155868066Y-87155780D01*
X156044218Y-87331932D01*
X156044225Y-87331938D01*
X156088582Y-87365974D01*
X156241873Y-87483598D01*
X156457626Y-87608164D01*
X156687793Y-87703502D01*
X156928435Y-87767982D01*
X157175435Y-87800500D01*
X157242417Y-87800500D01*
X157296519Y-87800500D01*
X157303471Y-87800695D01*
X157341470Y-87802828D01*
X157584106Y-87816454D01*
X157597909Y-87818010D01*
X157871584Y-87864509D01*
X157885123Y-87867599D01*
X158151874Y-87944449D01*
X158164993Y-87949040D01*
X158421445Y-88055265D01*
X158433967Y-88061294D01*
X158620623Y-88164456D01*
X158676921Y-88195571D01*
X158688695Y-88202969D01*
X158915081Y-88363598D01*
X158925953Y-88372268D01*
X159132931Y-88557235D01*
X159142764Y-88567068D01*
X159327731Y-88774046D01*
X159336401Y-88784918D01*
X159497030Y-89011304D01*
X159504428Y-89023078D01*
X159638701Y-89266025D01*
X159644734Y-89278554D01*
X159750959Y-89535006D01*
X159755552Y-89548130D01*
X159832397Y-89814865D01*
X159835491Y-89828422D01*
X159881988Y-90102082D01*
X159883545Y-90115900D01*
X159899305Y-90396527D01*
X159899500Y-90403480D01*
X159899500Y-90524558D01*
X159899501Y-90524575D01*
X159932017Y-90771561D01*
X159996498Y-91012207D01*
X160091830Y-91242361D01*
X160091837Y-91242376D01*
X160216400Y-91458126D01*
X160368060Y-91655774D01*
X160368066Y-91655781D01*
X160544218Y-91831933D01*
X160544225Y-91831939D01*
X160741873Y-91983599D01*
X160957623Y-92108162D01*
X160957638Y-92108169D01*
X161056825Y-92149253D01*
X161187793Y-92203502D01*
X161428435Y-92267982D01*
X161675435Y-92300500D01*
X161742417Y-92300500D01*
X161795572Y-92300500D01*
X161804418Y-92300816D01*
X162018792Y-92316148D01*
X162036293Y-92318665D01*
X162241968Y-92363406D01*
X162258933Y-92368387D01*
X162456152Y-92441946D01*
X162472235Y-92449290D01*
X162656967Y-92550163D01*
X162656971Y-92550165D01*
X162671854Y-92559730D01*
X162840349Y-92685863D01*
X162853720Y-92697449D01*
X163002549Y-92846278D01*
X163014135Y-92859649D01*
X163140268Y-93028143D01*
X163149833Y-93043026D01*
X163250704Y-93227756D01*
X163258054Y-93243849D01*
X163331611Y-93441062D01*
X163336595Y-93458038D01*
X163381333Y-93663699D01*
X163383851Y-93681210D01*
X163399184Y-93895578D01*
X163399500Y-93904425D01*
X163399500Y-125895573D01*
X163399184Y-125904420D01*
X163383851Y-126118789D01*
X163381333Y-126136299D01*
X163381333Y-126136300D01*
X163336595Y-126341961D01*
X163331611Y-126358937D01*
X163258054Y-126556149D01*
X163250704Y-126572242D01*
X163149834Y-126756973D01*
X163140269Y-126771856D01*
X163014139Y-126940346D01*
X163002553Y-126953717D01*
X162853720Y-127102550D01*
X162840353Y-127114133D01*
X162840350Y-127114136D01*
X162671854Y-127240271D01*
X162656969Y-127249836D01*
X162472243Y-127350703D01*
X162456151Y-127358053D01*
X162258937Y-127431611D01*
X162241961Y-127436595D01*
X162036300Y-127481333D01*
X162018789Y-127483851D01*
X161823690Y-127497805D01*
X161804419Y-127499184D01*
X161795574Y-127499500D01*
X139804428Y-127499500D01*
X139795582Y-127499184D01*
X139774407Y-127497669D01*
X139581211Y-127483851D01*
X139563700Y-127481333D01*
X139358039Y-127436595D01*
X139341063Y-127431611D01*
X139143849Y-127358053D01*
X139127757Y-127350703D01*
X138943031Y-127249836D01*
X138928146Y-127240271D01*
X138759646Y-127114133D01*
X138746276Y-127102547D01*
X138597452Y-126953723D01*
X138585866Y-126940353D01*
X138545924Y-126886997D01*
X138459724Y-126771848D01*
X138450163Y-126756968D01*
X138349296Y-126572242D01*
X138341946Y-126556150D01*
X138341946Y-126556149D01*
X138268385Y-126358928D01*
X138263406Y-126341969D01*
X138218665Y-126136296D01*
X138216148Y-126118787D01*
X138210885Y-126045205D01*
X138200816Y-125904418D01*
X138200500Y-125895572D01*
X138200500Y-109604438D01*
X138523500Y-109604438D01*
X138523500Y-117039562D01*
X138532862Y-117074500D01*
X138543979Y-117115990D01*
X138552402Y-117130578D01*
X138554660Y-117134489D01*
X138583539Y-117184509D01*
X138583541Y-117184512D01*
X139763181Y-118364152D01*
X139796666Y-118425475D01*
X139799500Y-118451833D01*
X139799500Y-119593752D01*
X139811131Y-119652229D01*
X139811132Y-119652230D01*
X139846465Y-119705109D01*
X139867343Y-119771786D01*
X139848859Y-119839166D01*
X139846465Y-119842891D01*
X139811132Y-119895769D01*
X139811131Y-119895770D01*
X139799500Y-119954247D01*
X139799500Y-121593752D01*
X139811131Y-121652229D01*
X139811132Y-121652230D01*
X139846465Y-121705109D01*
X139867343Y-121771786D01*
X139848859Y-121839166D01*
X139846465Y-121842891D01*
X139811132Y-121895769D01*
X139811131Y-121895770D01*
X139799500Y-121954247D01*
X139799500Y-123593752D01*
X139811131Y-123652229D01*
X139811132Y-123652230D01*
X139855447Y-123718552D01*
X139921769Y-123762867D01*
X139921770Y-123762868D01*
X139980247Y-123774499D01*
X139980250Y-123774500D01*
X139980252Y-123774500D01*
X144019750Y-123774500D01*
X144019751Y-123774499D01*
X144034568Y-123771552D01*
X144078229Y-123762868D01*
X144078229Y-123762867D01*
X144078231Y-123762867D01*
X144144552Y-123718552D01*
X144188867Y-123652231D01*
X144188867Y-123652229D01*
X144188868Y-123652229D01*
X144200499Y-123593752D01*
X144200500Y-123593750D01*
X144200500Y-121954249D01*
X144200499Y-121954247D01*
X144188868Y-121895770D01*
X144188867Y-121895768D01*
X144153535Y-121842892D01*
X144132656Y-121776215D01*
X144151140Y-121708835D01*
X144153535Y-121705108D01*
X144188867Y-121652231D01*
X144188868Y-121652229D01*
X144200499Y-121593752D01*
X144200500Y-121593750D01*
X144200500Y-120451833D01*
X144220185Y-120384794D01*
X144236819Y-120364152D01*
X144948742Y-119652229D01*
X145736684Y-118864286D01*
X145798005Y-118830803D01*
X145867697Y-118835787D01*
X145923630Y-118877659D01*
X145931750Y-118889968D01*
X145933608Y-118893186D01*
X145999500Y-119007314D01*
X146092686Y-119100500D01*
X146206814Y-119166392D01*
X146334108Y-119200500D01*
X146334110Y-119200500D01*
X146465890Y-119200500D01*
X146465892Y-119200500D01*
X146593186Y-119166392D01*
X146707314Y-119100500D01*
X146800500Y-119007314D01*
X146866392Y-118893186D01*
X146900500Y-118765892D01*
X146900500Y-118634108D01*
X146866392Y-118506814D01*
X146866389Y-118506808D01*
X146855520Y-118487982D01*
X146855519Y-118487981D01*
X146824415Y-118434108D01*
X148499500Y-118434108D01*
X148499500Y-118565891D01*
X148533608Y-118693187D01*
X148538391Y-118701471D01*
X148599500Y-118807314D01*
X148692686Y-118900500D01*
X148806814Y-118966392D01*
X148934108Y-119000500D01*
X148934110Y-119000500D01*
X149065890Y-119000500D01*
X149065892Y-119000500D01*
X149193186Y-118966392D01*
X149307314Y-118900500D01*
X149400500Y-118807314D01*
X149466392Y-118693186D01*
X149500500Y-118565892D01*
X149500500Y-118434108D01*
X149466392Y-118306814D01*
X149400500Y-118192686D01*
X149307314Y-118099500D01*
X149250250Y-118066554D01*
X149193187Y-118033608D01*
X149129539Y-118016554D01*
X149065892Y-117999500D01*
X148934108Y-117999500D01*
X148806812Y-118033608D01*
X148692686Y-118099500D01*
X148692683Y-118099502D01*
X148599502Y-118192683D01*
X148599500Y-118192686D01*
X148533608Y-118306812D01*
X148499500Y-118434108D01*
X146824415Y-118434108D01*
X146800500Y-118392686D01*
X146707314Y-118299500D01*
X146593186Y-118233608D01*
X146589968Y-118231750D01*
X146541753Y-118181183D01*
X146528531Y-118112575D01*
X146554499Y-118047711D01*
X146564280Y-118036690D01*
X148716460Y-115884511D01*
X148756022Y-115815988D01*
X148776500Y-115739562D01*
X148776500Y-115660438D01*
X148776500Y-112105833D01*
X148796185Y-112038794D01*
X148812819Y-112018152D01*
X149493785Y-111337186D01*
X150240460Y-110590511D01*
X150280021Y-110521989D01*
X150300500Y-110445562D01*
X150300500Y-110445548D01*
X150301084Y-110441119D01*
X150329349Y-110377221D01*
X150387672Y-110338748D01*
X150457536Y-110337914D01*
X150511705Y-110369619D01*
X155100597Y-114958511D01*
X155156546Y-115014460D01*
X155156548Y-115014461D01*
X155156552Y-115014464D01*
X155225061Y-115054017D01*
X155225068Y-115054021D01*
X155301495Y-115074500D01*
X155675500Y-115074500D01*
X155742539Y-115094185D01*
X155788294Y-115146989D01*
X155799500Y-115198500D01*
X155799500Y-115593752D01*
X155811131Y-115652229D01*
X155811132Y-115652230D01*
X155846465Y-115705109D01*
X155867343Y-115771786D01*
X155848859Y-115839166D01*
X155846465Y-115842891D01*
X155811132Y-115895769D01*
X155811131Y-115895770D01*
X155799500Y-115954247D01*
X155799500Y-117593752D01*
X155811131Y-117652229D01*
X155811132Y-117652230D01*
X155846465Y-117705109D01*
X155867343Y-117771786D01*
X155848859Y-117839166D01*
X155846465Y-117842891D01*
X155811132Y-117895769D01*
X155811131Y-117895770D01*
X155799500Y-117954247D01*
X155799500Y-119593752D01*
X155811131Y-119652229D01*
X155811132Y-119652230D01*
X155846465Y-119705109D01*
X155867343Y-119771786D01*
X155848859Y-119839166D01*
X155846465Y-119842891D01*
X155811132Y-119895769D01*
X155811131Y-119895770D01*
X155799500Y-119954247D01*
X155799500Y-121400000D01*
X153900000Y-121400000D01*
X153900000Y-126300000D01*
X162900000Y-126300000D01*
X162900000Y-121400000D01*
X160200500Y-121400000D01*
X160200500Y-119954249D01*
X160200499Y-119954247D01*
X160188868Y-119895770D01*
X160188867Y-119895768D01*
X160153535Y-119842892D01*
X160132656Y-119776215D01*
X160151140Y-119708835D01*
X160153535Y-119705108D01*
X160188867Y-119652231D01*
X160188868Y-119652229D01*
X160200499Y-119593752D01*
X160200500Y-119593750D01*
X160200500Y-117954249D01*
X160200499Y-117954247D01*
X160188868Y-117895770D01*
X160188867Y-117895768D01*
X160153535Y-117842892D01*
X160132656Y-117776215D01*
X160151140Y-117708835D01*
X160153535Y-117705108D01*
X160188867Y-117652231D01*
X160188868Y-117652229D01*
X160200499Y-117593752D01*
X160200500Y-117593750D01*
X160200500Y-117529975D01*
X160220185Y-117462936D01*
X160272989Y-117417181D01*
X160342147Y-117407237D01*
X160405703Y-117436262D01*
X160424270Y-117456342D01*
X160463288Y-117509210D01*
X160463289Y-117509211D01*
X160569523Y-117587615D01*
X160569524Y-117587615D01*
X160569525Y-117587616D01*
X160694151Y-117631225D01*
X160694150Y-117631225D01*
X160723740Y-117634000D01*
X160723744Y-117634000D01*
X161304260Y-117634000D01*
X161333849Y-117631225D01*
X161458475Y-117587616D01*
X161564711Y-117509211D01*
X161643116Y-117402975D01*
X161643115Y-117402975D01*
X161647624Y-117396867D01*
X161651603Y-117393845D01*
X161653681Y-117389297D01*
X161679159Y-117372923D01*
X161703271Y-117354616D01*
X161709400Y-117353488D01*
X161712459Y-117351523D01*
X161747394Y-117346500D01*
X161769324Y-117346500D01*
X161836363Y-117366185D01*
X161857005Y-117382819D01*
X161884686Y-117410500D01*
X161998814Y-117476392D01*
X162126108Y-117510500D01*
X162126110Y-117510500D01*
X162257890Y-117510500D01*
X162257892Y-117510500D01*
X162385186Y-117476392D01*
X162499314Y-117410500D01*
X162592500Y-117317314D01*
X162658392Y-117203186D01*
X162692500Y-117075892D01*
X162692500Y-116944108D01*
X162658392Y-116816814D01*
X162592500Y-116702686D01*
X162499314Y-116609500D01*
X162433421Y-116571456D01*
X162385185Y-116543607D01*
X162385182Y-116543606D01*
X162370069Y-116539556D01*
X162347565Y-116531113D01*
X162343790Y-116529261D01*
X162251887Y-116476201D01*
X162227673Y-116469713D01*
X162216007Y-116466587D01*
X162216005Y-116466586D01*
X162142407Y-116446866D01*
X162082746Y-116410501D01*
X162052217Y-116347654D01*
X162050500Y-116327091D01*
X162050500Y-116045802D01*
X162070185Y-115978763D01*
X162122989Y-115933008D01*
X162152519Y-115925122D01*
X162152330Y-115924256D01*
X162159701Y-115922646D01*
X162236512Y-115895768D01*
X162287882Y-115877793D01*
X162397150Y-115797150D01*
X162477793Y-115687882D01*
X162504398Y-115611848D01*
X162522646Y-115559701D01*
X162522646Y-115559699D01*
X162525500Y-115529269D01*
X162525500Y-114745730D01*
X162522646Y-114715300D01*
X162522646Y-114715298D01*
X162477793Y-114587119D01*
X162477792Y-114587117D01*
X162397150Y-114477850D01*
X162287882Y-114397207D01*
X162287880Y-114397206D01*
X162159700Y-114352353D01*
X162129270Y-114349500D01*
X162129266Y-114349500D01*
X161070734Y-114349500D01*
X161070730Y-114349500D01*
X161040300Y-114352353D01*
X161040298Y-114352353D01*
X160912119Y-114397206D01*
X160912117Y-114397207D01*
X160802850Y-114477850D01*
X160722207Y-114587117D01*
X160722206Y-114587119D01*
X160677353Y-114715298D01*
X160677353Y-114715300D01*
X160674500Y-114745730D01*
X160674500Y-115529269D01*
X160677353Y-115559699D01*
X160677353Y-115559701D01*
X160722206Y-115687880D01*
X160722207Y-115687882D01*
X160802850Y-115797150D01*
X160912118Y-115877793D01*
X160931317Y-115884511D01*
X161024046Y-115916959D01*
X161080822Y-115957681D01*
X161106569Y-116022634D01*
X161093112Y-116091195D01*
X161044725Y-116141598D01*
X160983091Y-116158000D01*
X160723740Y-116158000D01*
X160694150Y-116160774D01*
X160569523Y-116204384D01*
X160463289Y-116282788D01*
X160458897Y-116287181D01*
X160431969Y-116301884D01*
X160406151Y-116318477D01*
X160399950Y-116319368D01*
X160397574Y-116320666D01*
X160371216Y-116323500D01*
X160324500Y-116323500D01*
X160257461Y-116303815D01*
X160211706Y-116251011D01*
X160200500Y-116199500D01*
X160200500Y-115954249D01*
X160200499Y-115954247D01*
X160188868Y-115895770D01*
X160188867Y-115895768D01*
X160153535Y-115842892D01*
X160132656Y-115776215D01*
X160151140Y-115708835D01*
X160153535Y-115705108D01*
X160188867Y-115652231D01*
X160188868Y-115652229D01*
X160200499Y-115593752D01*
X160200500Y-115593750D01*
X160200500Y-113954249D01*
X160200499Y-113954247D01*
X160188868Y-113895770D01*
X160188867Y-113895768D01*
X160153535Y-113842892D01*
X160132656Y-113776215D01*
X160151140Y-113708835D01*
X160153535Y-113705108D01*
X160188867Y-113652231D01*
X160188868Y-113652229D01*
X160200499Y-113593752D01*
X160200500Y-113593750D01*
X160200500Y-111954249D01*
X160200499Y-111954247D01*
X160188868Y-111895770D01*
X160188867Y-111895768D01*
X160153535Y-111842892D01*
X160132656Y-111776215D01*
X160151140Y-111708835D01*
X160153535Y-111705108D01*
X160163938Y-111689540D01*
X160188867Y-111652231D01*
X160188867Y-111652230D01*
X160188868Y-111652229D01*
X160200499Y-111593752D01*
X160200500Y-111593750D01*
X160200500Y-109954249D01*
X160200499Y-109954247D01*
X160188868Y-109895770D01*
X160188867Y-109895769D01*
X160144552Y-109829447D01*
X160078230Y-109785132D01*
X160078229Y-109785131D01*
X160019752Y-109773500D01*
X160019748Y-109773500D01*
X155980252Y-109773500D01*
X155980247Y-109773500D01*
X155921770Y-109785131D01*
X155921769Y-109785132D01*
X155855447Y-109829447D01*
X155811132Y-109895769D01*
X155811131Y-109895770D01*
X155799500Y-109954247D01*
X155799500Y-111593752D01*
X155811131Y-111652229D01*
X155811132Y-111652230D01*
X155846465Y-111705109D01*
X155867343Y-111771786D01*
X155848859Y-111839166D01*
X155846465Y-111842891D01*
X155811132Y-111895769D01*
X155811131Y-111895770D01*
X155799500Y-111954247D01*
X155799500Y-113593752D01*
X155811131Y-113652229D01*
X155811132Y-113652230D01*
X155846465Y-113705109D01*
X155867343Y-113771786D01*
X155848859Y-113839166D01*
X155846465Y-113842891D01*
X155811132Y-113895769D01*
X155811131Y-113895770D01*
X155799500Y-113954247D01*
X155799500Y-114349500D01*
X155796949Y-114358185D01*
X155798238Y-114367147D01*
X155787259Y-114391187D01*
X155779815Y-114416539D01*
X155772974Y-114422466D01*
X155769213Y-114430703D01*
X155746978Y-114444992D01*
X155727011Y-114462294D01*
X155716496Y-114464581D01*
X155710435Y-114468477D01*
X155675500Y-114473500D01*
X155516890Y-114473500D01*
X155449851Y-114453815D01*
X155429209Y-114437181D01*
X152772238Y-111780210D01*
X152738753Y-111718887D01*
X152743737Y-111649195D01*
X152785609Y-111593262D01*
X152797920Y-111585142D01*
X152868314Y-111544500D01*
X152961500Y-111451314D01*
X153027392Y-111337186D01*
X153061500Y-111209892D01*
X153061500Y-111078108D01*
X153027392Y-110950814D01*
X152961500Y-110836686D01*
X152868314Y-110743500D01*
X152809499Y-110709543D01*
X152761284Y-110658975D01*
X152747500Y-110602156D01*
X152747500Y-109824890D01*
X152767185Y-109757851D01*
X152783819Y-109737209D01*
X152821557Y-109699471D01*
X153034460Y-109486568D01*
X153050094Y-109459489D01*
X153074021Y-109418046D01*
X153094500Y-109341619D01*
X153094500Y-109158676D01*
X153114185Y-109091637D01*
X153130819Y-109070995D01*
X153147045Y-109054769D01*
X153194500Y-109007314D01*
X153260392Y-108893186D01*
X153294500Y-108765892D01*
X153294500Y-108634108D01*
X153260392Y-108506814D01*
X153194500Y-108392686D01*
X153101314Y-108299500D01*
X153044250Y-108266554D01*
X152987187Y-108233608D01*
X152923539Y-108216554D01*
X152859892Y-108199500D01*
X152728108Y-108199500D01*
X152600812Y-108233608D01*
X152486686Y-108299500D01*
X152486683Y-108299502D01*
X152393502Y-108392683D01*
X152393500Y-108392686D01*
X152327608Y-108506812D01*
X152293500Y-108634108D01*
X152293500Y-108765891D01*
X152327608Y-108893187D01*
X152351930Y-108935313D01*
X152393500Y-109007314D01*
X152393502Y-109007316D01*
X152440955Y-109054769D01*
X152474440Y-109116092D01*
X152469456Y-109185784D01*
X152440955Y-109230131D01*
X152206541Y-109464544D01*
X152206535Y-109464552D01*
X152166982Y-109533061D01*
X152166979Y-109533066D01*
X152146500Y-109609496D01*
X152146500Y-110827708D01*
X152142349Y-110843197D01*
X152143004Y-110856944D01*
X152129886Y-110889709D01*
X152119856Y-110907081D01*
X152069289Y-110955296D01*
X152000682Y-110968518D01*
X151935817Y-110942550D01*
X151924789Y-110932761D01*
X150836819Y-109844791D01*
X150803334Y-109783468D01*
X150800500Y-109757110D01*
X150800500Y-104561999D01*
X150820185Y-104494960D01*
X150872989Y-104449205D01*
X150924496Y-104437999D01*
X151102132Y-104437999D01*
X151182495Y-104422015D01*
X151182498Y-104422012D01*
X151193778Y-104417341D01*
X151194376Y-104418786D01*
X151247782Y-104402063D01*
X151305943Y-104418016D01*
X151306223Y-104417342D01*
X151311590Y-104419565D01*
X151315162Y-104420545D01*
X151317351Y-104421951D01*
X151317506Y-104422016D01*
X151370957Y-104432647D01*
X151397867Y-104438000D01*
X151602132Y-104437999D01*
X151682495Y-104422015D01*
X151682498Y-104422012D01*
X151693778Y-104417341D01*
X151694376Y-104418786D01*
X151747782Y-104402063D01*
X151805943Y-104418016D01*
X151806223Y-104417342D01*
X151811590Y-104419565D01*
X151815162Y-104420545D01*
X151817351Y-104421951D01*
X151817506Y-104422016D01*
X151870957Y-104432647D01*
X151897867Y-104438000D01*
X152102132Y-104437999D01*
X152182495Y-104422015D01*
X152273624Y-104361124D01*
X152334515Y-104269995D01*
X152350500Y-104189633D01*
X152350499Y-102810368D01*
X152334515Y-102730005D01*
X152310049Y-102693390D01*
X152289172Y-102626713D01*
X152307657Y-102559333D01*
X152359636Y-102512643D01*
X152391922Y-102502331D01*
X152402458Y-102500500D01*
X152465892Y-102500500D01*
X152582953Y-102469133D01*
X152588436Y-102468181D01*
X152617836Y-102471533D01*
X152647423Y-102472238D01*
X152652166Y-102475448D01*
X152657855Y-102476097D01*
X152680776Y-102494812D01*
X152705285Y-102511401D01*
X152707539Y-102516665D01*
X152711975Y-102520287D01*
X152721139Y-102548425D01*
X152732789Y-102575629D01*
X152731839Y-102581276D01*
X152733613Y-102586722D01*
X152726108Y-102615351D01*
X152721202Y-102644531D01*
X152716152Y-102653336D01*
X152715898Y-102654309D01*
X152715258Y-102654896D01*
X152712768Y-102659240D01*
X152665486Y-102730002D01*
X152665483Y-102730009D01*
X152649500Y-102810362D01*
X152649500Y-104189629D01*
X152665485Y-104269995D01*
X152678602Y-104289625D01*
X152699480Y-104356302D01*
X152699500Y-104358516D01*
X152699500Y-104950947D01*
X152679815Y-105017986D01*
X152675273Y-105024576D01*
X152670888Y-105030517D01*
X152670883Y-105030526D01*
X152627274Y-105155150D01*
X152624500Y-105184739D01*
X152624500Y-105890260D01*
X152627274Y-105919849D01*
X152670884Y-106044476D01*
X152749288Y-106150710D01*
X152749289Y-106150711D01*
X152855523Y-106229115D01*
X152855524Y-106229115D01*
X152855525Y-106229116D01*
X152980151Y-106272725D01*
X152980150Y-106272725D01*
X153009740Y-106275500D01*
X153009744Y-106275500D01*
X153349535Y-106275500D01*
X153416574Y-106295185D01*
X153437216Y-106311819D01*
X154385886Y-107260489D01*
X154488613Y-107319799D01*
X154512821Y-107326284D01*
X154512824Y-107326286D01*
X154512825Y-107326286D01*
X154542017Y-107334108D01*
X154603191Y-107350500D01*
X154603193Y-107350500D01*
X160879994Y-107350500D01*
X160879995Y-107350500D01*
X160970359Y-107326286D01*
X160994573Y-107319799D01*
X161097300Y-107260489D01*
X161794234Y-106563555D01*
X161855557Y-106530070D01*
X161881915Y-106527236D01*
X162209210Y-106527236D01*
X162238799Y-106524461D01*
X162363425Y-106480852D01*
X162469661Y-106402447D01*
X162548066Y-106296211D01*
X162591675Y-106171585D01*
X162593313Y-106154115D01*
X162594450Y-106141996D01*
X162594450Y-105561475D01*
X162591675Y-105531886D01*
X162555643Y-105428916D01*
X162548066Y-105407261D01*
X162469661Y-105301025D01*
X162415274Y-105260886D01*
X162369816Y-105227336D01*
X162366793Y-105223355D01*
X162362247Y-105221279D01*
X162345876Y-105195805D01*
X162327565Y-105171688D01*
X162326437Y-105165557D01*
X162324473Y-105162501D01*
X162319450Y-105127566D01*
X162319450Y-104935210D01*
X162339135Y-104868171D01*
X162371945Y-104838078D01*
X162369947Y-104835371D01*
X162392424Y-104818782D01*
X162483661Y-104751447D01*
X162562066Y-104645211D01*
X162605675Y-104520585D01*
X162606966Y-104506815D01*
X162608450Y-104490996D01*
X162608450Y-103910475D01*
X162605675Y-103880886D01*
X162562065Y-103756259D01*
X162483661Y-103650025D01*
X162483660Y-103650024D01*
X162377426Y-103571620D01*
X162314648Y-103549653D01*
X162257873Y-103508931D01*
X162248220Y-103494617D01*
X162243439Y-103486336D01*
X160286819Y-101529716D01*
X160253334Y-101468393D01*
X160250500Y-101442035D01*
X160250500Y-100210249D01*
X160250499Y-100210247D01*
X160238868Y-100151770D01*
X160238867Y-100151769D01*
X160194552Y-100085447D01*
X160128230Y-100041132D01*
X160128229Y-100041131D01*
X160069752Y-100029500D01*
X160069748Y-100029500D01*
X158330252Y-100029500D01*
X158330247Y-100029500D01*
X158271770Y-100041131D01*
X158271769Y-100041132D01*
X158205447Y-100085447D01*
X158161132Y-100151769D01*
X158161131Y-100151770D01*
X158149500Y-100210247D01*
X158149500Y-101949752D01*
X158161131Y-102008229D01*
X158161132Y-102008230D01*
X158205447Y-102074552D01*
X158271769Y-102118867D01*
X158271770Y-102118868D01*
X158330247Y-102130499D01*
X158330250Y-102130500D01*
X158330252Y-102130500D01*
X159562035Y-102130500D01*
X159629074Y-102150185D01*
X159649716Y-102166819D01*
X161157896Y-103674999D01*
X161191381Y-103736322D01*
X161187256Y-103803635D01*
X161160225Y-103880884D01*
X161160224Y-103880886D01*
X161157450Y-103910475D01*
X161157450Y-104490996D01*
X161160224Y-104520585D01*
X161203834Y-104645212D01*
X161203835Y-104645213D01*
X161282239Y-104751447D01*
X161368085Y-104814803D01*
X161371105Y-104818782D01*
X161375653Y-104820859D01*
X161392025Y-104846334D01*
X161410334Y-104870449D01*
X161411461Y-104876578D01*
X161413427Y-104879637D01*
X161418450Y-104914572D01*
X161418450Y-105127566D01*
X161398765Y-105194605D01*
X161368084Y-105227336D01*
X161268237Y-105301026D01*
X161189834Y-105407259D01*
X161146224Y-105531886D01*
X161143450Y-105561475D01*
X161143450Y-105888770D01*
X161134805Y-105918210D01*
X161128282Y-105948197D01*
X161124527Y-105953212D01*
X161123765Y-105955809D01*
X161107131Y-105976451D01*
X161056131Y-106027451D01*
X160994808Y-106060936D01*
X160925116Y-106055952D01*
X160869183Y-106014080D01*
X160844766Y-105948616D01*
X160844450Y-105939770D01*
X160844450Y-105561475D01*
X160841675Y-105531886D01*
X160805643Y-105428916D01*
X160798066Y-105407261D01*
X160719661Y-105301025D01*
X160697288Y-105284513D01*
X160613426Y-105222620D01*
X160488798Y-105179010D01*
X160488799Y-105179010D01*
X160459210Y-105176236D01*
X160459206Y-105176236D01*
X159778694Y-105176236D01*
X159778690Y-105176236D01*
X159749100Y-105179010D01*
X159624473Y-105222620D01*
X159518239Y-105301024D01*
X159518238Y-105301025D01*
X159439834Y-105407259D01*
X159439833Y-105407261D01*
X159439490Y-105408243D01*
X159438824Y-105409171D01*
X159435492Y-105415476D01*
X159434629Y-105415019D01*
X159398767Y-105465018D01*
X159333813Y-105490763D01*
X159265252Y-105477305D01*
X159214851Y-105428916D01*
X159205410Y-105408243D01*
X159205066Y-105407261D01*
X159205065Y-105407259D01*
X159126661Y-105301025D01*
X159126660Y-105301024D01*
X159020426Y-105222620D01*
X158895798Y-105179010D01*
X158895799Y-105179010D01*
X158866210Y-105176236D01*
X158866206Y-105176236D01*
X158260694Y-105176236D01*
X158260690Y-105176236D01*
X158231100Y-105179010D01*
X158106473Y-105222620D01*
X158000239Y-105301024D01*
X158000238Y-105301025D01*
X157921834Y-105407259D01*
X157878224Y-105531886D01*
X157875450Y-105561475D01*
X157875450Y-106141996D01*
X157878224Y-106171584D01*
X157893807Y-106216115D01*
X157917752Y-106284545D01*
X157921315Y-106354323D01*
X157886586Y-106414951D01*
X157824593Y-106447178D01*
X157800711Y-106449500D01*
X157501189Y-106449500D01*
X157434150Y-106429815D01*
X157388395Y-106377011D01*
X157378451Y-106307853D01*
X157384146Y-106284548D01*
X157423675Y-106171585D01*
X157425313Y-106154115D01*
X157426450Y-106141996D01*
X157426450Y-105561475D01*
X157423675Y-105531886D01*
X157387643Y-105428916D01*
X157380066Y-105407261D01*
X157301661Y-105301025D01*
X157279288Y-105284513D01*
X157195426Y-105222620D01*
X157070798Y-105179010D01*
X157070799Y-105179010D01*
X157041210Y-105176236D01*
X157041206Y-105176236D01*
X156435694Y-105176236D01*
X156435690Y-105176236D01*
X156406101Y-105179010D01*
X156329914Y-105205669D01*
X156313347Y-105206514D01*
X156297806Y-105212311D01*
X156279176Y-105208258D01*
X156260135Y-105209230D01*
X156245174Y-105200861D01*
X156229533Y-105197459D01*
X156201279Y-105176308D01*
X156036819Y-105011848D01*
X156003334Y-104950525D01*
X156000500Y-104924167D01*
X156000500Y-104868113D01*
X156020185Y-104801074D01*
X156072989Y-104755319D01*
X156142147Y-104745375D01*
X156198130Y-104768341D01*
X156281475Y-104829852D01*
X156406101Y-104873461D01*
X156406100Y-104873461D01*
X156435690Y-104876236D01*
X156435694Y-104876236D01*
X157041210Y-104876236D01*
X157070799Y-104873461D01*
X157085917Y-104868171D01*
X157195425Y-104829852D01*
X157301661Y-104751447D01*
X157380066Y-104645211D01*
X157423675Y-104520585D01*
X157424966Y-104506815D01*
X157426450Y-104490996D01*
X157426450Y-103910475D01*
X157875450Y-103910475D01*
X157875450Y-104490996D01*
X157878224Y-104520585D01*
X157921834Y-104645212D01*
X158000238Y-104751446D01*
X158000239Y-104751447D01*
X158106473Y-104829851D01*
X158106474Y-104829851D01*
X158106475Y-104829852D01*
X158231101Y-104873461D01*
X158231100Y-104873461D01*
X158260690Y-104876236D01*
X158260694Y-104876236D01*
X158866210Y-104876236D01*
X158895799Y-104873461D01*
X158910917Y-104868171D01*
X159020425Y-104829852D01*
X159126661Y-104751447D01*
X159205066Y-104645211D01*
X159212409Y-104624225D01*
X159253130Y-104567451D01*
X159318083Y-104541703D01*
X159386644Y-104555159D01*
X159437047Y-104603546D01*
X159446489Y-104624220D01*
X159449949Y-104634108D01*
X159453835Y-104645213D01*
X159532238Y-104751446D01*
X159532239Y-104751447D01*
X159638473Y-104829851D01*
X159638474Y-104829851D01*
X159638475Y-104829852D01*
X159763101Y-104873461D01*
X159763100Y-104873461D01*
X159792690Y-104876236D01*
X159792694Y-104876236D01*
X160473210Y-104876236D01*
X160502799Y-104873461D01*
X160517917Y-104868171D01*
X160627425Y-104829852D01*
X160733661Y-104751447D01*
X160812066Y-104645211D01*
X160855675Y-104520585D01*
X160856966Y-104506815D01*
X160858450Y-104490996D01*
X160858450Y-103910475D01*
X160855675Y-103880886D01*
X160812065Y-103756259D01*
X160733661Y-103650025D01*
X160733660Y-103650024D01*
X160627426Y-103571620D01*
X160502798Y-103528010D01*
X160502799Y-103528010D01*
X160473210Y-103525236D01*
X160473206Y-103525236D01*
X159792694Y-103525236D01*
X159792690Y-103525236D01*
X159763100Y-103528010D01*
X159638473Y-103571620D01*
X159532239Y-103650024D01*
X159532238Y-103650025D01*
X159453834Y-103756259D01*
X159446491Y-103777246D01*
X159405769Y-103834021D01*
X159340816Y-103859768D01*
X159272255Y-103846311D01*
X159221852Y-103797924D01*
X159212409Y-103777246D01*
X159205065Y-103756259D01*
X159126661Y-103650025D01*
X159126660Y-103650024D01*
X159020426Y-103571620D01*
X158895798Y-103528010D01*
X158895799Y-103528010D01*
X158866210Y-103525236D01*
X158866206Y-103525236D01*
X158260694Y-103525236D01*
X158260690Y-103525236D01*
X158231100Y-103528010D01*
X158106473Y-103571620D01*
X158000239Y-103650024D01*
X158000238Y-103650025D01*
X157921834Y-103756259D01*
X157878224Y-103880886D01*
X157875450Y-103910475D01*
X157426450Y-103910475D01*
X157423675Y-103880886D01*
X157380065Y-103756259D01*
X157301661Y-103650025D01*
X157301660Y-103650024D01*
X157195426Y-103571620D01*
X157070798Y-103528010D01*
X157070799Y-103528010D01*
X157041210Y-103525236D01*
X157041206Y-103525236D01*
X157024500Y-103525236D01*
X156957461Y-103505551D01*
X156911706Y-103452747D01*
X156900500Y-103401236D01*
X156900500Y-101860440D01*
X156900499Y-101860435D01*
X156892478Y-101830498D01*
X156880023Y-101784014D01*
X156880022Y-101784013D01*
X156880022Y-101784012D01*
X156840460Y-101715489D01*
X156097823Y-100972852D01*
X156064338Y-100911529D01*
X156069322Y-100841837D01*
X156097829Y-100797484D01*
X156100500Y-100794814D01*
X156166392Y-100680686D01*
X156200500Y-100553392D01*
X156200500Y-100553383D01*
X156201561Y-100545332D01*
X156202853Y-100545502D01*
X156220185Y-100486479D01*
X156272989Y-100440724D01*
X156324500Y-100429518D01*
X156365890Y-100429518D01*
X156365892Y-100429518D01*
X156493186Y-100395410D01*
X156607314Y-100329518D01*
X156700500Y-100236332D01*
X156766392Y-100122204D01*
X156800500Y-99994910D01*
X156800500Y-99863126D01*
X156766392Y-99735832D01*
X156700500Y-99621704D01*
X156607314Y-99528518D01*
X156607313Y-99528517D01*
X156607310Y-99528515D01*
X156557338Y-99499664D01*
X156531657Y-99479958D01*
X155898739Y-98847040D01*
X155897651Y-98846412D01*
X155887411Y-98840500D01*
X155830217Y-98807479D01*
X155753790Y-98787000D01*
X155753788Y-98787000D01*
X155474500Y-98787000D01*
X155407461Y-98767315D01*
X155361706Y-98714511D01*
X155350500Y-98663001D01*
X155350499Y-98485370D01*
X155350499Y-98485368D01*
X155334515Y-98405005D01*
X155334513Y-98405002D01*
X155329841Y-98393722D01*
X155331285Y-98393123D01*
X155314563Y-98339711D01*
X155330517Y-98281556D01*
X155329842Y-98281277D01*
X155332070Y-98275896D01*
X155333049Y-98272331D01*
X155334452Y-98270147D01*
X155334516Y-98269993D01*
X155344088Y-98221865D01*
X155350500Y-98189633D01*
X155350499Y-97985368D01*
X155350499Y-97985367D01*
X155349902Y-97979307D01*
X155351581Y-97979141D01*
X155357090Y-97917597D01*
X155399954Y-97862421D01*
X155465844Y-97839178D01*
X155472479Y-97839000D01*
X158022667Y-97839000D01*
X158052107Y-97847644D01*
X158082094Y-97854168D01*
X158087109Y-97857922D01*
X158089706Y-97858685D01*
X158110348Y-97875319D01*
X158212924Y-97977895D01*
X158246409Y-98039218D01*
X158241425Y-98108910D01*
X158239804Y-98113029D01*
X158189870Y-98233579D01*
X158189868Y-98233587D01*
X158149500Y-98436530D01*
X158149500Y-98643469D01*
X158189868Y-98846412D01*
X158189870Y-98846420D01*
X158269058Y-99037596D01*
X158384024Y-99209657D01*
X158530342Y-99355975D01*
X158530345Y-99355977D01*
X158702402Y-99470941D01*
X158893580Y-99550130D01*
X159096530Y-99590499D01*
X159096534Y-99590500D01*
X159096535Y-99590500D01*
X159303466Y-99590500D01*
X159303467Y-99590499D01*
X159506420Y-99550130D01*
X159697598Y-99470941D01*
X159869655Y-99355977D01*
X160015977Y-99209655D01*
X160130941Y-99037598D01*
X160210130Y-98846420D01*
X160250500Y-98643465D01*
X160250500Y-98436535D01*
X160210130Y-98233580D01*
X160130941Y-98042402D01*
X160015977Y-97870345D01*
X160015975Y-97870342D01*
X159869657Y-97724024D01*
X159733840Y-97633275D01*
X159697598Y-97609059D01*
X159670899Y-97598000D01*
X159506420Y-97529870D01*
X159506412Y-97529868D01*
X159303469Y-97489500D01*
X159303465Y-97489500D01*
X159096535Y-97489500D01*
X159096530Y-97489500D01*
X158893587Y-97529868D01*
X158893579Y-97529870D01*
X158773029Y-97579804D01*
X158703559Y-97587273D01*
X158641080Y-97555998D01*
X158637895Y-97552924D01*
X158383012Y-97298041D01*
X158383004Y-97298035D01*
X158314495Y-97258482D01*
X158314490Y-97258479D01*
X158289013Y-97251652D01*
X158238062Y-97238000D01*
X158238060Y-97238000D01*
X156369176Y-97238000D01*
X156302137Y-97218315D01*
X156256382Y-97165511D01*
X156246438Y-97096353D01*
X156275463Y-97032797D01*
X156281495Y-97026319D01*
X156300500Y-97007314D01*
X156366392Y-96893186D01*
X156400500Y-96765892D01*
X156400500Y-96634108D01*
X156366392Y-96506814D01*
X156300500Y-96392686D01*
X156207314Y-96299500D01*
X156126748Y-96252985D01*
X156093187Y-96233608D01*
X156021914Y-96214511D01*
X155965892Y-96199500D01*
X155834108Y-96199500D01*
X155706812Y-96233608D01*
X155658632Y-96261425D01*
X155643110Y-96270387D01*
X155581111Y-96287000D01*
X155271017Y-96287000D01*
X155203978Y-96267315D01*
X155202127Y-96266103D01*
X155202124Y-96266101D01*
X155182495Y-96252985D01*
X155182492Y-96252984D01*
X155182492Y-96252983D01*
X155102136Y-96237000D01*
X155102133Y-96237000D01*
X155024500Y-96237000D01*
X154957461Y-96217315D01*
X154911706Y-96164511D01*
X154900500Y-96113000D01*
X154900500Y-95492477D01*
X154920185Y-95425438D01*
X154972989Y-95379683D01*
X154983522Y-95375444D01*
X155044475Y-95354116D01*
X155150711Y-95275711D01*
X155229116Y-95169475D01*
X155272725Y-95044849D01*
X155275500Y-95015256D01*
X155275500Y-94309744D01*
X155274407Y-94298090D01*
X155272725Y-94280149D01*
X155271591Y-94274955D01*
X155276520Y-94205259D01*
X155318346Y-94149292D01*
X155383791Y-94124823D01*
X155392736Y-94124500D01*
X156848167Y-94124500D01*
X156915206Y-94144185D01*
X156935848Y-94160819D01*
X158212924Y-95437895D01*
X158246409Y-95499218D01*
X158241425Y-95568910D01*
X158239804Y-95573029D01*
X158189870Y-95693579D01*
X158189868Y-95693587D01*
X158149500Y-95896530D01*
X158149500Y-96103469D01*
X158189868Y-96306412D01*
X158189870Y-96306420D01*
X158269058Y-96497596D01*
X158384024Y-96669657D01*
X158530342Y-96815975D01*
X158530345Y-96815977D01*
X158702402Y-96930941D01*
X158893580Y-97010130D01*
X159096530Y-97050499D01*
X159096534Y-97050500D01*
X159096535Y-97050500D01*
X159303466Y-97050500D01*
X159303467Y-97050499D01*
X159506420Y-97010130D01*
X159697598Y-96930941D01*
X159869655Y-96815977D01*
X160015977Y-96669655D01*
X160130941Y-96497598D01*
X160210130Y-96306420D01*
X160250500Y-96103465D01*
X160250500Y-95896535D01*
X160210130Y-95693580D01*
X160130941Y-95502402D01*
X160015977Y-95330345D01*
X160015975Y-95330342D01*
X159869657Y-95184024D01*
X159713724Y-95079834D01*
X159697598Y-95069059D01*
X159639150Y-95044849D01*
X159506420Y-94989870D01*
X159506412Y-94989868D01*
X159303469Y-94949500D01*
X159303465Y-94949500D01*
X159096535Y-94949500D01*
X159096530Y-94949500D01*
X158893587Y-94989868D01*
X158893575Y-94989871D01*
X158773028Y-95039803D01*
X158703559Y-95047272D01*
X158641080Y-95015996D01*
X158637895Y-95012923D01*
X157208512Y-93583540D01*
X157201547Y-93579518D01*
X157201547Y-93579519D01*
X157139989Y-93543979D01*
X157139990Y-93543979D01*
X157114513Y-93537152D01*
X157063562Y-93523500D01*
X153573939Y-93523500D01*
X153522987Y-93537152D01*
X153497511Y-93543979D01*
X153435954Y-93579519D01*
X153435953Y-93579518D01*
X153428988Y-93583540D01*
X153428987Y-93583541D01*
X152815489Y-94197041D01*
X152815487Y-94197043D01*
X152793626Y-94218903D01*
X152732302Y-94252387D01*
X152681756Y-94252838D01*
X152602133Y-94237000D01*
X152602130Y-94237000D01*
X152397870Y-94237000D01*
X152349667Y-94246588D01*
X152317505Y-94252985D01*
X152317504Y-94252985D01*
X152317501Y-94252986D01*
X152306220Y-94257659D01*
X152305621Y-94256214D01*
X152252204Y-94272936D01*
X152194061Y-94256981D01*
X152193781Y-94257659D01*
X152188383Y-94255423D01*
X152184825Y-94254447D01*
X152182648Y-94253047D01*
X152182494Y-94252984D01*
X152102135Y-94237000D01*
X151897868Y-94237000D01*
X151897866Y-94237001D01*
X151849663Y-94246588D01*
X151780071Y-94240358D01*
X151737794Y-94212651D01*
X151070308Y-93545165D01*
X151036823Y-93483842D01*
X151033989Y-93457484D01*
X151033989Y-93367427D01*
X151033989Y-93367425D01*
X150999881Y-93240131D01*
X150933989Y-93126003D01*
X150840803Y-93032817D01*
X150776977Y-92995967D01*
X150726676Y-92966925D01*
X150663028Y-92949871D01*
X150599381Y-92932817D01*
X150467597Y-92932817D01*
X150340303Y-92966925D01*
X150340302Y-92966925D01*
X150340300Y-92966926D01*
X150340299Y-92966926D01*
X150290000Y-92995967D01*
X150222100Y-93012440D01*
X150156073Y-92989588D01*
X150112882Y-92934666D01*
X150104000Y-92888580D01*
X150104000Y-92839739D01*
X150101225Y-92810150D01*
X150057615Y-92685523D01*
X149979211Y-92579289D01*
X149979210Y-92579288D01*
X149872976Y-92500884D01*
X149748348Y-92457274D01*
X149748349Y-92457274D01*
X149718760Y-92454500D01*
X149718756Y-92454500D01*
X149138244Y-92454500D01*
X149138240Y-92454500D01*
X149108650Y-92457274D01*
X148984023Y-92500884D01*
X148877789Y-92579288D01*
X148877788Y-92579289D01*
X148799384Y-92685523D01*
X148755774Y-92810150D01*
X148753000Y-92839739D01*
X148753000Y-93445260D01*
X148755774Y-93474849D01*
X148799384Y-93599476D01*
X148877788Y-93705710D01*
X148877789Y-93705711D01*
X148984023Y-93784115D01*
X148984024Y-93784115D01*
X148984025Y-93784116D01*
X149031817Y-93800839D01*
X149115774Y-93830218D01*
X149114706Y-93833268D01*
X149128755Y-93840930D01*
X149156703Y-93853694D01*
X149159155Y-93857510D01*
X149163137Y-93859682D01*
X149177869Y-93886629D01*
X149194477Y-93912472D01*
X149195361Y-93918626D01*
X149196653Y-93920988D01*
X149199500Y-93947407D01*
X149199500Y-94113000D01*
X149179815Y-94180039D01*
X149127011Y-94225794D01*
X149075501Y-94237000D01*
X148897870Y-94237000D01*
X148849667Y-94246588D01*
X148817505Y-94252985D01*
X148817504Y-94252985D01*
X148817501Y-94252986D01*
X148806220Y-94257659D01*
X148805621Y-94256214D01*
X148752204Y-94272936D01*
X148694061Y-94256981D01*
X148693781Y-94257659D01*
X148688383Y-94255423D01*
X148684825Y-94254447D01*
X148682648Y-94253047D01*
X148682494Y-94252984D01*
X148602135Y-94237000D01*
X148397870Y-94237000D01*
X148317504Y-94252985D01*
X148226375Y-94313875D01*
X148165485Y-94405005D01*
X148165483Y-94405009D01*
X148149500Y-94485362D01*
X148149500Y-95864629D01*
X148165485Y-95944995D01*
X148178602Y-95964625D01*
X148199480Y-96031302D01*
X148199500Y-96033516D01*
X148199500Y-99169562D01*
X148204879Y-99189636D01*
X148219980Y-99245993D01*
X148219981Y-99245994D01*
X148246818Y-99292476D01*
X148246819Y-99292478D01*
X148259537Y-99314507D01*
X148259541Y-99314512D01*
X150733181Y-101788152D01*
X150766666Y-101849475D01*
X150769500Y-101875833D01*
X150769500Y-101965892D01*
X150780844Y-102008229D01*
X150803608Y-102093187D01*
X150825151Y-102130499D01*
X150869500Y-102207314D01*
X150962686Y-102300500D01*
X150996177Y-102319836D01*
X151014843Y-102330613D01*
X151063059Y-102381180D01*
X151076281Y-102449787D01*
X151050313Y-102514652D01*
X150993399Y-102555180D01*
X150974486Y-102560097D01*
X150963746Y-102562000D01*
X150897868Y-102562001D01*
X150817505Y-102577985D01*
X150797260Y-102591512D01*
X150771643Y-102596053D01*
X150761724Y-102594955D01*
X150752204Y-102597936D01*
X150727578Y-102591178D01*
X150702197Y-102588371D01*
X150694448Y-102582087D01*
X150694061Y-102581981D01*
X150693781Y-102582659D01*
X150688383Y-102580423D01*
X150684825Y-102579447D01*
X150682648Y-102578047D01*
X150682494Y-102577984D01*
X150602135Y-102562000D01*
X150397870Y-102562000D01*
X150337867Y-102573934D01*
X150317505Y-102577985D01*
X150317504Y-102577985D01*
X150317501Y-102577986D01*
X150306220Y-102582659D01*
X150305621Y-102581214D01*
X150252204Y-102597936D01*
X150194061Y-102581981D01*
X150193781Y-102582659D01*
X150188383Y-102580423D01*
X150184825Y-102579447D01*
X150182648Y-102578047D01*
X150182494Y-102577984D01*
X150102135Y-102562000D01*
X149897870Y-102562000D01*
X149837867Y-102573934D01*
X149817505Y-102577985D01*
X149817504Y-102577985D01*
X149817501Y-102577986D01*
X149806220Y-102582659D01*
X149805621Y-102581214D01*
X149752204Y-102597936D01*
X149694061Y-102581981D01*
X149693781Y-102582659D01*
X149688383Y-102580423D01*
X149684825Y-102579447D01*
X149682648Y-102578047D01*
X149682494Y-102577984D01*
X149602135Y-102562000D01*
X149397870Y-102562000D01*
X149337867Y-102573934D01*
X149317505Y-102577985D01*
X149317504Y-102577985D01*
X149317501Y-102577986D01*
X149306220Y-102582659D01*
X149305621Y-102581214D01*
X149252204Y-102597936D01*
X149194061Y-102581981D01*
X149193781Y-102582659D01*
X149188383Y-102580423D01*
X149184825Y-102579447D01*
X149182648Y-102578047D01*
X149182494Y-102577984D01*
X149102135Y-102562000D01*
X148897870Y-102562000D01*
X148837867Y-102573934D01*
X148817505Y-102577985D01*
X148817504Y-102577985D01*
X148817501Y-102577986D01*
X148806220Y-102582659D01*
X148805621Y-102581214D01*
X148752204Y-102597936D01*
X148694061Y-102581981D01*
X148693781Y-102582659D01*
X148688383Y-102580423D01*
X148684825Y-102579447D01*
X148682648Y-102578047D01*
X148682494Y-102577984D01*
X148602135Y-102562000D01*
X148397870Y-102562000D01*
X148337867Y-102573934D01*
X148317505Y-102577985D01*
X148317504Y-102577985D01*
X148317501Y-102577986D01*
X148306220Y-102582659D01*
X148305621Y-102581214D01*
X148252204Y-102597936D01*
X148194061Y-102581981D01*
X148193781Y-102582659D01*
X148188383Y-102580423D01*
X148184825Y-102579447D01*
X148182648Y-102578047D01*
X148182494Y-102577984D01*
X148102135Y-102562000D01*
X147897870Y-102562000D01*
X147837867Y-102573934D01*
X147817505Y-102577985D01*
X147817504Y-102577985D01*
X147817501Y-102577986D01*
X147806220Y-102582659D01*
X147805621Y-102581214D01*
X147752204Y-102597936D01*
X147694061Y-102581981D01*
X147693781Y-102582659D01*
X147688383Y-102580423D01*
X147684825Y-102579447D01*
X147682648Y-102578047D01*
X147682494Y-102577984D01*
X147602135Y-102562000D01*
X147397870Y-102562000D01*
X147317504Y-102577985D01*
X147226375Y-102638875D01*
X147165485Y-102730005D01*
X147165483Y-102730009D01*
X147149500Y-102810362D01*
X147149500Y-104189629D01*
X147165485Y-104269995D01*
X147226375Y-104361124D01*
X147262876Y-104385513D01*
X147317505Y-104422015D01*
X147317508Y-104422015D01*
X147317509Y-104422016D01*
X147344533Y-104427391D01*
X147397867Y-104438000D01*
X147575499Y-104437999D01*
X147642539Y-104457683D01*
X147688294Y-104510487D01*
X147699500Y-104561999D01*
X147699500Y-105118167D01*
X147679815Y-105185206D01*
X147663181Y-105205848D01*
X145412181Y-107456848D01*
X145350858Y-107490333D01*
X145281166Y-107485349D01*
X145225233Y-107443477D01*
X145200816Y-107378013D01*
X145200500Y-107369167D01*
X145200500Y-107334110D01*
X145200500Y-107334108D01*
X145166392Y-107206814D01*
X145100500Y-107092686D01*
X145007314Y-106999500D01*
X144950250Y-106966554D01*
X144893187Y-106933608D01*
X144829539Y-106916554D01*
X144765892Y-106899500D01*
X144634108Y-106899500D01*
X144634106Y-106899500D01*
X144547490Y-106922708D01*
X144535490Y-106922422D01*
X144524244Y-106926617D01*
X144501209Y-106921606D01*
X144477640Y-106921045D01*
X144465992Y-106913945D01*
X144455971Y-106911765D01*
X144427717Y-106890614D01*
X144252698Y-106715595D01*
X144219213Y-106654272D01*
X144216379Y-106627914D01*
X144216379Y-106335348D01*
X144216379Y-106335346D01*
X144185678Y-106220769D01*
X144182990Y-106216114D01*
X144166378Y-106154115D01*
X144166378Y-106124798D01*
X144166378Y-106124791D01*
X144166376Y-106124772D01*
X144163465Y-106099667D01*
X144163464Y-106099665D01*
X144163464Y-106099664D01*
X144118085Y-105996890D01*
X144038644Y-105917449D01*
X144016873Y-105907836D01*
X143935871Y-105872070D01*
X143910744Y-105869155D01*
X143621022Y-105869155D01*
X143620996Y-105869157D01*
X143595891Y-105872068D01*
X143595887Y-105872070D01*
X143493115Y-105917448D01*
X143485805Y-105922456D01*
X143419373Y-105944101D01*
X143415730Y-105944155D01*
X141632620Y-105944155D01*
X141565581Y-105924470D01*
X141544939Y-105907836D01*
X140198113Y-104561010D01*
X140170841Y-104513771D01*
X140169504Y-104514326D01*
X140166392Y-104506815D01*
X140166392Y-104506814D01*
X140100500Y-104392686D01*
X140007314Y-104299500D01*
X139950250Y-104266554D01*
X139893187Y-104233608D01*
X139829539Y-104216554D01*
X139765892Y-104199500D01*
X139634108Y-104199500D01*
X139506812Y-104233608D01*
X139392686Y-104299500D01*
X139392683Y-104299502D01*
X139299502Y-104392683D01*
X139299500Y-104392686D01*
X139233608Y-104506812D01*
X139207689Y-104603546D01*
X139199500Y-104634108D01*
X139199500Y-104765892D01*
X139209249Y-104802275D01*
X139233608Y-104893187D01*
X139266554Y-104950250D01*
X139299500Y-105007314D01*
X139392686Y-105100500D01*
X139506814Y-105166392D01*
X139506816Y-105166392D01*
X139514326Y-105169504D01*
X139513771Y-105170841D01*
X139561010Y-105198113D01*
X141118041Y-106755144D01*
X141220768Y-106814454D01*
X141244976Y-106820939D01*
X141244979Y-106820941D01*
X141244980Y-106820941D01*
X141275102Y-106829012D01*
X141335346Y-106845155D01*
X143198786Y-106845155D01*
X143225503Y-106853000D01*
X143252969Y-106857619D01*
X143258568Y-106862709D01*
X143265825Y-106864840D01*
X143284056Y-106885880D01*
X143304668Y-106904618D01*
X143308942Y-106914600D01*
X143311580Y-106917644D01*
X143318558Y-106937054D01*
X143318559Y-106937058D01*
X143324522Y-106959309D01*
X143346080Y-107039766D01*
X143405390Y-107142493D01*
X144023386Y-107760489D01*
X144126113Y-107819799D01*
X144150321Y-107826284D01*
X144150324Y-107826286D01*
X144150325Y-107826286D01*
X144180447Y-107834357D01*
X144240691Y-107850500D01*
X144446063Y-107850500D01*
X144473180Y-107853501D01*
X144491659Y-107857642D01*
X144506814Y-107866392D01*
X144634108Y-107900500D01*
X144682893Y-107900500D01*
X144696284Y-107903501D01*
X144715324Y-107914053D01*
X144736206Y-107920185D01*
X144745277Y-107930653D01*
X144757396Y-107937370D01*
X144767708Y-107956540D01*
X144781961Y-107972989D01*
X144783932Y-107986700D01*
X144790496Y-107998902D01*
X144788807Y-108020602D01*
X144791905Y-108042147D01*
X144786149Y-108054748D01*
X144785075Y-108068561D01*
X144771922Y-108085903D01*
X144762880Y-108105703D01*
X144756848Y-108112181D01*
X144470848Y-108398181D01*
X144409525Y-108431666D01*
X144383167Y-108434500D01*
X139693438Y-108434500D01*
X139655224Y-108444739D01*
X139617009Y-108454979D01*
X139617004Y-108454982D01*
X139548495Y-108494535D01*
X139548487Y-108494541D01*
X138583541Y-109459487D01*
X138583535Y-109459495D01*
X138543982Y-109528004D01*
X138543979Y-109528009D01*
X138530326Y-109578962D01*
X138523500Y-109604438D01*
X138200500Y-109604438D01*
X138200500Y-99134108D01*
X139599500Y-99134108D01*
X139599500Y-99265892D01*
X139603697Y-99281556D01*
X139633608Y-99393187D01*
X139655043Y-99430313D01*
X139699500Y-99507314D01*
X139792686Y-99600500D01*
X139906814Y-99666392D01*
X140034108Y-99700500D01*
X140034110Y-99700500D01*
X140165890Y-99700500D01*
X140165892Y-99700500D01*
X140293186Y-99666392D01*
X140407314Y-99600500D01*
X140500500Y-99507314D01*
X140566392Y-99393186D01*
X140566393Y-99393180D01*
X140569504Y-99385674D01*
X140570842Y-99386228D01*
X140598111Y-99338990D01*
X141267065Y-98670036D01*
X141328386Y-98636553D01*
X141398078Y-98641537D01*
X141428373Y-98657946D01*
X141444757Y-98670038D01*
X141455025Y-98677616D01*
X141579651Y-98721225D01*
X141579650Y-98721225D01*
X141609240Y-98724000D01*
X141609244Y-98724000D01*
X142111167Y-98724000D01*
X142178206Y-98743685D01*
X142198848Y-98760319D01*
X142538181Y-99099652D01*
X142571666Y-99160975D01*
X142574500Y-99187333D01*
X142574500Y-100297562D01*
X142583062Y-100329515D01*
X142594979Y-100373990D01*
X142594980Y-100373991D01*
X142604969Y-100391293D01*
X142631935Y-100437999D01*
X142633508Y-100440724D01*
X142634541Y-100442512D01*
X142939181Y-100747152D01*
X142972666Y-100808475D01*
X142975500Y-100834833D01*
X142975500Y-101386760D01*
X142978274Y-101416349D01*
X143021884Y-101540976D01*
X143100288Y-101647210D01*
X143100289Y-101647211D01*
X143206523Y-101725615D01*
X143206524Y-101725615D01*
X143206525Y-101725616D01*
X143331151Y-101769225D01*
X143331150Y-101769225D01*
X143360740Y-101772000D01*
X143360744Y-101772000D01*
X144066260Y-101772000D01*
X144089930Y-101769780D01*
X144095849Y-101769225D01*
X144150656Y-101750047D01*
X144220435Y-101746484D01*
X144281063Y-101781213D01*
X144313290Y-101843206D01*
X144306886Y-101912781D01*
X144279293Y-101954769D01*
X143914227Y-102319836D01*
X143852904Y-102353321D01*
X143826546Y-102356155D01*
X143274619Y-102356155D01*
X143245029Y-102358929D01*
X143120402Y-102402539D01*
X143014168Y-102480943D01*
X143014167Y-102480944D01*
X142935763Y-102587178D01*
X142892153Y-102711805D01*
X142889379Y-102741394D01*
X142889379Y-103321915D01*
X142892153Y-103351504D01*
X142935763Y-103476131D01*
X143014167Y-103582365D01*
X143014168Y-103582366D01*
X143120402Y-103660770D01*
X143120403Y-103660770D01*
X143120404Y-103660771D01*
X143245030Y-103704380D01*
X143245029Y-103704380D01*
X143274619Y-103707155D01*
X143274623Y-103707155D01*
X143341379Y-103707155D01*
X143350064Y-103709705D01*
X143359026Y-103708417D01*
X143383066Y-103719395D01*
X143408418Y-103726840D01*
X143414345Y-103733680D01*
X143422582Y-103737442D01*
X143436871Y-103759676D01*
X143454173Y-103779644D01*
X143456460Y-103790158D01*
X143460356Y-103796220D01*
X143465379Y-103831155D01*
X143465379Y-103993822D01*
X143445694Y-104060861D01*
X143429060Y-104081503D01*
X143413673Y-104096889D01*
X143368294Y-104199661D01*
X143368294Y-104199663D01*
X143365379Y-104224786D01*
X143365379Y-104764511D01*
X143365381Y-104764537D01*
X143368292Y-104789642D01*
X143368294Y-104789646D01*
X143413672Y-104892419D01*
X143413673Y-104892420D01*
X143493114Y-104971861D01*
X143595888Y-105017240D01*
X143621014Y-105020155D01*
X143910743Y-105020154D01*
X143910758Y-105020152D01*
X143910761Y-105020152D01*
X143935866Y-105017241D01*
X143935867Y-105017240D01*
X143935870Y-105017240D01*
X144038644Y-104971861D01*
X144118085Y-104892420D01*
X144163464Y-104789646D01*
X144166379Y-104764520D01*
X144166378Y-104224791D01*
X144166378Y-104224790D01*
X144166378Y-104224786D01*
X144665379Y-104224786D01*
X144665379Y-104764511D01*
X144665381Y-104764537D01*
X144668292Y-104789642D01*
X144668294Y-104789646D01*
X144713672Y-104892419D01*
X144713673Y-104892420D01*
X144793114Y-104971861D01*
X144895888Y-105017240D01*
X144921014Y-105020155D01*
X145210743Y-105020154D01*
X145210758Y-105020152D01*
X145210761Y-105020152D01*
X145235866Y-105017241D01*
X145235867Y-105017240D01*
X145235870Y-105017240D01*
X145338644Y-104971861D01*
X145418085Y-104892420D01*
X145463464Y-104789646D01*
X145466379Y-104764520D01*
X145466378Y-104224791D01*
X145466376Y-104224772D01*
X145463465Y-104199667D01*
X145463464Y-104199665D01*
X145463464Y-104199664D01*
X145418085Y-104096890D01*
X145338644Y-104017449D01*
X145285134Y-103993822D01*
X145235871Y-103972070D01*
X145210744Y-103969155D01*
X144921022Y-103969155D01*
X144920996Y-103969157D01*
X144895891Y-103972068D01*
X144895887Y-103972070D01*
X144793114Y-104017448D01*
X144713673Y-104096889D01*
X144668294Y-104199661D01*
X144668294Y-104199663D01*
X144665379Y-104224786D01*
X144166378Y-104224786D01*
X144166378Y-104224785D01*
X144163465Y-104199667D01*
X144163464Y-104199665D01*
X144163464Y-104199664D01*
X144118085Y-104096890D01*
X144102698Y-104081503D01*
X144087994Y-104054575D01*
X144071402Y-104028757D01*
X144070510Y-104022556D01*
X144069213Y-104020180D01*
X144066379Y-103993822D01*
X144066379Y-103771414D01*
X144086064Y-103704375D01*
X144127141Y-103666649D01*
X144126876Y-103666290D01*
X144130218Y-103663823D01*
X144132441Y-103661782D01*
X144134351Y-103660772D01*
X144134354Y-103660771D01*
X144240590Y-103582366D01*
X144318995Y-103476130D01*
X144362604Y-103351504D01*
X144365379Y-103321911D01*
X144365379Y-102769987D01*
X144385064Y-102702948D01*
X144401698Y-102682306D01*
X144659686Y-102424319D01*
X144721009Y-102390834D01*
X144747367Y-102388000D01*
X145228983Y-102388000D01*
X145296022Y-102407685D01*
X145297850Y-102408882D01*
X145317505Y-102422015D01*
X145317507Y-102422015D01*
X145317507Y-102422016D01*
X145377503Y-102433949D01*
X145397867Y-102438000D01*
X146777132Y-102437999D01*
X146857495Y-102422015D01*
X146948624Y-102361124D01*
X147009515Y-102269995D01*
X147025500Y-102189633D01*
X147025499Y-101985368D01*
X147009515Y-101905005D01*
X147009513Y-101905002D01*
X147004841Y-101893722D01*
X147006285Y-101893123D01*
X146989563Y-101839711D01*
X147005517Y-101781556D01*
X147004842Y-101781277D01*
X147007070Y-101775896D01*
X147008049Y-101772331D01*
X147009452Y-101770147D01*
X147009516Y-101769993D01*
X147020357Y-101715489D01*
X147025500Y-101689633D01*
X147025499Y-101512000D01*
X147045183Y-101444961D01*
X147097987Y-101399206D01*
X147149499Y-101388000D01*
X147227060Y-101388000D01*
X147227062Y-101388000D01*
X147303489Y-101367521D01*
X147372011Y-101327960D01*
X147372021Y-101327949D01*
X147374398Y-101326127D01*
X147376782Y-101325204D01*
X147379050Y-101323896D01*
X147379254Y-101324249D01*
X147439567Y-101300930D01*
X147449889Y-101300500D01*
X147565890Y-101300500D01*
X147565892Y-101300500D01*
X147693186Y-101266392D01*
X147807314Y-101200500D01*
X147900500Y-101107314D01*
X147966392Y-100993186D01*
X148000500Y-100865892D01*
X148000500Y-100734108D01*
X147966392Y-100606814D01*
X147900500Y-100492686D01*
X147807314Y-100399500D01*
X147716451Y-100347040D01*
X147693187Y-100333608D01*
X147619541Y-100313875D01*
X147565892Y-100299500D01*
X147434108Y-100299500D01*
X147306812Y-100333608D01*
X147192686Y-100399500D01*
X147192680Y-100399504D01*
X147187513Y-100404672D01*
X147126189Y-100438154D01*
X147056497Y-100433167D01*
X147000565Y-100391293D01*
X146996750Y-100385901D01*
X146948624Y-100313876D01*
X146857495Y-100252985D01*
X146857493Y-100252984D01*
X146857490Y-100252983D01*
X146777136Y-100237000D01*
X145397870Y-100237000D01*
X145317503Y-100252985D01*
X145317500Y-100252986D01*
X145297875Y-100266101D01*
X145296263Y-100266605D01*
X145295146Y-100267874D01*
X145256976Y-100278907D01*
X145231198Y-100286980D01*
X145230097Y-100286677D01*
X145228983Y-100287000D01*
X144451459Y-100287000D01*
X144384420Y-100267315D01*
X144338665Y-100214511D01*
X144328721Y-100145353D01*
X144351689Y-100089367D01*
X144405115Y-100016976D01*
X144405116Y-100016975D01*
X144426437Y-99956045D01*
X144467159Y-99899269D01*
X144532112Y-99873522D01*
X144543478Y-99873000D01*
X145206534Y-99873000D01*
X145207052Y-99873152D01*
X145207573Y-99873004D01*
X145240578Y-99882996D01*
X145273573Y-99892685D01*
X145274427Y-99893244D01*
X145274445Y-99893250D01*
X145274456Y-99893263D01*
X145275425Y-99893898D01*
X145317505Y-99922015D01*
X145317506Y-99922016D01*
X145381530Y-99934750D01*
X145397867Y-99938000D01*
X146777132Y-99937999D01*
X146857495Y-99922015D01*
X146948624Y-99861124D01*
X147009515Y-99769995D01*
X147025500Y-99689633D01*
X147025499Y-99485368D01*
X147009515Y-99405005D01*
X147009513Y-99405002D01*
X147004841Y-99393722D01*
X147006285Y-99393123D01*
X146989563Y-99339711D01*
X147005517Y-99281556D01*
X147004842Y-99281277D01*
X147007070Y-99275896D01*
X147008049Y-99272331D01*
X147009452Y-99270147D01*
X147009516Y-99269993D01*
X147025499Y-99189636D01*
X147025500Y-99189633D01*
X147025499Y-98985368D01*
X147009515Y-98905005D01*
X147009513Y-98905002D01*
X147004841Y-98893722D01*
X147006285Y-98893123D01*
X146989563Y-98839711D01*
X147005517Y-98781556D01*
X147004842Y-98781277D01*
X147007070Y-98775896D01*
X147008049Y-98772331D01*
X147009452Y-98770147D01*
X147009516Y-98769993D01*
X147020551Y-98714511D01*
X147025500Y-98689633D01*
X147025499Y-98485368D01*
X147009515Y-98405005D01*
X147009513Y-98405002D01*
X147004841Y-98393722D01*
X147006285Y-98393123D01*
X146989563Y-98339711D01*
X147005517Y-98281556D01*
X147004842Y-98281277D01*
X147007070Y-98275896D01*
X147008049Y-98272331D01*
X147009452Y-98270147D01*
X147009516Y-98269993D01*
X147019088Y-98221865D01*
X147025500Y-98189633D01*
X147025499Y-97985368D01*
X147009515Y-97905005D01*
X147009513Y-97905002D01*
X147004841Y-97893722D01*
X147006285Y-97893123D01*
X146989563Y-97839711D01*
X147005517Y-97781556D01*
X147004842Y-97781277D01*
X147007070Y-97775896D01*
X147008049Y-97772331D01*
X147009452Y-97770147D01*
X147009516Y-97769993D01*
X147025499Y-97689636D01*
X147025500Y-97689633D01*
X147025499Y-97485368D01*
X147009515Y-97405005D01*
X147009513Y-97405002D01*
X147004841Y-97393722D01*
X147006285Y-97393123D01*
X146989563Y-97339711D01*
X147005517Y-97281556D01*
X147004842Y-97281277D01*
X147007070Y-97275896D01*
X147008049Y-97272331D01*
X147009452Y-97270147D01*
X147009516Y-97269993D01*
X147020799Y-97213267D01*
X147025500Y-97189633D01*
X147025499Y-96985368D01*
X147009515Y-96905005D01*
X147009513Y-96905002D01*
X147004841Y-96893722D01*
X147006285Y-96893123D01*
X146989563Y-96839711D01*
X147005517Y-96781556D01*
X147004842Y-96781277D01*
X147007070Y-96775896D01*
X147008049Y-96772331D01*
X147009452Y-96770147D01*
X147009516Y-96769993D01*
X147025499Y-96689636D01*
X147025500Y-96689633D01*
X147025499Y-96485368D01*
X147009515Y-96405005D01*
X146989309Y-96374766D01*
X146948624Y-96313875D01*
X146893995Y-96277374D01*
X146857495Y-96252985D01*
X146857493Y-96252984D01*
X146857490Y-96252983D01*
X146777136Y-96237000D01*
X145397870Y-96237000D01*
X145317503Y-96252985D01*
X145317500Y-96252986D01*
X145297875Y-96266101D01*
X145231198Y-96286980D01*
X145228983Y-96287000D01*
X144860965Y-96287000D01*
X144793926Y-96267315D01*
X144748171Y-96214511D01*
X144738227Y-96145353D01*
X144767252Y-96081797D01*
X144773284Y-96075319D01*
X145234639Y-95613965D01*
X145735285Y-95113319D01*
X145796608Y-95079834D01*
X145822966Y-95077000D01*
X146289760Y-95077000D01*
X146319349Y-95074225D01*
X146334115Y-95069058D01*
X146443975Y-95030616D01*
X146457963Y-95020291D01*
X146523592Y-94996321D01*
X146591762Y-95011636D01*
X146619278Y-95032381D01*
X147113181Y-95526284D01*
X147146666Y-95587607D01*
X147149500Y-95613965D01*
X147149500Y-95864629D01*
X147165485Y-95944995D01*
X147226375Y-96036124D01*
X147262876Y-96060513D01*
X147317505Y-96097015D01*
X147317508Y-96097015D01*
X147317509Y-96097016D01*
X147344533Y-96102391D01*
X147397867Y-96113000D01*
X147602132Y-96112999D01*
X147682495Y-96097015D01*
X147773624Y-96036124D01*
X147834515Y-95944995D01*
X147850500Y-95864633D01*
X147850499Y-94485368D01*
X147834515Y-94405005D01*
X147794211Y-94344686D01*
X147773624Y-94313875D01*
X147715375Y-94274955D01*
X147682495Y-94252985D01*
X147682493Y-94252984D01*
X147682490Y-94252983D01*
X147602135Y-94237000D01*
X147397870Y-94237000D01*
X147317504Y-94252985D01*
X147280178Y-94277926D01*
X147213500Y-94298803D01*
X147146120Y-94280318D01*
X147123607Y-94262504D01*
X146839616Y-93978513D01*
X146839614Y-93978511D01*
X146736887Y-93919201D01*
X146734741Y-93918626D01*
X146714374Y-93913168D01*
X146654714Y-93876801D01*
X146629430Y-93834349D01*
X146628618Y-93832029D01*
X146628614Y-93832022D01*
X146550211Y-93725789D01*
X146550210Y-93725788D01*
X146443976Y-93647384D01*
X146319348Y-93603774D01*
X146319349Y-93603774D01*
X146289760Y-93601000D01*
X146289756Y-93601000D01*
X145709244Y-93601000D01*
X145709240Y-93601000D01*
X145679650Y-93603774D01*
X145555023Y-93647384D01*
X145448789Y-93725788D01*
X145448788Y-93725789D01*
X145370384Y-93832023D01*
X145326774Y-93956650D01*
X145324000Y-93986239D01*
X145324000Y-94199034D01*
X145304315Y-94266073D01*
X145287681Y-94286715D01*
X143761716Y-95812681D01*
X143700393Y-95846166D01*
X143674035Y-95849000D01*
X143334240Y-95849000D01*
X143304650Y-95851774D01*
X143180023Y-95895384D01*
X143073789Y-95973788D01*
X143073788Y-95973789D01*
X142995384Y-96080023D01*
X142951774Y-96204650D01*
X142949000Y-96234239D01*
X142949000Y-96574035D01*
X142929315Y-96641074D01*
X142912681Y-96661716D01*
X142237716Y-97336681D01*
X142176393Y-97370166D01*
X142150035Y-97373000D01*
X141609240Y-97373000D01*
X141579650Y-97375774D01*
X141455023Y-97419384D01*
X141348790Y-97497787D01*
X141312002Y-97547634D01*
X141256354Y-97589885D01*
X141212232Y-97598000D01*
X141192191Y-97598000D01*
X141101825Y-97622213D01*
X141101824Y-97622212D01*
X141077616Y-97628699D01*
X141077613Y-97628700D01*
X140974886Y-97688011D01*
X140974883Y-97688013D01*
X139961009Y-98701886D01*
X139913775Y-98729161D01*
X139914328Y-98730495D01*
X139906816Y-98733606D01*
X139792689Y-98799498D01*
X139792683Y-98799502D01*
X139699502Y-98892683D01*
X139699500Y-98892686D01*
X139633608Y-99006812D01*
X139609982Y-99094988D01*
X139599500Y-99134108D01*
X138200500Y-99134108D01*
X138200500Y-93904425D01*
X138200816Y-93895579D01*
X138202159Y-93876801D01*
X138216148Y-93681206D01*
X138218666Y-93663700D01*
X138263407Y-93458026D01*
X138268384Y-93441075D01*
X138341948Y-93243844D01*
X138349296Y-93227757D01*
X138377441Y-93176213D01*
X138450166Y-93043025D01*
X138459720Y-93028157D01*
X138585873Y-92859637D01*
X138597445Y-92846283D01*
X138746283Y-92697445D01*
X138759637Y-92685873D01*
X138928157Y-92559720D01*
X138943028Y-92550165D01*
X139127757Y-92449295D01*
X139143844Y-92441948D01*
X139341075Y-92368384D01*
X139358026Y-92363407D01*
X139563705Y-92318665D01*
X139581206Y-92316148D01*
X139795582Y-92300816D01*
X139804428Y-92300500D01*
X139924558Y-92300500D01*
X139924565Y-92300500D01*
X140171565Y-92267982D01*
X140412207Y-92203502D01*
X140642373Y-92108164D01*
X140858127Y-91983599D01*
X141055776Y-91831938D01*
X141231938Y-91655776D01*
X141383599Y-91458127D01*
X141508164Y-91242373D01*
X141603502Y-91012207D01*
X141667982Y-90771565D01*
X141700500Y-90524565D01*
X141700500Y-90403480D01*
X141700695Y-90396527D01*
X141707795Y-90270097D01*
X142649500Y-90270097D01*
X142649500Y-90529902D01*
X142690140Y-90786493D01*
X142770422Y-91033576D01*
X142851534Y-91192764D01*
X142888366Y-91265051D01*
X143041069Y-91475229D01*
X143224771Y-91658931D01*
X143434949Y-91811634D01*
X143582445Y-91886787D01*
X143666423Y-91929577D01*
X143666425Y-91929577D01*
X143666428Y-91929579D01*
X143913507Y-92009860D01*
X144045706Y-92030797D01*
X144170098Y-92050500D01*
X144170103Y-92050500D01*
X144429902Y-92050500D01*
X144543298Y-92032539D01*
X144686493Y-92009860D01*
X144933572Y-91929579D01*
X145165051Y-91811634D01*
X145375229Y-91658931D01*
X145558931Y-91475229D01*
X145711634Y-91265051D01*
X145829579Y-91033572D01*
X145909860Y-90786493D01*
X145932539Y-90643298D01*
X145950500Y-90529902D01*
X145950500Y-90270097D01*
X155649500Y-90270097D01*
X155649500Y-90529902D01*
X155690140Y-90786493D01*
X155770422Y-91033576D01*
X155851534Y-91192764D01*
X155888366Y-91265051D01*
X156041069Y-91475229D01*
X156224771Y-91658931D01*
X156434949Y-91811634D01*
X156582445Y-91886787D01*
X156666423Y-91929577D01*
X156666425Y-91929577D01*
X156666428Y-91929579D01*
X156913507Y-92009860D01*
X157045706Y-92030797D01*
X157170098Y-92050500D01*
X157170103Y-92050500D01*
X157429902Y-92050500D01*
X157543298Y-92032539D01*
X157686493Y-92009860D01*
X157933572Y-91929579D01*
X158165051Y-91811634D01*
X158375229Y-91658931D01*
X158558931Y-91475229D01*
X158711634Y-91265051D01*
X158829579Y-91033572D01*
X158909860Y-90786493D01*
X158932539Y-90643298D01*
X158950500Y-90529902D01*
X158950500Y-90270097D01*
X158924976Y-90108948D01*
X158909860Y-90013507D01*
X158829579Y-89766428D01*
X158829577Y-89766425D01*
X158829577Y-89766423D01*
X158770667Y-89650808D01*
X158711634Y-89534949D01*
X158558931Y-89324771D01*
X158375229Y-89141069D01*
X158165051Y-88988366D01*
X158092764Y-88951534D01*
X157933576Y-88870422D01*
X157686493Y-88790140D01*
X157429902Y-88749500D01*
X157429897Y-88749500D01*
X157170103Y-88749500D01*
X157170098Y-88749500D01*
X156913506Y-88790140D01*
X156666423Y-88870422D01*
X156434945Y-88988368D01*
X156224774Y-89141066D01*
X156224768Y-89141071D01*
X156041071Y-89324768D01*
X156041066Y-89324774D01*
X155888368Y-89534945D01*
X155770422Y-89766423D01*
X155690140Y-90013506D01*
X155649500Y-90270097D01*
X145950500Y-90270097D01*
X145924976Y-90108948D01*
X145909860Y-90013507D01*
X145829579Y-89766428D01*
X145829577Y-89766425D01*
X145829577Y-89766423D01*
X145770667Y-89650808D01*
X145711634Y-89534949D01*
X145558931Y-89324771D01*
X145375229Y-89141069D01*
X145165051Y-88988366D01*
X145092764Y-88951534D01*
X144933576Y-88870422D01*
X144686493Y-88790140D01*
X144429902Y-88749500D01*
X144429897Y-88749500D01*
X144170103Y-88749500D01*
X144170098Y-88749500D01*
X143913506Y-88790140D01*
X143666423Y-88870422D01*
X143434945Y-88988368D01*
X143224774Y-89141066D01*
X143224768Y-89141071D01*
X143041071Y-89324768D01*
X143041066Y-89324774D01*
X142888368Y-89534945D01*
X142770422Y-89766423D01*
X142690140Y-90013506D01*
X142649500Y-90270097D01*
X141707795Y-90270097D01*
X141708459Y-90258278D01*
X141708459Y-90258277D01*
X141714348Y-90153403D01*
X141716455Y-90115891D01*
X141718009Y-90102092D01*
X141764510Y-89828412D01*
X141767598Y-89814880D01*
X141844450Y-89548119D01*
X141849040Y-89535006D01*
X141855803Y-89518678D01*
X141955268Y-89278545D01*
X141961290Y-89266039D01*
X142095574Y-89023072D01*
X142102969Y-89011304D01*
X142119243Y-88988368D01*
X142263605Y-88784908D01*
X142272260Y-88774054D01*
X142457245Y-88567057D01*
X142467057Y-88557245D01*
X142674054Y-88372260D01*
X142684908Y-88363605D01*
X142911309Y-88202965D01*
X142923072Y-88195574D01*
X143166039Y-88061290D01*
X143178545Y-88055268D01*
X143435006Y-87949039D01*
X143448119Y-87944450D01*
X143714880Y-87867598D01*
X143728412Y-87864510D01*
X144002092Y-87818009D01*
X144015891Y-87816455D01*
X144262054Y-87802630D01*
X144296529Y-87800695D01*
X144303481Y-87800500D01*
X144424558Y-87800500D01*
X144424565Y-87800500D01*
X144671565Y-87767982D01*
X144912207Y-87703502D01*
X145142373Y-87608164D01*
X145358127Y-87483599D01*
X145555776Y-87331938D01*
X145731938Y-87155776D01*
X145883599Y-86958127D01*
X146008164Y-86742373D01*
X146103502Y-86512207D01*
X146167982Y-86271565D01*
X146200500Y-86024565D01*
X146200500Y-85900000D01*
X146200500Y-85842417D01*
X146200500Y-85842416D01*
X146200500Y-80903480D01*
X146200695Y-80896528D01*
X146210508Y-80721787D01*
X146216455Y-80615891D01*
X146218009Y-80602092D01*
X146264510Y-80328412D01*
X146267598Y-80314880D01*
X146344450Y-80048119D01*
X146349040Y-80035006D01*
X146355803Y-80018678D01*
X146455268Y-79778545D01*
X146461298Y-79766026D01*
X146595574Y-79523072D01*
X146602969Y-79511304D01*
X146763605Y-79284908D01*
X146772260Y-79274054D01*
X146957245Y-79067057D01*
X146967068Y-79057236D01*
X147116159Y-78924000D01*
X147174055Y-78872260D01*
X147184906Y-78863607D01*
X147242320Y-78822869D01*
X147308385Y-78800131D01*
X147314073Y-78800000D01*
X148876000Y-78800000D01*
X148943039Y-78819685D01*
G37*
G04 #@! TD.AperFunction*
G04 #@! TD*
M02*
