G04 #@! TF.GenerationSoftware,KiCad,Pcbnew,9.0.5-9.0.5~ubuntu24.04.1*
G04 #@! TF.CreationDate,2025-10-20T13:53:23+02:00*
G04 #@! TF.ProjectId,PicoBalloon,5069636f-4261-46c6-9c6f-6f6e2e6b6963,rev?*
G04 #@! TF.SameCoordinates,Original*
G04 #@! TF.FileFunction,Copper,L2,Inr*
G04 #@! TF.FilePolarity,Positive*
%FSLAX46Y46*%
G04 Gerber Fmt 4.6, Leading zero omitted, Abs format (unit mm)*
G04 Created by KiCad (PCBNEW 9.0.5-9.0.5~ubuntu24.04.1) date 2025-10-20 13:53:23*
%MOMM*%
%LPD*%
G01*
G04 APERTURE LIST*
G04 #@! TA.AperFunction,ComponentPad*
%ADD10R,1.700000X1.700000*%
G04 #@! TD*
G04 #@! TA.AperFunction,ComponentPad*
%ADD11C,1.700000*%
G04 #@! TD*
G04 #@! TA.AperFunction,ComponentPad*
%ADD12R,1.350000X1.350000*%
G04 #@! TD*
G04 #@! TA.AperFunction,ComponentPad*
%ADD13C,1.350000*%
G04 #@! TD*
G04 #@! TA.AperFunction,ViaPad*
%ADD14C,0.600000*%
G04 #@! TD*
G04 #@! TA.AperFunction,Conductor*
%ADD15C,0.200000*%
G04 #@! TD*
G04 APERTURE END LIST*
D10*
G04 #@! TO.N,+3V3*
G04 #@! TO.C,J4*
X158500000Y-101000000D03*
D11*
G04 #@! TO.N,/SWDIO*
X158500000Y-98460000D03*
G04 #@! TO.N,/SWCLK*
X158500000Y-95920000D03*
G04 #@! TO.N,GND*
X158500000Y-93380000D03*
G04 #@! TD*
D12*
G04 #@! TO.N,Net-(J3-Pin_1)*
G04 #@! TO.C,J3*
X161290000Y-124700000D03*
D13*
G04 #@! TO.N,GND*
X161290000Y-122700000D03*
G04 #@! TD*
D14*
G04 #@! TO.N,GND*
X154800000Y-84300000D03*
X149746000Y-113454000D03*
X148500000Y-81800000D03*
X144920000Y-110406000D03*
X154826000Y-109898000D03*
X148600000Y-83500000D03*
X148500000Y-81000000D03*
X155100000Y-87100000D03*
X160287000Y-93134000D03*
X151400000Y-83500000D03*
X150300000Y-97000000D03*
X141872000Y-105580000D03*
X152900000Y-85200000D03*
X155588000Y-109390000D03*
X155100000Y-85000000D03*
X144666000Y-94150000D03*
X153800000Y-79800000D03*
X152900000Y-88900000D03*
X150400000Y-83500000D03*
X140716000Y-100500000D03*
X146571000Y-91483000D03*
X140716000Y-103548000D03*
X160287000Y-94912000D03*
X140716000Y-101516000D03*
X139840000Y-97452000D03*
X152900000Y-87400000D03*
X154900000Y-122900000D03*
X144666000Y-125138000D03*
X154800000Y-81800000D03*
X153100000Y-84500000D03*
X140856000Y-95928000D03*
X148500000Y-79400000D03*
X155588000Y-108628000D03*
X161500000Y-111676000D03*
X144158000Y-94658000D03*
X152794000Y-116248000D03*
X154400000Y-80300000D03*
X156350000Y-107866000D03*
X145936000Y-124376000D03*
X145800000Y-109898000D03*
X150762000Y-88435000D03*
X155000000Y-88200000D03*
X148500000Y-80200000D03*
X154064000Y-109898000D03*
X151524000Y-109390000D03*
X161500000Y-109532000D03*
X151400000Y-89900000D03*
X154800000Y-83500000D03*
X152900000Y-89600000D03*
X155100000Y-85700000D03*
X153175000Y-92880000D03*
X155100000Y-90400000D03*
X149873000Y-88435000D03*
X156350000Y-108628000D03*
X152200000Y-89900000D03*
X155100000Y-89700000D03*
X144920000Y-93134000D03*
X153100000Y-83800000D03*
X149500000Y-83500000D03*
X160287000Y-94023000D03*
X146444000Y-125138000D03*
X152900000Y-88200000D03*
X155842000Y-92245000D03*
X141999000Y-95293000D03*
X147700000Y-96900000D03*
X148476000Y-121328000D03*
X161719500Y-118823500D03*
X155100000Y-86400000D03*
X140348000Y-96944000D03*
X148476000Y-122344000D03*
X141872000Y-104310000D03*
X154800000Y-82700000D03*
X153048000Y-109898000D03*
X155100000Y-89000000D03*
X154800000Y-81000000D03*
X161500000Y-108516000D03*
X152900000Y-86000000D03*
X152900000Y-86700000D03*
X152300000Y-83500000D03*
X140716000Y-102532000D03*
X143650000Y-95166000D03*
X153048000Y-96944000D03*
X148500000Y-82600000D03*
X147460000Y-120058000D03*
X147333000Y-93261000D03*
X145682000Y-125138000D03*
X153175000Y-92118000D03*
X142888000Y-105580000D03*
X156500000Y-102000000D03*
X160147000Y-123800000D03*
X160147000Y-125800000D03*
X161500000Y-107500000D03*
X140843000Y-107569000D03*
G04 #@! TO.N,/V_SOLAR*
X147100000Y-113800000D03*
X147500000Y-100800000D03*
G04 #@! TO.N,+3V3*
X146258943Y-103860057D03*
X156012088Y-97413558D03*
X141351000Y-106426000D03*
X144700000Y-107400000D03*
X140100000Y-99200000D03*
X142240000Y-126074002D03*
X161671000Y-116896000D03*
G04 #@! TO.N,/V_SUPERCAP_SENSE*
X146304000Y-118110000D03*
X144793000Y-101262000D03*
G04 #@! TO.N,/BOOST_EN*
X152561000Y-111144000D03*
X149000000Y-118500000D03*
X152794000Y-108700000D03*
X151270000Y-101900000D03*
G04 #@! TO.N,/SUPERCAP_EN*
X149100000Y-96900000D03*
X155000000Y-124000000D03*
G04 #@! TO.N,/~{GPS_RESET}*
X151913265Y-99500000D03*
G04 #@! TO.N,/~{LNA_SHDN}*
X150368000Y-93726000D03*
G04 #@! TO.N,/GPS_RX*
X155650000Y-100601473D03*
G04 #@! TO.N,/GPS_ONOFF*
X152400000Y-102000000D03*
G04 #@! TO.N,/1PPS*
X151757780Y-100658613D03*
G04 #@! TO.N,/GPS_TX*
X156300000Y-100000000D03*
G04 #@! TO.N,/GPS_SUPPLY_ENABLE*
X148339765Y-101808765D03*
G04 #@! TD*
D15*
G04 #@! TO.N,/BOOST_EN*
X151270000Y-106342000D02*
X151270000Y-101900000D01*
X152794000Y-108700000D02*
X152794000Y-107866000D01*
X152794000Y-107866000D02*
X151270000Y-106342000D01*
G04 #@! TD*
G04 #@! TA.AperFunction,Conductor*
G04 #@! TO.N,GND*
G36*
X142749462Y-91029685D02*
G01*
X142792907Y-91077704D01*
X142888366Y-91265051D01*
X143041069Y-91475229D01*
X143224771Y-91658931D01*
X143434949Y-91811634D01*
X143550611Y-91870567D01*
X143666423Y-91929577D01*
X143666425Y-91929577D01*
X143666428Y-91929579D01*
X143913507Y-92009860D01*
X144040669Y-92030000D01*
X144170098Y-92050500D01*
X144170103Y-92050500D01*
X144429902Y-92050500D01*
X144559331Y-92030000D01*
X144686493Y-92009860D01*
X144933572Y-91929579D01*
X145165051Y-91811634D01*
X145375229Y-91658931D01*
X145558931Y-91475229D01*
X145711634Y-91265051D01*
X145807092Y-91077704D01*
X145855067Y-91026909D01*
X145917577Y-91010000D01*
X155682423Y-91010000D01*
X155749462Y-91029685D01*
X155792907Y-91077704D01*
X155888366Y-91265051D01*
X156041069Y-91475229D01*
X156224771Y-91658931D01*
X156434949Y-91811634D01*
X156550611Y-91870567D01*
X156666423Y-91929577D01*
X156666425Y-91929577D01*
X156666428Y-91929579D01*
X156913507Y-92009860D01*
X157040669Y-92030000D01*
X157170098Y-92050500D01*
X157170103Y-92050500D01*
X157429902Y-92050500D01*
X157582091Y-92026395D01*
X157686493Y-92009860D01*
X157686496Y-92009858D01*
X157691168Y-92009119D01*
X157760461Y-92018073D01*
X157813913Y-92063070D01*
X157834553Y-92129821D01*
X157815828Y-92197135D01*
X157783451Y-92231910D01*
X157738282Y-92264726D01*
X157738282Y-92264728D01*
X158370591Y-92897037D01*
X158307007Y-92914075D01*
X158192993Y-92979901D01*
X158099901Y-93072993D01*
X158034075Y-93187007D01*
X158017037Y-93250591D01*
X157384728Y-92618282D01*
X157384727Y-92618282D01*
X157345380Y-92672439D01*
X157248904Y-92861782D01*
X157183242Y-93063869D01*
X157183242Y-93063872D01*
X157150000Y-93273753D01*
X157150000Y-93486246D01*
X157183242Y-93696127D01*
X157183242Y-93696130D01*
X157248904Y-93898217D01*
X157345375Y-94087550D01*
X157384728Y-94141716D01*
X158017037Y-93509408D01*
X158034075Y-93572993D01*
X158099901Y-93687007D01*
X158192993Y-93780099D01*
X158307007Y-93845925D01*
X158370590Y-93862962D01*
X157738282Y-94495269D01*
X157738282Y-94495270D01*
X157792449Y-94534624D01*
X157981782Y-94631095D01*
X158157973Y-94688343D01*
X158215648Y-94727780D01*
X158242847Y-94792139D01*
X158230932Y-94860985D01*
X158183688Y-94912461D01*
X158167108Y-94920835D01*
X158002403Y-94989057D01*
X157830342Y-95104024D01*
X157684024Y-95250342D01*
X157569058Y-95422403D01*
X157489870Y-95613579D01*
X157489868Y-95613587D01*
X157449500Y-95816530D01*
X157449500Y-96023469D01*
X157489868Y-96226412D01*
X157489870Y-96226420D01*
X157561562Y-96399500D01*
X157569059Y-96417598D01*
X157623784Y-96499500D01*
X157684024Y-96589657D01*
X157830342Y-96735975D01*
X157830345Y-96735977D01*
X158002402Y-96850941D01*
X158193580Y-96930130D01*
X158373359Y-96965890D01*
X158396530Y-96970499D01*
X158396534Y-96970500D01*
X158396535Y-96970500D01*
X158603466Y-96970500D01*
X158603467Y-96970499D01*
X158806420Y-96930130D01*
X158997598Y-96850941D01*
X159169655Y-96735977D01*
X159315977Y-96589655D01*
X159430941Y-96417598D01*
X159510130Y-96226420D01*
X159550500Y-96023465D01*
X159550500Y-95816535D01*
X159510130Y-95613580D01*
X159430941Y-95422402D01*
X159315977Y-95250345D01*
X159315975Y-95250342D01*
X159169657Y-95104024D01*
X159083626Y-95046541D01*
X158997598Y-94989059D01*
X158997593Y-94989057D01*
X158935891Y-94963499D01*
X158832890Y-94920834D01*
X158778488Y-94876994D01*
X158756423Y-94810700D01*
X158773702Y-94743001D01*
X158824839Y-94695390D01*
X158842026Y-94688343D01*
X159018217Y-94631095D01*
X159207554Y-94534622D01*
X159261716Y-94495270D01*
X159261717Y-94495270D01*
X158629408Y-93862962D01*
X158692993Y-93845925D01*
X158807007Y-93780099D01*
X158900099Y-93687007D01*
X158965925Y-93572993D01*
X158982962Y-93509409D01*
X159615270Y-94141717D01*
X159615270Y-94141716D01*
X159654622Y-94087554D01*
X159751095Y-93898217D01*
X159816757Y-93696130D01*
X159816757Y-93696127D01*
X159850000Y-93486246D01*
X159850000Y-93273753D01*
X159816757Y-93063872D01*
X159816757Y-93063869D01*
X159751095Y-92861782D01*
X159654624Y-92672449D01*
X159615270Y-92618282D01*
X159615269Y-92618282D01*
X158982962Y-93250590D01*
X158965925Y-93187007D01*
X158900099Y-93072993D01*
X158807007Y-92979901D01*
X158692993Y-92914075D01*
X158629409Y-92897037D01*
X159261716Y-92264728D01*
X159207550Y-92225375D01*
X159018217Y-92128904D01*
X158816129Y-92063242D01*
X158606246Y-92030000D01*
X158393753Y-92030000D01*
X158213282Y-92058583D01*
X158143989Y-92049628D01*
X158090537Y-92004632D01*
X158069898Y-91937880D01*
X158088623Y-91870567D01*
X158137591Y-91825625D01*
X158165051Y-91811634D01*
X158165050Y-91811634D01*
X158165053Y-91811633D01*
X158235110Y-91760733D01*
X158375229Y-91658931D01*
X158558931Y-91475229D01*
X158711634Y-91265051D01*
X158807092Y-91077704D01*
X158855067Y-91026909D01*
X158917577Y-91010000D01*
X159872162Y-91010000D01*
X159939201Y-91029685D01*
X159984956Y-91082489D01*
X159993080Y-91106526D01*
X159997265Y-91124945D01*
X159997266Y-91124951D01*
X160093841Y-91402227D01*
X160093846Y-91402240D01*
X160220737Y-91667029D01*
X160220739Y-91667032D01*
X160376362Y-91916030D01*
X160376364Y-91916032D01*
X160376365Y-91916034D01*
X160558771Y-92146119D01*
X160558780Y-92146130D01*
X160765701Y-92354445D01*
X160765705Y-92354449D01*
X160994569Y-92538404D01*
X161242516Y-92695697D01*
X161371036Y-92758312D01*
X161377860Y-92761904D01*
X161564708Y-92867813D01*
X161577580Y-92876205D01*
X161716913Y-92979901D01*
X161746792Y-93002138D01*
X161758538Y-93012069D01*
X161884742Y-93132968D01*
X161910847Y-93157975D01*
X161921274Y-93169285D01*
X162054354Y-93332937D01*
X162063295Y-93345445D01*
X162063299Y-93345450D01*
X162175087Y-93524309D01*
X162182416Y-93537834D01*
X162271199Y-93729162D01*
X162276796Y-93743491D01*
X162341207Y-93944340D01*
X162344987Y-93959250D01*
X162384035Y-94166530D01*
X162385939Y-94181794D01*
X162399261Y-94396153D01*
X162399500Y-94403845D01*
X162399500Y-116739142D01*
X162379815Y-116806181D01*
X162327011Y-116851936D01*
X162257853Y-116861880D01*
X162194297Y-116832855D01*
X162156523Y-116774077D01*
X162155725Y-116771236D01*
X162137392Y-116702814D01*
X162071500Y-116588686D01*
X161978314Y-116495500D01*
X161921250Y-116462554D01*
X161864187Y-116429608D01*
X161800539Y-116412554D01*
X161736892Y-116395500D01*
X161605108Y-116395500D01*
X161477812Y-116429608D01*
X161363686Y-116495500D01*
X161363683Y-116495502D01*
X161270502Y-116588683D01*
X161270500Y-116588686D01*
X161204608Y-116702812D01*
X161170500Y-116830108D01*
X161170500Y-116961891D01*
X161204608Y-117089187D01*
X161237554Y-117146250D01*
X161270500Y-117203314D01*
X161363686Y-117296500D01*
X161477814Y-117362392D01*
X161605108Y-117396500D01*
X161605110Y-117396500D01*
X161736890Y-117396500D01*
X161736892Y-117396500D01*
X161864186Y-117362392D01*
X161978314Y-117296500D01*
X162071500Y-117203314D01*
X162137392Y-117089186D01*
X162155725Y-117020762D01*
X162192090Y-116961103D01*
X162254937Y-116930574D01*
X162324312Y-116938869D01*
X162378190Y-116983354D01*
X162399465Y-117049906D01*
X162399500Y-117052857D01*
X162399500Y-121938832D01*
X162379815Y-122005871D01*
X162327011Y-122051626D01*
X162284393Y-122059158D01*
X161690000Y-122653551D01*
X161690000Y-122647339D01*
X161662741Y-122545606D01*
X161610080Y-122454394D01*
X161535606Y-122379920D01*
X161444394Y-122327259D01*
X161342661Y-122300000D01*
X161336447Y-122300000D01*
X161926431Y-121710016D01*
X161926430Y-121710015D01*
X161905834Y-121695050D01*
X161741043Y-121611084D01*
X161741040Y-121611083D01*
X161565147Y-121553933D01*
X161382473Y-121525000D01*
X161197527Y-121525000D01*
X161014852Y-121553933D01*
X160838959Y-121611083D01*
X160838956Y-121611084D01*
X160674167Y-121695049D01*
X160653568Y-121710015D01*
X161243554Y-122300000D01*
X161237339Y-122300000D01*
X161135606Y-122327259D01*
X161044394Y-122379920D01*
X160969920Y-122454394D01*
X160917259Y-122545606D01*
X160890000Y-122647339D01*
X160890000Y-122653553D01*
X160300015Y-122063568D01*
X160285049Y-122084167D01*
X160201084Y-122248956D01*
X160201083Y-122248959D01*
X160143933Y-122424852D01*
X160115000Y-122607526D01*
X160115000Y-122792473D01*
X160143933Y-122975147D01*
X160201083Y-123151040D01*
X160201084Y-123151043D01*
X160285050Y-123315834D01*
X160300015Y-123336430D01*
X160300016Y-123336431D01*
X160890000Y-122746447D01*
X160890000Y-122752661D01*
X160917259Y-122854394D01*
X160969920Y-122945606D01*
X161044394Y-123020080D01*
X161135606Y-123072741D01*
X161237339Y-123100000D01*
X161243553Y-123100000D01*
X160653567Y-123689984D01*
X160654447Y-123701157D01*
X160640082Y-123769534D01*
X160591029Y-123819290D01*
X160555024Y-123832501D01*
X160536769Y-123836132D01*
X160470447Y-123880447D01*
X160426132Y-123946769D01*
X160426131Y-123946770D01*
X160414500Y-124005247D01*
X160414500Y-125394752D01*
X160426131Y-125453229D01*
X160426132Y-125453230D01*
X160470447Y-125519552D01*
X160536769Y-125563867D01*
X160536770Y-125563868D01*
X160595247Y-125575499D01*
X160595250Y-125575500D01*
X160595252Y-125575500D01*
X161984750Y-125575500D01*
X161984751Y-125575499D01*
X161999568Y-125572552D01*
X162043229Y-125563868D01*
X162043229Y-125563867D01*
X162043231Y-125563867D01*
X162109552Y-125519552D01*
X162153867Y-125453231D01*
X162153882Y-125453154D01*
X162153963Y-125453000D01*
X162158542Y-125441946D01*
X162159530Y-125442355D01*
X162186267Y-125391243D01*
X162246983Y-125356669D01*
X162316752Y-125360408D01*
X162373424Y-125401274D01*
X162399006Y-125466292D01*
X162399500Y-125477345D01*
X162399500Y-125895572D01*
X162399184Y-125904419D01*
X162383851Y-126118788D01*
X162381333Y-126136299D01*
X162336595Y-126341960D01*
X162331611Y-126358936D01*
X162258053Y-126556150D01*
X162250703Y-126572242D01*
X162149836Y-126756968D01*
X162140271Y-126771853D01*
X162014133Y-126940353D01*
X162002547Y-126953723D01*
X161853723Y-127102547D01*
X161840353Y-127114133D01*
X161671853Y-127240271D01*
X161656968Y-127249836D01*
X161472242Y-127350703D01*
X161456150Y-127358053D01*
X161258936Y-127431611D01*
X161241960Y-127436595D01*
X161036299Y-127481333D01*
X161018788Y-127483851D01*
X160823369Y-127497828D01*
X160804417Y-127499184D01*
X160795572Y-127499500D01*
X140804427Y-127499500D01*
X140795581Y-127499184D01*
X140771229Y-127497442D01*
X140581210Y-127483851D01*
X140563699Y-127481333D01*
X140358038Y-127436595D01*
X140341062Y-127431611D01*
X140143850Y-127358054D01*
X140127757Y-127350704D01*
X139943030Y-127249836D01*
X139943023Y-127249832D01*
X139928147Y-127240271D01*
X139759653Y-127114139D01*
X139746282Y-127102553D01*
X139597449Y-126953720D01*
X139585866Y-126940353D01*
X139459724Y-126771848D01*
X139450163Y-126756969D01*
X139349296Y-126572243D01*
X139341946Y-126556151D01*
X139336069Y-126540394D01*
X139268385Y-126358929D01*
X139263406Y-126341970D01*
X139218665Y-126136297D01*
X139216148Y-126118788D01*
X139208284Y-126008829D01*
X139208233Y-126008110D01*
X141739500Y-126008110D01*
X141739500Y-126139893D01*
X141773608Y-126267189D01*
X141806554Y-126324252D01*
X141839500Y-126381316D01*
X141932686Y-126474502D01*
X142046814Y-126540394D01*
X142174108Y-126574502D01*
X142174110Y-126574502D01*
X142305890Y-126574502D01*
X142305892Y-126574502D01*
X142433186Y-126540394D01*
X142547314Y-126474502D01*
X142640500Y-126381316D01*
X142706392Y-126267188D01*
X142740500Y-126139894D01*
X142740500Y-126008110D01*
X142706392Y-125880816D01*
X142640500Y-125766688D01*
X142547314Y-125673502D01*
X142490250Y-125640556D01*
X142433187Y-125607610D01*
X142369539Y-125590556D01*
X142305892Y-125573502D01*
X142174108Y-125573502D01*
X142046812Y-125607610D01*
X141932686Y-125673502D01*
X141932683Y-125673504D01*
X141839502Y-125766685D01*
X141839500Y-125766688D01*
X141773608Y-125880814D01*
X141739500Y-126008110D01*
X139208233Y-126008110D01*
X139200816Y-125904421D01*
X139200500Y-125895574D01*
X139200500Y-123934108D01*
X154499500Y-123934108D01*
X154499500Y-124065891D01*
X154533608Y-124193187D01*
X154566554Y-124250250D01*
X154599500Y-124307314D01*
X154692686Y-124400500D01*
X154806814Y-124466392D01*
X154934108Y-124500500D01*
X154934110Y-124500500D01*
X155065890Y-124500500D01*
X155065892Y-124500500D01*
X155193186Y-124466392D01*
X155307314Y-124400500D01*
X155400500Y-124307314D01*
X155466392Y-124193186D01*
X155500500Y-124065892D01*
X155500500Y-123934108D01*
X155466392Y-123806814D01*
X155400500Y-123692686D01*
X155307314Y-123599500D01*
X155250250Y-123566554D01*
X155193187Y-123533608D01*
X155129539Y-123516554D01*
X155065892Y-123499500D01*
X154934108Y-123499500D01*
X154806812Y-123533608D01*
X154692686Y-123599500D01*
X154692683Y-123599502D01*
X154599502Y-123692683D01*
X154599500Y-123692686D01*
X154533608Y-123806812D01*
X154499500Y-123934108D01*
X139200500Y-123934108D01*
X139200500Y-118044108D01*
X145803500Y-118044108D01*
X145803500Y-118175891D01*
X145837608Y-118303187D01*
X145870554Y-118360250D01*
X145903500Y-118417314D01*
X145996686Y-118510500D01*
X146110814Y-118576392D01*
X146238108Y-118610500D01*
X146238110Y-118610500D01*
X146369890Y-118610500D01*
X146369892Y-118610500D01*
X146497186Y-118576392D01*
X146611314Y-118510500D01*
X146687706Y-118434108D01*
X148499500Y-118434108D01*
X148499500Y-118565892D01*
X148511452Y-118610499D01*
X148533608Y-118693187D01*
X148566554Y-118750250D01*
X148599500Y-118807314D01*
X148692686Y-118900500D01*
X148806814Y-118966392D01*
X148934108Y-119000500D01*
X148934110Y-119000500D01*
X149065890Y-119000500D01*
X149065892Y-119000500D01*
X149193186Y-118966392D01*
X149307314Y-118900500D01*
X149400500Y-118807314D01*
X149466392Y-118693186D01*
X149500500Y-118565892D01*
X149500500Y-118434108D01*
X149466392Y-118306814D01*
X149400500Y-118192686D01*
X149307314Y-118099500D01*
X149250250Y-118066554D01*
X149193187Y-118033608D01*
X149129539Y-118016554D01*
X149065892Y-117999500D01*
X148934108Y-117999500D01*
X148806812Y-118033608D01*
X148692686Y-118099500D01*
X148692683Y-118099502D01*
X148599502Y-118192683D01*
X148599500Y-118192686D01*
X148533608Y-118306812D01*
X148518290Y-118363981D01*
X148499500Y-118434108D01*
X146687706Y-118434108D01*
X146704500Y-118417314D01*
X146770392Y-118303186D01*
X146804500Y-118175892D01*
X146804500Y-118044108D01*
X146770392Y-117916814D01*
X146704500Y-117802686D01*
X146611314Y-117709500D01*
X146554250Y-117676554D01*
X146497187Y-117643608D01*
X146433539Y-117626554D01*
X146369892Y-117609500D01*
X146238108Y-117609500D01*
X146110812Y-117643608D01*
X145996686Y-117709500D01*
X145996683Y-117709502D01*
X145903502Y-117802683D01*
X145903500Y-117802686D01*
X145837608Y-117916812D01*
X145803500Y-118044108D01*
X139200500Y-118044108D01*
X139200500Y-113734108D01*
X146599500Y-113734108D01*
X146599500Y-113865891D01*
X146633608Y-113993187D01*
X146666554Y-114050250D01*
X146699500Y-114107314D01*
X146792686Y-114200500D01*
X146906814Y-114266392D01*
X147034108Y-114300500D01*
X147034110Y-114300500D01*
X147165890Y-114300500D01*
X147165892Y-114300500D01*
X147293186Y-114266392D01*
X147407314Y-114200500D01*
X147500500Y-114107314D01*
X147566392Y-113993186D01*
X147600500Y-113865892D01*
X147600500Y-113734108D01*
X147566392Y-113606814D01*
X147500500Y-113492686D01*
X147407314Y-113399500D01*
X147350250Y-113366554D01*
X147293187Y-113333608D01*
X147229539Y-113316554D01*
X147165892Y-113299500D01*
X147034108Y-113299500D01*
X146906812Y-113333608D01*
X146792686Y-113399500D01*
X146792683Y-113399502D01*
X146699502Y-113492683D01*
X146699500Y-113492686D01*
X146633608Y-113606812D01*
X146599500Y-113734108D01*
X139200500Y-113734108D01*
X139200500Y-111078108D01*
X152060500Y-111078108D01*
X152060500Y-111209891D01*
X152094608Y-111337187D01*
X152127554Y-111394250D01*
X152160500Y-111451314D01*
X152253686Y-111544500D01*
X152367814Y-111610392D01*
X152495108Y-111644500D01*
X152495110Y-111644500D01*
X152626890Y-111644500D01*
X152626892Y-111644500D01*
X152754186Y-111610392D01*
X152868314Y-111544500D01*
X152961500Y-111451314D01*
X153027392Y-111337186D01*
X153061500Y-111209892D01*
X153061500Y-111078108D01*
X153027392Y-110950814D01*
X152961500Y-110836686D01*
X152868314Y-110743500D01*
X152811250Y-110710554D01*
X152754187Y-110677608D01*
X152690539Y-110660554D01*
X152626892Y-110643500D01*
X152495108Y-110643500D01*
X152367812Y-110677608D01*
X152253686Y-110743500D01*
X152253683Y-110743502D01*
X152160502Y-110836683D01*
X152160500Y-110836686D01*
X152094608Y-110950812D01*
X152060500Y-111078108D01*
X139200500Y-111078108D01*
X139200500Y-107334108D01*
X144199500Y-107334108D01*
X144199500Y-107465891D01*
X144233608Y-107593187D01*
X144266554Y-107650250D01*
X144299500Y-107707314D01*
X144392686Y-107800500D01*
X144506814Y-107866392D01*
X144634108Y-107900500D01*
X144634110Y-107900500D01*
X144765890Y-107900500D01*
X144765892Y-107900500D01*
X144893186Y-107866392D01*
X145007314Y-107800500D01*
X145100500Y-107707314D01*
X145166392Y-107593186D01*
X145200500Y-107465892D01*
X145200500Y-107334108D01*
X145166392Y-107206814D01*
X145100500Y-107092686D01*
X145007314Y-106999500D01*
X144950250Y-106966554D01*
X144893187Y-106933608D01*
X144829539Y-106916554D01*
X144765892Y-106899500D01*
X144634108Y-106899500D01*
X144506812Y-106933608D01*
X144392686Y-106999500D01*
X144392683Y-106999502D01*
X144299502Y-107092683D01*
X144299500Y-107092686D01*
X144233608Y-107206812D01*
X144199500Y-107334108D01*
X139200500Y-107334108D01*
X139200500Y-106360108D01*
X140850500Y-106360108D01*
X140850500Y-106491891D01*
X140884608Y-106619187D01*
X140917554Y-106676250D01*
X140950500Y-106733314D01*
X141043686Y-106826500D01*
X141157814Y-106892392D01*
X141285108Y-106926500D01*
X141285110Y-106926500D01*
X141416890Y-106926500D01*
X141416892Y-106926500D01*
X141544186Y-106892392D01*
X141658314Y-106826500D01*
X141751500Y-106733314D01*
X141817392Y-106619186D01*
X141851500Y-106491892D01*
X141851500Y-106360108D01*
X141817392Y-106232814D01*
X141751500Y-106118686D01*
X141658314Y-106025500D01*
X141601250Y-105992554D01*
X141544187Y-105959608D01*
X141480539Y-105942554D01*
X141416892Y-105925500D01*
X141285108Y-105925500D01*
X141157812Y-105959608D01*
X141043686Y-106025500D01*
X141043683Y-106025502D01*
X140950502Y-106118683D01*
X140950500Y-106118686D01*
X140884608Y-106232812D01*
X140850500Y-106360108D01*
X139200500Y-106360108D01*
X139200500Y-103794165D01*
X145758443Y-103794165D01*
X145758443Y-103925948D01*
X145792551Y-104053244D01*
X145825497Y-104110307D01*
X145858443Y-104167371D01*
X145951629Y-104260557D01*
X146065757Y-104326449D01*
X146193051Y-104360557D01*
X146193053Y-104360557D01*
X146324833Y-104360557D01*
X146324835Y-104360557D01*
X146452129Y-104326449D01*
X146566257Y-104260557D01*
X146659443Y-104167371D01*
X146725335Y-104053243D01*
X146759443Y-103925949D01*
X146759443Y-103794165D01*
X146725335Y-103666871D01*
X146659443Y-103552743D01*
X146566257Y-103459557D01*
X146509193Y-103426611D01*
X146452130Y-103393665D01*
X146388482Y-103376611D01*
X146324835Y-103359557D01*
X146193051Y-103359557D01*
X146065755Y-103393665D01*
X145951629Y-103459557D01*
X145951626Y-103459559D01*
X145858445Y-103552740D01*
X145858443Y-103552743D01*
X145792551Y-103666869D01*
X145758443Y-103794165D01*
X139200500Y-103794165D01*
X139200500Y-101196108D01*
X144292500Y-101196108D01*
X144292500Y-101327891D01*
X144326608Y-101455187D01*
X144352193Y-101499500D01*
X144392500Y-101569314D01*
X144485686Y-101662500D01*
X144562440Y-101706814D01*
X144598658Y-101727725D01*
X144599814Y-101728392D01*
X144727108Y-101762500D01*
X144727110Y-101762500D01*
X144858890Y-101762500D01*
X144858892Y-101762500D01*
X144932142Y-101742873D01*
X147839265Y-101742873D01*
X147839265Y-101874656D01*
X147873373Y-102001952D01*
X147894687Y-102038868D01*
X147939265Y-102116079D01*
X148032451Y-102209265D01*
X148146579Y-102275157D01*
X148273873Y-102309265D01*
X148273875Y-102309265D01*
X148405655Y-102309265D01*
X148405657Y-102309265D01*
X148532951Y-102275157D01*
X148647079Y-102209265D01*
X148740265Y-102116079D01*
X148806157Y-102001951D01*
X148840265Y-101874657D01*
X148840265Y-101834108D01*
X150769500Y-101834108D01*
X150769500Y-101965891D01*
X150803608Y-102093187D01*
X150823566Y-102127755D01*
X150869500Y-102207314D01*
X150869502Y-102207316D01*
X150933181Y-102270995D01*
X150966666Y-102332318D01*
X150969500Y-102358676D01*
X150969500Y-106381562D01*
X150983152Y-106432513D01*
X150989979Y-106457990D01*
X150989980Y-106457991D01*
X151001952Y-106478727D01*
X151009553Y-106491892D01*
X151029539Y-106526509D01*
X151029541Y-106526512D01*
X152457181Y-107954152D01*
X152471884Y-107981079D01*
X152488477Y-108006898D01*
X152489368Y-108013098D01*
X152490666Y-108015475D01*
X152493500Y-108041833D01*
X152493500Y-108241323D01*
X152473815Y-108308362D01*
X152457182Y-108329004D01*
X152393500Y-108392686D01*
X152327608Y-108506812D01*
X152293500Y-108634108D01*
X152293500Y-108765891D01*
X152327608Y-108893187D01*
X152360554Y-108950250D01*
X152393500Y-109007314D01*
X152486686Y-109100500D01*
X152600814Y-109166392D01*
X152728108Y-109200500D01*
X152728110Y-109200500D01*
X152859890Y-109200500D01*
X152859892Y-109200500D01*
X152987186Y-109166392D01*
X153101314Y-109100500D01*
X153194500Y-109007314D01*
X153260392Y-108893186D01*
X153294500Y-108765892D01*
X153294500Y-108634108D01*
X153260392Y-108506814D01*
X153194500Y-108392686D01*
X153130818Y-108329004D01*
X153097334Y-108267680D01*
X153094500Y-108241323D01*
X153094500Y-107826439D01*
X153094500Y-107826438D01*
X153074021Y-107750011D01*
X153074017Y-107750004D01*
X153034464Y-107681495D01*
X153034458Y-107681487D01*
X151606819Y-106253848D01*
X151573334Y-106192525D01*
X151570500Y-106166167D01*
X151570500Y-102358676D01*
X151577234Y-102335742D01*
X151579637Y-102311958D01*
X151587854Y-102299574D01*
X151590185Y-102291637D01*
X151597452Y-102281490D01*
X151601835Y-102275978D01*
X151670500Y-102207314D01*
X151707720Y-102142847D01*
X151713449Y-102135644D01*
X151734788Y-102120623D01*
X151753676Y-102102615D01*
X151762901Y-102100836D01*
X151770585Y-102095429D01*
X151796655Y-102094330D01*
X151822282Y-102089391D01*
X151831006Y-102092883D01*
X151840393Y-102092488D01*
X151862917Y-102105657D01*
X151887148Y-102115358D01*
X151892599Y-102123013D01*
X151900709Y-102127755D01*
X151912537Y-102151011D01*
X151927677Y-102172272D01*
X151930271Y-102180733D01*
X151933608Y-102193186D01*
X151999500Y-102307314D01*
X152092686Y-102400500D01*
X152206814Y-102466392D01*
X152334108Y-102500500D01*
X152334110Y-102500500D01*
X152465890Y-102500500D01*
X152465892Y-102500500D01*
X152593186Y-102466392D01*
X152707314Y-102400500D01*
X152800500Y-102307314D01*
X152866392Y-102193186D01*
X152900500Y-102065892D01*
X152900500Y-101934108D01*
X152866392Y-101806814D01*
X152800500Y-101692686D01*
X152707314Y-101599500D01*
X152650250Y-101566554D01*
X152593187Y-101533608D01*
X152529539Y-101516554D01*
X152465892Y-101499500D01*
X152334108Y-101499500D01*
X152206812Y-101533608D01*
X152092686Y-101599500D01*
X152092683Y-101599502D01*
X151999502Y-101692683D01*
X151999500Y-101692686D01*
X151970525Y-101742873D01*
X151966889Y-101749170D01*
X151916321Y-101797385D01*
X151847714Y-101810607D01*
X151782850Y-101784639D01*
X151742322Y-101727725D01*
X151739727Y-101719262D01*
X151736391Y-101706812D01*
X151710807Y-101662500D01*
X151670500Y-101592686D01*
X151577314Y-101499500D01*
X151500560Y-101455186D01*
X151463187Y-101433608D01*
X151368611Y-101408267D01*
X151335892Y-101399500D01*
X151204108Y-101399500D01*
X151076812Y-101433608D01*
X150962686Y-101499500D01*
X150962683Y-101499502D01*
X150869502Y-101592683D01*
X150869500Y-101592686D01*
X150803608Y-101706812D01*
X150769500Y-101834108D01*
X148840265Y-101834108D01*
X148840265Y-101742873D01*
X148806157Y-101615579D01*
X148740265Y-101501451D01*
X148647079Y-101408265D01*
X148590015Y-101375319D01*
X148532952Y-101342373D01*
X148469304Y-101325319D01*
X148405657Y-101308265D01*
X148273873Y-101308265D01*
X148146577Y-101342373D01*
X148032451Y-101408265D01*
X148032448Y-101408267D01*
X147939267Y-101501448D01*
X147939265Y-101501451D01*
X147873373Y-101615577D01*
X147839265Y-101742873D01*
X144932142Y-101742873D01*
X144986186Y-101728392D01*
X145100314Y-101662500D01*
X145193500Y-101569314D01*
X145259392Y-101455186D01*
X145293500Y-101327892D01*
X145293500Y-101196108D01*
X145259392Y-101068814D01*
X145193500Y-100954686D01*
X145100314Y-100861500D01*
X145051587Y-100833367D01*
X145051586Y-100833366D01*
X144986189Y-100795609D01*
X144986186Y-100795608D01*
X144858892Y-100761500D01*
X144727108Y-100761500D01*
X144599812Y-100795608D01*
X144485686Y-100861500D01*
X144485683Y-100861502D01*
X144392502Y-100954683D01*
X144392500Y-100954686D01*
X144326608Y-101068812D01*
X144292500Y-101196108D01*
X139200500Y-101196108D01*
X139200500Y-100734108D01*
X146999500Y-100734108D01*
X146999500Y-100865891D01*
X147033608Y-100993187D01*
X147038681Y-101001973D01*
X147099500Y-101107314D01*
X147192686Y-101200500D01*
X147306814Y-101266392D01*
X147434108Y-101300500D01*
X147434110Y-101300500D01*
X147565890Y-101300500D01*
X147565892Y-101300500D01*
X147693186Y-101266392D01*
X147807314Y-101200500D01*
X147900500Y-101107314D01*
X147966392Y-100993186D01*
X148000500Y-100865892D01*
X148000500Y-100734108D01*
X147966392Y-100606814D01*
X147958255Y-100592721D01*
X151257280Y-100592721D01*
X151257280Y-100724504D01*
X151291388Y-100851800D01*
X151324290Y-100908786D01*
X151357280Y-100965927D01*
X151450466Y-101059113D01*
X151564594Y-101125005D01*
X151691888Y-101159113D01*
X151691890Y-101159113D01*
X151823670Y-101159113D01*
X151823672Y-101159113D01*
X151950966Y-101125005D01*
X152065094Y-101059113D01*
X152158280Y-100965927D01*
X152224172Y-100851799D01*
X152258280Y-100724505D01*
X152258280Y-100592721D01*
X152242970Y-100535581D01*
X155149500Y-100535581D01*
X155149500Y-100667364D01*
X155183608Y-100794660D01*
X155205957Y-100833368D01*
X155249500Y-100908787D01*
X155342686Y-101001973D01*
X155456814Y-101067865D01*
X155584108Y-101101973D01*
X155584110Y-101101973D01*
X155715890Y-101101973D01*
X155715892Y-101101973D01*
X155843186Y-101067865D01*
X155957314Y-101001973D01*
X156050500Y-100908787D01*
X156116392Y-100794659D01*
X156150500Y-100667365D01*
X156150500Y-100624500D01*
X156170185Y-100557461D01*
X156222989Y-100511706D01*
X156274500Y-100500500D01*
X156365890Y-100500500D01*
X156365892Y-100500500D01*
X156493186Y-100466392D01*
X156607314Y-100400500D01*
X156700500Y-100307314D01*
X156766392Y-100193186D01*
X156783256Y-100130247D01*
X157449500Y-100130247D01*
X157449500Y-101869752D01*
X157461131Y-101928229D01*
X157461132Y-101928230D01*
X157505447Y-101994552D01*
X157571769Y-102038867D01*
X157571770Y-102038868D01*
X157630247Y-102050499D01*
X157630250Y-102050500D01*
X157630252Y-102050500D01*
X159369750Y-102050500D01*
X159369751Y-102050499D01*
X159384568Y-102047552D01*
X159428229Y-102038868D01*
X159428229Y-102038867D01*
X159428231Y-102038867D01*
X159494552Y-101994552D01*
X159538867Y-101928231D01*
X159538867Y-101928229D01*
X159538868Y-101928229D01*
X159547552Y-101884568D01*
X159550500Y-101869748D01*
X159550500Y-100130252D01*
X159550500Y-100130249D01*
X159550499Y-100130247D01*
X159538868Y-100071770D01*
X159538867Y-100071769D01*
X159494552Y-100005447D01*
X159428230Y-99961132D01*
X159428229Y-99961131D01*
X159369752Y-99949500D01*
X159369748Y-99949500D01*
X157630252Y-99949500D01*
X157630247Y-99949500D01*
X157571770Y-99961131D01*
X157571769Y-99961132D01*
X157505447Y-100005447D01*
X157461132Y-100071769D01*
X157461131Y-100071770D01*
X157449500Y-100130247D01*
X156783256Y-100130247D01*
X156800500Y-100065892D01*
X156800500Y-99934108D01*
X156766392Y-99806814D01*
X156700500Y-99692686D01*
X156607314Y-99599500D01*
X156549100Y-99565890D01*
X156493187Y-99533608D01*
X156406941Y-99510499D01*
X156365892Y-99499500D01*
X156234108Y-99499500D01*
X156106812Y-99533608D01*
X155992686Y-99599500D01*
X155992683Y-99599502D01*
X155899502Y-99692683D01*
X155899500Y-99692686D01*
X155833608Y-99806812D01*
X155799500Y-99934108D01*
X155799500Y-99976973D01*
X155779815Y-100044012D01*
X155727011Y-100089767D01*
X155675500Y-100100973D01*
X155584108Y-100100973D01*
X155456812Y-100135081D01*
X155342686Y-100200973D01*
X155342683Y-100200975D01*
X155249502Y-100294156D01*
X155249500Y-100294159D01*
X155183608Y-100408285D01*
X155149500Y-100535581D01*
X152242970Y-100535581D01*
X152224172Y-100465427D01*
X152158280Y-100351299D01*
X152065094Y-100258113D01*
X151992347Y-100216112D01*
X151944133Y-100165545D01*
X151930911Y-100096938D01*
X151956879Y-100032074D01*
X152013793Y-99991546D01*
X152022236Y-99988957D01*
X152106451Y-99966392D01*
X152220579Y-99900500D01*
X152313765Y-99807314D01*
X152379657Y-99693186D01*
X152413765Y-99565892D01*
X152413765Y-99434108D01*
X152379657Y-99306814D01*
X152313765Y-99192686D01*
X152220579Y-99099500D01*
X152163515Y-99066554D01*
X152106452Y-99033608D01*
X152006453Y-99006814D01*
X151979157Y-98999500D01*
X151847373Y-98999500D01*
X151720077Y-99033608D01*
X151605951Y-99099500D01*
X151605948Y-99099502D01*
X151512767Y-99192683D01*
X151512765Y-99192686D01*
X151446873Y-99306812D01*
X151412765Y-99434108D01*
X151412765Y-99565891D01*
X151446873Y-99693187D01*
X151479819Y-99750250D01*
X151512765Y-99807314D01*
X151605951Y-99900500D01*
X151664162Y-99934108D01*
X151678695Y-99942499D01*
X151726911Y-99993066D01*
X151740133Y-100061673D01*
X151714165Y-100126538D01*
X151657251Y-100167066D01*
X151648789Y-100169661D01*
X151620697Y-100177188D01*
X151564594Y-100192221D01*
X151564592Y-100192221D01*
X151564592Y-100192222D01*
X151450466Y-100258113D01*
X151450463Y-100258115D01*
X151357282Y-100351296D01*
X151357280Y-100351299D01*
X151291388Y-100465425D01*
X151257280Y-100592721D01*
X147958255Y-100592721D01*
X147900500Y-100492686D01*
X147807314Y-100399500D01*
X147723828Y-100351299D01*
X147693187Y-100333608D01*
X147629539Y-100316554D01*
X147565892Y-100299500D01*
X147434108Y-100299500D01*
X147306812Y-100333608D01*
X147192686Y-100399500D01*
X147192683Y-100399502D01*
X147099502Y-100492683D01*
X147099500Y-100492686D01*
X147033608Y-100606812D01*
X146999500Y-100734108D01*
X139200500Y-100734108D01*
X139200500Y-99134108D01*
X139599500Y-99134108D01*
X139599500Y-99265891D01*
X139633608Y-99393187D01*
X139666554Y-99450250D01*
X139699500Y-99507314D01*
X139792686Y-99600500D01*
X139906814Y-99666392D01*
X140034108Y-99700500D01*
X140034110Y-99700500D01*
X140165890Y-99700500D01*
X140165892Y-99700500D01*
X140293186Y-99666392D01*
X140407314Y-99600500D01*
X140500500Y-99507314D01*
X140566392Y-99393186D01*
X140600500Y-99265892D01*
X140600500Y-99134108D01*
X140566392Y-99006814D01*
X140500500Y-98892686D01*
X140407314Y-98799500D01*
X140350004Y-98766412D01*
X140293187Y-98733608D01*
X140229539Y-98716554D01*
X140165892Y-98699500D01*
X140034108Y-98699500D01*
X139906812Y-98733608D01*
X139792686Y-98799500D01*
X139792683Y-98799502D01*
X139699502Y-98892683D01*
X139699500Y-98892686D01*
X139633608Y-99006812D01*
X139599500Y-99134108D01*
X139200500Y-99134108D01*
X139200500Y-98356530D01*
X157449500Y-98356530D01*
X157449500Y-98563469D01*
X157489868Y-98766412D01*
X157489870Y-98766420D01*
X157569058Y-98957596D01*
X157684024Y-99129657D01*
X157830342Y-99275975D01*
X157830345Y-99275977D01*
X158002402Y-99390941D01*
X158193580Y-99470130D01*
X158341234Y-99499500D01*
X158396530Y-99510499D01*
X158396534Y-99510500D01*
X158396535Y-99510500D01*
X158603466Y-99510500D01*
X158603467Y-99510499D01*
X158806420Y-99470130D01*
X158997598Y-99390941D01*
X159169655Y-99275977D01*
X159315977Y-99129655D01*
X159430941Y-98957598D01*
X159510130Y-98766420D01*
X159550500Y-98563465D01*
X159550500Y-98356535D01*
X159510130Y-98153580D01*
X159430941Y-97962402D01*
X159315977Y-97790345D01*
X159315975Y-97790342D01*
X159169657Y-97644024D01*
X159083626Y-97586541D01*
X158997598Y-97529059D01*
X158806420Y-97449870D01*
X158806412Y-97449868D01*
X158603469Y-97409500D01*
X158603465Y-97409500D01*
X158396535Y-97409500D01*
X158396530Y-97409500D01*
X158193587Y-97449868D01*
X158193579Y-97449870D01*
X158002403Y-97529058D01*
X157830342Y-97644024D01*
X157684024Y-97790342D01*
X157569058Y-97962403D01*
X157489870Y-98153579D01*
X157489868Y-98153587D01*
X157449500Y-98356530D01*
X139200500Y-98356530D01*
X139200500Y-96834108D01*
X148599500Y-96834108D01*
X148599500Y-96965892D01*
X148600735Y-96970500D01*
X148633608Y-97093187D01*
X148641145Y-97106241D01*
X148699500Y-97207314D01*
X148792686Y-97300500D01*
X148906814Y-97366392D01*
X149034108Y-97400500D01*
X149034110Y-97400500D01*
X149165890Y-97400500D01*
X149165892Y-97400500D01*
X149293186Y-97366392D01*
X149325620Y-97347666D01*
X155511588Y-97347666D01*
X155511588Y-97479449D01*
X155545696Y-97606745D01*
X155578642Y-97663808D01*
X155611588Y-97720872D01*
X155704774Y-97814058D01*
X155818902Y-97879950D01*
X155946196Y-97914058D01*
X155946198Y-97914058D01*
X156077978Y-97914058D01*
X156077980Y-97914058D01*
X156205274Y-97879950D01*
X156319402Y-97814058D01*
X156412588Y-97720872D01*
X156478480Y-97606744D01*
X156512588Y-97479450D01*
X156512588Y-97347666D01*
X156478480Y-97220372D01*
X156412588Y-97106244D01*
X156319402Y-97013058D01*
X156245688Y-96970499D01*
X156205275Y-96947166D01*
X156141627Y-96930112D01*
X156077980Y-96913058D01*
X155946196Y-96913058D01*
X155818900Y-96947166D01*
X155704774Y-97013058D01*
X155704771Y-97013060D01*
X155611590Y-97106241D01*
X155611588Y-97106244D01*
X155545696Y-97220370D01*
X155511588Y-97347666D01*
X149325620Y-97347666D01*
X149407314Y-97300500D01*
X149500500Y-97207314D01*
X149566392Y-97093186D01*
X149600500Y-96965892D01*
X149600500Y-96834108D01*
X149566392Y-96706814D01*
X149500500Y-96592686D01*
X149407314Y-96499500D01*
X149350250Y-96466554D01*
X149293187Y-96433608D01*
X149229539Y-96416554D01*
X149165892Y-96399500D01*
X149034108Y-96399500D01*
X148906812Y-96433608D01*
X148792686Y-96499500D01*
X148792683Y-96499502D01*
X148699502Y-96592683D01*
X148699500Y-96592686D01*
X148633608Y-96706812D01*
X148599500Y-96834108D01*
X139200500Y-96834108D01*
X139200500Y-94403845D01*
X139200739Y-94396154D01*
X139209624Y-94253185D01*
X139214061Y-94181783D01*
X139215961Y-94166547D01*
X139255013Y-93959243D01*
X139258792Y-93944340D01*
X139273583Y-93898217D01*
X139323207Y-93743480D01*
X139328794Y-93729176D01*
X139360844Y-93660108D01*
X149867500Y-93660108D01*
X149867500Y-93791891D01*
X149901608Y-93919187D01*
X149924739Y-93959250D01*
X149967500Y-94033314D01*
X150060686Y-94126500D01*
X150174814Y-94192392D01*
X150302108Y-94226500D01*
X150302110Y-94226500D01*
X150433890Y-94226500D01*
X150433892Y-94226500D01*
X150561186Y-94192392D01*
X150675314Y-94126500D01*
X150768500Y-94033314D01*
X150834392Y-93919186D01*
X150868500Y-93791892D01*
X150868500Y-93660108D01*
X150834392Y-93532814D01*
X150768500Y-93418686D01*
X150675314Y-93325500D01*
X150585686Y-93273753D01*
X150561187Y-93259608D01*
X150497539Y-93242554D01*
X150433892Y-93225500D01*
X150302108Y-93225500D01*
X150174812Y-93259608D01*
X150060686Y-93325500D01*
X150060683Y-93325502D01*
X149967502Y-93418683D01*
X149967500Y-93418686D01*
X149901608Y-93532812D01*
X149867500Y-93660108D01*
X139360844Y-93660108D01*
X139417589Y-93537822D01*
X139424904Y-93524321D01*
X139536712Y-93345428D01*
X139545628Y-93332956D01*
X139678735Y-93169271D01*
X139689139Y-93157987D01*
X139841468Y-93012062D01*
X139853198Y-93002145D01*
X140022426Y-92876200D01*
X140035284Y-92867818D01*
X140222152Y-92761897D01*
X140228963Y-92758312D01*
X140357484Y-92695697D01*
X140605431Y-92538404D01*
X140834295Y-92354449D01*
X141041224Y-92146125D01*
X141223638Y-91916030D01*
X141379261Y-91667032D01*
X141506155Y-91402237D01*
X141602735Y-91124945D01*
X141606920Y-91106524D01*
X141640969Y-91045514D01*
X141702598Y-91012596D01*
X141727838Y-91010000D01*
X142682423Y-91010000D01*
X142749462Y-91029685D01*
G37*
G04 #@! TD.AperFunction*
G04 #@! TA.AperFunction,Conductor*
G36*
X162285177Y-123341625D02*
G01*
X162334150Y-123351914D01*
X162383906Y-123400966D01*
X162399500Y-123461167D01*
X162399500Y-123922654D01*
X162379815Y-123989693D01*
X162327011Y-124035448D01*
X162257853Y-124045392D01*
X162194297Y-124016367D01*
X162156523Y-123957589D01*
X162153883Y-123946846D01*
X162153867Y-123946770D01*
X162153867Y-123946769D01*
X162109552Y-123880447D01*
X162043230Y-123836132D01*
X162024976Y-123832501D01*
X161963065Y-123800115D01*
X161928492Y-123739399D01*
X161925551Y-123701156D01*
X161926430Y-123689982D01*
X161336448Y-123100000D01*
X161342661Y-123100000D01*
X161444394Y-123072741D01*
X161535606Y-123020080D01*
X161610080Y-122945606D01*
X161662741Y-122854394D01*
X161690000Y-122752661D01*
X161690000Y-122746447D01*
X162285177Y-123341625D01*
G37*
G04 #@! TD.AperFunction*
G04 #@! TD*
M02*
