M48
; DRILL file {KiCad 9.0.5-9.0.5~ubuntu24.04.1} date 2025-10-20T13:53:41+0200
; FORMAT={-:-/ absolute / metric / decimal}
; #@! TF.CreationDate,2025-10-20T13:53:41+02:00
; #@! TF.GenerationSoftware,Kicad,Pcbnew,9.0.5-9.0.5~ubuntu24.04.1
; #@! TF.FileFunction,Plated,1,4,PTH
FMAT,2
METRIC
; #@! TA.AperFunction,Plated,PTH,ViaDrill
T1C0.300
; #@! TA.AperFunction,Plated,PTH,ComponentDrill
T2C0.800
; #@! TA.AperFunction,Plated,PTH,ComponentDrill
T3C1.000
%
G90
G05
T1
X139.84Y-97.452
X140.1Y-99.2
X140.348Y-96.944
X140.716Y-100.5
X140.716Y-101.516
X140.716Y-102.532
X140.716Y-103.548
X140.843Y-107.569
X140.856Y-95.928
X141.351Y-106.426
X141.872Y-104.31
X141.872Y-105.58
X141.999Y-95.293
X142.24Y-126.074
X142.888Y-105.58
X143.65Y-95.166
X144.158Y-94.658
X144.666Y-94.15
X144.666Y-125.138
X144.7Y-107.4
X144.793Y-101.262
X144.92Y-93.134
X144.92Y-110.406
X145.682Y-125.138
X145.8Y-109.898
X145.936Y-124.376
X146.259Y-103.86
X146.304Y-118.11
X146.444Y-125.138
X146.571Y-91.483
X147.1Y-113.8
X147.333Y-93.261
X147.46Y-120.058
X147.5Y-100.8
X147.7Y-96.9
X148.34Y-101.809
X148.476Y-121.328
X148.476Y-122.344
X148.5Y-79.4
X148.5Y-80.2
X148.5Y-81.0
X148.5Y-81.8
X148.5Y-82.6
X148.6Y-83.5
X149.0Y-118.5
X149.1Y-96.9
X149.5Y-83.5
X149.746Y-113.454
X149.873Y-88.435
X150.3Y-97.0
X150.368Y-93.726
X150.4Y-83.5
X150.762Y-88.435
X151.27Y-101.9
X151.4Y-83.5
X151.4Y-89.9
X151.524Y-109.39
X151.758Y-100.659
X151.913Y-99.5
X152.2Y-89.9
X152.3Y-83.5
X152.4Y-102.0
X152.561Y-111.144
X152.794Y-108.7
X152.794Y-116.248
X152.9Y-85.2
X152.9Y-86.0
X152.9Y-86.7
X152.9Y-87.4
X152.9Y-88.2
X152.9Y-88.9
X152.9Y-89.6
X153.048Y-96.944
X153.048Y-109.898
X153.1Y-83.8
X153.1Y-84.5
X153.175Y-92.118
X153.175Y-92.88
X153.8Y-79.8
X154.064Y-109.898
X154.4Y-80.3
X154.8Y-81.0
X154.8Y-81.8
X154.8Y-82.7
X154.8Y-83.5
X154.8Y-84.3
X154.826Y-109.898
X154.9Y-122.9
X155.0Y-88.2
X155.0Y-124.0
X155.1Y-85.0
X155.1Y-85.7
X155.1Y-86.4
X155.1Y-87.1
X155.1Y-89.0
X155.1Y-89.7
X155.1Y-90.4
X155.588Y-108.628
X155.588Y-109.39
X155.65Y-100.601
X155.842Y-92.245
X156.012Y-97.414
X156.3Y-100.0
X156.35Y-107.866
X156.35Y-108.628
X156.5Y-102.0
X160.147Y-123.8
X160.147Y-125.8
X160.287Y-93.134
X160.287Y-94.023
X160.287Y-94.912
X161.5Y-107.5
X161.5Y-108.516
X161.5Y-109.532
X161.5Y-111.676
X161.671Y-116.896
X161.719Y-118.823
T2
X161.29Y-122.7
X161.29Y-124.7
T3
X158.5Y-93.38
X158.5Y-95.92
X158.5Y-98.46
X158.5Y-101.0
M30
