G04 #@! TF.GenerationSoftware,KiCad,Pcbnew,9.0.3-9.0.3-0~ubuntu24.04.1*
G04 #@! TF.CreationDate,2025-08-01T09:32:50+02:00*
G04 #@! TF.ProjectId,PicoBalloon,5069636f-4261-46c6-9c6f-6f6e2e6b6963,rev?*
G04 #@! TF.SameCoordinates,Original*
G04 #@! TF.FileFunction,Paste,Top*
G04 #@! TF.FilePolarity,Positive*
%FSLAX46Y46*%
G04 Gerber Fmt 4.6, Leading zero omitted, Abs format (unit mm)*
G04 Created by KiCad (PCBNEW 9.0.3-9.0.3-0~ubuntu24.04.1) date 2025-08-01 09:32:50*
%MOMM*%
%LPD*%
G01*
G04 APERTURE LIST*
G04 Aperture macros list*
%AMRoundRect*
0 Rectangle with rounded corners*
0 $1 Rounding radius*
0 $2 $3 $4 $5 $6 $7 $8 $9 X,Y pos of 4 corners*
0 Add a 4 corners polygon primitive as box body*
4,1,4,$2,$3,$4,$5,$6,$7,$8,$9,$2,$3,0*
0 Add four circle primitives for the rounded corners*
1,1,$1+$1,$2,$3*
1,1,$1+$1,$4,$5*
1,1,$1+$1,$6,$7*
1,1,$1+$1,$8,$9*
0 Add four rect primitives between the rounded corners*
20,1,$1+$1,$2,$3,$4,$5,0*
20,1,$1+$1,$4,$5,$6,$7,0*
20,1,$1+$1,$6,$7,$8,$9,0*
20,1,$1+$1,$8,$9,$2,$3,0*%
G04 Aperture macros list end*
%ADD10RoundRect,0.237500X-0.300000X-0.237500X0.300000X-0.237500X0.300000X0.237500X-0.300000X0.237500X0*%
%ADD11RoundRect,0.237500X0.237500X-0.300000X0.237500X0.300000X-0.237500X0.300000X-0.237500X-0.300000X0*%
%ADD12RoundRect,0.075000X-0.662500X-0.075000X0.662500X-0.075000X0.662500X0.075000X-0.662500X0.075000X0*%
%ADD13RoundRect,0.075000X-0.075000X-0.662500X0.075000X-0.662500X0.075000X0.662500X-0.075000X0.662500X0*%
%ADD14RoundRect,0.237500X-0.287500X-0.237500X0.287500X-0.237500X0.287500X0.237500X-0.287500X0.237500X0*%
%ADD15RoundRect,0.237500X-0.237500X0.300000X-0.237500X-0.300000X0.237500X-0.300000X0.237500X0.300000X0*%
%ADD16RoundRect,0.237500X-0.250000X-0.237500X0.250000X-0.237500X0.250000X0.237500X-0.250000X0.237500X0*%
%ADD17RoundRect,0.250000X0.475000X-0.337500X0.475000X0.337500X-0.475000X0.337500X-0.475000X-0.337500X0*%
%ADD18RoundRect,0.237500X0.250000X0.237500X-0.250000X0.237500X-0.250000X-0.237500X0.250000X-0.237500X0*%
%ADD19RoundRect,0.237500X0.237500X-0.250000X0.237500X0.250000X-0.237500X0.250000X-0.237500X-0.250000X0*%
%ADD20R,4.000000X1.600000*%
%ADD21RoundRect,0.100000X-0.100000X0.225000X-0.100000X-0.225000X0.100000X-0.225000X0.100000X0.225000X0*%
G04 APERTURE END LIST*
D10*
G04 #@! TO.C,C7*
X141988500Y-99572500D03*
X143713500Y-99572500D03*
G04 #@! TD*
D11*
G04 #@! TO.C,C3*
X161014000Y-118621000D03*
X161014000Y-116896000D03*
G04 #@! TD*
G04 #@! TO.C,C8*
X153300000Y-107262500D03*
X153300000Y-105537500D03*
G04 #@! TD*
D12*
G04 #@! TO.C,U4*
X146087500Y-96587500D03*
X146087500Y-97087500D03*
X146087500Y-97587500D03*
X146087500Y-98087500D03*
X146087500Y-98587500D03*
X146087500Y-99087500D03*
X146087500Y-99587500D03*
X146087500Y-100087500D03*
X146087500Y-100587500D03*
X146087500Y-101087500D03*
X146087500Y-101587500D03*
X146087500Y-102087500D03*
D13*
X147500000Y-103500000D03*
X148000000Y-103500000D03*
X148500000Y-103500000D03*
X149000000Y-103500000D03*
X149500000Y-103500000D03*
X150000000Y-103500000D03*
X150500000Y-103500000D03*
X151000000Y-103500000D03*
X151500000Y-103500000D03*
X152000000Y-103500000D03*
X152500000Y-103500000D03*
X153000000Y-103500000D03*
D12*
X154412500Y-102087500D03*
X154412500Y-101587500D03*
X154412500Y-101087500D03*
X154412500Y-100587500D03*
X154412500Y-100087500D03*
X154412500Y-99587500D03*
X154412500Y-99087500D03*
X154412500Y-98587500D03*
X154412500Y-98087500D03*
X154412500Y-97587500D03*
X154412500Y-97087500D03*
X154412500Y-96587500D03*
D13*
X153000000Y-95175000D03*
X152500000Y-95175000D03*
X152000000Y-95175000D03*
X151500000Y-95175000D03*
X151000000Y-95175000D03*
X150500000Y-95175000D03*
X150000000Y-95175000D03*
X149500000Y-95175000D03*
X149000000Y-95175000D03*
X148500000Y-95175000D03*
X148000000Y-95175000D03*
X147500000Y-95175000D03*
G04 #@! TD*
D14*
G04 #@! TO.C,D1*
X160118950Y-105851736D03*
X161868950Y-105851736D03*
G04 #@! TD*
D10*
G04 #@! TO.C,C12*
X141962000Y-96524500D03*
X143687000Y-96524500D03*
G04 #@! TD*
G04 #@! TO.C,C6*
X141902379Y-103031655D03*
X143627379Y-103031655D03*
G04 #@! TD*
D15*
G04 #@! TO.C,C9*
X145999500Y-92614000D03*
X145999500Y-94339000D03*
G04 #@! TD*
D16*
G04 #@! TO.C,R6*
X141912000Y-98048500D03*
X143737000Y-98048500D03*
G04 #@! TD*
D14*
G04 #@! TO.C,D2*
X160132950Y-104200736D03*
X161882950Y-104200736D03*
G04 #@! TD*
D15*
G04 #@! TO.C,C11*
X154600000Y-92937500D03*
X154600000Y-94662500D03*
G04 #@! TD*
D17*
G04 #@! TO.C,C4*
X161600000Y-115137500D03*
X161600000Y-113062500D03*
G04 #@! TD*
D18*
G04 #@! TO.C,R4*
X158563450Y-104200736D03*
X156738450Y-104200736D03*
G04 #@! TD*
D19*
G04 #@! TO.C,R5*
X149428500Y-93142500D03*
X149428500Y-91317500D03*
G04 #@! TD*
D18*
G04 #@! TO.C,R3*
X158563450Y-105851736D03*
X156738450Y-105851736D03*
G04 #@! TD*
D10*
G04 #@! TO.C,C10*
X141988500Y-101096500D03*
X143713500Y-101096500D03*
G04 #@! TD*
D20*
G04 #@! TO.C,MOD1*
X142000000Y-110774000D03*
X142000000Y-112774000D03*
X142000000Y-114774000D03*
X142000000Y-116774000D03*
X142000000Y-118774000D03*
X142000000Y-120774000D03*
X142000000Y-122774000D03*
X142000000Y-124774000D03*
X158000000Y-124774000D03*
X158000000Y-122774000D03*
X158000000Y-120774000D03*
X158000000Y-118774000D03*
X158000000Y-116774000D03*
X158000000Y-114774000D03*
X158000000Y-112774000D03*
X158000000Y-110774000D03*
G04 #@! TD*
D21*
G04 #@! TO.C,U3*
X145065879Y-104494655D03*
X144415879Y-104494655D03*
X143765879Y-104494655D03*
X143765879Y-106394655D03*
X145065879Y-106394655D03*
G04 #@! TD*
M02*
