G04 #@! TF.GenerationSoftware,KiCad,Pcbnew,9.0.3-9.0.3-0~ubuntu24.04.1*
G04 #@! TF.CreationDate,2025-08-01T09:32:50+02:00*
G04 #@! TF.ProjectId,PicoBalloon,5069636f-4261-46c6-9c6f-6f6e2e6b6963,rev?*
G04 #@! TF.SameCoordinates,Original*
G04 #@! TF.FileFunction,Copper,L4,Bot*
G04 #@! TF.FilePolarity,Positive*
%FSLAX46Y46*%
G04 Gerber Fmt 4.6, Leading zero omitted, Abs format (unit mm)*
G04 Created by KiCad (PCBNEW 9.0.3-9.0.3-0~ubuntu24.04.1) date 2025-08-01 09:32:50*
%MOMM*%
%LPD*%
G01*
G04 APERTURE LIST*
G04 Aperture macros list*
%AMRoundRect*
0 Rectangle with rounded corners*
0 $1 Rounding radius*
0 $2 $3 $4 $5 $6 $7 $8 $9 X,Y pos of 4 corners*
0 Add a 4 corners polygon primitive as box body*
4,1,4,$2,$3,$4,$5,$6,$7,$8,$9,$2,$3,0*
0 Add four circle primitives for the rounded corners*
1,1,$1+$1,$2,$3*
1,1,$1+$1,$4,$5*
1,1,$1+$1,$6,$7*
1,1,$1+$1,$8,$9*
0 Add four rect primitives between the rounded corners*
20,1,$1+$1,$2,$3,$4,$5,0*
20,1,$1+$1,$4,$5,$6,$7,0*
20,1,$1+$1,$6,$7,$8,$9,0*
20,1,$1+$1,$8,$9,$2,$3,0*%
%AMOutline4P*
0 Free polygon, 4 corners , with rotation*
0 The origin of the aperture is its center*
0 number of corners: always 4*
0 $1 to $8 corner X, Y*
0 $9 Rotation angle, in degrees counterclockwise*
0 create outline with 4 corners*
4,1,4,$1,$2,$3,$4,$5,$6,$7,$8,$1,$2,$9*%
G04 Aperture macros list end*
G04 #@! TA.AperFunction,ComponentPad*
%ADD10R,1.700000X1.700000*%
G04 #@! TD*
G04 #@! TA.AperFunction,ComponentPad*
%ADD11C,1.700000*%
G04 #@! TD*
G04 #@! TA.AperFunction,ComponentPad*
%ADD12R,1.350000X1.350000*%
G04 #@! TD*
G04 #@! TA.AperFunction,ComponentPad*
%ADD13C,1.350000*%
G04 #@! TD*
G04 #@! TA.AperFunction,SMDPad,CuDef*
%ADD14RoundRect,0.150000X-0.150000X0.512500X-0.150000X-0.512500X0.150000X-0.512500X0.150000X0.512500X0*%
G04 #@! TD*
G04 #@! TA.AperFunction,SMDPad,CuDef*
%ADD15RoundRect,0.237500X0.250000X0.237500X-0.250000X0.237500X-0.250000X-0.237500X0.250000X-0.237500X0*%
G04 #@! TD*
G04 #@! TA.AperFunction,SMDPad,CuDef*
%ADD16RoundRect,0.237500X-0.237500X0.250000X-0.237500X-0.250000X0.237500X-0.250000X0.237500X0.250000X0*%
G04 #@! TD*
G04 #@! TA.AperFunction,SMDPad,CuDef*
%ADD17RoundRect,0.237500X0.237500X-0.287500X0.237500X0.287500X-0.237500X0.287500X-0.237500X-0.287500X0*%
G04 #@! TD*
G04 #@! TA.AperFunction,SMDPad,CuDef*
%ADD18RoundRect,0.237500X0.300000X0.237500X-0.300000X0.237500X-0.300000X-0.237500X0.300000X-0.237500X0*%
G04 #@! TD*
G04 #@! TA.AperFunction,SMDPad,CuDef*
%ADD19Outline4P,-0.400000X-0.325000X0.400000X-0.325000X0.400000X0.325000X-0.400000X0.325000X0.000000*%
G04 #@! TD*
G04 #@! TA.AperFunction,SMDPad,CuDef*
%ADD20Outline4P,-0.400000X-0.800000X0.400000X-0.800000X0.400000X0.800000X-0.400000X0.800000X0.000000*%
G04 #@! TD*
G04 #@! TA.AperFunction,SMDPad,CuDef*
%ADD21RoundRect,0.162500X-0.162500X0.617500X-0.162500X-0.617500X0.162500X-0.617500X0.162500X0.617500X0*%
G04 #@! TD*
G04 #@! TA.AperFunction,SMDPad,CuDef*
%ADD22RoundRect,0.250000X0.475000X-0.337500X0.475000X0.337500X-0.475000X0.337500X-0.475000X-0.337500X0*%
G04 #@! TD*
G04 #@! TA.AperFunction,SMDPad,CuDef*
%ADD23RoundRect,0.237500X-0.250000X-0.237500X0.250000X-0.237500X0.250000X0.237500X-0.250000X0.237500X0*%
G04 #@! TD*
G04 #@! TA.AperFunction,SMDPad,CuDef*
%ADD24RoundRect,0.450000X-1.050000X1.050000X-1.050000X-1.050000X1.050000X-1.050000X1.050000X1.050000X0*%
G04 #@! TD*
G04 #@! TA.AperFunction,SMDPad,CuDef*
%ADD25R,0.800000X1.800000*%
G04 #@! TD*
G04 #@! TA.AperFunction,SMDPad,CuDef*
%ADD26RoundRect,0.249999X0.450001X1.075001X-0.450001X1.075001X-0.450001X-1.075001X0.450001X-1.075001X0*%
G04 #@! TD*
G04 #@! TA.AperFunction,SMDPad,CuDef*
%ADD27RoundRect,0.250001X-0.944999X0.507499X-0.944999X-0.507499X0.944999X-0.507499X0.944999X0.507499X0*%
G04 #@! TD*
G04 #@! TA.AperFunction,SMDPad,CuDef*
%ADD28RoundRect,0.237500X0.237500X-0.300000X0.237500X0.300000X-0.237500X0.300000X-0.237500X-0.300000X0*%
G04 #@! TD*
G04 #@! TA.AperFunction,SMDPad,CuDef*
%ADD29RoundRect,0.162500X-0.617500X-0.162500X0.617500X-0.162500X0.617500X0.162500X-0.617500X0.162500X0*%
G04 #@! TD*
G04 #@! TA.AperFunction,SMDPad,CuDef*
%ADD30RoundRect,0.250001X0.849999X-0.462499X0.849999X0.462499X-0.849999X0.462499X-0.849999X-0.462499X0*%
G04 #@! TD*
G04 #@! TA.AperFunction,ViaPad*
%ADD31C,0.600000*%
G04 #@! TD*
G04 #@! TA.AperFunction,Conductor*
%ADD32C,0.354575*%
G04 #@! TD*
G04 #@! TA.AperFunction,Conductor*
%ADD33C,0.200000*%
G04 #@! TD*
G04 #@! TA.AperFunction,Conductor*
%ADD34C,0.500000*%
G04 #@! TD*
G04 #@! TA.AperFunction,Conductor*
%ADD35C,1.000000*%
G04 #@! TD*
G04 APERTURE END LIST*
D10*
G04 #@! TO.P,J4,1,Pin_1*
G04 #@! TO.N,+3V3*
X159200000Y-101080000D03*
D11*
G04 #@! TO.P,J4,2,Pin_2*
G04 #@! TO.N,/SWDIO*
X159200000Y-98540000D03*
G04 #@! TO.P,J4,3,Pin_3*
G04 #@! TO.N,/SWCLK*
X159200000Y-96000000D03*
G04 #@! TO.P,J4,4,Pin_4*
G04 #@! TO.N,GND*
X159200000Y-93460000D03*
G04 #@! TD*
D12*
G04 #@! TO.P,J3,1,Pin_1*
G04 #@! TO.N,Net-(J3-Pin_1)*
X161900000Y-124700000D03*
D13*
G04 #@! TO.P,J3,2,Pin_2*
G04 #@! TO.N,GND*
X161900000Y-122700000D03*
G04 #@! TD*
D14*
G04 #@! TO.P,U5,1,SW*
G04 #@! TO.N,Net-(U5-SW)*
X150661000Y-112414000D03*
G04 #@! TO.P,U5,2,GND*
G04 #@! TO.N,GND*
X151611000Y-112414000D03*
G04 #@! TO.P,U5,3,EN*
G04 #@! TO.N,/BOOST_EN*
X152561000Y-112414000D03*
G04 #@! TO.P,U5,4,V_{FB}*
G04 #@! TO.N,Net-(U5-V_{FB})*
X152561000Y-114689000D03*
G04 #@! TO.P,U5,5,V_{OUT}*
G04 #@! TO.N,+3V3*
X151611000Y-114689000D03*
G04 #@! TO.P,U5,6,V_{IN}*
G04 #@! TO.N,/V_SOLAR*
X150661000Y-114689000D03*
G04 #@! TD*
D15*
G04 #@! TO.P,R2,1*
G04 #@! TO.N,Net-(J2-Pin_2)*
X154615500Y-118621000D03*
G04 #@! TO.P,R2,2*
G04 #@! TO.N,/V_SOLAR*
X152790500Y-118621000D03*
G04 #@! TD*
D16*
G04 #@! TO.P,R11,1*
G04 #@! TO.N,Net-(U6-Set)*
X157600000Y-121187500D03*
G04 #@! TO.P,R11,2*
G04 #@! TO.N,GND*
X157600000Y-123012500D03*
G04 #@! TD*
D17*
G04 #@! TO.P,L1,1*
G04 #@! TO.N,Net-(U2-RF_OUT)*
X154000000Y-90720000D03*
G04 #@! TO.P,L1,2*
G04 #@! TO.N,Net-(C5-Pad1)*
X154000000Y-88970000D03*
G04 #@! TD*
D18*
G04 #@! TO.P,C2,1*
G04 #@! TO.N,GND*
X155762500Y-92700000D03*
G04 #@! TO.P,C2,2*
G04 #@! TO.N,+3V3*
X154037500Y-92700000D03*
G04 #@! TD*
D16*
G04 #@! TO.P,R8,1*
G04 #@! TO.N,+3V3*
X155403000Y-115057500D03*
G04 #@! TO.P,R8,2*
G04 #@! TO.N,Net-(U5-V_{FB})*
X155403000Y-116882500D03*
G04 #@! TD*
D15*
G04 #@! TO.P,R9,1*
G04 #@! TO.N,Net-(U5-V_{FB})*
X153831000Y-116859000D03*
G04 #@! TO.P,R9,2*
G04 #@! TO.N,GND*
X152006000Y-116859000D03*
G04 #@! TD*
D19*
G04 #@! TO.P,AE1,1,FEED*
G04 #@! TO.N,Net-(AE1-FEED)*
X152600000Y-80300000D03*
D20*
G04 #@! TO.P,AE1,2,PCB_Trace*
G04 #@! TO.N,GND*
X149400000Y-79800000D03*
D19*
X152600000Y-79300000D03*
G04 #@! TD*
D21*
G04 #@! TO.P,U6,1,Vout*
G04 #@! TO.N,+3V3*
X153950000Y-121150000D03*
G04 #@! TO.P,U6,2,Gnd*
G04 #@! TO.N,GND*
X154900000Y-121150000D03*
G04 #@! TO.P,U6,3,Set*
G04 #@! TO.N,Net-(U6-Set)*
X155850000Y-121150000D03*
G04 #@! TO.P,U6,4,Enable*
G04 #@! TO.N,/SUPERCAP_EN*
X155850000Y-123850000D03*
G04 #@! TO.P,U6,5,Vin*
G04 #@! TO.N,/V_SUPERCAP_SENSE*
X153950000Y-123850000D03*
G04 #@! TD*
D22*
G04 #@! TO.P,C13,1*
G04 #@! TO.N,/V_SOLAR*
X148436000Y-115589000D03*
G04 #@! TO.P,C13,2*
G04 #@! TO.N,GND*
X148436000Y-113514000D03*
G04 #@! TD*
D16*
G04 #@! TO.P,R7,1*
G04 #@! TO.N,/V_SOLAR*
X150275000Y-117508500D03*
G04 #@! TO.P,R7,2*
G04 #@! TO.N,/BOOST_EN*
X150275000Y-119333500D03*
G04 #@! TD*
D23*
G04 #@! TO.P,R1,1*
G04 #@! TO.N,Net-(J1-Pin_2)*
X142987500Y-117100000D03*
G04 #@! TO.P,R1,2*
G04 #@! TO.N,/V_SOLAR*
X144812500Y-117100000D03*
G04 #@! TD*
D24*
G04 #@! TO.P,J2,1,Pin_1*
G04 #@! TO.N,GND*
X158500000Y-108621000D03*
G04 #@! TO.P,J2,2,Pin_2*
G04 #@! TO.N,Net-(J2-Pin_2)*
X158500000Y-114621000D03*
G04 #@! TD*
D25*
G04 #@! TO.P,U1,1,GND*
G04 #@! TO.N,GND*
X156400000Y-104850000D03*
G04 #@! TO.P,U1,2,TXD0*
G04 #@! TO.N,/GPS_TX*
X155300000Y-104850000D03*
G04 #@! TO.P,U1,3,RXD0*
G04 #@! TO.N,/GPS_RX*
X154200000Y-104850000D03*
G04 #@! TO.P,U1,4,1_PPS*
G04 #@! TO.N,/1PPS*
X153100000Y-104850000D03*
G04 #@! TO.P,U1,5,ON/OFF*
G04 #@! TO.N,/GPS_ONOFF*
X152000000Y-104850000D03*
G04 #@! TO.P,U1,6,VBAT*
G04 #@! TO.N,+3V3*
X150900000Y-104850000D03*
G04 #@! TO.P,U1,7,Reserved*
G04 #@! TO.N,unconnected-(U1-Reserved-Pad7)*
X149800000Y-104850000D03*
G04 #@! TO.P,U1,8,VCC*
G04 #@! TO.N,+3V3*
X148700000Y-104850000D03*
G04 #@! TO.P,U1,9,~{RESET}*
G04 #@! TO.N,/~{GPS_RESET}*
X147600000Y-104850000D03*
G04 #@! TO.P,U1,10,GND*
G04 #@! TO.N,GND*
X147600000Y-95150000D03*
G04 #@! TO.P,U1,11,RF_IN*
G04 #@! TO.N,Net-(U1-RF_IN)*
X148700000Y-95150000D03*
G04 #@! TO.P,U1,12,GND*
G04 #@! TO.N,GND*
X149800000Y-95150000D03*
G04 #@! TO.P,U1,13,Reserved*
G04 #@! TO.N,unconnected-(U1-Reserved-Pad13)*
X150900000Y-95150000D03*
G04 #@! TO.P,U1,14,VCC_RF*
G04 #@! TO.N,unconnected-(U1-VCC_RF-Pad14)*
X152000000Y-95150000D03*
G04 #@! TO.P,U1,15,Reserved*
G04 #@! TO.N,unconnected-(U1-Reserved-Pad15)*
X153100000Y-95150000D03*
G04 #@! TO.P,U1,16,SDA*
G04 #@! TO.N,unconnected-(U1-SDA-Pad16)*
X154200000Y-95150000D03*
G04 #@! TO.P,U1,17,SCL*
G04 #@! TO.N,unconnected-(U1-SCL-Pad17)*
X155300000Y-95150000D03*
G04 #@! TO.P,U1,18,Reserved*
G04 #@! TO.N,unconnected-(U1-Reserved-Pad18)*
X156400000Y-95150000D03*
G04 #@! TD*
D26*
G04 #@! TO.P,R10,1*
G04 #@! TO.N,+3V3*
X151384000Y-122100000D03*
G04 #@! TO.P,R10,2*
G04 #@! TO.N,/V_SUPERCAP_SENSE*
X146584000Y-122100000D03*
G04 #@! TD*
D27*
G04 #@! TO.P,C15,1*
G04 #@! TO.N,/V_SUPERCAP_SENSE*
X143650000Y-120172500D03*
G04 #@! TO.P,C15,2*
G04 #@! TO.N,GND*
X143650000Y-123427500D03*
G04 #@! TD*
D22*
G04 #@! TO.P,C14,1*
G04 #@! TO.N,+3V3*
X154403000Y-113158500D03*
G04 #@! TO.P,C14,2*
G04 #@! TO.N,GND*
X154403000Y-111083500D03*
G04 #@! TD*
D28*
G04 #@! TO.P,C5,1*
G04 #@! TO.N,Net-(C5-Pad1)*
X154000000Y-87332500D03*
G04 #@! TO.P,C5,2*
G04 #@! TO.N,Net-(AE1-FEED)*
X154000000Y-85607500D03*
G04 #@! TD*
D29*
G04 #@! TO.P,U2,1,RF_IN*
G04 #@! TO.N,Net-(U1-RF_IN)*
X149000000Y-92900000D03*
G04 #@! TO.P,U2,2,GND*
G04 #@! TO.N,GND*
X149000000Y-91950000D03*
G04 #@! TO.P,U2,3,GND*
X149000000Y-91000000D03*
G04 #@! TO.P,U2,4,RF_OUT*
G04 #@! TO.N,Net-(U2-RF_OUT)*
X151700000Y-91000000D03*
G04 #@! TO.P,U2,5,~{SHDN}*
G04 #@! TO.N,/~{LNA_SHDN}*
X151700000Y-91950000D03*
G04 #@! TO.P,U2,6,VDD*
G04 #@! TO.N,+3V3*
X151700000Y-92900000D03*
G04 #@! TD*
D18*
G04 #@! TO.P,C1,1*
G04 #@! TO.N,GND*
X151725000Y-107000000D03*
G04 #@! TO.P,C1,2*
G04 #@! TO.N,+3V3*
X150000000Y-107000000D03*
G04 #@! TD*
D30*
G04 #@! TO.P,L2,1*
G04 #@! TO.N,/V_SOLAR*
X145576000Y-114846500D03*
G04 #@! TO.P,L2,2*
G04 #@! TO.N,Net-(U5-SW)*
X145576000Y-112521500D03*
G04 #@! TD*
D24*
G04 #@! TO.P,J1,1,Pin_1*
G04 #@! TO.N,GND*
X141500000Y-108621000D03*
G04 #@! TO.P,J1,2,Pin_2*
G04 #@! TO.N,Net-(J1-Pin_2)*
X141500000Y-114621000D03*
G04 #@! TD*
D31*
G04 #@! TO.N,GND*
X161938000Y-109644000D03*
X161938000Y-108628000D03*
X161938000Y-107612000D03*
X144666000Y-94150000D03*
X144158000Y-94658000D03*
X143650000Y-95166000D03*
X138824000Y-98468000D03*
X139332000Y-97960000D03*
X139840000Y-97452000D03*
X140348000Y-96944000D03*
X140094000Y-100500000D03*
X140094000Y-101516000D03*
X140094000Y-102532000D03*
X140094000Y-103548000D03*
X139840000Y-106596000D03*
X151524000Y-109390000D03*
X147460000Y-120058000D03*
X148476000Y-122344000D03*
X148476000Y-121328000D03*
G04 #@! TO.N,/V_SUPERCAP_SENSE*
X146400000Y-108628000D03*
G04 #@! TO.N,GND*
X142888000Y-105580000D03*
X141872000Y-105580000D03*
X145575000Y-109400000D03*
X154800000Y-84300000D03*
X149746000Y-113454000D03*
X148500000Y-81800000D03*
X144920000Y-110406000D03*
X154826000Y-109898000D03*
X148600000Y-83500000D03*
X148500000Y-81000000D03*
X155100000Y-87100000D03*
X151400000Y-83500000D03*
X150300000Y-97000000D03*
X152900000Y-85200000D03*
X155588000Y-109390000D03*
X155100000Y-85000000D03*
X153800000Y-79800000D03*
X152900000Y-88900000D03*
X150400000Y-83500000D03*
X147714000Y-92626000D03*
X147460000Y-91864000D03*
X152900000Y-87400000D03*
X154900000Y-123800000D03*
X144666000Y-125138000D03*
X154800000Y-81800000D03*
X153100000Y-84500000D03*
X140856000Y-95928000D03*
X148500000Y-79400000D03*
X155588000Y-108628000D03*
X161430000Y-111676000D03*
X152794000Y-116248000D03*
X154400000Y-80300000D03*
X156350000Y-107866000D03*
X145936000Y-124376000D03*
X155000000Y-88200000D03*
X148500000Y-80200000D03*
X154064000Y-109898000D03*
X151400000Y-89900000D03*
X154800000Y-83500000D03*
X145682000Y-105580000D03*
X152900000Y-89600000D03*
X155100000Y-85700000D03*
X155100000Y-90400000D03*
X156350000Y-108628000D03*
X152200000Y-89900000D03*
X155100000Y-89700000D03*
X144920000Y-93134000D03*
X153100000Y-83800000D03*
X149500000Y-83500000D03*
X146444000Y-125138000D03*
X152900000Y-88200000D03*
X147700000Y-96900000D03*
X161938000Y-119042000D03*
X155100000Y-86400000D03*
X141872000Y-104310000D03*
X154800000Y-82700000D03*
X153048000Y-109898000D03*
X155100000Y-89000000D03*
X154800000Y-81000000D03*
X152900000Y-86000000D03*
X152900000Y-86700000D03*
X152300000Y-83500000D03*
X153048000Y-96944000D03*
X148500000Y-82600000D03*
X145682000Y-125138000D03*
X157800000Y-103000000D03*
X160600000Y-123800000D03*
X160600000Y-125800000D03*
G04 #@! TO.N,/V_SOLAR*
X147100000Y-113800000D03*
X147500000Y-100800000D03*
G04 #@! TO.N,+3V3*
X155900000Y-96700000D03*
X139700000Y-104700000D03*
X144700000Y-107400000D03*
X140100000Y-99200000D03*
X162192000Y-117010000D03*
G04 #@! TO.N,/V_SUPERCAP_SENSE*
X146400000Y-118700000D03*
X144734916Y-101487500D03*
G04 #@! TO.N,/BOOST_EN*
X152561000Y-111144000D03*
X149000000Y-118500000D03*
X152794000Y-108700000D03*
X151270000Y-101900000D03*
G04 #@! TO.N,/SUPERCAP_EN*
X149100000Y-96900000D03*
X154900000Y-124800000D03*
G04 #@! TO.N,/~{GPS_RESET}*
X151913265Y-99500000D03*
G04 #@! TO.N,/~{LNA_SHDN}*
X150533489Y-93433317D03*
G04 #@! TO.N,/GPS_RX*
X155700000Y-100487500D03*
G04 #@! TO.N,/GPS_ONOFF*
X152400000Y-102000000D03*
G04 #@! TO.N,/1PPS*
X151757780Y-100658613D03*
G04 #@! TO.N,/GPS_TX*
X156300000Y-99929018D03*
G04 #@! TD*
D32*
G04 #@! TO.N,Net-(AE1-FEED)*
X154000000Y-85607500D02*
X154000000Y-81700000D01*
X154000000Y-81700000D02*
G75*
G03*
X152600000Y-80300000I-1400000J0D01*
G01*
D33*
G04 #@! TO.N,GND*
X147600000Y-95150000D02*
X147600000Y-96800000D01*
X158440000Y-92700000D02*
X159200000Y-93460000D01*
X149000000Y-91950000D02*
X148390000Y-91950000D01*
D34*
X149800000Y-96500000D02*
X150300000Y-97000000D01*
X156400000Y-104400000D02*
X157800000Y-103000000D01*
D33*
X151725000Y-107000000D02*
X151725000Y-108500000D01*
X152006000Y-116859000D02*
X152183000Y-116859000D01*
X151725000Y-108575000D02*
X153048000Y-109898000D01*
X155395000Y-122405000D02*
X154900000Y-122900000D01*
X155762500Y-92700000D02*
X158440000Y-92700000D01*
X157600000Y-123012500D02*
X156992500Y-122405000D01*
X156992500Y-122405000D02*
X155395000Y-122405000D01*
D34*
X156400000Y-104850000D02*
X156400000Y-104400000D01*
D33*
X149000000Y-91000000D02*
X149000000Y-91950000D01*
X148324000Y-91000000D02*
X147460000Y-91864000D01*
X155395000Y-122405000D02*
X154900000Y-121910000D01*
X148390000Y-91950000D02*
X147714000Y-92626000D01*
X149000000Y-91000000D02*
X148324000Y-91000000D01*
X154900000Y-121910000D02*
X154900000Y-121150000D01*
X147600000Y-96800000D02*
X147700000Y-96900000D01*
X154900000Y-122900000D02*
X154900000Y-123800000D01*
X152183000Y-116859000D02*
X152794000Y-116248000D01*
X151725000Y-108500000D02*
X151725000Y-108575000D01*
D34*
X149800000Y-95150000D02*
X149800000Y-96500000D01*
D33*
G04 #@! TO.N,/V_SOLAR*
X146053500Y-114846500D02*
X147100000Y-113800000D01*
D34*
X152790500Y-118621000D02*
X151387500Y-118621000D01*
X151387500Y-118621000D02*
X150275000Y-117508500D01*
D33*
X145576000Y-114846500D02*
X146053500Y-114846500D01*
D34*
G04 #@! TO.N,+3V3*
X156220000Y-97020000D02*
X155900000Y-96700000D01*
D33*
X151611000Y-113872000D02*
X151611000Y-114689000D01*
D34*
X160679000Y-112679000D02*
X159700000Y-111700000D01*
X161068000Y-117010000D02*
X160679000Y-116621000D01*
X156220000Y-98100000D02*
X141200000Y-98100000D01*
X141400000Y-125900000D02*
X138781000Y-123281000D01*
X138781000Y-105000000D02*
X139400000Y-105000000D01*
X157600000Y-94300000D02*
X157000000Y-93700000D01*
D35*
X156586500Y-111700000D02*
X159700000Y-111700000D01*
D33*
X150900000Y-106100000D02*
X150900000Y-104850000D01*
D34*
X161000000Y-102880000D02*
X159200000Y-101080000D01*
X160679000Y-112900000D02*
X160679000Y-110800000D01*
X160679000Y-109823396D02*
X161000000Y-109502396D01*
X139400000Y-105000000D02*
X139700000Y-104700000D01*
X153950000Y-120370001D02*
X154773001Y-119547000D01*
X156220000Y-97300000D02*
X157600000Y-95920000D01*
X160600000Y-110800000D02*
X159700000Y-111700000D01*
X144700000Y-107400000D02*
X145100000Y-107000000D01*
D35*
X159700000Y-111700000D02*
X160200000Y-111700000D01*
D33*
X148700000Y-105700000D02*
X148700000Y-104850000D01*
D34*
X138781000Y-100519000D02*
X140100000Y-99200000D01*
X153837500Y-92900000D02*
X151700000Y-92900000D01*
X158650000Y-118650000D02*
X158650000Y-124250000D01*
X159200000Y-101080000D02*
X156220000Y-98100000D01*
D35*
X155128000Y-113158500D02*
X156586500Y-111700000D01*
D34*
X156220000Y-98100000D02*
X156220000Y-97300000D01*
D33*
X150000000Y-107000000D02*
X148700000Y-105700000D01*
D34*
X145100000Y-107000000D02*
X150000000Y-107000000D01*
X157753000Y-119547000D02*
X158650000Y-118650000D01*
X158650000Y-124250000D02*
X157000000Y-125900000D01*
X158650000Y-118650000D02*
X160679000Y-116621000D01*
X162192000Y-117010000D02*
X161068000Y-117010000D01*
D33*
X151926000Y-113557000D02*
X151611000Y-113872000D01*
D34*
X138781000Y-105000000D02*
X138781000Y-100519000D01*
X138781000Y-123281000D02*
X138781000Y-105000000D01*
X160679000Y-112900000D02*
X160679000Y-112679000D01*
X141200000Y-98100000D02*
X140100000Y-99200000D01*
X155037500Y-93700000D02*
X154037500Y-92700000D01*
X161000000Y-109502396D02*
X161000000Y-102880000D01*
X160679000Y-110800000D02*
X160679000Y-111221000D01*
D33*
X150000000Y-107000000D02*
X150900000Y-106100000D01*
D35*
X154403000Y-113158500D02*
X155128000Y-113158500D01*
D34*
X156220000Y-97300000D02*
X156220000Y-97020000D01*
X160679000Y-111221000D02*
X160200000Y-111700000D01*
X154773001Y-119547000D02*
X157753000Y-119547000D01*
X157600000Y-95920000D02*
X157600000Y-94300000D01*
X157000000Y-125900000D02*
X141400000Y-125900000D01*
X153950000Y-121150000D02*
X153950000Y-120370001D01*
X160679000Y-110800000D02*
X160679000Y-109823396D01*
X160679000Y-110800000D02*
X160600000Y-110800000D01*
X154037500Y-92700000D02*
X153837500Y-92900000D01*
X160679000Y-116621000D02*
X160679000Y-112900000D01*
X157000000Y-93700000D02*
X155037500Y-93700000D01*
D33*
X153534000Y-113557000D02*
X151926000Y-113557000D01*
D32*
G04 #@! TO.N,Net-(C5-Pad1)*
X154000000Y-88970000D02*
X154000000Y-87332500D01*
D34*
G04 #@! TO.N,Net-(J1-Pin_2)*
X142987500Y-116108500D02*
X141500000Y-114621000D01*
X142987500Y-117100000D02*
X142987500Y-116108500D01*
D32*
G04 #@! TO.N,Net-(U2-RF_OUT)*
X151700000Y-91000000D02*
X153720000Y-91000000D01*
X153720000Y-91000000D02*
G75*
G03*
X154000000Y-90720000I0J280000D01*
G01*
D34*
G04 #@! TO.N,/V_SUPERCAP_SENSE*
X146584000Y-122100000D02*
X146584000Y-120706000D01*
X148658999Y-124174999D02*
X146584000Y-122100000D01*
X153950000Y-123850000D02*
X153625001Y-124174999D01*
X146050500Y-120172500D02*
X143650000Y-120172500D01*
X153625001Y-124174999D02*
X148658999Y-124174999D01*
D33*
X144927500Y-120172500D02*
X143650000Y-120172500D01*
D34*
X146584000Y-120706000D02*
X146050500Y-120172500D01*
D33*
X146400000Y-118700000D02*
X144927500Y-120172500D01*
G04 #@! TO.N,Net-(U6-Set)*
X155887500Y-121187500D02*
X155850000Y-121150000D01*
X157600000Y-121187500D02*
X155887500Y-121187500D01*
G04 #@! TO.N,/BOOST_EN*
X149733500Y-119333500D02*
X150275000Y-119333500D01*
X149000000Y-118500000D02*
X149000000Y-118600000D01*
X149000000Y-118600000D02*
X149733500Y-119333500D01*
X152561000Y-112414000D02*
X152561000Y-111144000D01*
G04 #@! TO.N,/SUPERCAP_EN*
X154900000Y-124800000D02*
X155850000Y-123850000D01*
G04 #@! TO.N,/~{GPS_RESET}*
X147600000Y-103813265D02*
X151913265Y-99500000D01*
X147600000Y-104850000D02*
X147600000Y-103813265D01*
G04 #@! TO.N,Net-(U5-V_{FB})*
X153831000Y-115959000D02*
X152561000Y-114689000D01*
X153854500Y-116882500D02*
X153831000Y-116859000D01*
X153831000Y-116859000D02*
X153831000Y-115959000D01*
X155403000Y-116882500D02*
X153854500Y-116882500D01*
G04 #@! TO.N,/~{LNA_SHDN}*
X150533489Y-92336512D02*
X150920001Y-91950000D01*
X150920001Y-91950000D02*
X151700000Y-91950000D01*
X150533489Y-93433317D02*
X150533489Y-92336512D01*
D32*
G04 #@! TO.N,Net-(U1-RF_IN)*
X148700000Y-95150000D02*
X148700000Y-93200000D01*
X148700000Y-93200000D02*
G75*
G02*
X149000000Y-92900000I300000J0D01*
G01*
D33*
G04 #@! TO.N,/GPS_RX*
X155700000Y-100487500D02*
X154200000Y-101987500D01*
X154200000Y-101987500D02*
X154200000Y-104850000D01*
G04 #@! TO.N,/GPS_ONOFF*
X152000000Y-102400000D02*
X152000000Y-104850000D01*
X152400000Y-102000000D02*
X152000000Y-102400000D01*
G04 #@! TO.N,/1PPS*
X152258613Y-100658613D02*
X153100000Y-101500000D01*
X153100000Y-101500000D02*
X153100000Y-104850000D01*
X151757780Y-100658613D02*
X152258613Y-100658613D01*
G04 #@! TO.N,/GPS_TX*
X156300000Y-100800000D02*
X155300000Y-101800000D01*
X155300000Y-101800000D02*
X155300000Y-104850000D01*
X156300000Y-99929018D02*
X156300000Y-100800000D01*
D34*
G04 #@! TO.N,Net-(J2-Pin_2)*
X159103000Y-114821000D02*
X159103000Y-116521000D01*
X157003000Y-118621000D02*
X154615500Y-118621000D01*
X159103000Y-116521000D02*
X157003000Y-118621000D01*
G04 #@! TD*
G04 #@! TA.AperFunction,Conductor*
G04 #@! TO.N,GND*
G36*
X159906000Y-110330000D02*
G01*
X155609000Y-110330000D01*
X153556000Y-109644000D01*
X155334000Y-107358000D01*
X159906000Y-107358000D01*
X159906000Y-110330000D01*
G37*
G04 #@! TD.AperFunction*
G04 #@! TD*
G04 #@! TA.AperFunction,Conductor*
G04 #@! TO.N,+3V3*
G36*
X155966674Y-112160402D02*
G01*
X155987928Y-112166122D01*
X156036389Y-112179165D01*
X156080895Y-112204993D01*
X156127122Y-112251530D01*
X156148475Y-112283719D01*
X156182331Y-112366232D01*
X156188908Y-112390999D01*
X156202167Y-112492582D01*
X156203000Y-112505395D01*
X156203000Y-116356206D01*
X156184093Y-116414397D01*
X156134593Y-116450361D01*
X156073407Y-116450361D01*
X156024345Y-116414994D01*
X155953715Y-116319294D01*
X155953713Y-116319292D01*
X155953711Y-116319289D01*
X155953706Y-116319285D01*
X155847476Y-116240884D01*
X155722852Y-116197276D01*
X155722851Y-116197275D01*
X155722849Y-116197275D01*
X155722847Y-116197274D01*
X155722844Y-116197274D01*
X155693266Y-116194500D01*
X155693256Y-116194500D01*
X155112744Y-116194500D01*
X155112733Y-116194500D01*
X155083155Y-116197274D01*
X155083147Y-116197276D01*
X154958523Y-116240884D01*
X154928788Y-116262830D01*
X154870740Y-116282172D01*
X154812410Y-116263700D01*
X154776077Y-116214471D01*
X154771000Y-116183175D01*
X154771000Y-115970001D01*
X154771000Y-115970000D01*
X154770999Y-115970000D01*
X154562128Y-115970000D01*
X154547951Y-115968980D01*
X154436059Y-115952790D01*
X154408868Y-115944753D01*
X154312696Y-115900520D01*
X154288899Y-115885105D01*
X154203792Y-115810690D01*
X154193791Y-115800590D01*
X153520599Y-115015199D01*
X153515194Y-115008297D01*
X153420047Y-114875034D01*
X153411170Y-114859935D01*
X153407519Y-114852237D01*
X153342880Y-114715960D01*
X153336807Y-114699543D01*
X153294959Y-114545789D01*
X153291873Y-114528549D01*
X153277388Y-114365443D01*
X153277000Y-114356686D01*
X153277000Y-113161861D01*
X153277477Y-113152157D01*
X153295259Y-112971613D01*
X153299045Y-112952579D01*
X153350293Y-112783635D01*
X153357711Y-112765727D01*
X153440938Y-112610020D01*
X153451707Y-112593902D01*
X153563710Y-112457426D01*
X153577426Y-112443710D01*
X153713902Y-112331707D01*
X153730020Y-112320938D01*
X153885727Y-112237711D01*
X153903634Y-112230293D01*
X153961430Y-112212761D01*
X153990164Y-112208500D01*
X155292843Y-112208500D01*
X155360716Y-112196968D01*
X155400173Y-112172174D01*
X155452845Y-112157000D01*
X155940945Y-112157000D01*
X155966674Y-112160402D01*
G37*
G04 #@! TD.AperFunction*
G04 #@! TD*
G04 #@! TA.AperFunction,Conductor*
G04 #@! TO.N,GND*
G36*
X148943039Y-78819685D02*
G01*
X148988794Y-78872489D01*
X149000000Y-78924000D01*
X149000000Y-83000000D01*
X153000000Y-83000000D01*
X153000000Y-80975141D01*
X153003243Y-80964094D01*
X153002058Y-80952641D01*
X153012909Y-80931174D01*
X153019685Y-80908102D01*
X153028385Y-80900562D01*
X153033581Y-80890286D01*
X153054315Y-80878094D01*
X153072489Y-80862347D01*
X153083883Y-80860708D01*
X153093810Y-80854872D01*
X153117841Y-80855825D01*
X153141647Y-80852403D01*
X153153913Y-80857257D01*
X153163625Y-80857643D01*
X153195121Y-80873565D01*
X153248179Y-80910716D01*
X153264737Y-80924610D01*
X153375388Y-81035261D01*
X153389282Y-81051819D01*
X153479039Y-81180006D01*
X153489846Y-81198725D01*
X153555980Y-81340551D01*
X153563373Y-81360861D01*
X153603875Y-81512016D01*
X153607628Y-81533302D01*
X153621741Y-81694605D01*
X153622213Y-81705413D01*
X153622213Y-84805921D01*
X153602528Y-84872960D01*
X153562516Y-84909709D01*
X153563001Y-84910366D01*
X153556893Y-84914873D01*
X153556157Y-84915550D01*
X153555522Y-84915885D01*
X153449289Y-84994288D01*
X153449288Y-84994289D01*
X153370884Y-85100523D01*
X153327274Y-85225150D01*
X153324500Y-85254739D01*
X153324500Y-85960260D01*
X153327274Y-85989849D01*
X153370884Y-86114476D01*
X153449288Y-86220710D01*
X153449289Y-86220711D01*
X153555523Y-86299115D01*
X153555524Y-86299115D01*
X153555525Y-86299116D01*
X153680151Y-86342725D01*
X153680150Y-86342725D01*
X153709740Y-86345500D01*
X153709744Y-86345500D01*
X154290260Y-86345500D01*
X154319849Y-86342725D01*
X154444475Y-86299116D01*
X154550711Y-86220711D01*
X154629116Y-86114475D01*
X154672725Y-85989849D01*
X154675500Y-85960256D01*
X154675500Y-85254744D01*
X154672725Y-85225151D01*
X154629116Y-85100525D01*
X154550711Y-84994289D01*
X154550710Y-84994288D01*
X154444477Y-84915885D01*
X154443843Y-84915550D01*
X154443277Y-84914999D01*
X154436999Y-84910366D01*
X154437633Y-84909506D01*
X154393772Y-84866820D01*
X154377787Y-84805921D01*
X154377787Y-81572851D01*
X154377787Y-81572850D01*
X154341596Y-81321139D01*
X154269952Y-81077140D01*
X154269951Y-81077138D01*
X154269950Y-81077134D01*
X154164318Y-80845832D01*
X154164309Y-80845816D01*
X154026827Y-80631891D01*
X153860296Y-80439703D01*
X153668108Y-80273172D01*
X153454183Y-80135690D01*
X153454172Y-80135684D01*
X153272058Y-80052515D01*
X153219254Y-80006760D01*
X153203312Y-79960903D01*
X153201689Y-79961226D01*
X153188868Y-79896770D01*
X153188867Y-79896769D01*
X153144552Y-79830447D01*
X153078231Y-79786132D01*
X153076544Y-79785434D01*
X153073432Y-79782926D01*
X153068077Y-79779348D01*
X153068397Y-79778868D01*
X153022142Y-79741591D01*
X153000079Y-79675296D01*
X153000000Y-79670874D01*
X153000000Y-78924000D01*
X153019685Y-78856961D01*
X153072489Y-78811206D01*
X153124000Y-78800000D01*
X154285927Y-78800000D01*
X154305697Y-78805805D01*
X154326284Y-78806751D01*
X154349489Y-78818664D01*
X154352966Y-78819685D01*
X154357641Y-78822842D01*
X154415093Y-78863607D01*
X154425948Y-78872264D01*
X154632931Y-79057236D01*
X154642764Y-79067068D01*
X154827731Y-79274046D01*
X154836401Y-79284918D01*
X154997030Y-79511304D01*
X155004428Y-79523078D01*
X155138701Y-79766026D01*
X155144734Y-79778554D01*
X155250959Y-80035005D01*
X155255552Y-80048130D01*
X155332397Y-80314865D01*
X155335491Y-80328422D01*
X155381988Y-80602082D01*
X155383545Y-80615900D01*
X155398954Y-80890286D01*
X155399305Y-80896527D01*
X155399500Y-80903480D01*
X155399500Y-86024557D01*
X155399501Y-86024574D01*
X155432017Y-86271560D01*
X155432019Y-86271570D01*
X155479762Y-86449750D01*
X155496497Y-86512206D01*
X155496500Y-86512213D01*
X155591834Y-86742369D01*
X155591839Y-86742380D01*
X155716400Y-86958125D01*
X155868060Y-87155773D01*
X155868066Y-87155780D01*
X156044218Y-87331932D01*
X156044225Y-87331938D01*
X156088582Y-87365974D01*
X156241873Y-87483598D01*
X156457626Y-87608164D01*
X156687793Y-87703502D01*
X156928435Y-87767982D01*
X157175435Y-87800500D01*
X157242417Y-87800500D01*
X157296519Y-87800500D01*
X157303471Y-87800695D01*
X157341470Y-87802828D01*
X157584106Y-87816454D01*
X157597909Y-87818010D01*
X157871584Y-87864509D01*
X157885123Y-87867599D01*
X158151874Y-87944449D01*
X158164993Y-87949040D01*
X158421445Y-88055265D01*
X158433967Y-88061294D01*
X158620623Y-88164456D01*
X158676921Y-88195571D01*
X158688695Y-88202969D01*
X158915081Y-88363598D01*
X158925953Y-88372268D01*
X159041497Y-88475525D01*
X159132931Y-88557235D01*
X159142764Y-88567068D01*
X159327731Y-88774046D01*
X159336401Y-88784918D01*
X159497030Y-89011304D01*
X159504428Y-89023078D01*
X159638701Y-89266025D01*
X159644734Y-89278554D01*
X159750959Y-89535006D01*
X159755552Y-89548130D01*
X159832397Y-89814865D01*
X159835491Y-89828422D01*
X159881988Y-90102082D01*
X159883545Y-90115900D01*
X159899305Y-90396527D01*
X159899500Y-90403480D01*
X159899500Y-90524558D01*
X159899501Y-90524575D01*
X159932017Y-90771561D01*
X159996498Y-91012207D01*
X160091830Y-91242361D01*
X160091837Y-91242376D01*
X160216400Y-91458126D01*
X160368060Y-91655774D01*
X160368066Y-91655781D01*
X160544218Y-91831933D01*
X160544225Y-91831939D01*
X160741873Y-91983599D01*
X160957623Y-92108162D01*
X160957638Y-92108169D01*
X161051248Y-92146943D01*
X161187793Y-92203502D01*
X161428435Y-92267982D01*
X161675435Y-92300500D01*
X161742417Y-92300500D01*
X161795572Y-92300500D01*
X161804418Y-92300816D01*
X162018792Y-92316148D01*
X162036293Y-92318665D01*
X162241968Y-92363406D01*
X162258933Y-92368387D01*
X162456152Y-92441946D01*
X162472235Y-92449290D01*
X162608418Y-92523653D01*
X162656971Y-92550165D01*
X162671854Y-92559730D01*
X162840349Y-92685863D01*
X162853720Y-92697449D01*
X163002549Y-92846278D01*
X163014135Y-92859649D01*
X163140268Y-93028143D01*
X163149833Y-93043026D01*
X163250704Y-93227756D01*
X163258054Y-93243849D01*
X163331611Y-93441062D01*
X163336595Y-93458038D01*
X163381333Y-93663699D01*
X163383851Y-93681210D01*
X163399184Y-93895578D01*
X163399500Y-93904425D01*
X163399500Y-125895573D01*
X163399184Y-125904420D01*
X163383851Y-126118789D01*
X163381333Y-126136299D01*
X163381333Y-126136300D01*
X163336595Y-126341961D01*
X163331611Y-126358937D01*
X163258054Y-126556149D01*
X163250704Y-126572242D01*
X163149834Y-126756973D01*
X163140269Y-126771856D01*
X163014139Y-126940346D01*
X163002553Y-126953717D01*
X162853720Y-127102550D01*
X162840353Y-127114133D01*
X162840350Y-127114136D01*
X162671854Y-127240271D01*
X162656969Y-127249836D01*
X162472243Y-127350703D01*
X162456151Y-127358053D01*
X162258937Y-127431611D01*
X162241961Y-127436595D01*
X162036300Y-127481333D01*
X162018789Y-127483851D01*
X161823690Y-127497805D01*
X161804419Y-127499184D01*
X161795574Y-127499500D01*
X139804428Y-127499500D01*
X139795582Y-127499184D01*
X139774407Y-127497669D01*
X139581211Y-127483851D01*
X139563700Y-127481333D01*
X139358039Y-127436595D01*
X139341063Y-127431611D01*
X139143849Y-127358053D01*
X139127757Y-127350703D01*
X138943031Y-127249836D01*
X138928146Y-127240271D01*
X138759646Y-127114133D01*
X138746276Y-127102547D01*
X138597452Y-126953723D01*
X138585866Y-126940353D01*
X138545924Y-126886997D01*
X138459724Y-126771848D01*
X138450163Y-126756968D01*
X138349296Y-126572242D01*
X138341946Y-126556150D01*
X138341946Y-126556149D01*
X138268385Y-126358928D01*
X138263406Y-126341969D01*
X138218665Y-126136296D01*
X138216148Y-126118787D01*
X138210885Y-126045205D01*
X138200816Y-125904418D01*
X138200500Y-125895572D01*
X138200500Y-123636181D01*
X138220185Y-123569142D01*
X138272989Y-123523387D01*
X138342147Y-123513443D01*
X138405703Y-123542468D01*
X138414657Y-123551973D01*
X138414764Y-123551867D01*
X138420511Y-123557614D01*
X141123386Y-126260489D01*
X141123387Y-126260490D01*
X141123389Y-126260491D01*
X141182693Y-126294729D01*
X141182696Y-126294732D01*
X141216937Y-126314500D01*
X141226114Y-126319799D01*
X141340691Y-126350500D01*
X141340694Y-126350500D01*
X157059308Y-126350500D01*
X157059309Y-126350500D01*
X157149673Y-126326286D01*
X157173887Y-126319799D01*
X157276614Y-126260489D01*
X159010489Y-124526614D01*
X159053791Y-124451612D01*
X159069799Y-124423886D01*
X159100500Y-124309309D01*
X159100500Y-124005247D01*
X161024500Y-124005247D01*
X161024500Y-125394752D01*
X161036131Y-125453229D01*
X161036132Y-125453230D01*
X161080447Y-125519552D01*
X161146769Y-125563867D01*
X161146770Y-125563868D01*
X161205247Y-125575499D01*
X161205250Y-125575500D01*
X161205252Y-125575500D01*
X162594750Y-125575500D01*
X162594751Y-125575499D01*
X162609568Y-125572552D01*
X162653229Y-125563868D01*
X162653229Y-125563867D01*
X162653231Y-125563867D01*
X162719552Y-125519552D01*
X162763867Y-125453231D01*
X162763867Y-125453229D01*
X162763868Y-125453229D01*
X162775499Y-125394752D01*
X162775500Y-125394750D01*
X162775500Y-124005249D01*
X162775499Y-124005247D01*
X162763868Y-123946770D01*
X162763867Y-123946769D01*
X162719552Y-123880447D01*
X162653230Y-123836132D01*
X162653229Y-123836131D01*
X162594752Y-123824500D01*
X162594748Y-123824500D01*
X161205252Y-123824500D01*
X161205247Y-123824500D01*
X161146770Y-123836131D01*
X161146769Y-123836132D01*
X161080447Y-123880447D01*
X161036132Y-123946769D01*
X161036131Y-123946770D01*
X161024500Y-124005247D01*
X159100500Y-124005247D01*
X159100500Y-118887965D01*
X159120185Y-118820926D01*
X159136819Y-118800284D01*
X160591319Y-117345784D01*
X160652642Y-117312299D01*
X160722334Y-117317283D01*
X160742136Y-117326742D01*
X160755610Y-117334713D01*
X160791386Y-117370489D01*
X160894113Y-117429799D01*
X160918326Y-117436286D01*
X161008691Y-117460500D01*
X161938063Y-117460500D01*
X161990750Y-117474618D01*
X161991304Y-117473281D01*
X161998807Y-117476388D01*
X161998814Y-117476392D01*
X162126108Y-117510500D01*
X162126110Y-117510500D01*
X162257890Y-117510500D01*
X162257892Y-117510500D01*
X162385186Y-117476392D01*
X162499314Y-117410500D01*
X162592500Y-117317314D01*
X162658392Y-117203186D01*
X162692500Y-117075892D01*
X162692500Y-116944108D01*
X162658392Y-116816814D01*
X162592500Y-116702686D01*
X162499314Y-116609500D01*
X162410961Y-116558489D01*
X162385187Y-116543608D01*
X162321539Y-116526554D01*
X162257892Y-116509500D01*
X162126108Y-116509500D01*
X161998814Y-116543608D01*
X161991304Y-116546719D01*
X161990750Y-116545381D01*
X161938063Y-116559500D01*
X161305965Y-116559500D01*
X161276524Y-116550855D01*
X161246538Y-116544332D01*
X161241522Y-116540577D01*
X161238926Y-116539815D01*
X161218284Y-116523181D01*
X161165819Y-116470716D01*
X161132334Y-116409393D01*
X161129500Y-116383035D01*
X161129500Y-110061361D01*
X161149185Y-109994322D01*
X161165819Y-109973680D01*
X161360490Y-109779009D01*
X161419799Y-109676282D01*
X161450500Y-109561705D01*
X161450500Y-102820691D01*
X161419799Y-102706114D01*
X161419797Y-102706110D01*
X161394731Y-102662694D01*
X161360493Y-102603392D01*
X161360487Y-102603384D01*
X160286819Y-101529716D01*
X160253334Y-101468393D01*
X160250500Y-101442035D01*
X160250500Y-100210249D01*
X160250499Y-100210247D01*
X160238868Y-100151770D01*
X160238867Y-100151769D01*
X160194552Y-100085447D01*
X160128230Y-100041132D01*
X160128229Y-100041131D01*
X160069752Y-100029500D01*
X160069748Y-100029500D01*
X158837965Y-100029500D01*
X158770926Y-100009815D01*
X158750284Y-99993181D01*
X157193633Y-98436530D01*
X158149500Y-98436530D01*
X158149500Y-98643469D01*
X158189868Y-98846412D01*
X158189870Y-98846420D01*
X158269058Y-99037596D01*
X158384024Y-99209657D01*
X158530342Y-99355975D01*
X158530345Y-99355977D01*
X158702402Y-99470941D01*
X158893580Y-99550130D01*
X159096530Y-99590499D01*
X159096534Y-99590500D01*
X159096535Y-99590500D01*
X159303466Y-99590500D01*
X159303467Y-99590499D01*
X159506420Y-99550130D01*
X159697598Y-99470941D01*
X159869655Y-99355977D01*
X160015977Y-99209655D01*
X160130941Y-99037598D01*
X160210130Y-98846420D01*
X160250500Y-98643465D01*
X160250500Y-98436535D01*
X160210130Y-98233580D01*
X160130941Y-98042402D01*
X160015977Y-97870345D01*
X160015975Y-97870342D01*
X159869657Y-97724024D01*
X159758123Y-97649500D01*
X159697598Y-97609059D01*
X159657715Y-97592539D01*
X159506420Y-97529870D01*
X159506412Y-97529868D01*
X159303469Y-97489500D01*
X159303465Y-97489500D01*
X159096535Y-97489500D01*
X159096530Y-97489500D01*
X158893587Y-97529868D01*
X158893579Y-97529870D01*
X158702403Y-97609058D01*
X158530342Y-97724024D01*
X158384024Y-97870342D01*
X158269058Y-98042403D01*
X158189870Y-98233579D01*
X158189868Y-98233587D01*
X158149500Y-98436530D01*
X157193633Y-98436530D01*
X156706819Y-97949716D01*
X156673334Y-97888393D01*
X156670500Y-97862035D01*
X156670500Y-97537965D01*
X156690185Y-97470926D01*
X156706819Y-97450284D01*
X157322994Y-96834110D01*
X157960490Y-96196614D01*
X157960490Y-96196613D01*
X157966237Y-96190867D01*
X157967726Y-96192356D01*
X158015114Y-96157746D01*
X158084859Y-96153582D01*
X158145784Y-96187787D01*
X158178545Y-96249500D01*
X158178694Y-96250238D01*
X158189868Y-96306414D01*
X158189870Y-96306420D01*
X158225379Y-96392147D01*
X158269059Y-96497598D01*
X158275216Y-96506812D01*
X158384024Y-96669657D01*
X158530342Y-96815975D01*
X158530345Y-96815977D01*
X158702402Y-96930941D01*
X158893580Y-97010130D01*
X159096530Y-97050499D01*
X159096534Y-97050500D01*
X159096535Y-97050500D01*
X159303466Y-97050500D01*
X159303467Y-97050499D01*
X159506420Y-97010130D01*
X159697598Y-96930941D01*
X159869655Y-96815977D01*
X160015977Y-96669655D01*
X160130941Y-96497598D01*
X160210130Y-96306420D01*
X160250500Y-96103465D01*
X160250500Y-95896535D01*
X160210130Y-95693580D01*
X160130941Y-95502402D01*
X160015977Y-95330345D01*
X160015975Y-95330342D01*
X159869657Y-95184024D01*
X159783626Y-95126541D01*
X159697598Y-95069059D01*
X159506420Y-94989870D01*
X159506412Y-94989868D01*
X159303469Y-94949500D01*
X159303465Y-94949500D01*
X159096535Y-94949500D01*
X159096530Y-94949500D01*
X158893587Y-94989868D01*
X158893579Y-94989870D01*
X158702403Y-95069058D01*
X158530342Y-95184024D01*
X158384025Y-95330341D01*
X158384019Y-95330349D01*
X158277602Y-95489615D01*
X158223990Y-95534421D01*
X158154665Y-95543128D01*
X158091638Y-95512974D01*
X158054918Y-95453531D01*
X158050500Y-95420725D01*
X158050500Y-94240693D01*
X158050500Y-94240691D01*
X158019799Y-94126114D01*
X158019799Y-94126113D01*
X157960489Y-94023386D01*
X157276614Y-93339511D01*
X157225250Y-93309856D01*
X157173888Y-93280201D01*
X157159503Y-93276347D01*
X157149673Y-93273713D01*
X157149670Y-93273712D01*
X157111478Y-93263478D01*
X157059309Y-93249500D01*
X157059308Y-93249500D01*
X155275465Y-93249500D01*
X155208426Y-93229815D01*
X155187784Y-93213181D01*
X154811819Y-92837216D01*
X154778334Y-92775893D01*
X154775500Y-92749535D01*
X154775500Y-92409739D01*
X154772725Y-92380150D01*
X154729115Y-92255523D01*
X154650711Y-92149289D01*
X154650710Y-92149288D01*
X154544476Y-92070884D01*
X154419848Y-92027274D01*
X154419849Y-92027274D01*
X154390260Y-92024500D01*
X154390256Y-92024500D01*
X153684744Y-92024500D01*
X153684740Y-92024500D01*
X153655150Y-92027274D01*
X153530523Y-92070884D01*
X153424289Y-92149288D01*
X153424288Y-92149289D01*
X153345884Y-92255523D01*
X153345884Y-92255524D01*
X153307067Y-92366455D01*
X153266345Y-92423231D01*
X153201392Y-92448978D01*
X153190026Y-92449500D01*
X152755451Y-92449500D01*
X152688412Y-92429815D01*
X152642657Y-92377011D01*
X152632713Y-92307853D01*
X152644051Y-92271040D01*
X152660346Y-92237705D01*
X152670220Y-92217509D01*
X152680500Y-92146949D01*
X152680499Y-91753052D01*
X152679126Y-91743629D01*
X152670220Y-91682493D01*
X152670220Y-91682491D01*
X152617012Y-91573653D01*
X152617011Y-91573652D01*
X152612499Y-91564422D01*
X152613673Y-91563847D01*
X152594211Y-91507844D01*
X152610597Y-91439923D01*
X152661103Y-91391643D01*
X152718063Y-91377787D01*
X153485822Y-91377787D01*
X153546820Y-91395698D01*
X153547309Y-91394774D01*
X153551854Y-91397176D01*
X153552861Y-91397472D01*
X153554331Y-91398485D01*
X153555523Y-91399114D01*
X153555525Y-91399116D01*
X153680151Y-91442725D01*
X153680150Y-91442725D01*
X153709740Y-91445500D01*
X153709744Y-91445500D01*
X154290260Y-91445500D01*
X154319849Y-91442725D01*
X154444475Y-91399116D01*
X154550711Y-91320711D01*
X154629116Y-91214475D01*
X154672725Y-91089849D01*
X154675500Y-91060256D01*
X154675500Y-90379744D01*
X154672725Y-90350151D01*
X154644713Y-90270097D01*
X155649500Y-90270097D01*
X155649500Y-90529902D01*
X155690140Y-90786493D01*
X155770422Y-91033576D01*
X155851534Y-91192764D01*
X155876812Y-91242376D01*
X155888368Y-91265054D01*
X156019470Y-91445500D01*
X156041069Y-91475229D01*
X156224771Y-91658931D01*
X156434949Y-91811634D01*
X156582445Y-91886787D01*
X156666423Y-91929577D01*
X156666425Y-91929577D01*
X156666428Y-91929579D01*
X156913507Y-92009860D01*
X157045706Y-92030797D01*
X157170098Y-92050500D01*
X157170103Y-92050500D01*
X157429902Y-92050500D01*
X157543298Y-92032539D01*
X157686493Y-92009860D01*
X157933572Y-91929579D01*
X158165051Y-91811634D01*
X158375229Y-91658931D01*
X158558931Y-91475229D01*
X158711634Y-91265051D01*
X158829579Y-91033572D01*
X158909860Y-90786493D01*
X158938997Y-90602528D01*
X158950500Y-90529902D01*
X158950500Y-90270097D01*
X158924976Y-90108948D01*
X158909860Y-90013507D01*
X158829579Y-89766428D01*
X158829577Y-89766425D01*
X158829577Y-89766423D01*
X158769805Y-89649115D01*
X158711634Y-89534949D01*
X158558931Y-89324771D01*
X158375229Y-89141069D01*
X158165051Y-88988366D01*
X158092764Y-88951534D01*
X157933576Y-88870422D01*
X157686493Y-88790140D01*
X157429902Y-88749500D01*
X157429897Y-88749500D01*
X157170103Y-88749500D01*
X157170098Y-88749500D01*
X156913506Y-88790140D01*
X156666423Y-88870422D01*
X156434945Y-88988368D01*
X156224774Y-89141066D01*
X156224768Y-89141071D01*
X156041071Y-89324768D01*
X156041066Y-89324774D01*
X155888368Y-89534945D01*
X155770422Y-89766423D01*
X155690140Y-90013506D01*
X155649500Y-90270097D01*
X154644713Y-90270097D01*
X154629116Y-90225525D01*
X154626357Y-90221787D01*
X154550711Y-90119289D01*
X154550710Y-90119288D01*
X154444476Y-90040884D01*
X154319848Y-89997274D01*
X154319849Y-89997274D01*
X154290260Y-89994500D01*
X154290256Y-89994500D01*
X153709744Y-89994500D01*
X153709740Y-89994500D01*
X153680150Y-89997274D01*
X153555523Y-90040884D01*
X153449289Y-90119288D01*
X153449288Y-90119289D01*
X153370884Y-90225523D01*
X153327274Y-90350150D01*
X153324500Y-90379739D01*
X153324500Y-90498213D01*
X153304815Y-90565252D01*
X153252011Y-90611007D01*
X153200500Y-90622213D01*
X152666934Y-90622213D01*
X152599895Y-90602528D01*
X152579252Y-90585893D01*
X152531348Y-90537988D01*
X152422511Y-90484780D01*
X152404869Y-90482210D01*
X152351949Y-90474500D01*
X152351943Y-90474500D01*
X151048049Y-90474500D01*
X150977493Y-90484779D01*
X150868650Y-90537989D01*
X150782988Y-90623651D01*
X150729780Y-90732488D01*
X150729780Y-90732491D01*
X150719500Y-90803051D01*
X150719500Y-90803055D01*
X150719500Y-90803056D01*
X150719500Y-91196950D01*
X150729779Y-91267506D01*
X150782989Y-91376349D01*
X150793959Y-91387319D01*
X150827444Y-91448642D01*
X150822460Y-91518334D01*
X150815934Y-91532894D01*
X150807195Y-91549445D01*
X150782988Y-91573653D01*
X150729780Y-91682491D01*
X150727045Y-91701256D01*
X150717076Y-91720140D01*
X150707002Y-91730500D01*
X150700976Y-91743629D01*
X150695101Y-91749927D01*
X150348978Y-92096052D01*
X150293030Y-92151999D01*
X150293024Y-92152007D01*
X150253471Y-92220516D01*
X150253468Y-92220521D01*
X150232989Y-92296951D01*
X150232989Y-92974640D01*
X150224343Y-93004082D01*
X150217815Y-93034079D01*
X150214065Y-93039086D01*
X150213304Y-93041679D01*
X150196660Y-93062331D01*
X150192170Y-93066820D01*
X150130844Y-93100298D01*
X150061153Y-93095306D01*
X150005224Y-93053428D01*
X149980814Y-92987961D01*
X149980499Y-92979148D01*
X149980499Y-92703052D01*
X149979683Y-92697452D01*
X149970220Y-92632493D01*
X149970220Y-92632491D01*
X149917012Y-92523653D01*
X149917010Y-92523651D01*
X149917010Y-92523650D01*
X149831348Y-92437988D01*
X149722511Y-92384780D01*
X149704869Y-92382210D01*
X149651949Y-92374500D01*
X149651943Y-92374500D01*
X148348049Y-92374500D01*
X148277493Y-92384779D01*
X148168650Y-92437989D01*
X148082988Y-92523651D01*
X148029780Y-92632488D01*
X148026375Y-92655859D01*
X148019500Y-92703051D01*
X148019500Y-92703055D01*
X148019500Y-92703056D01*
X148019500Y-93096950D01*
X148029779Y-93167506D01*
X148029779Y-93167507D01*
X148029780Y-93167509D01*
X148065283Y-93240131D01*
X148082989Y-93276349D01*
X148168650Y-93362010D01*
X148168651Y-93362010D01*
X148168653Y-93362012D01*
X148252675Y-93403088D01*
X148304255Y-93450214D01*
X148322213Y-93514487D01*
X148322213Y-93939388D01*
X148302528Y-94006427D01*
X148249724Y-94052182D01*
X148222413Y-94061004D01*
X148221771Y-94061131D01*
X148221769Y-94061132D01*
X148155447Y-94105447D01*
X148111132Y-94171769D01*
X148111131Y-94171770D01*
X148099500Y-94230247D01*
X148099500Y-96069752D01*
X148111131Y-96128229D01*
X148111132Y-96128230D01*
X148155447Y-96194552D01*
X148221769Y-96238867D01*
X148221770Y-96238868D01*
X148280247Y-96250499D01*
X148280250Y-96250500D01*
X148761192Y-96250500D01*
X148828231Y-96270185D01*
X148873986Y-96322989D01*
X148883930Y-96392147D01*
X148854905Y-96455703D01*
X148823193Y-96481887D01*
X148792686Y-96499500D01*
X148792683Y-96499502D01*
X148699502Y-96592683D01*
X148699500Y-96592686D01*
X148633608Y-96706812D01*
X148617778Y-96765892D01*
X148599500Y-96834108D01*
X148599500Y-96965892D01*
X148611354Y-97010131D01*
X148633608Y-97093187D01*
X148637831Y-97100501D01*
X148699500Y-97207314D01*
X148792686Y-97300500D01*
X148906814Y-97366392D01*
X149034108Y-97400500D01*
X149034110Y-97400500D01*
X149165890Y-97400500D01*
X149165892Y-97400500D01*
X149293186Y-97366392D01*
X149407314Y-97300500D01*
X149500500Y-97207314D01*
X149566392Y-97093186D01*
X149600500Y-96965892D01*
X149600500Y-96834108D01*
X149566392Y-96706814D01*
X149500500Y-96592686D01*
X149407314Y-96499500D01*
X149298197Y-96436501D01*
X149293185Y-96433607D01*
X149267452Y-96426712D01*
X149207792Y-96390346D01*
X149177264Y-96327498D01*
X149185561Y-96258123D01*
X149230047Y-96204246D01*
X149230428Y-96203989D01*
X149244552Y-96194552D01*
X149288867Y-96128231D01*
X149288867Y-96128229D01*
X149288868Y-96128229D01*
X149300499Y-96069752D01*
X149300500Y-96069750D01*
X149300500Y-94230249D01*
X149300499Y-94230247D01*
X149288868Y-94171770D01*
X149288867Y-94171769D01*
X149244552Y-94105447D01*
X149178230Y-94061132D01*
X149178228Y-94061131D01*
X149177587Y-94061004D01*
X149176319Y-94060340D01*
X149166946Y-94056458D01*
X149167293Y-94055618D01*
X149115678Y-94028614D01*
X149081109Y-93967896D01*
X149077787Y-93939388D01*
X149077787Y-93549499D01*
X149097472Y-93482460D01*
X149150276Y-93436705D01*
X149201787Y-93425499D01*
X149651950Y-93425499D01*
X149680172Y-93421387D01*
X149722509Y-93415220D01*
X149831347Y-93362012D01*
X149831350Y-93362008D01*
X149836935Y-93358022D01*
X149902933Y-93335087D01*
X149970854Y-93351474D01*
X150019133Y-93401980D01*
X150032989Y-93458939D01*
X150032989Y-93499208D01*
X150067097Y-93626504D01*
X150088572Y-93663699D01*
X150132989Y-93740631D01*
X150226175Y-93833817D01*
X150329183Y-93893289D01*
X150340916Y-93900063D01*
X150389132Y-93950630D01*
X150402354Y-94019237D01*
X150376386Y-94084102D01*
X150363397Y-94096126D01*
X150364083Y-94096812D01*
X150355448Y-94105446D01*
X150311132Y-94171769D01*
X150311131Y-94171770D01*
X150299500Y-94230247D01*
X150299500Y-96069752D01*
X150311131Y-96128229D01*
X150311132Y-96128230D01*
X150355447Y-96194552D01*
X150421769Y-96238867D01*
X150421770Y-96238868D01*
X150480247Y-96250499D01*
X150480250Y-96250500D01*
X150480252Y-96250500D01*
X151319750Y-96250500D01*
X151319751Y-96250499D01*
X151334568Y-96247552D01*
X151378229Y-96238868D01*
X151378231Y-96238867D01*
X151381108Y-96236945D01*
X151388335Y-96234681D01*
X151389513Y-96234194D01*
X151389556Y-96234299D01*
X151447785Y-96216066D01*
X151515165Y-96234550D01*
X151518892Y-96236945D01*
X151521768Y-96238867D01*
X151521770Y-96238868D01*
X151580247Y-96250499D01*
X151580250Y-96250500D01*
X151580252Y-96250500D01*
X152419750Y-96250500D01*
X152419751Y-96250499D01*
X152434568Y-96247552D01*
X152478229Y-96238868D01*
X152478231Y-96238867D01*
X152481108Y-96236945D01*
X152488335Y-96234681D01*
X152489513Y-96234194D01*
X152489556Y-96234299D01*
X152547785Y-96216066D01*
X152615165Y-96234550D01*
X152618892Y-96236945D01*
X152621768Y-96238867D01*
X152621770Y-96238868D01*
X152680247Y-96250499D01*
X152680250Y-96250500D01*
X152680252Y-96250500D01*
X153519750Y-96250500D01*
X153519751Y-96250499D01*
X153534568Y-96247552D01*
X153578229Y-96238868D01*
X153578231Y-96238867D01*
X153581108Y-96236945D01*
X153588335Y-96234681D01*
X153589513Y-96234194D01*
X153589556Y-96234299D01*
X153647785Y-96216066D01*
X153715165Y-96234550D01*
X153718892Y-96236945D01*
X153721768Y-96238867D01*
X153721770Y-96238868D01*
X153780247Y-96250499D01*
X153780250Y-96250500D01*
X153780252Y-96250500D01*
X154619750Y-96250500D01*
X154619751Y-96250499D01*
X154634568Y-96247552D01*
X154678229Y-96238868D01*
X154678231Y-96238867D01*
X154681108Y-96236945D01*
X154688335Y-96234681D01*
X154689513Y-96234194D01*
X154689556Y-96234299D01*
X154747785Y-96216066D01*
X154815165Y-96234550D01*
X154818892Y-96236945D01*
X154821768Y-96238867D01*
X154821770Y-96238868D01*
X154880247Y-96250499D01*
X154880250Y-96250500D01*
X154880252Y-96250500D01*
X155366817Y-96250500D01*
X155433856Y-96270185D01*
X155479611Y-96322989D01*
X155489555Y-96392147D01*
X155474204Y-96436498D01*
X155463117Y-96455703D01*
X155433608Y-96506812D01*
X155399500Y-96634108D01*
X155399500Y-96765891D01*
X155433608Y-96893187D01*
X155455406Y-96930941D01*
X155499500Y-97007314D01*
X155592686Y-97100500D01*
X155706814Y-97166392D01*
X155707500Y-97166788D01*
X155755716Y-97217355D01*
X155769500Y-97274175D01*
X155769500Y-97525500D01*
X155749815Y-97592539D01*
X155697011Y-97638294D01*
X155645500Y-97649500D01*
X141140691Y-97649500D01*
X141050325Y-97673713D01*
X141050324Y-97673712D01*
X141026116Y-97680199D01*
X141026113Y-97680200D01*
X140923386Y-97739511D01*
X140923383Y-97739513D01*
X139961009Y-98701886D01*
X139913775Y-98729161D01*
X139914328Y-98730495D01*
X139906816Y-98733606D01*
X139792689Y-98799498D01*
X139792683Y-98799502D01*
X139699502Y-98892683D01*
X139699500Y-98892686D01*
X139633607Y-99006814D01*
X139630500Y-99014318D01*
X139629166Y-99013765D01*
X139601887Y-99061008D01*
X138414764Y-100248133D01*
X138413085Y-100246454D01*
X138366444Y-100280509D01*
X138296698Y-100284661D01*
X138235779Y-100250447D01*
X138203028Y-100188728D01*
X138200500Y-100163818D01*
X138200500Y-93904425D01*
X138200816Y-93895579D01*
X138205233Y-93833818D01*
X138216148Y-93681206D01*
X138218666Y-93663700D01*
X138263407Y-93458026D01*
X138268384Y-93441075D01*
X138341948Y-93243844D01*
X138349296Y-93227757D01*
X138382195Y-93167506D01*
X138450166Y-93043025D01*
X138459720Y-93028157D01*
X138585873Y-92859637D01*
X138597445Y-92846283D01*
X138746283Y-92697445D01*
X138759637Y-92685873D01*
X138928157Y-92559720D01*
X138943028Y-92550165D01*
X139127757Y-92449295D01*
X139143844Y-92441948D01*
X139341075Y-92368384D01*
X139358026Y-92363407D01*
X139563705Y-92318665D01*
X139581206Y-92316148D01*
X139795582Y-92300816D01*
X139804428Y-92300500D01*
X139924558Y-92300500D01*
X139924565Y-92300500D01*
X140171565Y-92267982D01*
X140412207Y-92203502D01*
X140642373Y-92108164D01*
X140858127Y-91983599D01*
X141055776Y-91831938D01*
X141231938Y-91655776D01*
X141383599Y-91458127D01*
X141508164Y-91242373D01*
X141603502Y-91012207D01*
X141667982Y-90771565D01*
X141700500Y-90524565D01*
X141700500Y-90403480D01*
X141700695Y-90396527D01*
X141707795Y-90270097D01*
X142649500Y-90270097D01*
X142649500Y-90529902D01*
X142690140Y-90786493D01*
X142770422Y-91033576D01*
X142851534Y-91192764D01*
X142876812Y-91242376D01*
X142888368Y-91265054D01*
X143019470Y-91445500D01*
X143041069Y-91475229D01*
X143224771Y-91658931D01*
X143434949Y-91811634D01*
X143582445Y-91886787D01*
X143666423Y-91929577D01*
X143666425Y-91929577D01*
X143666428Y-91929579D01*
X143913507Y-92009860D01*
X144045706Y-92030797D01*
X144170098Y-92050500D01*
X144170103Y-92050500D01*
X144429902Y-92050500D01*
X144543298Y-92032539D01*
X144686493Y-92009860D01*
X144933572Y-91929579D01*
X145165051Y-91811634D01*
X145375229Y-91658931D01*
X145558931Y-91475229D01*
X145711634Y-91265051D01*
X145829579Y-91033572D01*
X145909860Y-90786493D01*
X145938997Y-90602528D01*
X145950500Y-90529902D01*
X145950500Y-90270097D01*
X145924976Y-90108948D01*
X145909860Y-90013507D01*
X145829579Y-89766428D01*
X145829577Y-89766425D01*
X145829577Y-89766423D01*
X145769805Y-89649115D01*
X145711634Y-89534949D01*
X145558931Y-89324771D01*
X145375229Y-89141069D01*
X145165051Y-88988366D01*
X145092764Y-88951534D01*
X144933576Y-88870422D01*
X144686493Y-88790140D01*
X144429902Y-88749500D01*
X144429897Y-88749500D01*
X144170103Y-88749500D01*
X144170098Y-88749500D01*
X143913506Y-88790140D01*
X143666423Y-88870422D01*
X143434945Y-88988368D01*
X143224774Y-89141066D01*
X143224768Y-89141071D01*
X143041071Y-89324768D01*
X143041066Y-89324774D01*
X142888368Y-89534945D01*
X142770422Y-89766423D01*
X142690140Y-90013506D01*
X142649500Y-90270097D01*
X141707795Y-90270097D01*
X141708459Y-90258278D01*
X141708459Y-90258277D01*
X141716264Y-90119288D01*
X141716455Y-90115891D01*
X141718009Y-90102092D01*
X141764510Y-89828412D01*
X141767598Y-89814880D01*
X141844450Y-89548119D01*
X141849040Y-89535006D01*
X141929876Y-89339849D01*
X141955268Y-89278545D01*
X141961290Y-89266039D01*
X142095574Y-89023072D01*
X142102969Y-89011304D01*
X142119243Y-88988368D01*
X142263605Y-88784908D01*
X142272260Y-88774054D01*
X142457245Y-88567057D01*
X142467057Y-88557245D01*
X142674054Y-88372260D01*
X142684908Y-88363605D01*
X142911309Y-88202965D01*
X142923072Y-88195574D01*
X143166039Y-88061290D01*
X143178545Y-88055268D01*
X143435006Y-87949039D01*
X143448119Y-87944450D01*
X143714880Y-87867598D01*
X143728412Y-87864510D01*
X144002092Y-87818009D01*
X144015891Y-87816455D01*
X144262054Y-87802630D01*
X144296529Y-87800695D01*
X144303481Y-87800500D01*
X144424558Y-87800500D01*
X144424565Y-87800500D01*
X144671565Y-87767982D01*
X144912207Y-87703502D01*
X145142373Y-87608164D01*
X145358127Y-87483599D01*
X145555776Y-87331938D01*
X145731938Y-87155776D01*
X145867016Y-86979739D01*
X153324500Y-86979739D01*
X153324500Y-87685260D01*
X153327274Y-87714849D01*
X153370884Y-87839476D01*
X153449288Y-87945710D01*
X153449289Y-87945711D01*
X153555519Y-88024112D01*
X153555521Y-88024113D01*
X153555525Y-88024116D01*
X153555529Y-88024117D01*
X153556147Y-88024444D01*
X153556706Y-88024988D01*
X153563001Y-88029634D01*
X153562365Y-88030494D01*
X153566400Y-88034420D01*
X153579416Y-88040365D01*
X153590943Y-88058302D01*
X153606223Y-88073170D01*
X153610176Y-88088229D01*
X153617190Y-88099143D01*
X153622213Y-88134078D01*
X153622213Y-88180921D01*
X153602528Y-88247960D01*
X153562516Y-88284709D01*
X153563001Y-88285366D01*
X153556893Y-88289873D01*
X153556157Y-88290550D01*
X153555522Y-88290885D01*
X153449289Y-88369288D01*
X153449288Y-88369289D01*
X153370884Y-88475523D01*
X153327274Y-88600150D01*
X153324500Y-88629739D01*
X153324500Y-89310260D01*
X153327274Y-89339849D01*
X153370884Y-89464476D01*
X153449288Y-89570710D01*
X153449289Y-89570711D01*
X153555523Y-89649115D01*
X153555524Y-89649115D01*
X153555525Y-89649116D01*
X153680151Y-89692725D01*
X153680150Y-89692725D01*
X153709740Y-89695500D01*
X153709744Y-89695500D01*
X154290260Y-89695500D01*
X154319849Y-89692725D01*
X154444475Y-89649116D01*
X154550711Y-89570711D01*
X154629116Y-89464475D01*
X154672725Y-89339849D01*
X154675500Y-89310256D01*
X154675500Y-88629744D01*
X154672725Y-88600151D01*
X154629116Y-88475525D01*
X154550711Y-88369289D01*
X154543000Y-88363598D01*
X154444477Y-88290885D01*
X154443843Y-88290550D01*
X154443277Y-88289999D01*
X154436999Y-88285366D01*
X154437633Y-88284506D01*
X154433593Y-88280575D01*
X154420584Y-88274634D01*
X154409053Y-88256692D01*
X154393772Y-88241820D01*
X154389820Y-88226763D01*
X154382810Y-88215856D01*
X154377787Y-88180921D01*
X154377787Y-88134078D01*
X154397472Y-88067039D01*
X154437484Y-88030292D01*
X154436999Y-88029634D01*
X154443123Y-88025113D01*
X154443853Y-88024444D01*
X154444467Y-88024118D01*
X154444475Y-88024116D01*
X154550711Y-87945711D01*
X154629116Y-87839475D01*
X154672725Y-87714849D01*
X154675500Y-87685256D01*
X154675500Y-86979744D01*
X154672725Y-86950151D01*
X154629116Y-86825525D01*
X154550711Y-86719289D01*
X154550710Y-86719288D01*
X154444476Y-86640884D01*
X154319848Y-86597274D01*
X154319849Y-86597274D01*
X154290260Y-86594500D01*
X154290256Y-86594500D01*
X153709744Y-86594500D01*
X153709740Y-86594500D01*
X153680150Y-86597274D01*
X153555523Y-86640884D01*
X153449289Y-86719288D01*
X153449288Y-86719289D01*
X153370884Y-86825523D01*
X153327274Y-86950150D01*
X153324500Y-86979739D01*
X145867016Y-86979739D01*
X145883599Y-86958127D01*
X146008164Y-86742373D01*
X146103502Y-86512207D01*
X146167982Y-86271565D01*
X146200500Y-86024565D01*
X146200500Y-85900000D01*
X146200500Y-85842417D01*
X146200500Y-85842416D01*
X146200500Y-80903480D01*
X146200695Y-80896528D01*
X146201984Y-80873566D01*
X146216455Y-80615891D01*
X146218009Y-80602092D01*
X146264510Y-80328412D01*
X146267598Y-80314880D01*
X146344450Y-80048119D01*
X146349040Y-80035006D01*
X146360740Y-80006760D01*
X146455268Y-79778545D01*
X146461298Y-79766026D01*
X146595574Y-79523072D01*
X146602969Y-79511304D01*
X146763605Y-79284908D01*
X146772260Y-79274054D01*
X146957245Y-79067057D01*
X146967068Y-79057236D01*
X147116159Y-78924000D01*
X147174055Y-78872260D01*
X147184906Y-78863607D01*
X147242320Y-78822869D01*
X147308385Y-78800131D01*
X147314073Y-78800000D01*
X148876000Y-78800000D01*
X148943039Y-78819685D01*
G37*
G04 #@! TD.AperFunction*
G04 #@! TA.AperFunction,Conductor*
G36*
X156049074Y-98570185D02*
G01*
X156069716Y-98586819D01*
X158113181Y-100630284D01*
X158146666Y-100691607D01*
X158149500Y-100717965D01*
X158149500Y-101949752D01*
X158161131Y-102008229D01*
X158161132Y-102008230D01*
X158205447Y-102074552D01*
X158271769Y-102118867D01*
X158271770Y-102118868D01*
X158330247Y-102130499D01*
X158330250Y-102130500D01*
X158330252Y-102130500D01*
X159562035Y-102130500D01*
X159629074Y-102150185D01*
X159649716Y-102166819D01*
X160513181Y-103030284D01*
X160546666Y-103091607D01*
X160549500Y-103117965D01*
X160549500Y-109264431D01*
X160529815Y-109331470D01*
X160513181Y-109352112D01*
X160318513Y-109546779D01*
X160318509Y-109546785D01*
X160259201Y-109649508D01*
X160259200Y-109649513D01*
X160228500Y-109764087D01*
X160228500Y-110483035D01*
X160208815Y-110550074D01*
X160192181Y-110570716D01*
X159799716Y-110963181D01*
X159738393Y-110996666D01*
X159712035Y-110999500D01*
X156517503Y-110999500D01*
X156409090Y-111021065D01*
X156409089Y-111021065D01*
X156395631Y-111023742D01*
X156382173Y-111026419D01*
X156382171Y-111026420D01*
X156329366Y-111048292D01*
X156329364Y-111048293D01*
X156329363Y-111048292D01*
X156254696Y-111079221D01*
X156254680Y-111079230D01*
X156216957Y-111104437D01*
X156216955Y-111104438D01*
X156139961Y-111155883D01*
X156139953Y-111155889D01*
X155706367Y-111589474D01*
X156002922Y-110330000D01*
X159906000Y-110330000D01*
X159906000Y-107358000D01*
X155334000Y-107358000D01*
X153673444Y-109493000D01*
X146368500Y-109493000D01*
X146153929Y-109063859D01*
X146206814Y-109094392D01*
X146334108Y-109128500D01*
X146334110Y-109128500D01*
X146465890Y-109128500D01*
X146465892Y-109128500D01*
X146593186Y-109094392D01*
X146707314Y-109028500D01*
X146800500Y-108935314D01*
X146866392Y-108821186D01*
X146900500Y-108693892D01*
X146900500Y-108634108D01*
X152293500Y-108634108D01*
X152293500Y-108765891D01*
X152327608Y-108893187D01*
X152351930Y-108935313D01*
X152393500Y-109007314D01*
X152486686Y-109100500D01*
X152600814Y-109166392D01*
X152728108Y-109200500D01*
X152728110Y-109200500D01*
X152859890Y-109200500D01*
X152859892Y-109200500D01*
X152987186Y-109166392D01*
X153101314Y-109100500D01*
X153194500Y-109007314D01*
X153260392Y-108893186D01*
X153294500Y-108765892D01*
X153294500Y-108634108D01*
X153260392Y-108506814D01*
X153194500Y-108392686D01*
X153101314Y-108299500D01*
X153044250Y-108266554D01*
X152987187Y-108233608D01*
X152923539Y-108216554D01*
X152859892Y-108199500D01*
X152728108Y-108199500D01*
X152600812Y-108233608D01*
X152486686Y-108299500D01*
X152486683Y-108299502D01*
X152393502Y-108392683D01*
X152393500Y-108392686D01*
X152327608Y-108506812D01*
X152293500Y-108634108D01*
X146900500Y-108634108D01*
X146900500Y-108562108D01*
X146866392Y-108434814D01*
X146800500Y-108320686D01*
X146707314Y-108227500D01*
X146650250Y-108194554D01*
X146593187Y-108161608D01*
X146529539Y-108144554D01*
X146465892Y-108127500D01*
X146334108Y-108127500D01*
X146206812Y-108161608D01*
X146092686Y-108227500D01*
X146092683Y-108227502D01*
X145999502Y-108320683D01*
X145999500Y-108320686D01*
X145933608Y-108434812D01*
X145900740Y-108557480D01*
X145809000Y-108374000D01*
X140094000Y-108374000D01*
X140094000Y-111268000D01*
X143544000Y-111268000D01*
X143544000Y-111271000D01*
X151037000Y-111271000D01*
X151037000Y-111604469D01*
X151036415Y-111603398D01*
X151034885Y-111594257D01*
X151034851Y-111594263D01*
X151034470Y-111591856D01*
X151029625Y-111561263D01*
X151028852Y-111556713D01*
X150992908Y-111472617D01*
X150956944Y-111423117D01*
X150932703Y-111395372D01*
X150932702Y-111395371D01*
X150854194Y-111348464D01*
X150796004Y-111329557D01*
X150732504Y-111319500D01*
X150732500Y-111319500D01*
X144278000Y-111319500D01*
X144277994Y-111319500D01*
X144245861Y-111322029D01*
X144215222Y-111326881D01*
X144210717Y-111327646D01*
X144210714Y-111327647D01*
X144126617Y-111363592D01*
X144077115Y-111399557D01*
X144049371Y-111423797D01*
X144002464Y-111502305D01*
X143983557Y-111560494D01*
X143983557Y-111560497D01*
X143973500Y-111623995D01*
X143973500Y-113077005D01*
X143976029Y-113109138D01*
X143980881Y-113139777D01*
X143981646Y-113144282D01*
X143981648Y-113144289D01*
X144001957Y-113191804D01*
X144010204Y-113261185D01*
X143979631Y-113324011D01*
X143927099Y-113358191D01*
X143914500Y-113362384D01*
X143914496Y-113362386D01*
X143793462Y-113440171D01*
X143793451Y-113440179D01*
X143740659Y-113485923D01*
X143646433Y-113594664D01*
X143646430Y-113594668D01*
X143586664Y-113725534D01*
X143566976Y-113792582D01*
X143557643Y-113857500D01*
X143548925Y-113918137D01*
X143546500Y-113935001D01*
X143546500Y-115731034D01*
X143540261Y-115752279D01*
X143538682Y-115774368D01*
X143530609Y-115785151D01*
X143526815Y-115798073D01*
X143510081Y-115812572D01*
X143496810Y-115830301D01*
X143484189Y-115835008D01*
X143474011Y-115843828D01*
X143452093Y-115846979D01*
X143431346Y-115854718D01*
X143418185Y-115851855D01*
X143404853Y-115853772D01*
X143384709Y-115844572D01*
X143363073Y-115839866D01*
X143345347Y-115826597D01*
X143341297Y-115824747D01*
X143334819Y-115818715D01*
X143236819Y-115720715D01*
X143203334Y-115659392D01*
X143200500Y-115633034D01*
X143200500Y-113505313D01*
X143200499Y-113505298D01*
X143199506Y-113492683D01*
X143197598Y-113468431D01*
X143185077Y-113425335D01*
X143153469Y-113316540D01*
X143151744Y-113310602D01*
X143068081Y-113169135D01*
X143068079Y-113169133D01*
X143068076Y-113169129D01*
X142951870Y-113052923D01*
X142951862Y-113052917D01*
X142810396Y-112969255D01*
X142810393Y-112969254D01*
X142652573Y-112923402D01*
X142652567Y-112923401D01*
X142615701Y-112920500D01*
X142615694Y-112920500D01*
X140384306Y-112920500D01*
X140384298Y-112920500D01*
X140347432Y-112923401D01*
X140347426Y-112923402D01*
X140189606Y-112969254D01*
X140189603Y-112969255D01*
X140048137Y-113052917D01*
X140048129Y-113052923D01*
X139931923Y-113169129D01*
X139931917Y-113169137D01*
X139848255Y-113310603D01*
X139848254Y-113310606D01*
X139802402Y-113468426D01*
X139802401Y-113468432D01*
X139799500Y-113505298D01*
X139799500Y-115736701D01*
X139802401Y-115773567D01*
X139802402Y-115773573D01*
X139848254Y-115931393D01*
X139848255Y-115931396D01*
X139848256Y-115931398D01*
X139850158Y-115934614D01*
X139931917Y-116072862D01*
X139931923Y-116072870D01*
X140048129Y-116189076D01*
X140048133Y-116189079D01*
X140048135Y-116189081D01*
X140189602Y-116272744D01*
X140231224Y-116284836D01*
X140347426Y-116318597D01*
X140347429Y-116318597D01*
X140347431Y-116318598D01*
X140384306Y-116321500D01*
X142356101Y-116321500D01*
X142423140Y-116341185D01*
X142468895Y-116393989D01*
X142478839Y-116463147D01*
X142449814Y-116526703D01*
X142429736Y-116545268D01*
X142428500Y-116546181D01*
X142424287Y-116549290D01*
X142345884Y-116655523D01*
X142302274Y-116780150D01*
X142299500Y-116809739D01*
X142299500Y-117390260D01*
X142302274Y-117419849D01*
X142345884Y-117544476D01*
X142424288Y-117650710D01*
X142424289Y-117650711D01*
X142530523Y-117729115D01*
X142530524Y-117729115D01*
X142530525Y-117729116D01*
X142655151Y-117772725D01*
X142655150Y-117772725D01*
X142684740Y-117775500D01*
X142684744Y-117775500D01*
X143290260Y-117775500D01*
X143319849Y-117772725D01*
X143444475Y-117729116D01*
X143488381Y-117696711D01*
X143554006Y-117672741D01*
X143622177Y-117688056D01*
X143666328Y-117729442D01*
X143681170Y-117752537D01*
X143681179Y-117752548D01*
X143726923Y-117805340D01*
X143726926Y-117805343D01*
X143726930Y-117805347D01*
X143835664Y-117899567D01*
X143835667Y-117899568D01*
X143835668Y-117899569D01*
X143942314Y-117948274D01*
X143966541Y-117959338D01*
X144033580Y-117979023D01*
X144033584Y-117979024D01*
X144176000Y-117999500D01*
X146149526Y-117999500D01*
X146216565Y-118019185D01*
X146262320Y-118071989D01*
X146272264Y-118141147D01*
X146243239Y-118204703D01*
X146211526Y-118230887D01*
X146092689Y-118299497D01*
X146092683Y-118299502D01*
X145999502Y-118392683D01*
X145999500Y-118392686D01*
X145933608Y-118506812D01*
X145899500Y-118634108D01*
X145899500Y-118724166D01*
X145879815Y-118791205D01*
X145863181Y-118811847D01*
X145194435Y-119480592D01*
X145133112Y-119514077D01*
X145063420Y-119509093D01*
X145007487Y-119467221D01*
X144998727Y-119453385D01*
X144997793Y-119452120D01*
X144997793Y-119452118D01*
X144917150Y-119342850D01*
X144807882Y-119262207D01*
X144807881Y-119262206D01*
X144679695Y-119217353D01*
X144679698Y-119217353D01*
X144649268Y-119214500D01*
X142650741Y-119214500D01*
X142620301Y-119217354D01*
X142620300Y-119217354D01*
X142492118Y-119262206D01*
X142382850Y-119342850D01*
X142302206Y-119452118D01*
X142257353Y-119580302D01*
X142254500Y-119610731D01*
X142254500Y-120734258D01*
X142257354Y-120764698D01*
X142257354Y-120764699D01*
X142302206Y-120892881D01*
X142302207Y-120892882D01*
X142382850Y-121002150D01*
X142492118Y-121082793D01*
X142620302Y-121127646D01*
X142620301Y-121127646D01*
X142624271Y-121128018D01*
X142650735Y-121130500D01*
X144649264Y-121130499D01*
X144679698Y-121127646D01*
X144807882Y-121082793D01*
X144917150Y-121002150D01*
X144997793Y-120892882D01*
X145042646Y-120764698D01*
X145043077Y-120760098D01*
X145045392Y-120735422D01*
X145071250Y-120670513D01*
X145128095Y-120629889D01*
X145168850Y-120623000D01*
X145625369Y-120623000D01*
X145692408Y-120642685D01*
X145738163Y-120695489D01*
X145748107Y-120764647D01*
X145735000Y-120804939D01*
X145731207Y-120812114D01*
X145686353Y-120940297D01*
X145686353Y-120940299D01*
X145683500Y-120970729D01*
X145683500Y-123229260D01*
X145683501Y-123229266D01*
X145686354Y-123259700D01*
X145686354Y-123259702D01*
X145686355Y-123259703D01*
X145686355Y-123259705D01*
X145731206Y-123387882D01*
X145791280Y-123469280D01*
X144920000Y-122598000D01*
X142380000Y-122598000D01*
X142380000Y-125449500D01*
X141637965Y-125449500D01*
X141570926Y-125429815D01*
X141550284Y-125413181D01*
X139267819Y-123130716D01*
X139234334Y-123069393D01*
X139231500Y-123043035D01*
X139231500Y-107334108D01*
X144199500Y-107334108D01*
X144199500Y-107465892D01*
X144205107Y-107486818D01*
X144233608Y-107593187D01*
X144254352Y-107629116D01*
X144299500Y-107707314D01*
X144392686Y-107800500D01*
X144506814Y-107866392D01*
X144634108Y-107900500D01*
X144634110Y-107900500D01*
X144765890Y-107900500D01*
X144765892Y-107900500D01*
X144893186Y-107866392D01*
X145007314Y-107800500D01*
X145100500Y-107707314D01*
X145166392Y-107593186D01*
X145166393Y-107593180D01*
X145169504Y-107585674D01*
X145170841Y-107586228D01*
X145174035Y-107580696D01*
X145176962Y-107567243D01*
X145198114Y-107538989D01*
X145250286Y-107486818D01*
X145311609Y-107453334D01*
X145337966Y-107450500D01*
X149250232Y-107450500D01*
X149317271Y-107470185D01*
X149350002Y-107500866D01*
X149386788Y-107550710D01*
X149386790Y-107550712D01*
X149493023Y-107629115D01*
X149493024Y-107629115D01*
X149493025Y-107629116D01*
X149617651Y-107672725D01*
X149617650Y-107672725D01*
X149647240Y-107675500D01*
X149647244Y-107675500D01*
X150352760Y-107675500D01*
X150382349Y-107672725D01*
X150506975Y-107629116D01*
X150613211Y-107550711D01*
X150691616Y-107444475D01*
X150735225Y-107319849D01*
X150738000Y-107290256D01*
X150738000Y-106738332D01*
X150757685Y-106671293D01*
X150774319Y-106650651D01*
X150900203Y-106524767D01*
X151140460Y-106284511D01*
X151180021Y-106215989D01*
X151200500Y-106139562D01*
X151200500Y-106074500D01*
X151220185Y-106007461D01*
X151272989Y-105961706D01*
X151291672Y-105954924D01*
X151307787Y-105950500D01*
X151319748Y-105950500D01*
X151378231Y-105938867D01*
X151397807Y-105925786D01*
X151417172Y-105920470D01*
X151432836Y-105920746D01*
X151447785Y-105916066D01*
X151467053Y-105921351D01*
X151487031Y-105921705D01*
X151500058Y-105930405D01*
X151515165Y-105934550D01*
X151518892Y-105936945D01*
X151521768Y-105938867D01*
X151521770Y-105938868D01*
X151580247Y-105950499D01*
X151580250Y-105950500D01*
X151580252Y-105950500D01*
X152419750Y-105950500D01*
X152419751Y-105950499D01*
X152434568Y-105947552D01*
X152478229Y-105938868D01*
X152478231Y-105938867D01*
X152481108Y-105936945D01*
X152488335Y-105934681D01*
X152489513Y-105934194D01*
X152489556Y-105934299D01*
X152547785Y-105916066D01*
X152615165Y-105934550D01*
X152618892Y-105936945D01*
X152621768Y-105938867D01*
X152621770Y-105938868D01*
X152680247Y-105950499D01*
X152680250Y-105950500D01*
X152680252Y-105950500D01*
X153519750Y-105950500D01*
X153519751Y-105950499D01*
X153534568Y-105947552D01*
X153578229Y-105938868D01*
X153578231Y-105938867D01*
X153581108Y-105936945D01*
X153588335Y-105934681D01*
X153589513Y-105934194D01*
X153589556Y-105934299D01*
X153647785Y-105916066D01*
X153715165Y-105934550D01*
X153718892Y-105936945D01*
X153721768Y-105938867D01*
X153721770Y-105938868D01*
X153780247Y-105950499D01*
X153780250Y-105950500D01*
X153780252Y-105950500D01*
X154619750Y-105950500D01*
X154619751Y-105950499D01*
X154634568Y-105947552D01*
X154678229Y-105938868D01*
X154678231Y-105938867D01*
X154681108Y-105936945D01*
X154688335Y-105934681D01*
X154689513Y-105934194D01*
X154689556Y-105934299D01*
X154747785Y-105916066D01*
X154815165Y-105934550D01*
X154818892Y-105936945D01*
X154821768Y-105938867D01*
X154821770Y-105938868D01*
X154880247Y-105950499D01*
X154880250Y-105950500D01*
X154880252Y-105950500D01*
X155719750Y-105950500D01*
X155719751Y-105950499D01*
X155734568Y-105947552D01*
X155778229Y-105938868D01*
X155778229Y-105938867D01*
X155778231Y-105938867D01*
X155844552Y-105894552D01*
X155888867Y-105828231D01*
X155888867Y-105828229D01*
X155888868Y-105828229D01*
X155900499Y-105769752D01*
X155900500Y-105769750D01*
X155900500Y-103930249D01*
X155900499Y-103930247D01*
X155888868Y-103871770D01*
X155888867Y-103871769D01*
X155844552Y-103805447D01*
X155778230Y-103761132D01*
X155778229Y-103761131D01*
X155719752Y-103749500D01*
X155713688Y-103748903D01*
X155713934Y-103746397D01*
X155657461Y-103729815D01*
X155611706Y-103677011D01*
X155600500Y-103625500D01*
X155600500Y-101975833D01*
X155620185Y-101908794D01*
X155636819Y-101888152D01*
X156082936Y-101442035D01*
X156540460Y-100984511D01*
X156580022Y-100915988D01*
X156600500Y-100839562D01*
X156600500Y-100760438D01*
X156600500Y-100387694D01*
X156620185Y-100320655D01*
X156636819Y-100300013D01*
X156656323Y-100280509D01*
X156700500Y-100236332D01*
X156766392Y-100122204D01*
X156800500Y-99994910D01*
X156800500Y-99863126D01*
X156766392Y-99735832D01*
X156700500Y-99621704D01*
X156607314Y-99528518D01*
X156550250Y-99495572D01*
X156493187Y-99462626D01*
X156429539Y-99445572D01*
X156365892Y-99428518D01*
X156234108Y-99428518D01*
X156106812Y-99462626D01*
X155992686Y-99528518D01*
X155992683Y-99528520D01*
X155899502Y-99621701D01*
X155899500Y-99621704D01*
X155833608Y-99735830D01*
X155799500Y-99863126D01*
X155798439Y-99871186D01*
X155797146Y-99871015D01*
X155779815Y-99930039D01*
X155727011Y-99975794D01*
X155675500Y-99987000D01*
X155634108Y-99987000D01*
X155506812Y-100021108D01*
X155392686Y-100087000D01*
X155392683Y-100087002D01*
X155299502Y-100180183D01*
X155299500Y-100180186D01*
X155233608Y-100294312D01*
X155199500Y-100421608D01*
X155199500Y-100511666D01*
X155179815Y-100578705D01*
X155163181Y-100599347D01*
X154015489Y-101747040D01*
X153959541Y-101802987D01*
X153959535Y-101802995D01*
X153919982Y-101871504D01*
X153919979Y-101871509D01*
X153899500Y-101947939D01*
X153899500Y-103625500D01*
X153879815Y-103692539D01*
X153827011Y-103738294D01*
X153808327Y-103745076D01*
X153792212Y-103749500D01*
X153780252Y-103749500D01*
X153721769Y-103761133D01*
X153702195Y-103774211D01*
X153682827Y-103779529D01*
X153667160Y-103779252D01*
X153652209Y-103783933D01*
X153632943Y-103778647D01*
X153612968Y-103778294D01*
X153599939Y-103769591D01*
X153584829Y-103765446D01*
X153581113Y-103763058D01*
X153578231Y-103761132D01*
X153578229Y-103761131D01*
X153519752Y-103749500D01*
X153513688Y-103748903D01*
X153513934Y-103746397D01*
X153457461Y-103729815D01*
X153411706Y-103677011D01*
X153400500Y-103625500D01*
X153400500Y-101460439D01*
X153395569Y-101442035D01*
X153380021Y-101384011D01*
X153380017Y-101384004D01*
X153340464Y-101315495D01*
X153340458Y-101315487D01*
X152443125Y-100418154D01*
X152443120Y-100418150D01*
X152433678Y-100412699D01*
X152433677Y-100412699D01*
X152374604Y-100378593D01*
X152374603Y-100378592D01*
X152349126Y-100371765D01*
X152298175Y-100358113D01*
X152298173Y-100358113D01*
X152216456Y-100358113D01*
X152194300Y-100351607D01*
X152171297Y-100349597D01*
X152158126Y-100340985D01*
X152149417Y-100338428D01*
X152140590Y-100332196D01*
X152134352Y-100327371D01*
X152065094Y-100258113D01*
X151985106Y-100211931D01*
X151978483Y-100206809D01*
X151962701Y-100185019D01*
X151944133Y-100165545D01*
X151942514Y-100157148D01*
X151937499Y-100150223D01*
X151936002Y-100123356D01*
X151930911Y-100096938D01*
X151934088Y-100089000D01*
X151933613Y-100080461D01*
X151946879Y-100057050D01*
X151956879Y-100032074D01*
X151963844Y-100027113D01*
X151968061Y-100019674D01*
X151991876Y-100007152D01*
X152013793Y-99991546D01*
X152022236Y-99988957D01*
X152106451Y-99966392D01*
X152220579Y-99900500D01*
X152313765Y-99807314D01*
X152379657Y-99693186D01*
X152413765Y-99565892D01*
X152413765Y-99434108D01*
X152379657Y-99306814D01*
X152313765Y-99192686D01*
X152220579Y-99099500D01*
X152153909Y-99061008D01*
X152106452Y-99033608D01*
X152006453Y-99006814D01*
X151979157Y-98999500D01*
X151847373Y-98999500D01*
X151720077Y-99033608D01*
X151605951Y-99099500D01*
X151605948Y-99099502D01*
X151512767Y-99192683D01*
X151512765Y-99192686D01*
X151446873Y-99306812D01*
X151412765Y-99434108D01*
X151412765Y-99524166D01*
X151393080Y-99591205D01*
X151376446Y-99611847D01*
X147420874Y-103567419D01*
X147420870Y-103567423D01*
X147415489Y-103572805D01*
X147359540Y-103628754D01*
X147321301Y-103694986D01*
X147315984Y-103701798D01*
X147294336Y-103717331D01*
X147275057Y-103735715D01*
X147265478Y-103738038D01*
X147259217Y-103742532D01*
X147243672Y-103743329D01*
X147218236Y-103749500D01*
X147180247Y-103749500D01*
X147121770Y-103761131D01*
X147121769Y-103761132D01*
X147055447Y-103805447D01*
X147011132Y-103871769D01*
X147011131Y-103871770D01*
X146999500Y-103930247D01*
X146999500Y-105769752D01*
X147011131Y-105828229D01*
X147011132Y-105828230D01*
X147055447Y-105894552D01*
X147121769Y-105938867D01*
X147121770Y-105938868D01*
X147180247Y-105950499D01*
X147180250Y-105950500D01*
X147180252Y-105950500D01*
X148019750Y-105950500D01*
X148019751Y-105950499D01*
X148034568Y-105947552D01*
X148078229Y-105938868D01*
X148078231Y-105938867D01*
X148081108Y-105936945D01*
X148088335Y-105934681D01*
X148089513Y-105934194D01*
X148089556Y-105934299D01*
X148147785Y-105916066D01*
X148215165Y-105934550D01*
X148218892Y-105936945D01*
X148221768Y-105938867D01*
X148221770Y-105938868D01*
X148280247Y-105950499D01*
X148280250Y-105950500D01*
X148280252Y-105950500D01*
X148474167Y-105950500D01*
X148541206Y-105970185D01*
X148561848Y-105986819D01*
X148912848Y-106337819D01*
X148946333Y-106399142D01*
X148941349Y-106468834D01*
X148899477Y-106524767D01*
X148834013Y-106549184D01*
X148825167Y-106549500D01*
X145040691Y-106549500D01*
X144971944Y-106567920D01*
X144926112Y-106580201D01*
X144926107Y-106580204D01*
X144882695Y-106605267D01*
X144882696Y-106605268D01*
X144823389Y-106639508D01*
X144823387Y-106639510D01*
X144561009Y-106901887D01*
X144513775Y-106929161D01*
X144514328Y-106930495D01*
X144506816Y-106933606D01*
X144392689Y-106999498D01*
X144392683Y-106999502D01*
X144299502Y-107092683D01*
X144299500Y-107092686D01*
X144233608Y-107206812D01*
X144211250Y-107290256D01*
X144199500Y-107334108D01*
X139231500Y-107334108D01*
X139231500Y-105574500D01*
X139231822Y-105573400D01*
X139231520Y-105572297D01*
X139241641Y-105539962D01*
X139251185Y-105507461D01*
X139252049Y-105506711D01*
X139252392Y-105505618D01*
X139278408Y-105483871D01*
X139303989Y-105461706D01*
X139305409Y-105461302D01*
X139306001Y-105460808D01*
X139310311Y-105459910D01*
X139340037Y-105451468D01*
X139347738Y-105450500D01*
X139459309Y-105450500D01*
X139549673Y-105426286D01*
X139573887Y-105419799D01*
X139676614Y-105360489D01*
X139838989Y-105198112D01*
X139886228Y-105170842D01*
X139885674Y-105169504D01*
X139893180Y-105166393D01*
X139893186Y-105166392D01*
X140007314Y-105100500D01*
X140100500Y-105007314D01*
X140166392Y-104893186D01*
X140200500Y-104765892D01*
X140200500Y-104634108D01*
X140166392Y-104506814D01*
X140100500Y-104392686D01*
X140007314Y-104299500D01*
X139950250Y-104266554D01*
X139893187Y-104233608D01*
X139829539Y-104216554D01*
X139765892Y-104199500D01*
X139634108Y-104199500D01*
X139506814Y-104233608D01*
X139506813Y-104233608D01*
X139506811Y-104233609D01*
X139506810Y-104233609D01*
X139417500Y-104285173D01*
X139349600Y-104301646D01*
X139283573Y-104278794D01*
X139240382Y-104223872D01*
X139231500Y-104177786D01*
X139231500Y-101421608D01*
X144234416Y-101421608D01*
X144234416Y-101553392D01*
X144246771Y-101599502D01*
X144268524Y-101680687D01*
X144275450Y-101692683D01*
X144334416Y-101794814D01*
X144427602Y-101888000D01*
X144541730Y-101953892D01*
X144669024Y-101988000D01*
X144669026Y-101988000D01*
X144800806Y-101988000D01*
X144800808Y-101988000D01*
X144928102Y-101953892D01*
X145042230Y-101888000D01*
X145135416Y-101794814D01*
X145201308Y-101680686D01*
X145235416Y-101553392D01*
X145235416Y-101421608D01*
X145201308Y-101294314D01*
X145135416Y-101180186D01*
X145042230Y-101087000D01*
X144985166Y-101054054D01*
X144928103Y-101021108D01*
X144823898Y-100993187D01*
X144800808Y-100987000D01*
X144669024Y-100987000D01*
X144541728Y-101021108D01*
X144427602Y-101087000D01*
X144427599Y-101087002D01*
X144334418Y-101180183D01*
X144334416Y-101180186D01*
X144268524Y-101294312D01*
X144244490Y-101384011D01*
X144234416Y-101421608D01*
X139231500Y-101421608D01*
X139231500Y-100756964D01*
X139238211Y-100734108D01*
X146999500Y-100734108D01*
X146999500Y-100865891D01*
X147033608Y-100993187D01*
X147066554Y-101050250D01*
X147099500Y-101107314D01*
X147192686Y-101200500D01*
X147306814Y-101266392D01*
X147434108Y-101300500D01*
X147434110Y-101300500D01*
X147565890Y-101300500D01*
X147565892Y-101300500D01*
X147693186Y-101266392D01*
X147807314Y-101200500D01*
X147900500Y-101107314D01*
X147966392Y-100993186D01*
X148000500Y-100865892D01*
X148000500Y-100734108D01*
X147966392Y-100606814D01*
X147900500Y-100492686D01*
X147807314Y-100399500D01*
X147735630Y-100358113D01*
X147693187Y-100333608D01*
X147629539Y-100316554D01*
X147565892Y-100299500D01*
X147434108Y-100299500D01*
X147306812Y-100333608D01*
X147192686Y-100399500D01*
X147192683Y-100399502D01*
X147099502Y-100492683D01*
X147099500Y-100492686D01*
X147033608Y-100606812D01*
X146999500Y-100734108D01*
X139238211Y-100734108D01*
X139240144Y-100727523D01*
X139246668Y-100697537D01*
X139250422Y-100692521D01*
X139251185Y-100689925D01*
X139267814Y-100669287D01*
X140238989Y-99698112D01*
X140286222Y-99670845D01*
X140285668Y-99669506D01*
X140293176Y-99666394D01*
X140293186Y-99666392D01*
X140407314Y-99600500D01*
X140500500Y-99507314D01*
X140566392Y-99393186D01*
X140566393Y-99393180D01*
X140569504Y-99385674D01*
X140570842Y-99386228D01*
X140598111Y-99338990D01*
X141350284Y-98586819D01*
X141411607Y-98553334D01*
X141437965Y-98550500D01*
X155982035Y-98550500D01*
X156049074Y-98570185D01*
G37*
G04 #@! TD.AperFunction*
G04 #@! TA.AperFunction,Conductor*
G36*
X145861352Y-123533684D02*
G01*
X145921117Y-123577793D01*
X145942271Y-123585195D01*
X146049298Y-123622646D01*
X146056323Y-123623304D01*
X146079733Y-123625500D01*
X147088266Y-123625499D01*
X147118700Y-123622646D01*
X147246883Y-123577793D01*
X147263326Y-123565656D01*
X147328955Y-123541685D01*
X147397125Y-123557000D01*
X147424641Y-123577744D01*
X148382385Y-124535489D01*
X148485112Y-124594798D01*
X148509320Y-124601283D01*
X148509323Y-124601285D01*
X148509324Y-124601285D01*
X148539446Y-124609356D01*
X148599690Y-124625499D01*
X153384285Y-124625499D01*
X153451324Y-124645184D01*
X153485204Y-124677447D01*
X153487992Y-124681352D01*
X153573651Y-124767011D01*
X153682488Y-124820219D01*
X153682489Y-124820219D01*
X153682491Y-124820220D01*
X153753051Y-124830500D01*
X154146948Y-124830499D01*
X154146950Y-124830499D01*
X154175172Y-124826387D01*
X154217509Y-124820220D01*
X154232334Y-124812972D01*
X154301202Y-124801211D01*
X154365500Y-124828551D01*
X154404810Y-124886314D01*
X154406567Y-124892268D01*
X154433608Y-124993186D01*
X154499500Y-125107314D01*
X154592686Y-125200500D01*
X154623193Y-125218113D01*
X154671408Y-125268681D01*
X154684630Y-125337288D01*
X154658662Y-125402152D01*
X154601748Y-125442680D01*
X154561192Y-125449500D01*
X147206000Y-125449500D01*
X147206000Y-124884000D01*
X145839717Y-123517717D01*
X145861352Y-123533684D01*
G37*
G04 #@! TD.AperFunction*
G04 #@! TA.AperFunction,Conductor*
G36*
X155426478Y-119999587D02*
G01*
X155433781Y-119998340D01*
X155459549Y-120009297D01*
X155486410Y-120017185D01*
X155491260Y-120022782D01*
X155498079Y-120025682D01*
X155513832Y-120048832D01*
X155532165Y-120069989D01*
X155533219Y-120077321D01*
X155537387Y-120083446D01*
X155538123Y-120111431D01*
X155542109Y-120139147D01*
X155539031Y-120145886D01*
X155539226Y-120153291D01*
X155524716Y-120177230D01*
X155513084Y-120202703D01*
X155505954Y-120208187D01*
X155503012Y-120213043D01*
X155473833Y-120232899D01*
X155473654Y-120232986D01*
X155473651Y-120232988D01*
X155387988Y-120318651D01*
X155334780Y-120427488D01*
X155334504Y-120429383D01*
X155324500Y-120498051D01*
X155324500Y-120498055D01*
X155324500Y-120498056D01*
X155324500Y-121801950D01*
X155334779Y-121872506D01*
X155334779Y-121872507D01*
X155334780Y-121872509D01*
X155360807Y-121925748D01*
X155387989Y-121981349D01*
X155473651Y-122067011D01*
X155582488Y-122120219D01*
X155582489Y-122120219D01*
X155582491Y-122120220D01*
X155653051Y-122130500D01*
X156046948Y-122130499D01*
X156046950Y-122130499D01*
X156075172Y-122126387D01*
X156117509Y-122120220D01*
X156226347Y-122067012D01*
X156312012Y-121981347D01*
X156365220Y-121872509D01*
X156375500Y-121801949D01*
X156375500Y-121612000D01*
X156395185Y-121544961D01*
X156447989Y-121499206D01*
X156499500Y-121488000D01*
X156828148Y-121488000D01*
X156895187Y-121507685D01*
X156940942Y-121560489D01*
X156945189Y-121571045D01*
X156970884Y-121644475D01*
X156970884Y-121644476D01*
X157049288Y-121750710D01*
X157049289Y-121750711D01*
X157155523Y-121829115D01*
X157155524Y-121829115D01*
X157155525Y-121829116D01*
X157280151Y-121872725D01*
X157280150Y-121872725D01*
X157309740Y-121875500D01*
X157309744Y-121875500D01*
X157890260Y-121875500D01*
X157913930Y-121873280D01*
X157919849Y-121872725D01*
X158034547Y-121832589D01*
X158104322Y-121829027D01*
X158164950Y-121863755D01*
X158197178Y-121925748D01*
X158199500Y-121949631D01*
X158199500Y-124012035D01*
X158179815Y-124079074D01*
X158163181Y-124099716D01*
X156849716Y-125413181D01*
X156788393Y-125446666D01*
X156762035Y-125449500D01*
X155238808Y-125449500D01*
X155171769Y-125429815D01*
X155126014Y-125377011D01*
X155116070Y-125307853D01*
X155145095Y-125244297D01*
X155176807Y-125218113D01*
X155207314Y-125200500D01*
X155300500Y-125107314D01*
X155366392Y-124993186D01*
X155393430Y-124892276D01*
X155429794Y-124832618D01*
X155492640Y-124802089D01*
X155562016Y-124810383D01*
X155567651Y-124812965D01*
X155582491Y-124820220D01*
X155653051Y-124830500D01*
X156046948Y-124830499D01*
X156046950Y-124830499D01*
X156075172Y-124826387D01*
X156117509Y-124820220D01*
X156226347Y-124767012D01*
X156312012Y-124681347D01*
X156365220Y-124572509D01*
X156375500Y-124501949D01*
X156375499Y-123198052D01*
X156365220Y-123127491D01*
X156312012Y-123018653D01*
X156312010Y-123018651D01*
X156312010Y-123018650D01*
X156226348Y-122932988D01*
X156117511Y-122879780D01*
X156099869Y-122877210D01*
X156046949Y-122869500D01*
X156046943Y-122869500D01*
X155653049Y-122869500D01*
X155582493Y-122879779D01*
X155473650Y-122932989D01*
X155387988Y-123018651D01*
X155334780Y-123127488D01*
X155334310Y-123130716D01*
X155324500Y-123198051D01*
X155324500Y-123198056D01*
X155324500Y-123899166D01*
X155304815Y-123966205D01*
X155288181Y-123986847D01*
X155011847Y-124263181D01*
X154950524Y-124296666D01*
X154924166Y-124299500D01*
X154834108Y-124299500D01*
X154706814Y-124333608D01*
X154706813Y-124333608D01*
X154706811Y-124333609D01*
X154706808Y-124333610D01*
X154661497Y-124359770D01*
X154593597Y-124376241D01*
X154527570Y-124353388D01*
X154484381Y-124298466D01*
X154475499Y-124252386D01*
X154475499Y-123198052D01*
X154465220Y-123127491D01*
X154412012Y-123018653D01*
X154412010Y-123018651D01*
X154412010Y-123018650D01*
X154326348Y-122932988D01*
X154217511Y-122879780D01*
X154199869Y-122877210D01*
X154146949Y-122869500D01*
X154146943Y-122869500D01*
X153865931Y-122869500D01*
X153798892Y-122849815D01*
X153753137Y-122797011D01*
X153743193Y-122727853D01*
X153772218Y-122664297D01*
X153802134Y-122639171D01*
X154363519Y-122302340D01*
X154363517Y-122302340D01*
X154363526Y-122302336D01*
X154400855Y-122273650D01*
X154441373Y-122234360D01*
X154450843Y-122224546D01*
X154495490Y-122144729D01*
X154515175Y-122077690D01*
X154523500Y-122019792D01*
X154523500Y-120484966D01*
X154543185Y-120417927D01*
X154559819Y-120397285D01*
X154923285Y-120033819D01*
X154984608Y-120000334D01*
X155010966Y-119997500D01*
X155419371Y-119997500D01*
X155426478Y-119999587D01*
G37*
G04 #@! TD.AperFunction*
G04 #@! TA.AperFunction,Conductor*
G36*
X159779074Y-112420185D02*
G01*
X159799716Y-112436819D01*
X160192181Y-112829284D01*
X160225666Y-112890607D01*
X160228500Y-112916965D01*
X160228500Y-113030191D01*
X160208815Y-113097230D01*
X160156011Y-113142985D01*
X160086853Y-113152929D01*
X160023297Y-113123904D01*
X160016819Y-113117872D01*
X159951870Y-113052923D01*
X159951862Y-113052917D01*
X159810396Y-112969255D01*
X159810393Y-112969254D01*
X159652573Y-112923402D01*
X159652567Y-112923401D01*
X159615701Y-112920500D01*
X159615694Y-112920500D01*
X157384306Y-112920500D01*
X157384298Y-112920500D01*
X157347432Y-112923401D01*
X157347426Y-112923402D01*
X157189606Y-112969254D01*
X157189603Y-112969255D01*
X157048137Y-113052917D01*
X157048129Y-113052923D01*
X156931923Y-113169129D01*
X156931917Y-113169137D01*
X156848255Y-113310603D01*
X156848254Y-113310606D01*
X156802402Y-113468426D01*
X156802401Y-113468432D01*
X156799500Y-113505298D01*
X156799500Y-115736701D01*
X156802401Y-115773567D01*
X156802402Y-115773573D01*
X156848254Y-115931393D01*
X156848255Y-115931396D01*
X156848256Y-115931398D01*
X156850158Y-115934614D01*
X156931917Y-116072862D01*
X156931923Y-116072870D01*
X157048129Y-116189076D01*
X157048133Y-116189079D01*
X157048135Y-116189081D01*
X157189602Y-116272744D01*
X157231224Y-116284836D01*
X157347426Y-116318597D01*
X157347429Y-116318597D01*
X157347431Y-116318598D01*
X157384306Y-116321500D01*
X158366035Y-116321500D01*
X158433074Y-116341185D01*
X158478829Y-116393989D01*
X158488773Y-116463147D01*
X158459748Y-116526703D01*
X158453716Y-116533181D01*
X156852716Y-118134181D01*
X156791393Y-118167666D01*
X156765035Y-118170500D01*
X155315268Y-118170500D01*
X155248229Y-118150815D01*
X155215498Y-118120134D01*
X155190607Y-118086408D01*
X155178711Y-118070289D01*
X155178709Y-118070288D01*
X155178709Y-118070287D01*
X155072476Y-117991884D01*
X154947848Y-117948274D01*
X154947849Y-117948274D01*
X154918260Y-117945500D01*
X154918256Y-117945500D01*
X154312744Y-117945500D01*
X154312740Y-117945500D01*
X154283150Y-117948274D01*
X154158523Y-117991884D01*
X154052289Y-118070288D01*
X154052288Y-118070289D01*
X153973884Y-118176523D01*
X153930274Y-118301150D01*
X153927500Y-118330739D01*
X153927500Y-118911260D01*
X153930274Y-118940849D01*
X153973884Y-119065476D01*
X154052288Y-119171710D01*
X154052289Y-119171711D01*
X154158522Y-119250115D01*
X154158525Y-119250116D01*
X154175420Y-119256028D01*
X154232196Y-119296748D01*
X154257944Y-119361701D01*
X154244488Y-119430262D01*
X154222147Y-119460750D01*
X153866717Y-119816181D01*
X153805394Y-119849666D01*
X153779036Y-119852500D01*
X153312251Y-119852500D01*
X153295318Y-119853199D01*
X153274927Y-119854887D01*
X153258102Y-119856981D01*
X150323823Y-120346027D01*
X150323810Y-120346030D01*
X150297518Y-120352213D01*
X150297512Y-120352214D01*
X150266385Y-120361734D01*
X150191913Y-120402944D01*
X150191912Y-120402945D01*
X150139104Y-120448703D01*
X150121160Y-120466285D01*
X150121154Y-120466292D01*
X150076511Y-120546102D01*
X150076509Y-120546107D01*
X150056826Y-120613139D01*
X150056825Y-120613144D01*
X150056825Y-120613145D01*
X150048577Y-120670513D01*
X150048500Y-120671046D01*
X150048500Y-123490007D01*
X150053196Y-123533684D01*
X150061998Y-123574140D01*
X150057014Y-123643831D01*
X150015143Y-123699765D01*
X149949679Y-123724183D01*
X149940832Y-123724499D01*
X148896965Y-123724499D01*
X148829926Y-123704814D01*
X148809284Y-123688180D01*
X147520818Y-122399714D01*
X147487333Y-122338391D01*
X147484499Y-122312033D01*
X147484499Y-120970739D01*
X147484499Y-120970734D01*
X147481646Y-120940300D01*
X147465053Y-120892881D01*
X147436793Y-120812117D01*
X147356150Y-120702849D01*
X147280261Y-120646841D01*
X147246883Y-120622207D01*
X147246881Y-120622206D01*
X147118701Y-120577353D01*
X147088615Y-120574532D01*
X147023707Y-120548674D01*
X146992807Y-120513075D01*
X146944489Y-120429386D01*
X146327114Y-119812011D01*
X146275750Y-119782356D01*
X146224388Y-119752701D01*
X146202948Y-119746956D01*
X146202936Y-119746953D01*
X146200173Y-119746213D01*
X146109809Y-119722000D01*
X146088921Y-119722000D01*
X146075821Y-119719133D01*
X146056464Y-119708531D01*
X146035294Y-119702315D01*
X146026423Y-119692078D01*
X146014541Y-119685570D01*
X146003988Y-119666186D01*
X145989539Y-119649511D01*
X145987611Y-119636103D01*
X145981133Y-119624204D01*
X145982735Y-119602193D01*
X145979595Y-119580353D01*
X145985222Y-119568030D01*
X145986206Y-119554519D01*
X145999452Y-119536870D01*
X146008620Y-119516797D01*
X146014652Y-119510319D01*
X146288151Y-119236819D01*
X146349474Y-119203334D01*
X146375832Y-119200500D01*
X146465890Y-119200500D01*
X146465892Y-119200500D01*
X146593186Y-119166392D01*
X146707314Y-119100500D01*
X146800500Y-119007314D01*
X146866392Y-118893186D01*
X146900500Y-118765892D01*
X146900500Y-118634108D01*
X146866392Y-118506814D01*
X146800500Y-118392686D01*
X146707314Y-118299500D01*
X146707312Y-118299499D01*
X146707310Y-118299497D01*
X146588474Y-118230887D01*
X146540258Y-118180320D01*
X146527036Y-118111713D01*
X146553004Y-118046848D01*
X146609918Y-118006320D01*
X146650474Y-117999500D01*
X148496290Y-117999500D01*
X148563329Y-118019185D01*
X148609084Y-118071989D01*
X148619028Y-118141147D01*
X148600907Y-118184114D01*
X148603564Y-118185648D01*
X148599501Y-118192684D01*
X148599500Y-118192686D01*
X148597298Y-118196500D01*
X148533608Y-118306812D01*
X148499500Y-118434108D01*
X148499500Y-118565891D01*
X148533608Y-118693187D01*
X148551494Y-118724166D01*
X148599500Y-118807314D01*
X148692686Y-118900500D01*
X148806814Y-118966392D01*
X148934108Y-119000500D01*
X148934119Y-119000500D01*
X148940071Y-119001284D01*
X149003969Y-119029548D01*
X149011572Y-119036543D01*
X149548989Y-119573960D01*
X149548992Y-119573962D01*
X149554199Y-119577957D01*
X149595403Y-119634384D01*
X149602172Y-119664756D01*
X149602274Y-119665848D01*
X149645884Y-119790476D01*
X149724288Y-119896710D01*
X149724289Y-119896711D01*
X149830523Y-119975115D01*
X149830524Y-119975115D01*
X149830525Y-119975116D01*
X149955151Y-120018725D01*
X149955150Y-120018725D01*
X149984740Y-120021500D01*
X149984744Y-120021500D01*
X150565260Y-120021500D01*
X150594849Y-120018725D01*
X150627245Y-120007389D01*
X150719475Y-119975116D01*
X150825711Y-119896711D01*
X150904116Y-119790475D01*
X150947725Y-119665849D01*
X150947725Y-119665848D01*
X150950500Y-119636260D01*
X150950500Y-119103665D01*
X150970185Y-119036626D01*
X151022989Y-118990871D01*
X151092147Y-118980927D01*
X151136497Y-118996276D01*
X151213614Y-119040799D01*
X151328191Y-119071500D01*
X152090732Y-119071500D01*
X152157771Y-119091185D01*
X152190502Y-119121866D01*
X152227288Y-119171710D01*
X152227290Y-119171712D01*
X152333523Y-119250115D01*
X152333524Y-119250115D01*
X152333525Y-119250116D01*
X152458151Y-119293725D01*
X152458150Y-119293725D01*
X152487740Y-119296500D01*
X152487744Y-119296500D01*
X153093260Y-119296500D01*
X153122849Y-119293725D01*
X153247475Y-119250116D01*
X153353711Y-119171711D01*
X153432116Y-119065475D01*
X153475725Y-118940849D01*
X153478500Y-118911256D01*
X153478500Y-118330744D01*
X153475725Y-118301151D01*
X153475147Y-118299500D01*
X153440155Y-118199500D01*
X153432116Y-118176525D01*
X153427669Y-118170500D01*
X153353711Y-118070289D01*
X153353710Y-118070288D01*
X153247476Y-117991884D01*
X153122848Y-117948274D01*
X153122849Y-117948274D01*
X153093260Y-117945500D01*
X153093256Y-117945500D01*
X152487744Y-117945500D01*
X152487740Y-117945500D01*
X152458150Y-117948274D01*
X152333523Y-117991884D01*
X152227290Y-118070287D01*
X152190502Y-118120134D01*
X152134854Y-118162385D01*
X152090732Y-118170500D01*
X151625466Y-118170500D01*
X151596025Y-118161855D01*
X151566039Y-118155332D01*
X151561023Y-118151577D01*
X151558427Y-118150815D01*
X151537789Y-118134185D01*
X151371636Y-117968033D01*
X151338153Y-117906712D01*
X151343137Y-117837021D01*
X151365604Y-117799153D01*
X151442567Y-117710336D01*
X151502338Y-117579459D01*
X151522023Y-117512420D01*
X151522024Y-117512416D01*
X151542500Y-117370000D01*
X151542500Y-117292938D01*
X151537355Y-117220996D01*
X151532332Y-117186061D01*
X151530958Y-117179751D01*
X151530278Y-117176402D01*
X151529972Y-117174785D01*
X151529752Y-117173417D01*
X151529587Y-117172746D01*
X151529054Y-117169919D01*
X151529082Y-117169633D01*
X151527543Y-117159511D01*
X151524142Y-117126207D01*
X151523500Y-117113610D01*
X151523500Y-116604387D01*
X151524142Y-116591788D01*
X151527440Y-116559500D01*
X151527544Y-116558477D01*
X151529380Y-116546416D01*
X151529740Y-116544637D01*
X151529751Y-116544593D01*
X151535414Y-116509500D01*
X151536042Y-116505611D01*
X151536043Y-116505599D01*
X151536045Y-116505588D01*
X151542499Y-116425069D01*
X151542500Y-116425068D01*
X151542500Y-115748806D01*
X151540994Y-115720715D01*
X151539603Y-115694770D01*
X151539010Y-115689250D01*
X151551418Y-115620491D01*
X151599031Y-115569355D01*
X151662300Y-115552000D01*
X151794261Y-115552000D01*
X151816971Y-115548691D01*
X151862393Y-115542073D01*
X151967483Y-115490698D01*
X151977605Y-115480576D01*
X151998319Y-115459863D01*
X152059642Y-115426378D01*
X152129334Y-115431362D01*
X152173681Y-115459863D01*
X152204514Y-115490696D01*
X152204515Y-115490696D01*
X152204517Y-115490698D01*
X152309607Y-115542073D01*
X152341048Y-115546654D01*
X152377739Y-115552000D01*
X152377740Y-115552000D01*
X152744261Y-115552000D01*
X152780952Y-115546654D01*
X152812393Y-115542073D01*
X152819663Y-115538519D01*
X152851542Y-115522935D01*
X152920415Y-115511175D01*
X152984712Y-115538519D01*
X152993683Y-115546654D01*
X153458856Y-116011827D01*
X153492341Y-116073150D01*
X153487357Y-116142842D01*
X153445485Y-116198775D01*
X153412133Y-116216548D01*
X153374025Y-116229883D01*
X153374023Y-116229884D01*
X153267789Y-116308288D01*
X153267788Y-116308289D01*
X153189384Y-116414523D01*
X153145774Y-116539150D01*
X153143000Y-116568739D01*
X153143000Y-117149260D01*
X153145774Y-117178849D01*
X153189384Y-117303476D01*
X153267788Y-117409710D01*
X153267789Y-117409711D01*
X153374023Y-117488115D01*
X153374024Y-117488115D01*
X153374025Y-117488116D01*
X153498651Y-117531725D01*
X153498650Y-117531725D01*
X153528240Y-117534500D01*
X153528244Y-117534500D01*
X154133760Y-117534500D01*
X154163349Y-117531725D01*
X154185097Y-117524115D01*
X154287975Y-117488116D01*
X154394211Y-117409711D01*
X154472616Y-117303475D01*
X154481262Y-117278764D01*
X154485714Y-117266044D01*
X154499333Y-117247055D01*
X154509042Y-117225797D01*
X154519317Y-117219193D01*
X154526436Y-117209269D01*
X154548159Y-117200657D01*
X154567820Y-117188023D01*
X154586986Y-117185267D01*
X154591389Y-117183522D01*
X154602755Y-117183000D01*
X154631148Y-117183000D01*
X154698187Y-117202685D01*
X154743942Y-117255489D01*
X154748189Y-117266045D01*
X154773884Y-117339475D01*
X154773884Y-117339476D01*
X154852288Y-117445710D01*
X154852289Y-117445711D01*
X154958523Y-117524115D01*
X154958524Y-117524115D01*
X154958525Y-117524116D01*
X155083151Y-117567725D01*
X155083150Y-117567725D01*
X155112740Y-117570500D01*
X155112744Y-117570500D01*
X155693260Y-117570500D01*
X155722849Y-117567725D01*
X155847475Y-117524116D01*
X155953711Y-117445711D01*
X156032116Y-117339475D01*
X156075725Y-117214849D01*
X156078500Y-117185256D01*
X156078500Y-116772569D01*
X156098185Y-116705530D01*
X156150989Y-116659775D01*
X156170094Y-116653067D01*
X156171284Y-116652558D01*
X156171287Y-116652558D01*
X156255383Y-116616614D01*
X156304883Y-116580650D01*
X156332628Y-116556409D01*
X156379536Y-116477899D01*
X156398443Y-116419708D01*
X156404599Y-116380835D01*
X156408500Y-116356210D01*
X156408500Y-112920018D01*
X156428185Y-112852979D01*
X156444819Y-112832337D01*
X156840337Y-112436819D01*
X156901660Y-112403334D01*
X156928018Y-112400500D01*
X159631007Y-112400500D01*
X159712035Y-112400500D01*
X159779074Y-112420185D01*
G37*
G04 #@! TD.AperFunction*
G04 #@! TA.AperFunction,Conductor*
G36*
X149631539Y-112766185D02*
G01*
X149677294Y-112818989D01*
X149688191Y-112869081D01*
X149688213Y-112869080D01*
X149688309Y-112869073D01*
X149688309Y-112869076D01*
X149688405Y-112869073D01*
X149688452Y-112870281D01*
X149688500Y-112870500D01*
X149688500Y-112871505D01*
X149691029Y-112903638D01*
X149695881Y-112934277D01*
X149696646Y-112938782D01*
X149696647Y-112938785D01*
X149696648Y-112938787D01*
X149732592Y-113022883D01*
X149768556Y-113072383D01*
X149790265Y-113097230D01*
X149792797Y-113100128D01*
X149871102Y-113146914D01*
X149871307Y-113147036D01*
X149929498Y-113165943D01*
X149958268Y-113170499D01*
X149992996Y-113176000D01*
X148116000Y-113176000D01*
X148116000Y-113811000D01*
X150067306Y-113811000D01*
X150028961Y-113815421D01*
X149952269Y-113824264D01*
X149952267Y-113824264D01*
X149952260Y-113824265D01*
X149897315Y-113837106D01*
X149788310Y-113876202D01*
X149788305Y-113876205D01*
X149669715Y-113957682D01*
X149618347Y-114005037D01*
X149527515Y-114116624D01*
X149527508Y-114116634D01*
X149516911Y-114134297D01*
X149465540Y-114181656D01*
X149410582Y-114194500D01*
X147664938Y-114194500D01*
X147597899Y-114174815D01*
X147552144Y-114122011D01*
X147542200Y-114052853D01*
X147557551Y-114008500D01*
X147566390Y-113993189D01*
X147566392Y-113993186D01*
X147600500Y-113865892D01*
X147600500Y-113734108D01*
X147566392Y-113606814D01*
X147559379Y-113594668D01*
X147557563Y-113591521D01*
X147500500Y-113492686D01*
X147407314Y-113399500D01*
X147293186Y-113333608D01*
X147246929Y-113321213D01*
X147187270Y-113284848D01*
X147156741Y-113222001D01*
X147161093Y-113163121D01*
X147168443Y-113140502D01*
X147175296Y-113097230D01*
X147178500Y-113077004D01*
X147178500Y-112870500D01*
X147198185Y-112803461D01*
X147250989Y-112757706D01*
X147302500Y-112746500D01*
X149564500Y-112746500D01*
X149631539Y-112766185D01*
G37*
G04 #@! TD.AperFunction*
G04 #@! TA.AperFunction,Conductor*
G36*
X151280263Y-113869221D02*
G01*
X151278285Y-113870982D01*
X151265976Y-113881699D01*
X151254517Y-113887302D01*
X151220656Y-113921162D01*
X151217430Y-113923972D01*
X151189408Y-113936851D01*
X151162358Y-113951622D01*
X151157956Y-113951307D01*
X151153945Y-113953151D01*
X151123416Y-113948837D01*
X151092666Y-113946638D01*
X151088385Y-113943887D01*
X151084762Y-113943375D01*
X151076488Y-113936241D01*
X151048319Y-113918137D01*
X151017485Y-113887303D01*
X150994781Y-113876204D01*
X150912393Y-113835927D01*
X150912391Y-113835926D01*
X150844261Y-113826000D01*
X150844260Y-113826000D01*
X150799698Y-113826000D01*
X150782052Y-113824738D01*
X150686500Y-113811000D01*
X151315752Y-113811000D01*
X151280263Y-113869221D01*
G37*
G04 #@! TD.AperFunction*
G04 #@! TA.AperFunction,Conductor*
G36*
X153196000Y-112003000D02*
G01*
X153990162Y-112003000D01*
X153960036Y-112005221D01*
X153960023Y-112005222D01*
X153960020Y-112005223D01*
X153960007Y-112005225D01*
X153931290Y-112009483D01*
X153931281Y-112009484D01*
X153901793Y-112016106D01*
X153901769Y-112016112D01*
X153843981Y-112033641D01*
X153824973Y-112040442D01*
X153807073Y-112047858D01*
X153788861Y-112056472D01*
X153788838Y-112056484D01*
X153633153Y-112139699D01*
X153633138Y-112139708D01*
X153615863Y-112150062D01*
X153599737Y-112160836D01*
X153583545Y-112172844D01*
X153583516Y-112172867D01*
X153447076Y-112284840D01*
X153447047Y-112284866D01*
X153432112Y-112298403D01*
X153418403Y-112312112D01*
X153404866Y-112327047D01*
X153404840Y-112327076D01*
X153292867Y-112463516D01*
X153292848Y-112463541D01*
X153285096Y-112473993D01*
X153229348Y-112516112D01*
X153159680Y-112521406D01*
X153098209Y-112488193D01*
X153064452Y-112427019D01*
X153061500Y-112400124D01*
X153061500Y-111868239D01*
X153051573Y-111800108D01*
X153051573Y-111800107D01*
X153000198Y-111695017D01*
X153000196Y-111695015D01*
X153000196Y-111695014D01*
X152946679Y-111641497D01*
X152913194Y-111580174D01*
X152918178Y-111510482D01*
X152946679Y-111466135D01*
X152961500Y-111451314D01*
X153027392Y-111337186D01*
X153061500Y-111209892D01*
X153061500Y-111078108D01*
X153027392Y-110950814D01*
X152961500Y-110836686D01*
X152868314Y-110743500D01*
X152811250Y-110710554D01*
X152754187Y-110677608D01*
X152690539Y-110660554D01*
X152626892Y-110643500D01*
X152495108Y-110643500D01*
X152367812Y-110677608D01*
X152253686Y-110743500D01*
X152253683Y-110743502D01*
X152160502Y-110836683D01*
X152160500Y-110836686D01*
X152094608Y-110950812D01*
X152060500Y-111078108D01*
X152060500Y-111209891D01*
X152094608Y-111337187D01*
X152127554Y-111394250D01*
X152160500Y-111451314D01*
X152160502Y-111451316D01*
X152175321Y-111466135D01*
X152208806Y-111527458D01*
X152203822Y-111597150D01*
X152175321Y-111641497D01*
X152121803Y-111695014D01*
X152070426Y-111800108D01*
X152060500Y-111868239D01*
X152060500Y-112959760D01*
X152070426Y-113027892D01*
X152070426Y-113027893D01*
X152094942Y-113078041D01*
X152106700Y-113146914D01*
X152079357Y-113211211D01*
X152053000Y-113229145D01*
X152053000Y-110509000D01*
X153196000Y-110509000D01*
X153196000Y-112003000D01*
G37*
G04 #@! TD.AperFunction*
G04 #@! TD*
G04 #@! TA.AperFunction,Conductor*
G04 #@! TO.N,/V_SOLAR*
G36*
X146468226Y-113830685D02*
G01*
X146502090Y-113862926D01*
X147100000Y-114700000D01*
X149767000Y-114700000D01*
X149767001Y-114700000D01*
X149767000Y-114699999D01*
X149960978Y-114376702D01*
X150012349Y-114329344D01*
X150067307Y-114316500D01*
X150686500Y-114316500D01*
X150753539Y-114336185D01*
X150799294Y-114388989D01*
X150810500Y-114440500D01*
X150810500Y-115267201D01*
X150813401Y-115304067D01*
X150813402Y-115304073D01*
X150859254Y-115461893D01*
X150859255Y-115461896D01*
X150859256Y-115461898D01*
X150942919Y-115603365D01*
X151000682Y-115661128D01*
X151034166Y-115722449D01*
X151037000Y-115748808D01*
X151037000Y-116425060D01*
X151030706Y-116464065D01*
X151028326Y-116471247D01*
X151018000Y-116572315D01*
X151018000Y-117145669D01*
X151018001Y-117145687D01*
X151028325Y-117246749D01*
X151028325Y-117246751D01*
X151028326Y-117246753D01*
X151030706Y-117253937D01*
X151031156Y-117256726D01*
X151031977Y-117258003D01*
X151037000Y-117292938D01*
X151037000Y-117370000D01*
X151017315Y-117437039D01*
X150964511Y-117482794D01*
X150913000Y-117494000D01*
X144176000Y-117494000D01*
X144108961Y-117474315D01*
X144063206Y-117421511D01*
X144052000Y-117370000D01*
X144052000Y-113935000D01*
X144071685Y-113867961D01*
X144124489Y-113822206D01*
X144176000Y-113811000D01*
X146401187Y-113811000D01*
X146468226Y-113830685D01*
G37*
G04 #@! TD.AperFunction*
G04 #@! TD*
G04 #@! TA.AperFunction,Conductor*
G04 #@! TO.N,GND*
G36*
X145900740Y-108557480D02*
G01*
X145899500Y-108562108D01*
X145899500Y-108693891D01*
X145933608Y-108821187D01*
X145966554Y-108878250D01*
X145999500Y-108935314D01*
X146092686Y-109028500D01*
X146153929Y-109063859D01*
X147256000Y-111268000D01*
X140094000Y-111268000D01*
X140094000Y-108374000D01*
X145809000Y-108374000D01*
X145900740Y-108557480D01*
G37*
G04 #@! TD.AperFunction*
G04 #@! TD*
G04 #@! TA.AperFunction,Conductor*
G04 #@! TO.N,GND*
G36*
X145791280Y-123469280D02*
G01*
X145811849Y-123497150D01*
X145839717Y-123517717D01*
X147206000Y-124884000D01*
X147206000Y-125449500D01*
X142380000Y-125449500D01*
X142380000Y-124615731D01*
X142385874Y-124619355D01*
X142385881Y-124619358D01*
X142552303Y-124674505D01*
X142552310Y-124674506D01*
X142655014Y-124684999D01*
X142655027Y-124685000D01*
X143400000Y-124685000D01*
X143900000Y-124685000D01*
X144644973Y-124685000D01*
X144644985Y-124684999D01*
X144747689Y-124674506D01*
X144747696Y-124674505D01*
X144914118Y-124619358D01*
X144914123Y-124619356D01*
X145063344Y-124527315D01*
X145187315Y-124403344D01*
X145279356Y-124254123D01*
X145279358Y-124254118D01*
X145334505Y-124087696D01*
X145334506Y-124087689D01*
X145344999Y-123984985D01*
X145345000Y-123984972D01*
X145345000Y-123677500D01*
X143900000Y-123677500D01*
X143900000Y-124685000D01*
X143400000Y-124685000D01*
X143400000Y-123551500D01*
X143419685Y-123484461D01*
X143472489Y-123438706D01*
X143524000Y-123427500D01*
X143650000Y-123427500D01*
X143650000Y-123301500D01*
X143669685Y-123234461D01*
X143722489Y-123188706D01*
X143774000Y-123177500D01*
X145345000Y-123177500D01*
X145345000Y-123023000D01*
X145791280Y-123469280D01*
G37*
G04 #@! TD.AperFunction*
G04 #@! TD*
G04 #@! TA.AperFunction,Conductor*
G04 #@! TO.N,Net-(U5-SW)*
G36*
X150790691Y-111543907D02*
G01*
X150826655Y-111593407D01*
X150831500Y-111624000D01*
X150831500Y-111631818D01*
X150843031Y-111699689D01*
X150894648Y-111781837D01*
X150892267Y-111783332D01*
X150909898Y-111830245D01*
X150910000Y-111834731D01*
X150910000Y-112950000D01*
X150891093Y-113008191D01*
X150841593Y-113044155D01*
X150811000Y-113049000D01*
X150467488Y-113049000D01*
X150410198Y-113030740D01*
X150410132Y-113030693D01*
X150410129Y-113030690D01*
X150353982Y-112990851D01*
X150264819Y-112970500D01*
X150264818Y-112970500D01*
X149993000Y-112970500D01*
X149934809Y-112951593D01*
X149898845Y-112902093D01*
X149894000Y-112871500D01*
X149894000Y-112541001D01*
X149894000Y-112541000D01*
X149893999Y-112541000D01*
X146973001Y-112541000D01*
X146973000Y-112541000D01*
X146973000Y-112541001D01*
X146973000Y-113077000D01*
X146954093Y-113135191D01*
X146904593Y-113171155D01*
X146874000Y-113176000D01*
X144278000Y-113176000D01*
X144219809Y-113157093D01*
X144183845Y-113107593D01*
X144179000Y-113077000D01*
X144179000Y-111624000D01*
X144197907Y-111565809D01*
X144247407Y-111529845D01*
X144278000Y-111525000D01*
X150732500Y-111525000D01*
X150790691Y-111543907D01*
G37*
G04 #@! TD.AperFunction*
G04 #@! TD*
G04 #@! TA.AperFunction,Conductor*
G04 #@! TO.N,+3V3*
G36*
X154261039Y-120077685D02*
G01*
X154306794Y-120130489D01*
X154318000Y-120182000D01*
X154318000Y-122019792D01*
X154298315Y-122086831D01*
X154257797Y-122126121D01*
X151807450Y-123596329D01*
X151743655Y-123614000D01*
X150378000Y-123614000D01*
X150310961Y-123594315D01*
X150265206Y-123541511D01*
X150254000Y-123490000D01*
X150254000Y-120671043D01*
X150273685Y-120604004D01*
X150326489Y-120558249D01*
X150357609Y-120548731D01*
X153291878Y-120059687D01*
X153312263Y-120058000D01*
X154194000Y-120058000D01*
X154261039Y-120077685D01*
G37*
G04 #@! TD.AperFunction*
G04 #@! TD*
G04 #@! TA.AperFunction,Conductor*
G04 #@! TO.N,GND*
G36*
X153556000Y-109644000D02*
G01*
X155609000Y-110330000D01*
X156002921Y-110330000D01*
X155706368Y-111589474D01*
X155292843Y-112003000D01*
X153196000Y-112003000D01*
X153196000Y-110509000D01*
X152053000Y-110509000D01*
X152053000Y-113247926D01*
X152037460Y-113255524D01*
X152023591Y-113256500D01*
X151886435Y-113256500D01*
X151810014Y-113276977D01*
X151810009Y-113276979D01*
X151759484Y-113306150D01*
X151741489Y-113316539D01*
X151370539Y-113687489D01*
X151330980Y-113756007D01*
X151330978Y-113756011D01*
X151316243Y-113811000D01*
X148116000Y-113811000D01*
X148116000Y-113176000D01*
X150264819Y-113176000D01*
X150304517Y-113215698D01*
X150358285Y-113241983D01*
X150409604Y-113267072D01*
X150409605Y-113267072D01*
X150409607Y-113267073D01*
X150477740Y-113277000D01*
X150477743Y-113277000D01*
X150844257Y-113277000D01*
X150844260Y-113277000D01*
X150912393Y-113267073D01*
X151017483Y-113215698D01*
X151100198Y-113132983D01*
X151151573Y-113027893D01*
X151161500Y-112959760D01*
X151161500Y-111868240D01*
X151151573Y-111800107D01*
X151136362Y-111768993D01*
X151100198Y-111695018D01*
X151100198Y-111695017D01*
X151037000Y-111631819D01*
X151037000Y-111271000D01*
X143544000Y-111271000D01*
X143544000Y-111268000D01*
X147256000Y-111268000D01*
X146368500Y-109493000D01*
X153673444Y-109493000D01*
X153556000Y-109644000D01*
G37*
G04 #@! TD.AperFunction*
G04 #@! TD*
M02*
