G04 #@! TF.GenerationSoftware,KiCad,Pcbnew,9.0.3-9.0.3-0~ubuntu24.04.1*
G04 #@! TF.CreationDate,2025-08-01T09:32:50+02:00*
G04 #@! TF.ProjectId,PicoBalloon,5069636f-4261-46c6-9c6f-6f6e2e6b6963,rev?*
G04 #@! TF.SameCoordinates,Original*
G04 #@! TF.FileFunction,Legend,Bot*
G04 #@! TF.FilePolarity,Positive*
%FSLAX46Y46*%
G04 Gerber Fmt 4.6, Leading zero omitted, Abs format (unit mm)*
G04 Created by KiCad (PCBNEW 9.0.3-9.0.3-0~ubuntu24.04.1) date 2025-08-01 09:32:50*
%MOMM*%
%LPD*%
G01*
G04 APERTURE LIST*
G04 Aperture macros list*
%AMRoundRect*
0 Rectangle with rounded corners*
0 $1 Rounding radius*
0 $2 $3 $4 $5 $6 $7 $8 $9 X,Y pos of 4 corners*
0 Add a 4 corners polygon primitive as box body*
4,1,4,$2,$3,$4,$5,$6,$7,$8,$9,$2,$3,0*
0 Add four circle primitives for the rounded corners*
1,1,$1+$1,$2,$3*
1,1,$1+$1,$4,$5*
1,1,$1+$1,$6,$7*
1,1,$1+$1,$8,$9*
0 Add four rect primitives between the rounded corners*
20,1,$1+$1,$2,$3,$4,$5,0*
20,1,$1+$1,$4,$5,$6,$7,0*
20,1,$1+$1,$6,$7,$8,$9,0*
20,1,$1+$1,$8,$9,$2,$3,0*%
%AMOutline4P*
0 Free polygon, 4 corners , with rotation*
0 The origin of the aperture is its center*
0 number of corners: always 4*
0 $1 to $8 corner X, Y*
0 $9 Rotation angle, in degrees counterclockwise*
0 create outline with 4 corners*
4,1,4,$1,$2,$3,$4,$5,$6,$7,$8,$1,$2,$9*%
G04 Aperture macros list end*
%ADD10C,0.125000*%
%ADD11C,0.120000*%
%ADD12C,0.000000*%
%ADD13C,0.403553*%
%ADD14R,1.700000X1.700000*%
%ADD15C,1.700000*%
%ADD16R,1.350000X1.350000*%
%ADD17C,1.350000*%
%ADD18RoundRect,0.150000X-0.150000X0.512500X-0.150000X-0.512500X0.150000X-0.512500X0.150000X0.512500X0*%
%ADD19RoundRect,0.237500X0.250000X0.237500X-0.250000X0.237500X-0.250000X-0.237500X0.250000X-0.237500X0*%
%ADD20RoundRect,0.237500X-0.237500X0.250000X-0.237500X-0.250000X0.237500X-0.250000X0.237500X0.250000X0*%
%ADD21RoundRect,0.237500X0.237500X-0.287500X0.237500X0.287500X-0.237500X0.287500X-0.237500X-0.287500X0*%
%ADD22RoundRect,0.237500X0.300000X0.237500X-0.300000X0.237500X-0.300000X-0.237500X0.300000X-0.237500X0*%
%ADD23Outline4P,-0.400000X-0.325000X0.400000X-0.325000X0.400000X0.325000X-0.400000X0.325000X0.000000*%
%ADD24Outline4P,-0.400000X-0.800000X0.400000X-0.800000X0.400000X0.800000X-0.400000X0.800000X0.000000*%
%ADD25RoundRect,0.162500X-0.162500X0.617500X-0.162500X-0.617500X0.162500X-0.617500X0.162500X0.617500X0*%
%ADD26RoundRect,0.250000X0.475000X-0.337500X0.475000X0.337500X-0.475000X0.337500X-0.475000X-0.337500X0*%
%ADD27RoundRect,0.237500X-0.250000X-0.237500X0.250000X-0.237500X0.250000X0.237500X-0.250000X0.237500X0*%
%ADD28RoundRect,0.450000X-1.050000X1.050000X-1.050000X-1.050000X1.050000X-1.050000X1.050000X1.050000X0*%
%ADD29R,0.800000X1.800000*%
%ADD30RoundRect,0.249999X0.450001X1.075001X-0.450001X1.075001X-0.450001X-1.075001X0.450001X-1.075001X0*%
%ADD31RoundRect,0.250001X-0.944999X0.507499X-0.944999X-0.507499X0.944999X-0.507499X0.944999X0.507499X0*%
%ADD32RoundRect,0.237500X0.237500X-0.300000X0.237500X0.300000X-0.237500X0.300000X-0.237500X-0.300000X0*%
%ADD33RoundRect,0.162500X-0.617500X-0.162500X0.617500X-0.162500X0.617500X0.162500X-0.617500X0.162500X0*%
%ADD34RoundRect,0.250001X0.849999X-0.462499X0.849999X0.462499X-0.849999X0.462499X-0.849999X-0.462499X0*%
G04 APERTURE END LIST*
D10*
X139431343Y-94260807D02*
X138431343Y-94260807D01*
X138431343Y-94260807D02*
X138431343Y-94546521D01*
X138431343Y-94546521D02*
X138478962Y-94617950D01*
X138478962Y-94617950D02*
X138526581Y-94653664D01*
X138526581Y-94653664D02*
X138621819Y-94689378D01*
X138621819Y-94689378D02*
X138764676Y-94689378D01*
X138764676Y-94689378D02*
X138859914Y-94653664D01*
X138859914Y-94653664D02*
X138907533Y-94617950D01*
X138907533Y-94617950D02*
X138955152Y-94546521D01*
X138955152Y-94546521D02*
X138955152Y-94260807D01*
X139431343Y-95010807D02*
X138764676Y-95010807D01*
X138383724Y-95082236D02*
X138526581Y-94975093D01*
X139383724Y-95689379D02*
X139431343Y-95617950D01*
X139431343Y-95617950D02*
X139431343Y-95475093D01*
X139431343Y-95475093D02*
X139383724Y-95403664D01*
X139383724Y-95403664D02*
X139336104Y-95367950D01*
X139336104Y-95367950D02*
X139240866Y-95332236D01*
X139240866Y-95332236D02*
X138955152Y-95332236D01*
X138955152Y-95332236D02*
X138859914Y-95367950D01*
X138859914Y-95367950D02*
X138812295Y-95403664D01*
X138812295Y-95403664D02*
X138764676Y-95475093D01*
X138764676Y-95475093D02*
X138764676Y-95617950D01*
X138764676Y-95617950D02*
X138812295Y-95689379D01*
X139431343Y-96332236D02*
X138907533Y-96332236D01*
X138907533Y-96332236D02*
X138812295Y-96296521D01*
X138812295Y-96296521D02*
X138764676Y-96225093D01*
X138764676Y-96225093D02*
X138764676Y-96082236D01*
X138764676Y-96082236D02*
X138812295Y-96010807D01*
X139383724Y-96332236D02*
X139431343Y-96260807D01*
X139431343Y-96260807D02*
X139431343Y-96082236D01*
X139431343Y-96082236D02*
X139383724Y-96010807D01*
X139383724Y-96010807D02*
X139288485Y-95975093D01*
X139288485Y-95975093D02*
X139193247Y-95975093D01*
X139193247Y-95975093D02*
X139098009Y-96010807D01*
X139098009Y-96010807D02*
X139050390Y-96082236D01*
X139050390Y-96082236D02*
X139050390Y-96260807D01*
X139050390Y-96260807D02*
X139002771Y-96332236D01*
X139431343Y-96689378D02*
X138764676Y-96689378D01*
X138955152Y-96689378D02*
X138859914Y-96725092D01*
X138859914Y-96725092D02*
X138812295Y-96760807D01*
X138812295Y-96760807D02*
X138764676Y-96832235D01*
X138764676Y-96832235D02*
X138764676Y-96903664D01*
X139431343Y-97260807D02*
X139383724Y-97189378D01*
X139383724Y-97189378D02*
X139336104Y-97153664D01*
X139336104Y-97153664D02*
X139240866Y-97117950D01*
X139240866Y-97117950D02*
X138955152Y-97117950D01*
X138955152Y-97117950D02*
X138859914Y-97153664D01*
X138859914Y-97153664D02*
X138812295Y-97189378D01*
X138812295Y-97189378D02*
X138764676Y-97260807D01*
X138764676Y-97260807D02*
X138764676Y-97367950D01*
X138764676Y-97367950D02*
X138812295Y-97439378D01*
X138812295Y-97439378D02*
X138859914Y-97475093D01*
X138859914Y-97475093D02*
X138955152Y-97510807D01*
X138955152Y-97510807D02*
X139240866Y-97510807D01*
X139240866Y-97510807D02*
X139336104Y-97475093D01*
X139336104Y-97475093D02*
X139383724Y-97439378D01*
X139383724Y-97439378D02*
X139431343Y-97367950D01*
X139431343Y-97367950D02*
X139431343Y-97260807D01*
X138431343Y-98296521D02*
X139431343Y-98546521D01*
X139431343Y-98546521D02*
X138431343Y-98796521D01*
X139431343Y-99439378D02*
X139431343Y-99010807D01*
X139431343Y-99225092D02*
X138431343Y-99225092D01*
X138431343Y-99225092D02*
X138574200Y-99153664D01*
X138574200Y-99153664D02*
X138669438Y-99082235D01*
X138669438Y-99082235D02*
X138717057Y-99010807D01*
X139336104Y-99760807D02*
X139383724Y-99796521D01*
X139383724Y-99796521D02*
X139431343Y-99760807D01*
X139431343Y-99760807D02*
X139383724Y-99725093D01*
X139383724Y-99725093D02*
X139336104Y-99760807D01*
X139336104Y-99760807D02*
X139431343Y-99760807D01*
X138431343Y-100260807D02*
X138431343Y-100332236D01*
X138431343Y-100332236D02*
X138478962Y-100403664D01*
X138478962Y-100403664D02*
X138526581Y-100439379D01*
X138526581Y-100439379D02*
X138621819Y-100475093D01*
X138621819Y-100475093D02*
X138812295Y-100510807D01*
X138812295Y-100510807D02*
X139050390Y-100510807D01*
X139050390Y-100510807D02*
X139240866Y-100475093D01*
X139240866Y-100475093D02*
X139336104Y-100439379D01*
X139336104Y-100439379D02*
X139383724Y-100403664D01*
X139383724Y-100403664D02*
X139431343Y-100332236D01*
X139431343Y-100332236D02*
X139431343Y-100260807D01*
X139431343Y-100260807D02*
X139383724Y-100189379D01*
X139383724Y-100189379D02*
X139336104Y-100153664D01*
X139336104Y-100153664D02*
X139240866Y-100117950D01*
X139240866Y-100117950D02*
X139050390Y-100082236D01*
X139050390Y-100082236D02*
X138812295Y-100082236D01*
X138812295Y-100082236D02*
X138621819Y-100117950D01*
X138621819Y-100117950D02*
X138526581Y-100153664D01*
X138526581Y-100153664D02*
X138478962Y-100189379D01*
X138478962Y-100189379D02*
X138431343Y-100260807D01*
X140946048Y-94689378D02*
X140993668Y-94653664D01*
X140993668Y-94653664D02*
X141041287Y-94546521D01*
X141041287Y-94546521D02*
X141041287Y-94475093D01*
X141041287Y-94475093D02*
X140993668Y-94367950D01*
X140993668Y-94367950D02*
X140898429Y-94296521D01*
X140898429Y-94296521D02*
X140803191Y-94260807D01*
X140803191Y-94260807D02*
X140612715Y-94225093D01*
X140612715Y-94225093D02*
X140469858Y-94225093D01*
X140469858Y-94225093D02*
X140279382Y-94260807D01*
X140279382Y-94260807D02*
X140184144Y-94296521D01*
X140184144Y-94296521D02*
X140088906Y-94367950D01*
X140088906Y-94367950D02*
X140041287Y-94475093D01*
X140041287Y-94475093D02*
X140041287Y-94546521D01*
X140041287Y-94546521D02*
X140088906Y-94653664D01*
X140088906Y-94653664D02*
X140136525Y-94689378D01*
X141041287Y-95117950D02*
X140993668Y-95046521D01*
X140993668Y-95046521D02*
X140946048Y-95010807D01*
X140946048Y-95010807D02*
X140850810Y-94975093D01*
X140850810Y-94975093D02*
X140565096Y-94975093D01*
X140565096Y-94975093D02*
X140469858Y-95010807D01*
X140469858Y-95010807D02*
X140422239Y-95046521D01*
X140422239Y-95046521D02*
X140374620Y-95117950D01*
X140374620Y-95117950D02*
X140374620Y-95225093D01*
X140374620Y-95225093D02*
X140422239Y-95296521D01*
X140422239Y-95296521D02*
X140469858Y-95332236D01*
X140469858Y-95332236D02*
X140565096Y-95367950D01*
X140565096Y-95367950D02*
X140850810Y-95367950D01*
X140850810Y-95367950D02*
X140946048Y-95332236D01*
X140946048Y-95332236D02*
X140993668Y-95296521D01*
X140993668Y-95296521D02*
X141041287Y-95225093D01*
X141041287Y-95225093D02*
X141041287Y-95117950D01*
X140374620Y-95689378D02*
X141041287Y-95689378D01*
X140469858Y-95689378D02*
X140422239Y-95725092D01*
X140422239Y-95725092D02*
X140374620Y-95796521D01*
X140374620Y-95796521D02*
X140374620Y-95903664D01*
X140374620Y-95903664D02*
X140422239Y-95975092D01*
X140422239Y-95975092D02*
X140517477Y-96010807D01*
X140517477Y-96010807D02*
X141041287Y-96010807D01*
X140374620Y-96260806D02*
X140374620Y-96546520D01*
X140041287Y-96367949D02*
X140898429Y-96367949D01*
X140898429Y-96367949D02*
X140993668Y-96403663D01*
X140993668Y-96403663D02*
X141041287Y-96475092D01*
X141041287Y-96475092D02*
X141041287Y-96546520D01*
X141041287Y-97117949D02*
X140517477Y-97117949D01*
X140517477Y-97117949D02*
X140422239Y-97082234D01*
X140422239Y-97082234D02*
X140374620Y-97010806D01*
X140374620Y-97010806D02*
X140374620Y-96867949D01*
X140374620Y-96867949D02*
X140422239Y-96796520D01*
X140993668Y-97117949D02*
X141041287Y-97046520D01*
X141041287Y-97046520D02*
X141041287Y-96867949D01*
X141041287Y-96867949D02*
X140993668Y-96796520D01*
X140993668Y-96796520D02*
X140898429Y-96760806D01*
X140898429Y-96760806D02*
X140803191Y-96760806D01*
X140803191Y-96760806D02*
X140707953Y-96796520D01*
X140707953Y-96796520D02*
X140660334Y-96867949D01*
X140660334Y-96867949D02*
X140660334Y-97046520D01*
X140660334Y-97046520D02*
X140612715Y-97117949D01*
X140993668Y-97796520D02*
X141041287Y-97725091D01*
X141041287Y-97725091D02*
X141041287Y-97582234D01*
X141041287Y-97582234D02*
X140993668Y-97510805D01*
X140993668Y-97510805D02*
X140946048Y-97475091D01*
X140946048Y-97475091D02*
X140850810Y-97439377D01*
X140850810Y-97439377D02*
X140565096Y-97439377D01*
X140565096Y-97439377D02*
X140469858Y-97475091D01*
X140469858Y-97475091D02*
X140422239Y-97510805D01*
X140422239Y-97510805D02*
X140374620Y-97582234D01*
X140374620Y-97582234D02*
X140374620Y-97725091D01*
X140374620Y-97725091D02*
X140422239Y-97796520D01*
X140374620Y-98010805D02*
X140374620Y-98296519D01*
X140041287Y-98117948D02*
X140898429Y-98117948D01*
X140898429Y-98117948D02*
X140993668Y-98153662D01*
X140993668Y-98153662D02*
X141041287Y-98225091D01*
X141041287Y-98225091D02*
X141041287Y-98296519D01*
X140565096Y-99582234D02*
X140517477Y-99546519D01*
X140517477Y-99546519D02*
X140469858Y-99475091D01*
X140469858Y-99475091D02*
X140469858Y-99403662D01*
X140469858Y-99403662D02*
X140517477Y-99332234D01*
X140517477Y-99332234D02*
X140565096Y-99296519D01*
X140565096Y-99296519D02*
X140660334Y-99260805D01*
X140660334Y-99260805D02*
X140755572Y-99260805D01*
X140755572Y-99260805D02*
X140850810Y-99296519D01*
X140850810Y-99296519D02*
X140898429Y-99332234D01*
X140898429Y-99332234D02*
X140946048Y-99403662D01*
X140946048Y-99403662D02*
X140946048Y-99475091D01*
X140946048Y-99475091D02*
X140898429Y-99546519D01*
X140898429Y-99546519D02*
X140850810Y-99582234D01*
X140469858Y-99582234D02*
X140850810Y-99582234D01*
X140850810Y-99582234D02*
X140898429Y-99617948D01*
X140898429Y-99617948D02*
X140898429Y-99653662D01*
X140898429Y-99653662D02*
X140850810Y-99725091D01*
X140850810Y-99725091D02*
X140755572Y-99760805D01*
X140755572Y-99760805D02*
X140517477Y-99760805D01*
X140517477Y-99760805D02*
X140374620Y-99689377D01*
X140374620Y-99689377D02*
X140279382Y-99582234D01*
X140279382Y-99582234D02*
X140231763Y-99439377D01*
X140231763Y-99439377D02*
X140279382Y-99296519D01*
X140279382Y-99296519D02*
X140374620Y-99189377D01*
X140374620Y-99189377D02*
X140517477Y-99117948D01*
X140517477Y-99117948D02*
X140707953Y-99082234D01*
X140707953Y-99082234D02*
X140898429Y-99117948D01*
X140898429Y-99117948D02*
X141041287Y-99189377D01*
X141041287Y-99189377D02*
X141136525Y-99296519D01*
X141136525Y-99296519D02*
X141184144Y-99439377D01*
X141184144Y-99439377D02*
X141136525Y-99582234D01*
X141136525Y-99582234D02*
X141041287Y-99689377D01*
X141041287Y-100439377D02*
X141041287Y-100082234D01*
X141041287Y-100082234D02*
X140041287Y-100082234D01*
X141041287Y-101010806D02*
X140517477Y-101010806D01*
X140517477Y-101010806D02*
X140422239Y-100975091D01*
X140422239Y-100975091D02*
X140374620Y-100903663D01*
X140374620Y-100903663D02*
X140374620Y-100760806D01*
X140374620Y-100760806D02*
X140422239Y-100689377D01*
X140993668Y-101010806D02*
X141041287Y-100939377D01*
X141041287Y-100939377D02*
X141041287Y-100760806D01*
X141041287Y-100760806D02*
X140993668Y-100689377D01*
X140993668Y-100689377D02*
X140898429Y-100653663D01*
X140898429Y-100653663D02*
X140803191Y-100653663D01*
X140803191Y-100653663D02*
X140707953Y-100689377D01*
X140707953Y-100689377D02*
X140660334Y-100760806D01*
X140660334Y-100760806D02*
X140660334Y-100939377D01*
X140660334Y-100939377D02*
X140612715Y-101010806D01*
X141041287Y-101367948D02*
X140041287Y-101367948D01*
X140422239Y-101367948D02*
X140374620Y-101439377D01*
X140374620Y-101439377D02*
X140374620Y-101582234D01*
X140374620Y-101582234D02*
X140422239Y-101653662D01*
X140422239Y-101653662D02*
X140469858Y-101689377D01*
X140469858Y-101689377D02*
X140565096Y-101725091D01*
X140565096Y-101725091D02*
X140850810Y-101725091D01*
X140850810Y-101725091D02*
X140946048Y-101689377D01*
X140946048Y-101689377D02*
X140993668Y-101653662D01*
X140993668Y-101653662D02*
X141041287Y-101582234D01*
X141041287Y-101582234D02*
X141041287Y-101439377D01*
X141041287Y-101439377D02*
X140993668Y-101367948D01*
X140088906Y-102439376D02*
X140041287Y-102367948D01*
X140041287Y-102367948D02*
X140041287Y-102260805D01*
X140041287Y-102260805D02*
X140088906Y-102153662D01*
X140088906Y-102153662D02*
X140184144Y-102082233D01*
X140184144Y-102082233D02*
X140279382Y-102046519D01*
X140279382Y-102046519D02*
X140469858Y-102010805D01*
X140469858Y-102010805D02*
X140612715Y-102010805D01*
X140612715Y-102010805D02*
X140803191Y-102046519D01*
X140803191Y-102046519D02*
X140898429Y-102082233D01*
X140898429Y-102082233D02*
X140993668Y-102153662D01*
X140993668Y-102153662D02*
X141041287Y-102260805D01*
X141041287Y-102260805D02*
X141041287Y-102332233D01*
X141041287Y-102332233D02*
X140993668Y-102439376D01*
X140993668Y-102439376D02*
X140946048Y-102475090D01*
X140946048Y-102475090D02*
X140612715Y-102475090D01*
X140612715Y-102475090D02*
X140612715Y-102332233D01*
X141041287Y-102903662D02*
X140993668Y-102832233D01*
X140993668Y-102832233D02*
X140898429Y-102796519D01*
X140898429Y-102796519D02*
X140041287Y-102796519D01*
X140374620Y-103510805D02*
X141041287Y-103510805D01*
X140374620Y-103189376D02*
X140898429Y-103189376D01*
X140898429Y-103189376D02*
X140993668Y-103225090D01*
X140993668Y-103225090D02*
X141041287Y-103296519D01*
X141041287Y-103296519D02*
X141041287Y-103403662D01*
X141041287Y-103403662D02*
X140993668Y-103475090D01*
X140993668Y-103475090D02*
X140946048Y-103510805D01*
X141041287Y-103975090D02*
X140993668Y-103903661D01*
X140993668Y-103903661D02*
X140946048Y-103867947D01*
X140946048Y-103867947D02*
X140850810Y-103832233D01*
X140850810Y-103832233D02*
X140565096Y-103832233D01*
X140565096Y-103832233D02*
X140469858Y-103867947D01*
X140469858Y-103867947D02*
X140422239Y-103903661D01*
X140422239Y-103903661D02*
X140374620Y-103975090D01*
X140374620Y-103975090D02*
X140374620Y-104082233D01*
X140374620Y-104082233D02*
X140422239Y-104153661D01*
X140422239Y-104153661D02*
X140469858Y-104189376D01*
X140469858Y-104189376D02*
X140565096Y-104225090D01*
X140565096Y-104225090D02*
X140850810Y-104225090D01*
X140850810Y-104225090D02*
X140946048Y-104189376D01*
X140946048Y-104189376D02*
X140993668Y-104153661D01*
X140993668Y-104153661D02*
X141041287Y-104082233D01*
X141041287Y-104082233D02*
X141041287Y-103975090D01*
X140374620Y-104546518D02*
X141041287Y-104546518D01*
X140469858Y-104546518D02*
X140422239Y-104582232D01*
X140422239Y-104582232D02*
X140374620Y-104653661D01*
X140374620Y-104653661D02*
X140374620Y-104760804D01*
X140374620Y-104760804D02*
X140422239Y-104832232D01*
X140422239Y-104832232D02*
X140517477Y-104867947D01*
X140517477Y-104867947D02*
X141041287Y-104867947D01*
X142651231Y-95403665D02*
X141984564Y-95403665D01*
X141651231Y-95403665D02*
X141698850Y-95367951D01*
X141698850Y-95367951D02*
X141746469Y-95403665D01*
X141746469Y-95403665D02*
X141698850Y-95439379D01*
X141698850Y-95439379D02*
X141651231Y-95403665D01*
X141651231Y-95403665D02*
X141746469Y-95403665D01*
X141984564Y-95653665D02*
X141984564Y-95939379D01*
X142651231Y-95760808D02*
X141794088Y-95760808D01*
X141794088Y-95760808D02*
X141698850Y-95796522D01*
X141698850Y-95796522D02*
X141651231Y-95867951D01*
X141651231Y-95867951D02*
X141651231Y-95939379D01*
X141984564Y-96653665D02*
X141984564Y-96939379D01*
X142651231Y-96760808D02*
X141794088Y-96760808D01*
X141794088Y-96760808D02*
X141698850Y-96796522D01*
X141698850Y-96796522D02*
X141651231Y-96867951D01*
X141651231Y-96867951D02*
X141651231Y-96939379D01*
X142651231Y-97296522D02*
X142603612Y-97225093D01*
X142603612Y-97225093D02*
X142555992Y-97189379D01*
X142555992Y-97189379D02*
X142460754Y-97153665D01*
X142460754Y-97153665D02*
X142175040Y-97153665D01*
X142175040Y-97153665D02*
X142079802Y-97189379D01*
X142079802Y-97189379D02*
X142032183Y-97225093D01*
X142032183Y-97225093D02*
X141984564Y-97296522D01*
X141984564Y-97296522D02*
X141984564Y-97403665D01*
X141984564Y-97403665D02*
X142032183Y-97475093D01*
X142032183Y-97475093D02*
X142079802Y-97510808D01*
X142079802Y-97510808D02*
X142175040Y-97546522D01*
X142175040Y-97546522D02*
X142460754Y-97546522D01*
X142460754Y-97546522D02*
X142555992Y-97510808D01*
X142555992Y-97510808D02*
X142603612Y-97475093D01*
X142603612Y-97475093D02*
X142651231Y-97403665D01*
X142651231Y-97403665D02*
X142651231Y-97296522D01*
X141984564Y-98189379D02*
X142651231Y-98189379D01*
X141984564Y-97867950D02*
X142508373Y-97867950D01*
X142508373Y-97867950D02*
X142603612Y-97903664D01*
X142603612Y-97903664D02*
X142651231Y-97975093D01*
X142651231Y-97975093D02*
X142651231Y-98082236D01*
X142651231Y-98082236D02*
X142603612Y-98153664D01*
X142603612Y-98153664D02*
X142555992Y-98189379D01*
X141984564Y-98546521D02*
X142651231Y-98546521D01*
X142079802Y-98546521D02*
X142032183Y-98582235D01*
X142032183Y-98582235D02*
X141984564Y-98653664D01*
X141984564Y-98653664D02*
X141984564Y-98760807D01*
X141984564Y-98760807D02*
X142032183Y-98832235D01*
X142032183Y-98832235D02*
X142127421Y-98867950D01*
X142127421Y-98867950D02*
X142651231Y-98867950D01*
X142651231Y-99546521D02*
X141651231Y-99546521D01*
X142603612Y-99546521D02*
X142651231Y-99475092D01*
X142651231Y-99475092D02*
X142651231Y-99332235D01*
X142651231Y-99332235D02*
X142603612Y-99260806D01*
X142603612Y-99260806D02*
X142555992Y-99225092D01*
X142555992Y-99225092D02*
X142460754Y-99189378D01*
X142460754Y-99189378D02*
X142175040Y-99189378D01*
X142175040Y-99189378D02*
X142079802Y-99225092D01*
X142079802Y-99225092D02*
X142032183Y-99260806D01*
X142032183Y-99260806D02*
X141984564Y-99332235D01*
X141984564Y-99332235D02*
X141984564Y-99475092D01*
X141984564Y-99475092D02*
X142032183Y-99546521D01*
X142555992Y-99903663D02*
X142603612Y-99939377D01*
X142603612Y-99939377D02*
X142651231Y-99903663D01*
X142651231Y-99903663D02*
X142603612Y-99867949D01*
X142603612Y-99867949D02*
X142555992Y-99903663D01*
X142555992Y-99903663D02*
X142651231Y-99903663D01*
X142270278Y-99903663D02*
X141698850Y-99867949D01*
X141698850Y-99867949D02*
X141651231Y-99903663D01*
X141651231Y-99903663D02*
X141698850Y-99939377D01*
X141698850Y-99939377D02*
X142270278Y-99903663D01*
X142270278Y-99903663D02*
X141651231Y-99903663D01*
X144213556Y-94225093D02*
X144261175Y-94332236D01*
X144261175Y-94332236D02*
X144261175Y-94510807D01*
X144261175Y-94510807D02*
X144213556Y-94582236D01*
X144213556Y-94582236D02*
X144165936Y-94617950D01*
X144165936Y-94617950D02*
X144070698Y-94653664D01*
X144070698Y-94653664D02*
X143975460Y-94653664D01*
X143975460Y-94653664D02*
X143880222Y-94617950D01*
X143880222Y-94617950D02*
X143832603Y-94582236D01*
X143832603Y-94582236D02*
X143784984Y-94510807D01*
X143784984Y-94510807D02*
X143737365Y-94367950D01*
X143737365Y-94367950D02*
X143689746Y-94296521D01*
X143689746Y-94296521D02*
X143642127Y-94260807D01*
X143642127Y-94260807D02*
X143546889Y-94225093D01*
X143546889Y-94225093D02*
X143451651Y-94225093D01*
X143451651Y-94225093D02*
X143356413Y-94260807D01*
X143356413Y-94260807D02*
X143308794Y-94296521D01*
X143308794Y-94296521D02*
X143261175Y-94367950D01*
X143261175Y-94367950D02*
X143261175Y-94546521D01*
X143261175Y-94546521D02*
X143308794Y-94653664D01*
X144261175Y-95296522D02*
X143737365Y-95296522D01*
X143737365Y-95296522D02*
X143642127Y-95260807D01*
X143642127Y-95260807D02*
X143594508Y-95189379D01*
X143594508Y-95189379D02*
X143594508Y-95046522D01*
X143594508Y-95046522D02*
X143642127Y-94975093D01*
X144213556Y-95296522D02*
X144261175Y-95225093D01*
X144261175Y-95225093D02*
X144261175Y-95046522D01*
X144261175Y-95046522D02*
X144213556Y-94975093D01*
X144213556Y-94975093D02*
X144118317Y-94939379D01*
X144118317Y-94939379D02*
X144023079Y-94939379D01*
X144023079Y-94939379D02*
X143927841Y-94975093D01*
X143927841Y-94975093D02*
X143880222Y-95046522D01*
X143880222Y-95046522D02*
X143880222Y-95225093D01*
X143880222Y-95225093D02*
X143832603Y-95296522D01*
X143594508Y-95546521D02*
X143594508Y-95832235D01*
X144261175Y-95653664D02*
X143404032Y-95653664D01*
X143404032Y-95653664D02*
X143308794Y-95689378D01*
X143308794Y-95689378D02*
X143261175Y-95760807D01*
X143261175Y-95760807D02*
X143261175Y-95832235D01*
X144213556Y-96367949D02*
X144261175Y-96296521D01*
X144261175Y-96296521D02*
X144261175Y-96153664D01*
X144261175Y-96153664D02*
X144213556Y-96082235D01*
X144213556Y-96082235D02*
X144118317Y-96046521D01*
X144118317Y-96046521D02*
X143737365Y-96046521D01*
X143737365Y-96046521D02*
X143642127Y-96082235D01*
X143642127Y-96082235D02*
X143594508Y-96153664D01*
X143594508Y-96153664D02*
X143594508Y-96296521D01*
X143594508Y-96296521D02*
X143642127Y-96367949D01*
X143642127Y-96367949D02*
X143737365Y-96403664D01*
X143737365Y-96403664D02*
X143832603Y-96403664D01*
X143832603Y-96403664D02*
X143927841Y-96046521D01*
X144261175Y-97617950D02*
X143261175Y-97617950D01*
X144213556Y-97617950D02*
X144261175Y-97546521D01*
X144261175Y-97546521D02*
X144261175Y-97403664D01*
X144261175Y-97403664D02*
X144213556Y-97332235D01*
X144213556Y-97332235D02*
X144165936Y-97296521D01*
X144165936Y-97296521D02*
X144070698Y-97260807D01*
X144070698Y-97260807D02*
X143784984Y-97260807D01*
X143784984Y-97260807D02*
X143689746Y-97296521D01*
X143689746Y-97296521D02*
X143642127Y-97332235D01*
X143642127Y-97332235D02*
X143594508Y-97403664D01*
X143594508Y-97403664D02*
X143594508Y-97546521D01*
X143594508Y-97546521D02*
X143642127Y-97617950D01*
X144213556Y-98260806D02*
X144261175Y-98189378D01*
X144261175Y-98189378D02*
X144261175Y-98046521D01*
X144261175Y-98046521D02*
X144213556Y-97975092D01*
X144213556Y-97975092D02*
X144118317Y-97939378D01*
X144118317Y-97939378D02*
X143737365Y-97939378D01*
X143737365Y-97939378D02*
X143642127Y-97975092D01*
X143642127Y-97975092D02*
X143594508Y-98046521D01*
X143594508Y-98046521D02*
X143594508Y-98189378D01*
X143594508Y-98189378D02*
X143642127Y-98260806D01*
X143642127Y-98260806D02*
X143737365Y-98296521D01*
X143737365Y-98296521D02*
X143832603Y-98296521D01*
X143832603Y-98296521D02*
X143927841Y-97939378D01*
X143594508Y-98546520D02*
X144261175Y-98725092D01*
X144261175Y-98725092D02*
X143594508Y-98903663D01*
X144261175Y-99189378D02*
X143594508Y-99189378D01*
X143261175Y-99189378D02*
X143308794Y-99153664D01*
X143308794Y-99153664D02*
X143356413Y-99189378D01*
X143356413Y-99189378D02*
X143308794Y-99225092D01*
X143308794Y-99225092D02*
X143261175Y-99189378D01*
X143261175Y-99189378D02*
X143356413Y-99189378D01*
X144213556Y-99867950D02*
X144261175Y-99796521D01*
X144261175Y-99796521D02*
X144261175Y-99653664D01*
X144261175Y-99653664D02*
X144213556Y-99582235D01*
X144213556Y-99582235D02*
X144165936Y-99546521D01*
X144165936Y-99546521D02*
X144070698Y-99510807D01*
X144070698Y-99510807D02*
X143784984Y-99510807D01*
X143784984Y-99510807D02*
X143689746Y-99546521D01*
X143689746Y-99546521D02*
X143642127Y-99582235D01*
X143642127Y-99582235D02*
X143594508Y-99653664D01*
X143594508Y-99653664D02*
X143594508Y-99796521D01*
X143594508Y-99796521D02*
X143642127Y-99867950D01*
X144213556Y-100475092D02*
X144261175Y-100403664D01*
X144261175Y-100403664D02*
X144261175Y-100260807D01*
X144261175Y-100260807D02*
X144213556Y-100189378D01*
X144213556Y-100189378D02*
X144118317Y-100153664D01*
X144118317Y-100153664D02*
X143737365Y-100153664D01*
X143737365Y-100153664D02*
X143642127Y-100189378D01*
X143642127Y-100189378D02*
X143594508Y-100260807D01*
X143594508Y-100260807D02*
X143594508Y-100403664D01*
X143594508Y-100403664D02*
X143642127Y-100475092D01*
X143642127Y-100475092D02*
X143737365Y-100510807D01*
X143737365Y-100510807D02*
X143832603Y-100510807D01*
X143832603Y-100510807D02*
X143927841Y-100153664D01*
X145823500Y-94225093D02*
X145871119Y-94332236D01*
X145871119Y-94332236D02*
X145871119Y-94510807D01*
X145871119Y-94510807D02*
X145823500Y-94582236D01*
X145823500Y-94582236D02*
X145775880Y-94617950D01*
X145775880Y-94617950D02*
X145680642Y-94653664D01*
X145680642Y-94653664D02*
X145585404Y-94653664D01*
X145585404Y-94653664D02*
X145490166Y-94617950D01*
X145490166Y-94617950D02*
X145442547Y-94582236D01*
X145442547Y-94582236D02*
X145394928Y-94510807D01*
X145394928Y-94510807D02*
X145347309Y-94367950D01*
X145347309Y-94367950D02*
X145299690Y-94296521D01*
X145299690Y-94296521D02*
X145252071Y-94260807D01*
X145252071Y-94260807D02*
X145156833Y-94225093D01*
X145156833Y-94225093D02*
X145061595Y-94225093D01*
X145061595Y-94225093D02*
X144966357Y-94260807D01*
X144966357Y-94260807D02*
X144918738Y-94296521D01*
X144918738Y-94296521D02*
X144871119Y-94367950D01*
X144871119Y-94367950D02*
X144871119Y-94546521D01*
X144871119Y-94546521D02*
X144918738Y-94653664D01*
X145823500Y-95296522D02*
X145871119Y-95225093D01*
X145871119Y-95225093D02*
X145871119Y-95082236D01*
X145871119Y-95082236D02*
X145823500Y-95010807D01*
X145823500Y-95010807D02*
X145775880Y-94975093D01*
X145775880Y-94975093D02*
X145680642Y-94939379D01*
X145680642Y-94939379D02*
X145394928Y-94939379D01*
X145394928Y-94939379D02*
X145299690Y-94975093D01*
X145299690Y-94975093D02*
X145252071Y-95010807D01*
X145252071Y-95010807D02*
X145204452Y-95082236D01*
X145204452Y-95082236D02*
X145204452Y-95225093D01*
X145204452Y-95225093D02*
X145252071Y-95296522D01*
X145871119Y-95617950D02*
X145204452Y-95617950D01*
X144871119Y-95617950D02*
X144918738Y-95582236D01*
X144918738Y-95582236D02*
X144966357Y-95617950D01*
X144966357Y-95617950D02*
X144918738Y-95653664D01*
X144918738Y-95653664D02*
X144871119Y-95617950D01*
X144871119Y-95617950D02*
X144966357Y-95617950D01*
X145823500Y-96260807D02*
X145871119Y-96189379D01*
X145871119Y-96189379D02*
X145871119Y-96046522D01*
X145871119Y-96046522D02*
X145823500Y-95975093D01*
X145823500Y-95975093D02*
X145728261Y-95939379D01*
X145728261Y-95939379D02*
X145347309Y-95939379D01*
X145347309Y-95939379D02*
X145252071Y-95975093D01*
X145252071Y-95975093D02*
X145204452Y-96046522D01*
X145204452Y-96046522D02*
X145204452Y-96189379D01*
X145204452Y-96189379D02*
X145252071Y-96260807D01*
X145252071Y-96260807D02*
X145347309Y-96296522D01*
X145347309Y-96296522D02*
X145442547Y-96296522D01*
X145442547Y-96296522D02*
X145537785Y-95939379D01*
X145204452Y-96617950D02*
X145871119Y-96617950D01*
X145299690Y-96617950D02*
X145252071Y-96653664D01*
X145252071Y-96653664D02*
X145204452Y-96725093D01*
X145204452Y-96725093D02*
X145204452Y-96832236D01*
X145204452Y-96832236D02*
X145252071Y-96903664D01*
X145252071Y-96903664D02*
X145347309Y-96939379D01*
X145347309Y-96939379D02*
X145871119Y-96939379D01*
X145204452Y-97189378D02*
X145204452Y-97475092D01*
X144871119Y-97296521D02*
X145728261Y-97296521D01*
X145728261Y-97296521D02*
X145823500Y-97332235D01*
X145823500Y-97332235D02*
X145871119Y-97403664D01*
X145871119Y-97403664D02*
X145871119Y-97475092D01*
X145871119Y-97725092D02*
X145204452Y-97725092D01*
X144871119Y-97725092D02*
X144918738Y-97689378D01*
X144918738Y-97689378D02*
X144966357Y-97725092D01*
X144966357Y-97725092D02*
X144918738Y-97760806D01*
X144918738Y-97760806D02*
X144871119Y-97725092D01*
X144871119Y-97725092D02*
X144966357Y-97725092D01*
X145204452Y-97975092D02*
X145204452Y-98260806D01*
X145871119Y-98082235D02*
X145013976Y-98082235D01*
X145013976Y-98082235D02*
X144918738Y-98117949D01*
X144918738Y-98117949D02*
X144871119Y-98189378D01*
X144871119Y-98189378D02*
X144871119Y-98260806D01*
X145871119Y-98510806D02*
X145204452Y-98510806D01*
X144871119Y-98510806D02*
X144918738Y-98475092D01*
X144918738Y-98475092D02*
X144966357Y-98510806D01*
X144966357Y-98510806D02*
X144918738Y-98546520D01*
X144918738Y-98546520D02*
X144871119Y-98510806D01*
X144871119Y-98510806D02*
X144966357Y-98510806D01*
X145823500Y-99189378D02*
X145871119Y-99117949D01*
X145871119Y-99117949D02*
X145871119Y-98975092D01*
X145871119Y-98975092D02*
X145823500Y-98903663D01*
X145823500Y-98903663D02*
X145775880Y-98867949D01*
X145775880Y-98867949D02*
X145680642Y-98832235D01*
X145680642Y-98832235D02*
X145394928Y-98832235D01*
X145394928Y-98832235D02*
X145299690Y-98867949D01*
X145299690Y-98867949D02*
X145252071Y-98903663D01*
X145252071Y-98903663D02*
X145204452Y-98975092D01*
X145204452Y-98975092D02*
X145204452Y-99117949D01*
X145204452Y-99117949D02*
X145252071Y-99189378D01*
X145204452Y-100082235D02*
X146204452Y-100082235D01*
X145252071Y-100082235D02*
X145204452Y-100153664D01*
X145204452Y-100153664D02*
X145204452Y-100296521D01*
X145204452Y-100296521D02*
X145252071Y-100367949D01*
X145252071Y-100367949D02*
X145299690Y-100403664D01*
X145299690Y-100403664D02*
X145394928Y-100439378D01*
X145394928Y-100439378D02*
X145680642Y-100439378D01*
X145680642Y-100439378D02*
X145775880Y-100403664D01*
X145775880Y-100403664D02*
X145823500Y-100367949D01*
X145823500Y-100367949D02*
X145871119Y-100296521D01*
X145871119Y-100296521D02*
X145871119Y-100153664D01*
X145871119Y-100153664D02*
X145823500Y-100082235D01*
X145871119Y-100760806D02*
X145204452Y-100760806D01*
X145394928Y-100760806D02*
X145299690Y-100796520D01*
X145299690Y-100796520D02*
X145252071Y-100832235D01*
X145252071Y-100832235D02*
X145204452Y-100903663D01*
X145204452Y-100903663D02*
X145204452Y-100975092D01*
X145871119Y-101332235D02*
X145823500Y-101260806D01*
X145823500Y-101260806D02*
X145775880Y-101225092D01*
X145775880Y-101225092D02*
X145680642Y-101189378D01*
X145680642Y-101189378D02*
X145394928Y-101189378D01*
X145394928Y-101189378D02*
X145299690Y-101225092D01*
X145299690Y-101225092D02*
X145252071Y-101260806D01*
X145252071Y-101260806D02*
X145204452Y-101332235D01*
X145204452Y-101332235D02*
X145204452Y-101439378D01*
X145204452Y-101439378D02*
X145252071Y-101510806D01*
X145252071Y-101510806D02*
X145299690Y-101546521D01*
X145299690Y-101546521D02*
X145394928Y-101582235D01*
X145394928Y-101582235D02*
X145680642Y-101582235D01*
X145680642Y-101582235D02*
X145775880Y-101546521D01*
X145775880Y-101546521D02*
X145823500Y-101510806D01*
X145823500Y-101510806D02*
X145871119Y-101439378D01*
X145871119Y-101439378D02*
X145871119Y-101332235D01*
X145204452Y-101903663D02*
X146061595Y-101903663D01*
X146061595Y-101903663D02*
X146156833Y-101867949D01*
X146156833Y-101867949D02*
X146204452Y-101796520D01*
X146204452Y-101796520D02*
X146204452Y-101760806D01*
X144871119Y-101903663D02*
X144918738Y-101867949D01*
X144918738Y-101867949D02*
X144966357Y-101903663D01*
X144966357Y-101903663D02*
X144918738Y-101939377D01*
X144918738Y-101939377D02*
X144871119Y-101903663D01*
X144871119Y-101903663D02*
X144966357Y-101903663D01*
X145823500Y-102546520D02*
X145871119Y-102475092D01*
X145871119Y-102475092D02*
X145871119Y-102332235D01*
X145871119Y-102332235D02*
X145823500Y-102260806D01*
X145823500Y-102260806D02*
X145728261Y-102225092D01*
X145728261Y-102225092D02*
X145347309Y-102225092D01*
X145347309Y-102225092D02*
X145252071Y-102260806D01*
X145252071Y-102260806D02*
X145204452Y-102332235D01*
X145204452Y-102332235D02*
X145204452Y-102475092D01*
X145204452Y-102475092D02*
X145252071Y-102546520D01*
X145252071Y-102546520D02*
X145347309Y-102582235D01*
X145347309Y-102582235D02*
X145442547Y-102582235D01*
X145442547Y-102582235D02*
X145537785Y-102225092D01*
X145823500Y-103225092D02*
X145871119Y-103153663D01*
X145871119Y-103153663D02*
X145871119Y-103010806D01*
X145871119Y-103010806D02*
X145823500Y-102939377D01*
X145823500Y-102939377D02*
X145775880Y-102903663D01*
X145775880Y-102903663D02*
X145680642Y-102867949D01*
X145680642Y-102867949D02*
X145394928Y-102867949D01*
X145394928Y-102867949D02*
X145299690Y-102903663D01*
X145299690Y-102903663D02*
X145252071Y-102939377D01*
X145252071Y-102939377D02*
X145204452Y-103010806D01*
X145204452Y-103010806D02*
X145204452Y-103153663D01*
X145204452Y-103153663D02*
X145252071Y-103225092D01*
X145204452Y-103439377D02*
X145204452Y-103725091D01*
X144871119Y-103546520D02*
X145728261Y-103546520D01*
X145728261Y-103546520D02*
X145823500Y-103582234D01*
X145823500Y-103582234D02*
X145871119Y-103653663D01*
X145871119Y-103653663D02*
X145871119Y-103725091D01*
X145775880Y-103975091D02*
X145823500Y-104010805D01*
X145823500Y-104010805D02*
X145871119Y-103975091D01*
X145871119Y-103975091D02*
X145823500Y-103939377D01*
X145823500Y-103939377D02*
X145775880Y-103975091D01*
X145775880Y-103975091D02*
X145871119Y-103975091D01*
D11*
G04 #@! TO.C,U5*
X150051000Y-113551500D02*
X150051000Y-112751500D01*
X150051000Y-113551500D02*
X150051000Y-114351500D01*
X153171000Y-113551500D02*
X153171000Y-112751500D01*
X153171000Y-113551500D02*
X153171000Y-114351500D01*
X150101000Y-112251500D02*
X149771000Y-112491500D01*
X149771000Y-112011500D01*
X150101000Y-112251500D01*
G36*
X150101000Y-112251500D02*
G01*
X149771000Y-112491500D01*
X149771000Y-112011500D01*
X150101000Y-112251500D01*
G37*
G04 #@! TO.C,R2*
X153957724Y-118098500D02*
X153448276Y-118098500D01*
X153957724Y-119143500D02*
X153448276Y-119143500D01*
G04 #@! TO.C,R11*
X157077500Y-121845276D02*
X157077500Y-122354724D01*
X158122500Y-121845276D02*
X158122500Y-122354724D01*
G04 #@! TO.C,L1*
X153490000Y-90016267D02*
X153490000Y-89673733D01*
X154510000Y-90016267D02*
X154510000Y-89673733D01*
G04 #@! TO.C,C2*
X155046267Y-92190000D02*
X154753733Y-92190000D01*
X155046267Y-93210000D02*
X154753733Y-93210000D01*
G04 #@! TO.C,R8*
X154880500Y-115715276D02*
X154880500Y-116224724D01*
X155925500Y-115715276D02*
X155925500Y-116224724D01*
G04 #@! TO.C,R9*
X153173224Y-116336500D02*
X152663776Y-116336500D01*
X153173224Y-117381500D02*
X152663776Y-117381500D01*
G04 #@! TO.C,AE1*
X149400000Y-78875000D02*
X152125000Y-78875000D01*
X149400000Y-80725000D02*
X152950000Y-80725000D01*
G04 #@! TO.C,U6*
X153290000Y-122600000D02*
X153290000Y-121800000D01*
X153290000Y-122600000D02*
X153290000Y-123400000D01*
X156510000Y-121600000D02*
X156510000Y-123400000D01*
X153340000Y-121300000D02*
X153010000Y-121540000D01*
X153010000Y-121060000D01*
X153340000Y-121300000D01*
G36*
X153340000Y-121300000D02*
G01*
X153010000Y-121540000D01*
X153010000Y-121060000D01*
X153340000Y-121300000D01*
G37*
G04 #@! TO.C,C13*
X147701000Y-114812752D02*
X147701000Y-114290248D01*
X149171000Y-114812752D02*
X149171000Y-114290248D01*
G04 #@! TO.C,R7*
X149752500Y-118166276D02*
X149752500Y-118675724D01*
X150797500Y-118166276D02*
X150797500Y-118675724D01*
G04 #@! TO.C,R1*
X143645276Y-116577500D02*
X144154724Y-116577500D01*
X143645276Y-117622500D02*
X144154724Y-117622500D01*
D12*
G04 #@! TO.C,kibuzzard-688BBDB2*
G36*
X140752760Y-119454039D02*
G01*
X141374125Y-119454039D01*
X141374327Y-119454039D01*
X141871634Y-120200000D01*
X141374327Y-120945961D01*
X141374125Y-120945961D01*
X139874529Y-120945961D01*
X139874327Y-120945961D01*
X139728797Y-120931628D01*
X139588860Y-120889178D01*
X139459893Y-120820244D01*
X139346853Y-120727474D01*
X139254083Y-120614434D01*
X139185149Y-120485467D01*
X139142699Y-120345530D01*
X139128366Y-120200000D01*
X139140419Y-120077625D01*
X140115442Y-120077625D01*
X140115442Y-120322375D01*
X140495894Y-120322375D01*
X140495894Y-120744023D01*
X140752760Y-120744023D01*
X140752760Y-120322375D01*
X141133212Y-120322375D01*
X141133212Y-120077625D01*
X140752760Y-120077625D01*
X140752760Y-119655977D01*
X140495894Y-119655977D01*
X140495894Y-120077625D01*
X140115442Y-120077625D01*
X139140419Y-120077625D01*
X139142699Y-120054470D01*
X139185149Y-119914533D01*
X139254083Y-119785566D01*
X139346853Y-119672526D01*
X139459893Y-119579756D01*
X139588860Y-119510822D01*
X139728797Y-119468372D01*
X139874327Y-119454039D01*
X139874529Y-119454039D01*
X140752760Y-119454039D01*
G37*
D11*
G04 #@! TO.C,U1*
X146550000Y-95150000D02*
X146550000Y-104850000D01*
X146550000Y-104850000D02*
X156650000Y-104850000D01*
X156650000Y-104850000D02*
X157450000Y-104050000D01*
X157450000Y-95150000D02*
X146550000Y-95150000D01*
X157450000Y-104050000D02*
X157450000Y-95150000D01*
D13*
X157701776Y-105000000D02*
G75*
G02*
X157298224Y-105000000I-201776J0D01*
G01*
X157298224Y-105000000D02*
G75*
G02*
X157701776Y-105000000I201776J0D01*
G01*
D11*
G04 #@! TO.C,R10*
X150511064Y-120740000D02*
X147456936Y-120740000D01*
X150511064Y-123460000D02*
X147456936Y-123460000D01*
G04 #@! TO.C,C15*
X142140000Y-119155000D02*
X145160000Y-119155000D01*
X142140000Y-123550000D02*
X142140000Y-119155000D01*
X145160000Y-119155000D02*
X145160000Y-123550000D01*
G04 #@! TO.C,C14*
X153668000Y-112382252D02*
X153668000Y-111859748D01*
X155138000Y-112382252D02*
X155138000Y-111859748D01*
G04 #@! TO.C,C5*
X153490000Y-86616267D02*
X153490000Y-86323733D01*
X154510000Y-86616267D02*
X154510000Y-86323733D01*
D12*
G04 #@! TO.C,kibuzzard-688BBDB2*
G36*
X159045961Y-116825673D02*
G01*
X159045961Y-116825875D01*
X159045961Y-118325471D01*
X159045961Y-118325673D01*
X159031628Y-118471203D01*
X158989178Y-118611140D01*
X158920244Y-118740107D01*
X158827474Y-118853147D01*
X158714434Y-118945917D01*
X158585467Y-119014851D01*
X158445530Y-119057301D01*
X158300000Y-119071634D01*
X158154470Y-119057301D01*
X158014533Y-119014851D01*
X157885566Y-118945917D01*
X157772526Y-118853147D01*
X157679756Y-118740107D01*
X157610822Y-118611140D01*
X157568372Y-118471203D01*
X157554039Y-118325673D01*
X157554039Y-118325471D01*
X157554039Y-117704106D01*
X157755977Y-117704106D01*
X158177625Y-117704106D01*
X158177625Y-118084558D01*
X158422375Y-118084558D01*
X158422375Y-117704106D01*
X158844023Y-117704106D01*
X158844023Y-117447240D01*
X158422375Y-117447240D01*
X158422375Y-117066788D01*
X158177625Y-117066788D01*
X158177625Y-117447240D01*
X157755977Y-117447240D01*
X157755977Y-117704106D01*
X157554039Y-117704106D01*
X157554039Y-117447240D01*
X157554039Y-116825875D01*
X157554039Y-116825673D01*
X158300000Y-116328366D01*
X159045961Y-116825673D01*
G37*
G36*
X141745961Y-116825673D02*
G01*
X141745961Y-116825875D01*
X141745961Y-118325471D01*
X141745961Y-118325673D01*
X141731628Y-118471203D01*
X141689178Y-118611140D01*
X141620244Y-118740107D01*
X141527474Y-118853147D01*
X141414434Y-118945917D01*
X141285467Y-119014851D01*
X141145530Y-119057301D01*
X141000000Y-119071634D01*
X140854470Y-119057301D01*
X140714533Y-119014851D01*
X140585566Y-118945917D01*
X140472526Y-118853147D01*
X140379756Y-118740107D01*
X140310822Y-118611140D01*
X140268372Y-118471203D01*
X140254039Y-118325673D01*
X140254039Y-118325471D01*
X140254039Y-117704106D01*
X140455977Y-117704106D01*
X140877625Y-117704106D01*
X140877625Y-118084558D01*
X141122375Y-118084558D01*
X141122375Y-117704106D01*
X141544023Y-117704106D01*
X141544023Y-117447240D01*
X141122375Y-117447240D01*
X141122375Y-117066788D01*
X140877625Y-117066788D01*
X140877625Y-117447240D01*
X140455977Y-117447240D01*
X140455977Y-117704106D01*
X140254039Y-117704106D01*
X140254039Y-117447240D01*
X140254039Y-116825875D01*
X140254039Y-116825673D01*
X141000000Y-116328366D01*
X141745961Y-116825673D01*
G37*
D11*
G04 #@! TO.C,U2*
X149450000Y-90340000D02*
X151250000Y-90340000D01*
X150450000Y-93560000D02*
X149650000Y-93560000D01*
X150450000Y-93560000D02*
X151250000Y-93560000D01*
X149390000Y-93840000D02*
X148910000Y-93840000D01*
X149150000Y-93510000D01*
X149390000Y-93840000D01*
G36*
X149390000Y-93840000D02*
G01*
X148910000Y-93840000D01*
X149150000Y-93510000D01*
X149390000Y-93840000D01*
G37*
G04 #@! TO.C,C1*
X151008767Y-106490000D02*
X150716233Y-106490000D01*
X151008767Y-107510000D02*
X150716233Y-107510000D01*
G04 #@! TO.C,L2*
X144466000Y-113945252D02*
X144466000Y-113422748D01*
X146686000Y-113945252D02*
X146686000Y-113422748D01*
G04 #@! TD*
%LPC*%
D14*
G04 #@! TO.C,J4*
X159200000Y-101080000D03*
D15*
X159200000Y-98540000D03*
X159200000Y-96000000D03*
X159200000Y-93460000D03*
G04 #@! TD*
D16*
G04 #@! TO.C,J3*
X161900000Y-124700000D03*
D17*
X161900000Y-122700000D03*
G04 #@! TD*
D18*
G04 #@! TO.C,U5*
X150661000Y-112414000D03*
X151611000Y-112414000D03*
X152561000Y-112414000D03*
X152561000Y-114689000D03*
X151611000Y-114689000D03*
X150661000Y-114689000D03*
G04 #@! TD*
D19*
G04 #@! TO.C,R2*
X154615500Y-118621000D03*
X152790500Y-118621000D03*
G04 #@! TD*
D20*
G04 #@! TO.C,R11*
X157600000Y-121187500D03*
X157600000Y-123012500D03*
G04 #@! TD*
D21*
G04 #@! TO.C,L1*
X154000000Y-90720000D03*
X154000000Y-88970000D03*
G04 #@! TD*
D22*
G04 #@! TO.C,C2*
X155762500Y-92700000D03*
X154037500Y-92700000D03*
G04 #@! TD*
D20*
G04 #@! TO.C,R8*
X155403000Y-115057500D03*
X155403000Y-116882500D03*
G04 #@! TD*
D19*
G04 #@! TO.C,R9*
X153831000Y-116859000D03*
X152006000Y-116859000D03*
G04 #@! TD*
D23*
G04 #@! TO.C,AE1*
X152600000Y-80300000D03*
D24*
X149400000Y-79800000D03*
D23*
X152600000Y-79300000D03*
G04 #@! TD*
D25*
G04 #@! TO.C,U6*
X153950000Y-121150000D03*
X154900000Y-121150000D03*
X155850000Y-121150000D03*
X155850000Y-123850000D03*
X153950000Y-123850000D03*
G04 #@! TD*
D26*
G04 #@! TO.C,C13*
X148436000Y-115589000D03*
X148436000Y-113514000D03*
G04 #@! TD*
D20*
G04 #@! TO.C,R7*
X150275000Y-117508500D03*
X150275000Y-119333500D03*
G04 #@! TD*
D27*
G04 #@! TO.C,R1*
X142987500Y-117100000D03*
X144812500Y-117100000D03*
G04 #@! TD*
D28*
G04 #@! TO.C,J2*
X158500000Y-108621000D03*
X158500000Y-114621000D03*
G04 #@! TD*
D29*
G04 #@! TO.C,U1*
X156400000Y-104850000D03*
X155300000Y-104850000D03*
X154200000Y-104850000D03*
X153100000Y-104850000D03*
X152000000Y-104850000D03*
X150900000Y-104850000D03*
X149800000Y-104850000D03*
X148700000Y-104850000D03*
X147600000Y-104850000D03*
X147600000Y-95150000D03*
X148700000Y-95150000D03*
X149800000Y-95150000D03*
X150900000Y-95150000D03*
X152000000Y-95150000D03*
X153100000Y-95150000D03*
X154200000Y-95150000D03*
X155300000Y-95150000D03*
X156400000Y-95150000D03*
G04 #@! TD*
D30*
G04 #@! TO.C,R10*
X151384000Y-122100000D03*
X146584000Y-122100000D03*
G04 #@! TD*
D31*
G04 #@! TO.C,C15*
X143650000Y-120172500D03*
X143650000Y-123427500D03*
G04 #@! TD*
D26*
G04 #@! TO.C,C14*
X154403000Y-113158500D03*
X154403000Y-111083500D03*
G04 #@! TD*
D32*
G04 #@! TO.C,C5*
X154000000Y-87332500D03*
X154000000Y-85607500D03*
G04 #@! TD*
D33*
G04 #@! TO.C,U2*
X149000000Y-92900000D03*
X149000000Y-91950000D03*
X149000000Y-91000000D03*
X151700000Y-91000000D03*
X151700000Y-91950000D03*
X151700000Y-92900000D03*
G04 #@! TD*
D22*
G04 #@! TO.C,C1*
X151725000Y-107000000D03*
X150000000Y-107000000D03*
G04 #@! TD*
D34*
G04 #@! TO.C,L2*
X145576000Y-114846500D03*
X145576000Y-112521500D03*
G04 #@! TD*
D28*
G04 #@! TO.C,J1*
X141500000Y-108621000D03*
X141500000Y-114621000D03*
G04 #@! TD*
%LPD*%
M02*
