G04 #@! TF.GenerationSoftware,KiCad,Pcbnew,9.0.5-9.0.5~ubuntu24.04.1*
G04 #@! TF.CreationDate,2025-10-20T13:53:24+02:00*
G04 #@! TF.ProjectId,PicoBalloon,5069636f-4261-46c6-9c6f-6f6e2e6b6963,rev?*
G04 #@! TF.SameCoordinates,Original*
G04 #@! TF.FileFunction,Copper,L4,Bot*
G04 #@! TF.FilePolarity,Positive*
%FSLAX46Y46*%
G04 Gerber Fmt 4.6, Leading zero omitted, Abs format (unit mm)*
G04 Created by KiCad (PCBNEW 9.0.5-9.0.5~ubuntu24.04.1) date 2025-10-20 13:53:24*
%MOMM*%
%LPD*%
G01*
G04 APERTURE LIST*
G04 Aperture macros list*
%AMRoundRect*
0 Rectangle with rounded corners*
0 $1 Rounding radius*
0 $2 $3 $4 $5 $6 $7 $8 $9 X,Y pos of 4 corners*
0 Add a 4 corners polygon primitive as box body*
4,1,4,$2,$3,$4,$5,$6,$7,$8,$9,$2,$3,0*
0 Add four circle primitives for the rounded corners*
1,1,$1+$1,$2,$3*
1,1,$1+$1,$4,$5*
1,1,$1+$1,$6,$7*
1,1,$1+$1,$8,$9*
0 Add four rect primitives between the rounded corners*
20,1,$1+$1,$2,$3,$4,$5,0*
20,1,$1+$1,$4,$5,$6,$7,0*
20,1,$1+$1,$6,$7,$8,$9,0*
20,1,$1+$1,$8,$9,$2,$3,0*%
%AMOutline4P*
0 Free polygon, 4 corners , with rotation*
0 The origin of the aperture is its center*
0 number of corners: always 4*
0 $1 to $8 corner X, Y*
0 $9 Rotation angle, in degrees counterclockwise*
0 create outline with 4 corners*
4,1,4,$1,$2,$3,$4,$5,$6,$7,$8,$1,$2,$9*%
G04 Aperture macros list end*
G04 #@! TA.AperFunction,ComponentPad*
%ADD10R,1.700000X1.700000*%
G04 #@! TD*
G04 #@! TA.AperFunction,ComponentPad*
%ADD11C,1.700000*%
G04 #@! TD*
G04 #@! TA.AperFunction,ComponentPad*
%ADD12R,1.350000X1.350000*%
G04 #@! TD*
G04 #@! TA.AperFunction,ComponentPad*
%ADD13C,1.350000*%
G04 #@! TD*
G04 #@! TA.AperFunction,SMDPad,CuDef*
%ADD14RoundRect,0.150000X-0.150000X0.512500X-0.150000X-0.512500X0.150000X-0.512500X0.150000X0.512500X0*%
G04 #@! TD*
G04 #@! TA.AperFunction,SMDPad,CuDef*
%ADD15RoundRect,0.237500X0.250000X0.237500X-0.250000X0.237500X-0.250000X-0.237500X0.250000X-0.237500X0*%
G04 #@! TD*
G04 #@! TA.AperFunction,SMDPad,CuDef*
%ADD16RoundRect,0.237500X-0.237500X0.250000X-0.237500X-0.250000X0.237500X-0.250000X0.237500X0.250000X0*%
G04 #@! TD*
G04 #@! TA.AperFunction,SMDPad,CuDef*
%ADD17RoundRect,0.237500X0.237500X-0.287500X0.237500X0.287500X-0.237500X0.287500X-0.237500X-0.287500X0*%
G04 #@! TD*
G04 #@! TA.AperFunction,SMDPad,CuDef*
%ADD18RoundRect,0.237500X0.300000X0.237500X-0.300000X0.237500X-0.300000X-0.237500X0.300000X-0.237500X0*%
G04 #@! TD*
G04 #@! TA.AperFunction,SMDPad,CuDef*
%ADD19Outline4P,-0.400000X-0.325000X0.400000X-0.325000X0.400000X0.325000X-0.400000X0.325000X0.000000*%
G04 #@! TD*
G04 #@! TA.AperFunction,SMDPad,CuDef*
%ADD20Outline4P,-0.400000X-0.800000X0.400000X-0.800000X0.400000X0.800000X-0.400000X0.800000X0.000000*%
G04 #@! TD*
G04 #@! TA.AperFunction,SMDPad,CuDef*
%ADD21RoundRect,0.162500X-0.162500X0.617500X-0.162500X-0.617500X0.162500X-0.617500X0.162500X0.617500X0*%
G04 #@! TD*
G04 #@! TA.AperFunction,SMDPad,CuDef*
%ADD22RoundRect,0.237500X0.237500X-0.250000X0.237500X0.250000X-0.237500X0.250000X-0.237500X-0.250000X0*%
G04 #@! TD*
G04 #@! TA.AperFunction,SMDPad,CuDef*
%ADD23RoundRect,0.250000X0.475000X-0.337500X0.475000X0.337500X-0.475000X0.337500X-0.475000X-0.337500X0*%
G04 #@! TD*
G04 #@! TA.AperFunction,SMDPad,CuDef*
%ADD24RoundRect,0.237500X-0.250000X-0.237500X0.250000X-0.237500X0.250000X0.237500X-0.250000X0.237500X0*%
G04 #@! TD*
G04 #@! TA.AperFunction,SMDPad,CuDef*
%ADD25RoundRect,0.450000X-1.050000X1.050000X-1.050000X-1.050000X1.050000X-1.050000X1.050000X1.050000X0*%
G04 #@! TD*
G04 #@! TA.AperFunction,SMDPad,CuDef*
%ADD26R,0.800000X1.800000*%
G04 #@! TD*
G04 #@! TA.AperFunction,SMDPad,CuDef*
%ADD27RoundRect,0.249999X0.450001X1.075001X-0.450001X1.075001X-0.450001X-1.075001X0.450001X-1.075001X0*%
G04 #@! TD*
G04 #@! TA.AperFunction,SMDPad,CuDef*
%ADD28RoundRect,0.250001X-0.944999X0.507499X-0.944999X-0.507499X0.944999X-0.507499X0.944999X0.507499X0*%
G04 #@! TD*
G04 #@! TA.AperFunction,SMDPad,CuDef*
%ADD29RoundRect,0.237500X0.237500X-0.300000X0.237500X0.300000X-0.237500X0.300000X-0.237500X-0.300000X0*%
G04 #@! TD*
G04 #@! TA.AperFunction,SMDPad,CuDef*
%ADD30RoundRect,0.162500X-0.617500X-0.162500X0.617500X-0.162500X0.617500X0.162500X-0.617500X0.162500X0*%
G04 #@! TD*
G04 #@! TA.AperFunction,SMDPad,CuDef*
%ADD31RoundRect,0.162500X0.617500X0.162500X-0.617500X0.162500X-0.617500X-0.162500X0.617500X-0.162500X0*%
G04 #@! TD*
G04 #@! TA.AperFunction,SMDPad,CuDef*
%ADD32RoundRect,0.250001X0.849999X-0.462499X0.849999X0.462499X-0.849999X0.462499X-0.849999X-0.462499X0*%
G04 #@! TD*
G04 #@! TA.AperFunction,ViaPad*
%ADD33C,0.600000*%
G04 #@! TD*
G04 #@! TA.AperFunction,Conductor*
%ADD34C,0.354575*%
G04 #@! TD*
G04 #@! TA.AperFunction,Conductor*
%ADD35C,0.200000*%
G04 #@! TD*
G04 #@! TA.AperFunction,Conductor*
%ADD36C,0.500000*%
G04 #@! TD*
G04 #@! TA.AperFunction,Conductor*
%ADD37C,1.000000*%
G04 #@! TD*
G04 APERTURE END LIST*
D10*
G04 #@! TO.P,J4,1,Pin_1*
G04 #@! TO.N,+3V3*
X158500000Y-101000000D03*
D11*
G04 #@! TO.P,J4,2,Pin_2*
G04 #@! TO.N,/SWDIO*
X158500000Y-98460000D03*
G04 #@! TO.P,J4,3,Pin_3*
G04 #@! TO.N,/SWCLK*
X158500000Y-95920000D03*
G04 #@! TO.P,J4,4,Pin_4*
G04 #@! TO.N,GND*
X158500000Y-93380000D03*
G04 #@! TD*
D12*
G04 #@! TO.P,J3,1,Pin_1*
G04 #@! TO.N,Net-(J3-Pin_1)*
X161290000Y-124700000D03*
D13*
G04 #@! TO.P,J3,2,Pin_2*
G04 #@! TO.N,GND*
X161290000Y-122700000D03*
G04 #@! TD*
D14*
G04 #@! TO.P,U5,1,SW*
G04 #@! TO.N,Net-(U5-SW)*
X150661000Y-112414000D03*
G04 #@! TO.P,U5,2,GND*
G04 #@! TO.N,GND*
X151611000Y-112414000D03*
G04 #@! TO.P,U5,3,EN*
G04 #@! TO.N,/BOOST_EN*
X152561000Y-112414000D03*
G04 #@! TO.P,U5,4,V_{FB}*
G04 #@! TO.N,Net-(U5-V_{FB})*
X152561000Y-114689000D03*
G04 #@! TO.P,U5,5,V_{OUT}*
G04 #@! TO.N,+3V3*
X151611000Y-114689000D03*
G04 #@! TO.P,U5,6,V_{IN}*
G04 #@! TO.N,/V_SOLAR*
X150661000Y-114689000D03*
G04 #@! TD*
D15*
G04 #@! TO.P,R2,1*
G04 #@! TO.N,Net-(J2-Pin_2)*
X154615500Y-118621000D03*
G04 #@! TO.P,R2,2*
G04 #@! TO.N,/V_SOLAR*
X152790500Y-118621000D03*
G04 #@! TD*
D16*
G04 #@! TO.P,R11,1*
G04 #@! TO.N,Net-(U6-Set)*
X157600000Y-121187500D03*
G04 #@! TO.P,R11,2*
G04 #@! TO.N,GND*
X157600000Y-123012500D03*
G04 #@! TD*
D17*
G04 #@! TO.P,L1,1*
G04 #@! TO.N,Net-(U2-RF_IN)*
X154000000Y-90720000D03*
G04 #@! TO.P,L1,2*
G04 #@! TO.N,Net-(C5-Pad1)*
X154000000Y-88970000D03*
G04 #@! TD*
D18*
G04 #@! TO.P,C2,1*
G04 #@! TO.N,GND*
X150214500Y-89535000D03*
G04 #@! TO.P,C2,2*
G04 #@! TO.N,Net-(U2-VDD)*
X148489500Y-89535000D03*
G04 #@! TD*
D16*
G04 #@! TO.P,R8,1*
G04 #@! TO.N,+3V3*
X155403000Y-115057500D03*
G04 #@! TO.P,R8,2*
G04 #@! TO.N,Net-(U5-V_{FB})*
X155403000Y-116882500D03*
G04 #@! TD*
D15*
G04 #@! TO.P,R9,1*
G04 #@! TO.N,Net-(U5-V_{FB})*
X153831000Y-116859000D03*
G04 #@! TO.P,R9,2*
G04 #@! TO.N,GND*
X152006000Y-116859000D03*
G04 #@! TD*
D19*
G04 #@! TO.P,AE1,1,FEED*
G04 #@! TO.N,Net-(AE1-FEED)*
X152600000Y-80300000D03*
D20*
G04 #@! TO.P,AE1,2,PCB_Trace*
G04 #@! TO.N,GND*
X149400000Y-79800000D03*
D19*
X152600000Y-79300000D03*
G04 #@! TD*
D15*
G04 #@! TO.P,R13,1*
G04 #@! TO.N,Net-(U1-VBAT)*
X145094000Y-103929000D03*
G04 #@! TO.P,R13,2*
G04 #@! TO.N,/SUPPLY_GPS_LNA*
X143269000Y-103929000D03*
G04 #@! TD*
D21*
G04 #@! TO.P,U6,1,Vout*
G04 #@! TO.N,+3V3*
X153950000Y-121150000D03*
G04 #@! TO.P,U6,2,Gnd*
G04 #@! TO.N,GND*
X154900000Y-121150000D03*
G04 #@! TO.P,U6,3,Set*
G04 #@! TO.N,Net-(U6-Set)*
X155850000Y-121150000D03*
G04 #@! TO.P,U6,4,Enable*
G04 #@! TO.N,/SUPERCAP_EN*
X155850000Y-123850000D03*
G04 #@! TO.P,U6,5,Vin*
G04 #@! TO.N,/V_SUPERCAP_SENSE*
X153950000Y-123850000D03*
G04 #@! TD*
D22*
G04 #@! TO.P,R12,1*
G04 #@! TO.N,Net-(U7-Set)*
X141999000Y-98745500D03*
G04 #@! TO.P,R12,2*
G04 #@! TO.N,GND*
X141999000Y-96920500D03*
G04 #@! TD*
D23*
G04 #@! TO.P,C13,1*
G04 #@! TO.N,/V_SOLAR*
X148436000Y-115589000D03*
G04 #@! TO.P,C13,2*
G04 #@! TO.N,GND*
X148436000Y-113514000D03*
G04 #@! TD*
D16*
G04 #@! TO.P,R7,1*
G04 #@! TO.N,/V_SOLAR*
X150275000Y-117508500D03*
G04 #@! TO.P,R7,2*
G04 #@! TO.N,/BOOST_EN*
X150275000Y-119333500D03*
G04 #@! TD*
D24*
G04 #@! TO.P,R1,1*
G04 #@! TO.N,Net-(J1-Pin_2)*
X142987500Y-117100000D03*
G04 #@! TO.P,R1,2*
G04 #@! TO.N,/V_SOLAR*
X144812500Y-117100000D03*
G04 #@! TD*
D25*
G04 #@! TO.P,J2,1,Pin_1*
G04 #@! TO.N,GND*
X158500000Y-108621000D03*
G04 #@! TO.P,J2,2,Pin_2*
G04 #@! TO.N,Net-(J2-Pin_2)*
X158500000Y-114621000D03*
G04 #@! TD*
D26*
G04 #@! TO.P,U1,1,GND*
G04 #@! TO.N,GND*
X156400000Y-104850000D03*
G04 #@! TO.P,U1,2,TXD0*
G04 #@! TO.N,/GPS_TX*
X155300000Y-104850000D03*
G04 #@! TO.P,U1,3,RXD0*
G04 #@! TO.N,/GPS_RX*
X154200000Y-104850000D03*
G04 #@! TO.P,U1,4,1_PPS*
G04 #@! TO.N,/1PPS*
X153100000Y-104850000D03*
G04 #@! TO.P,U1,5,ON/OFF*
G04 #@! TO.N,/GPS_ONOFF*
X152000000Y-104850000D03*
G04 #@! TO.P,U1,6,VBAT*
G04 #@! TO.N,Net-(U1-VBAT)*
X150900000Y-104850000D03*
G04 #@! TO.P,U1,7,Reserved*
G04 #@! TO.N,unconnected-(U1-Reserved-Pad7)*
X149800000Y-104850000D03*
G04 #@! TO.P,U1,8,VCC*
G04 #@! TO.N,Net-(U1-VBAT)*
X148700000Y-104850000D03*
G04 #@! TO.P,U1,9,~{RESET}*
G04 #@! TO.N,/~{GPS_RESET}*
X147600000Y-104850000D03*
G04 #@! TO.P,U1,10,GND*
G04 #@! TO.N,GND*
X147600000Y-95150000D03*
G04 #@! TO.P,U1,11,RF_IN*
G04 #@! TO.N,Net-(U1-RF_IN)*
X148700000Y-95150000D03*
G04 #@! TO.P,U1,12,GND*
G04 #@! TO.N,GND*
X149800000Y-95150000D03*
G04 #@! TO.P,U1,13,Reserved*
G04 #@! TO.N,unconnected-(U1-Reserved-Pad13)*
X150900000Y-95150000D03*
G04 #@! TO.P,U1,14,VCC_RF*
G04 #@! TO.N,unconnected-(U1-VCC_RF-Pad14)*
X152000000Y-95150000D03*
G04 #@! TO.P,U1,15,Reserved*
G04 #@! TO.N,unconnected-(U1-Reserved-Pad15)*
X153100000Y-95150000D03*
G04 #@! TO.P,U1,16,SDA*
G04 #@! TO.N,unconnected-(U1-SDA-Pad16)*
X154200000Y-95150000D03*
G04 #@! TO.P,U1,17,SCL*
G04 #@! TO.N,unconnected-(U1-SCL-Pad17)*
X155300000Y-95150000D03*
G04 #@! TO.P,U1,18,Reserved*
G04 #@! TO.N,unconnected-(U1-Reserved-Pad18)*
X156400000Y-95150000D03*
G04 #@! TD*
D27*
G04 #@! TO.P,R10,1*
G04 #@! TO.N,+3V3*
X151384000Y-122100000D03*
G04 #@! TO.P,R10,2*
G04 #@! TO.N,/V_SUPERCAP_SENSE*
X146584000Y-122100000D03*
G04 #@! TD*
D28*
G04 #@! TO.P,C15,1*
G04 #@! TO.N,/V_SUPERCAP_SENSE*
X143650000Y-120172500D03*
G04 #@! TO.P,C15,2*
G04 #@! TO.N,GND*
X143650000Y-123427500D03*
G04 #@! TD*
D23*
G04 #@! TO.P,C14,1*
G04 #@! TO.N,+3V3*
X154403000Y-113158500D03*
G04 #@! TO.P,C14,2*
G04 #@! TO.N,GND*
X154403000Y-111083500D03*
G04 #@! TD*
D29*
G04 #@! TO.P,C5,1*
G04 #@! TO.N,Net-(C5-Pad1)*
X154000000Y-87332500D03*
G04 #@! TO.P,C5,2*
G04 #@! TO.N,Net-(AE1-FEED)*
X154000000Y-85607500D03*
G04 #@! TD*
D16*
G04 #@! TO.P,R14,1*
G04 #@! TO.N,Net-(U2-VDD)*
X145047000Y-96920500D03*
G04 #@! TO.P,R14,2*
G04 #@! TO.N,/SUPPLY_GPS_LNA*
X145047000Y-98745500D03*
G04 #@! TD*
D30*
G04 #@! TO.P,U7,1,Vout*
G04 #@! TO.N,/SUPPLY_GPS_LNA*
X142126000Y-102278000D03*
G04 #@! TO.P,U7,2,Gnd*
G04 #@! TO.N,GND*
X142126000Y-101328000D03*
G04 #@! TO.P,U7,3,Set*
G04 #@! TO.N,Net-(U7-Set)*
X142126000Y-100378000D03*
G04 #@! TO.P,U7,4,Enable*
G04 #@! TO.N,/GPS_SUPPLY_ENABLE*
X144826000Y-100378000D03*
G04 #@! TO.P,U7,5,Vin*
G04 #@! TO.N,+3V3*
X144826000Y-102278000D03*
G04 #@! TD*
D31*
G04 #@! TO.P,U2,1,RF_IN*
G04 #@! TO.N,Net-(U2-RF_IN)*
X151638000Y-91191000D03*
G04 #@! TO.P,U2,2,GND*
G04 #@! TO.N,GND*
X151638000Y-92141000D03*
G04 #@! TO.P,U2,3,GND*
X151638000Y-93091000D03*
G04 #@! TO.P,U2,4,RF_OUT*
G04 #@! TO.N,Net-(U1-RF_IN)*
X148938000Y-93091000D03*
G04 #@! TO.P,U2,5,~{SHDN}*
G04 #@! TO.N,/~{LNA_SHDN}*
X148938000Y-92141000D03*
G04 #@! TO.P,U2,6,VDD*
G04 #@! TO.N,Net-(U2-VDD)*
X148938000Y-91191000D03*
G04 #@! TD*
D18*
G04 #@! TO.P,C1,1*
G04 #@! TO.N,GND*
X151725000Y-107000000D03*
G04 #@! TO.P,C1,2*
G04 #@! TO.N,Net-(U1-VBAT)*
X150000000Y-107000000D03*
G04 #@! TD*
D32*
G04 #@! TO.P,L2,1*
G04 #@! TO.N,/V_SOLAR*
X145576000Y-114846500D03*
G04 #@! TO.P,L2,2*
G04 #@! TO.N,Net-(U5-SW)*
X145576000Y-112521500D03*
G04 #@! TD*
D25*
G04 #@! TO.P,J1,1,Pin_1*
G04 #@! TO.N,GND*
X141500000Y-108621000D03*
G04 #@! TO.P,J1,2,Pin_2*
G04 #@! TO.N,Net-(J1-Pin_2)*
X141500000Y-114621000D03*
G04 #@! TD*
D33*
G04 #@! TO.N,GND*
X154800000Y-84300000D03*
X149746000Y-113454000D03*
X148500000Y-81800000D03*
X144920000Y-110406000D03*
X154826000Y-109898000D03*
X148600000Y-83500000D03*
X148500000Y-81000000D03*
X155100000Y-87100000D03*
X160287000Y-93134000D03*
X151400000Y-83500000D03*
X150300000Y-97000000D03*
X141872000Y-105580000D03*
X152900000Y-85200000D03*
X155588000Y-109390000D03*
X155100000Y-85000000D03*
X144666000Y-94150000D03*
X153800000Y-79800000D03*
X152900000Y-88900000D03*
X150400000Y-83500000D03*
X140716000Y-100500000D03*
X146571000Y-91483000D03*
X140716000Y-103548000D03*
X160287000Y-94912000D03*
X140716000Y-101516000D03*
X139840000Y-97452000D03*
X152900000Y-87400000D03*
X154900000Y-122900000D03*
X144666000Y-125138000D03*
X154800000Y-81800000D03*
X153100000Y-84500000D03*
X140856000Y-95928000D03*
X148500000Y-79400000D03*
X155588000Y-108628000D03*
X161500000Y-111676000D03*
X144158000Y-94658000D03*
X152794000Y-116248000D03*
X154400000Y-80300000D03*
X156350000Y-107866000D03*
X145936000Y-124376000D03*
X145800000Y-109898000D03*
X150762000Y-88435000D03*
X155000000Y-88200000D03*
X148500000Y-80200000D03*
X154064000Y-109898000D03*
X151524000Y-109390000D03*
X161500000Y-109532000D03*
X151400000Y-89900000D03*
X154800000Y-83500000D03*
X152900000Y-89600000D03*
X155100000Y-85700000D03*
X153175000Y-92880000D03*
X155100000Y-90400000D03*
X149873000Y-88435000D03*
X156350000Y-108628000D03*
X152200000Y-89900000D03*
X155100000Y-89700000D03*
X144920000Y-93134000D03*
X153100000Y-83800000D03*
X149500000Y-83500000D03*
X160287000Y-94023000D03*
X146444000Y-125138000D03*
X152900000Y-88200000D03*
X155842000Y-92245000D03*
X141999000Y-95293000D03*
X147700000Y-96900000D03*
X148476000Y-121328000D03*
X161719500Y-118823500D03*
X155100000Y-86400000D03*
X140348000Y-96944000D03*
X148476000Y-122344000D03*
X141872000Y-104310000D03*
X154800000Y-82700000D03*
X153048000Y-109898000D03*
X155100000Y-89000000D03*
X154800000Y-81000000D03*
X161500000Y-108516000D03*
X152900000Y-86000000D03*
X152900000Y-86700000D03*
X152300000Y-83500000D03*
X140716000Y-102532000D03*
X143650000Y-95166000D03*
X153048000Y-96944000D03*
X148500000Y-82600000D03*
X147460000Y-120058000D03*
X147333000Y-93261000D03*
X145682000Y-125138000D03*
X153175000Y-92118000D03*
X142888000Y-105580000D03*
X156500000Y-102000000D03*
X160147000Y-123800000D03*
X160147000Y-125800000D03*
X161500000Y-107500000D03*
X140843000Y-107569000D03*
G04 #@! TO.N,/V_SOLAR*
X147100000Y-113800000D03*
X147500000Y-100800000D03*
G04 #@! TO.N,+3V3*
X146258943Y-103860057D03*
X156012088Y-97413558D03*
X141351000Y-106426000D03*
X144700000Y-107400000D03*
X140100000Y-99200000D03*
X142240000Y-126074002D03*
X161671000Y-116896000D03*
G04 #@! TO.N,/V_SUPERCAP_SENSE*
X146304000Y-118110000D03*
X144793000Y-101262000D03*
G04 #@! TO.N,/BOOST_EN*
X152561000Y-111144000D03*
X149000000Y-118500000D03*
X152794000Y-108700000D03*
X151270000Y-101900000D03*
G04 #@! TO.N,/SUPERCAP_EN*
X149100000Y-96900000D03*
X155000000Y-124000000D03*
G04 #@! TO.N,/~{GPS_RESET}*
X151913265Y-99500000D03*
G04 #@! TO.N,/~{LNA_SHDN}*
X150368000Y-93726000D03*
G04 #@! TO.N,/GPS_RX*
X155650000Y-100601473D03*
G04 #@! TO.N,/GPS_ONOFF*
X152400000Y-102000000D03*
G04 #@! TO.N,/1PPS*
X151757780Y-100658613D03*
G04 #@! TO.N,/GPS_TX*
X156300000Y-100000000D03*
G04 #@! TO.N,/GPS_SUPPLY_ENABLE*
X148339765Y-101808765D03*
G04 #@! TD*
D34*
G04 #@! TO.N,Net-(AE1-FEED)*
X154000000Y-85607500D02*
X154000000Y-81700000D01*
X154000000Y-81700000D02*
G75*
G03*
X152600000Y-80300000I-1400000J0D01*
G01*
D35*
G04 #@! TO.N,GND*
X147600000Y-95150000D02*
X147600000Y-96800000D01*
D36*
X149800000Y-96500000D02*
X150300000Y-97000000D01*
D35*
X151725000Y-107000000D02*
X151725000Y-108500000D01*
X152006000Y-116859000D02*
X152183000Y-116859000D01*
X151725000Y-108575000D02*
X153048000Y-109898000D01*
X154900000Y-122900000D02*
X155395000Y-122405000D01*
X157600000Y-123012500D02*
X156992500Y-122405000D01*
X156992500Y-122405000D02*
X155395000Y-122405000D01*
X155395000Y-122405000D02*
X154900000Y-121910000D01*
X154900000Y-121910000D02*
X154900000Y-121150000D01*
X147600000Y-96800000D02*
X147700000Y-96900000D01*
X152183000Y-116859000D02*
X152794000Y-116248000D01*
X151725000Y-108500000D02*
X151725000Y-108575000D01*
D36*
X149800000Y-95150000D02*
X149800000Y-96500000D01*
D35*
G04 #@! TO.N,/V_SOLAR*
X146053500Y-114846500D02*
X147100000Y-113800000D01*
D36*
X152790500Y-118621000D02*
X151387500Y-118621000D01*
X151387500Y-118621000D02*
X150275000Y-117508500D01*
D35*
X145576000Y-114846500D02*
X146053500Y-114846500D01*
G04 #@! TO.N,+3V3*
X151611000Y-113872000D02*
X151611000Y-114689000D01*
D36*
X156220000Y-97621470D02*
X156220000Y-98100000D01*
X160679000Y-112679000D02*
X159700000Y-111700000D01*
X146258943Y-103860057D02*
X146258943Y-102930944D01*
X145605999Y-102278000D02*
X144826000Y-102278000D01*
X139827000Y-99473000D02*
X140100000Y-99200000D01*
D37*
X156586500Y-111700000D02*
X159700000Y-111700000D01*
D36*
X142240000Y-126074002D02*
X156825998Y-126074002D01*
X160679000Y-112900000D02*
X160679000Y-110800000D01*
X153950000Y-120370001D02*
X154773001Y-119547000D01*
X160600000Y-110800000D02*
X159700000Y-111700000D01*
D37*
X159700000Y-111700000D02*
X160200000Y-111700000D01*
D36*
X139827000Y-104902000D02*
X139827000Y-99473000D01*
X156825998Y-126074002D02*
X157000000Y-125900000D01*
D37*
X155128000Y-113158500D02*
X156586500Y-111700000D01*
D36*
X161671000Y-116896000D02*
X161557000Y-117010000D01*
X146258943Y-102930944D02*
X145605999Y-102278000D01*
X157753000Y-119547000D02*
X158650000Y-118650000D01*
X158500000Y-101000000D02*
X156220000Y-98720000D01*
X158650000Y-124250000D02*
X157000000Y-125900000D01*
X158500000Y-101000000D02*
X158500000Y-104071000D01*
X156220000Y-98720000D02*
X156220000Y-98100000D01*
X156012088Y-97413558D02*
X156220000Y-97621470D01*
X141351000Y-106426000D02*
X139827000Y-104902000D01*
X158650000Y-118650000D02*
X160679000Y-116621000D01*
D35*
X151926000Y-113557000D02*
X151611000Y-113872000D01*
D36*
X161068000Y-117010000D02*
X160679000Y-116621000D01*
X160679000Y-112900000D02*
X160679000Y-112679000D01*
X160679000Y-110800000D02*
X160679000Y-111221000D01*
D37*
X154403000Y-113158500D02*
X155128000Y-113158500D01*
D36*
X161557000Y-117010000D02*
X161068000Y-117010000D01*
X160679000Y-111221000D02*
X160200000Y-111700000D01*
X154773001Y-119547000D02*
X157753000Y-119547000D01*
X153950000Y-121150000D02*
X153950000Y-120370001D01*
X160679000Y-110800000D02*
X160679000Y-106250000D01*
X160679000Y-110800000D02*
X160600000Y-110800000D01*
X160679000Y-116621000D02*
X160679000Y-112900000D01*
X158650000Y-118650000D02*
X158650000Y-124250000D01*
D35*
X153534000Y-113557000D02*
X151926000Y-113557000D01*
D36*
X158500000Y-104071000D02*
X160679000Y-106250000D01*
D34*
G04 #@! TO.N,Net-(C5-Pad1)*
X154000000Y-88970000D02*
X154000000Y-87332500D01*
D36*
G04 #@! TO.N,Net-(J1-Pin_2)*
X142987500Y-116108500D02*
X141500000Y-114621000D01*
X142987500Y-117100000D02*
X142987500Y-116108500D01*
D34*
G04 #@! TO.N,Net-(U2-RF_IN)*
X151638000Y-91191000D02*
X152903000Y-91191000D01*
X153915000Y-90805000D02*
X154000000Y-90720000D01*
X153289000Y-90805000D02*
X153915000Y-90805000D01*
X152903000Y-91191000D02*
X153289000Y-90805000D01*
D36*
G04 #@! TO.N,/V_SUPERCAP_SENSE*
X146584000Y-122100000D02*
X146584000Y-120706000D01*
D35*
X146304000Y-118110000D02*
X145720000Y-118694000D01*
X145720000Y-118694000D02*
X145720000Y-119380000D01*
D36*
X148658999Y-124174999D02*
X146584000Y-122100000D01*
X153950000Y-123850000D02*
X153625001Y-124174999D01*
D35*
X144927500Y-120172500D02*
X143650000Y-120172500D01*
D36*
X146050500Y-120172500D02*
X143650000Y-120172500D01*
D35*
X145720000Y-119380000D02*
X144927500Y-120172500D01*
D36*
X153625001Y-124174999D02*
X148658999Y-124174999D01*
X146584000Y-120706000D02*
X146050500Y-120172500D01*
D35*
G04 #@! TO.N,Net-(U6-Set)*
X155887500Y-121187500D02*
X155850000Y-121150000D01*
X157600000Y-121187500D02*
X155887500Y-121187500D01*
G04 #@! TO.N,/BOOST_EN*
X149733500Y-119333500D02*
X150275000Y-119333500D01*
X149000000Y-118500000D02*
X149000000Y-118600000D01*
X149000000Y-118600000D02*
X149733500Y-119333500D01*
X152561000Y-112414000D02*
X152561000Y-111144000D01*
G04 #@! TO.N,/SUPERCAP_EN*
X155000000Y-124000000D02*
X155700000Y-124000000D01*
X155700000Y-124000000D02*
X155850000Y-123850000D01*
G04 #@! TO.N,/~{GPS_RESET}*
X147600000Y-103813265D02*
X151913265Y-99500000D01*
X147600000Y-104850000D02*
X147600000Y-103813265D01*
G04 #@! TO.N,Net-(U5-V_{FB})*
X153831000Y-115959000D02*
X152561000Y-114689000D01*
X153854500Y-116882500D02*
X153831000Y-116859000D01*
X153831000Y-116859000D02*
X153831000Y-115959000D01*
X155403000Y-116882500D02*
X153854500Y-116882500D01*
G04 #@! TO.N,/~{LNA_SHDN}*
X150368000Y-92791001D02*
X150368000Y-93726000D01*
X149717999Y-92141000D02*
X150368000Y-92791001D01*
X148938000Y-92141000D02*
X149717999Y-92141000D01*
D34*
G04 #@! TO.N,Net-(U1-RF_IN)*
X148700000Y-93329000D02*
X148938000Y-93091000D01*
X148700000Y-95150000D02*
X148700000Y-93329000D01*
D35*
G04 #@! TO.N,/GPS_RX*
X155586027Y-100601473D02*
X154200000Y-101987500D01*
X155650000Y-100601473D02*
X155586027Y-100601473D01*
X154200000Y-101987500D02*
X154200000Y-104850000D01*
G04 #@! TO.N,/GPS_ONOFF*
X152000000Y-102400000D02*
X152000000Y-104850000D01*
X152400000Y-102000000D02*
X152000000Y-102400000D01*
G04 #@! TO.N,/1PPS*
X152258613Y-100658613D02*
X153100000Y-101500000D01*
X153100000Y-101500000D02*
X153100000Y-104850000D01*
X151757780Y-100658613D02*
X152258613Y-100658613D01*
G04 #@! TO.N,/GPS_TX*
X156300000Y-100800000D02*
X155300000Y-101800000D01*
X155300000Y-101800000D02*
X155300000Y-104850000D01*
X156300000Y-100000000D02*
X156300000Y-100800000D01*
D36*
G04 #@! TO.N,Net-(J2-Pin_2)*
X159103000Y-114821000D02*
X159103000Y-116521000D01*
X157003000Y-118621000D02*
X154615500Y-118621000D01*
X159103000Y-116521000D02*
X157003000Y-118621000D01*
D35*
G04 #@! TO.N,Net-(U1-VBAT)*
X145094000Y-105246000D02*
X145094000Y-103929000D01*
X150000000Y-107000000D02*
X146848000Y-107000000D01*
X150900000Y-106100000D02*
X150900000Y-104850000D01*
X148700000Y-105700000D02*
X148700000Y-104850000D01*
X150000000Y-107000000D02*
X148700000Y-105700000D01*
X150000000Y-107000000D02*
X150900000Y-106100000D01*
X146848000Y-107000000D02*
X145094000Y-105246000D01*
D36*
G04 #@! TO.N,Net-(U2-VDD)*
X148463000Y-89561500D02*
X148489500Y-89535000D01*
D35*
X148938000Y-91191000D02*
X148158001Y-91191000D01*
X146317000Y-95650500D02*
X145047000Y-96920500D01*
X148158001Y-91191000D02*
X146317000Y-93032001D01*
D36*
X148938000Y-91191000D02*
X148463000Y-90716000D01*
D35*
X146317000Y-93032001D02*
X146317000Y-95650500D01*
D36*
X148463000Y-90716000D02*
X148463000Y-89561500D01*
D35*
G04 #@! TO.N,Net-(U7-Set)*
X141999000Y-98745500D02*
X141999000Y-100251000D01*
X141999000Y-100251000D02*
X142126000Y-100378000D01*
G04 #@! TO.N,/GPS_SUPPLY_ENABLE*
X146736765Y-101808765D02*
X145306000Y-100378000D01*
X145306000Y-100378000D02*
X144826000Y-100378000D01*
X148339765Y-101808765D02*
X146736765Y-101808765D01*
G04 #@! TO.N,/SUPPLY_GPS_LNA*
X142126000Y-102278000D02*
X143269000Y-103421000D01*
X143745000Y-101438999D02*
X143745000Y-100019010D01*
X143269000Y-103421000D02*
X143269000Y-103929000D01*
X145018510Y-98745500D02*
X145047000Y-98745500D01*
X143745000Y-100019010D02*
X145018510Y-98745500D01*
X142126000Y-102278000D02*
X142905999Y-102278000D01*
X142905999Y-102278000D02*
X143745000Y-101438999D01*
G04 #@! TD*
G04 #@! TA.AperFunction,Conductor*
G04 #@! TO.N,GND*
G36*
X148943039Y-78819685D02*
G01*
X148988794Y-78872489D01*
X149000000Y-78924000D01*
X149000000Y-83000000D01*
X153000000Y-83000000D01*
X153000000Y-80975141D01*
X153003243Y-80964094D01*
X153002058Y-80952641D01*
X153012909Y-80931174D01*
X153019685Y-80908102D01*
X153028385Y-80900562D01*
X153033581Y-80890286D01*
X153054315Y-80878094D01*
X153072489Y-80862347D01*
X153083883Y-80860708D01*
X153093810Y-80854872D01*
X153117841Y-80855825D01*
X153141647Y-80852403D01*
X153153913Y-80857257D01*
X153163625Y-80857643D01*
X153195121Y-80873565D01*
X153248179Y-80910716D01*
X153264737Y-80924610D01*
X153375388Y-81035261D01*
X153389282Y-81051819D01*
X153479039Y-81180006D01*
X153489846Y-81198725D01*
X153555980Y-81340551D01*
X153563373Y-81360861D01*
X153603875Y-81512016D01*
X153607628Y-81533302D01*
X153621741Y-81694605D01*
X153622213Y-81705413D01*
X153622213Y-84805921D01*
X153602528Y-84872960D01*
X153562516Y-84909709D01*
X153563001Y-84910366D01*
X153556893Y-84914873D01*
X153556157Y-84915550D01*
X153555522Y-84915885D01*
X153449289Y-84994288D01*
X153449288Y-84994289D01*
X153370884Y-85100523D01*
X153327274Y-85225150D01*
X153324500Y-85254739D01*
X153324500Y-85960260D01*
X153327274Y-85989849D01*
X153370884Y-86114476D01*
X153449288Y-86220710D01*
X153449289Y-86220711D01*
X153555523Y-86299115D01*
X153555524Y-86299115D01*
X153555525Y-86299116D01*
X153680151Y-86342725D01*
X153680150Y-86342725D01*
X153709740Y-86345500D01*
X153709744Y-86345500D01*
X154290260Y-86345500D01*
X154319849Y-86342725D01*
X154444475Y-86299116D01*
X154550711Y-86220711D01*
X154629116Y-86114475D01*
X154672725Y-85989849D01*
X154675500Y-85960256D01*
X154675500Y-85254744D01*
X154672725Y-85225151D01*
X154629116Y-85100525D01*
X154550711Y-84994289D01*
X154550710Y-84994288D01*
X154444477Y-84915885D01*
X154443843Y-84915550D01*
X154443277Y-84914999D01*
X154436999Y-84910366D01*
X154437633Y-84909506D01*
X154393772Y-84866820D01*
X154377787Y-84805921D01*
X154377787Y-81572851D01*
X154377787Y-81572850D01*
X154341596Y-81321139D01*
X154269952Y-81077140D01*
X154269951Y-81077138D01*
X154269950Y-81077134D01*
X154164318Y-80845832D01*
X154164309Y-80845816D01*
X154026827Y-80631891D01*
X153860296Y-80439703D01*
X153668108Y-80273172D01*
X153454183Y-80135690D01*
X153454172Y-80135684D01*
X153272058Y-80052515D01*
X153219254Y-80006760D01*
X153203312Y-79960903D01*
X153201689Y-79961226D01*
X153188868Y-79896770D01*
X153188867Y-79896769D01*
X153144552Y-79830447D01*
X153078231Y-79786132D01*
X153076544Y-79785434D01*
X153073432Y-79782926D01*
X153068077Y-79779348D01*
X153068397Y-79778868D01*
X153022142Y-79741591D01*
X153000079Y-79675296D01*
X153000000Y-79670874D01*
X153000000Y-78924000D01*
X153019685Y-78856961D01*
X153072489Y-78811206D01*
X153124000Y-78800000D01*
X154285927Y-78800000D01*
X154305697Y-78805805D01*
X154326284Y-78806751D01*
X154349489Y-78818664D01*
X154352966Y-78819685D01*
X154357641Y-78822842D01*
X154415093Y-78863607D01*
X154425948Y-78872264D01*
X154632931Y-79057236D01*
X154642764Y-79067068D01*
X154827731Y-79274046D01*
X154836401Y-79284918D01*
X154997030Y-79511304D01*
X155004428Y-79523078D01*
X155138701Y-79766025D01*
X155144734Y-79778554D01*
X155250959Y-80035006D01*
X155255552Y-80048130D01*
X155332397Y-80314865D01*
X155335491Y-80328422D01*
X155381988Y-80602082D01*
X155383545Y-80615900D01*
X155398954Y-80890286D01*
X155399305Y-80896527D01*
X155399500Y-80903480D01*
X155399500Y-86024558D01*
X155399501Y-86024575D01*
X155432017Y-86271561D01*
X155496498Y-86512207D01*
X155591830Y-86742361D01*
X155591837Y-86742376D01*
X155716400Y-86958126D01*
X155868060Y-87155774D01*
X155868066Y-87155781D01*
X156044218Y-87331933D01*
X156044225Y-87331939D01*
X156241873Y-87483599D01*
X156457623Y-87608162D01*
X156457638Y-87608169D01*
X156556825Y-87649253D01*
X156687793Y-87703502D01*
X156928435Y-87767982D01*
X157175435Y-87800500D01*
X157242417Y-87800500D01*
X157296519Y-87800500D01*
X157303471Y-87800695D01*
X157341470Y-87802828D01*
X157584106Y-87816454D01*
X157597909Y-87818010D01*
X157871584Y-87864509D01*
X157885123Y-87867599D01*
X158151874Y-87944449D01*
X158164993Y-87949040D01*
X158421445Y-88055265D01*
X158433967Y-88061294D01*
X158620623Y-88164456D01*
X158676921Y-88195571D01*
X158688695Y-88202969D01*
X158915081Y-88363598D01*
X158925953Y-88372268D01*
X159041497Y-88475525D01*
X159132931Y-88557235D01*
X159142764Y-88567068D01*
X159327731Y-88774046D01*
X159336401Y-88784918D01*
X159497030Y-89011304D01*
X159504428Y-89023078D01*
X159638701Y-89266025D01*
X159644734Y-89278554D01*
X159750959Y-89535006D01*
X159755552Y-89548130D01*
X159832397Y-89814865D01*
X159835491Y-89828422D01*
X159881988Y-90102082D01*
X159883545Y-90115900D01*
X159899304Y-90396512D01*
X159899499Y-90403495D01*
X159899464Y-90546813D01*
X159932199Y-90838604D01*
X159932200Y-90838608D01*
X159932201Y-90838614D01*
X159934430Y-90848424D01*
X159997265Y-91124948D01*
X159997266Y-91124951D01*
X160093841Y-91402227D01*
X160093846Y-91402240D01*
X160220737Y-91667029D01*
X160220739Y-91667032D01*
X160376362Y-91916030D01*
X160376364Y-91916032D01*
X160376365Y-91916034D01*
X160558771Y-92146119D01*
X160558780Y-92146130D01*
X160749314Y-92337948D01*
X160765705Y-92354449D01*
X160994569Y-92538404D01*
X161242516Y-92695697D01*
X161371036Y-92758312D01*
X161377860Y-92761904D01*
X161564708Y-92867813D01*
X161577580Y-92876205D01*
X161733760Y-92992439D01*
X161746792Y-93002138D01*
X161758538Y-93012069D01*
X161884742Y-93132968D01*
X161910847Y-93157975D01*
X161921274Y-93169285D01*
X162054354Y-93332937D01*
X162063295Y-93345445D01*
X162063299Y-93345450D01*
X162175087Y-93524309D01*
X162182416Y-93537834D01*
X162271199Y-93729162D01*
X162276796Y-93743491D01*
X162341207Y-93944340D01*
X162344987Y-93959250D01*
X162384035Y-94166530D01*
X162385939Y-94181794D01*
X162399261Y-94396153D01*
X162399500Y-94403845D01*
X162399500Y-116739142D01*
X162379815Y-116806181D01*
X162327011Y-116851936D01*
X162257853Y-116861880D01*
X162194297Y-116832855D01*
X162156523Y-116774077D01*
X162155725Y-116771236D01*
X162137392Y-116702814D01*
X162071500Y-116588686D01*
X161978314Y-116495500D01*
X161916153Y-116459611D01*
X161864187Y-116429608D01*
X161788742Y-116409393D01*
X161736892Y-116395500D01*
X161605108Y-116395500D01*
X161477812Y-116429608D01*
X161363686Y-116495500D01*
X161357240Y-116500447D01*
X161356394Y-116499345D01*
X161351454Y-116505946D01*
X161326690Y-116515182D01*
X161303489Y-116527848D01*
X161294465Y-116527201D01*
X161285990Y-116530363D01*
X161260162Y-116524744D01*
X161233798Y-116522856D01*
X161224751Y-116517041D01*
X161217717Y-116515511D01*
X161189463Y-116494360D01*
X161165819Y-116470716D01*
X161132334Y-116409393D01*
X161129500Y-116383035D01*
X161129500Y-106190693D01*
X161129500Y-106190691D01*
X161098799Y-106076114D01*
X161055143Y-106000500D01*
X161047491Y-105987246D01*
X161039491Y-105973389D01*
X161039487Y-105973384D01*
X158986819Y-103920716D01*
X158953334Y-103859393D01*
X158950500Y-103833035D01*
X158950500Y-102174500D01*
X158970185Y-102107461D01*
X159022989Y-102061706D01*
X159074500Y-102050500D01*
X159369750Y-102050500D01*
X159369751Y-102050499D01*
X159384568Y-102047552D01*
X159428229Y-102038868D01*
X159428229Y-102038867D01*
X159428231Y-102038867D01*
X159494552Y-101994552D01*
X159538867Y-101928231D01*
X159538867Y-101928229D01*
X159538868Y-101928229D01*
X159547552Y-101884568D01*
X159550500Y-101869748D01*
X159550500Y-100130252D01*
X159550500Y-100130249D01*
X159550499Y-100130247D01*
X159538868Y-100071770D01*
X159538867Y-100071769D01*
X159494552Y-100005447D01*
X159428230Y-99961132D01*
X159428229Y-99961131D01*
X159369752Y-99949500D01*
X159369748Y-99949500D01*
X158137965Y-99949500D01*
X158070926Y-99929815D01*
X158050284Y-99913181D01*
X156706819Y-98569716D01*
X156692115Y-98542788D01*
X156675523Y-98516970D01*
X156674631Y-98510769D01*
X156673334Y-98508393D01*
X156670500Y-98482035D01*
X156670500Y-98356530D01*
X157449500Y-98356530D01*
X157449500Y-98563469D01*
X157489868Y-98766412D01*
X157489870Y-98766420D01*
X157529249Y-98861490D01*
X157569059Y-98957598D01*
X157595130Y-98996616D01*
X157684024Y-99129657D01*
X157830342Y-99275975D01*
X157830345Y-99275977D01*
X158002402Y-99390941D01*
X158193580Y-99470130D01*
X158341234Y-99499500D01*
X158396530Y-99510499D01*
X158396534Y-99510500D01*
X158396535Y-99510500D01*
X158603466Y-99510500D01*
X158603467Y-99510499D01*
X158806420Y-99470130D01*
X158997598Y-99390941D01*
X159169655Y-99275977D01*
X159315977Y-99129655D01*
X159430941Y-98957598D01*
X159510130Y-98766420D01*
X159550500Y-98563465D01*
X159550500Y-98356535D01*
X159510130Y-98153580D01*
X159430941Y-97962402D01*
X159315977Y-97790345D01*
X159315975Y-97790342D01*
X159169657Y-97644024D01*
X159047139Y-97562161D01*
X158997598Y-97529059D01*
X158888116Y-97483710D01*
X158806420Y-97449870D01*
X158806412Y-97449868D01*
X158603469Y-97409500D01*
X158603465Y-97409500D01*
X158396535Y-97409500D01*
X158396530Y-97409500D01*
X158193587Y-97449868D01*
X158193579Y-97449870D01*
X158002403Y-97529058D01*
X157830342Y-97644024D01*
X157684024Y-97790342D01*
X157569058Y-97962403D01*
X157489870Y-98153579D01*
X157489868Y-98153587D01*
X157449500Y-98356530D01*
X156670500Y-98356530D01*
X156670500Y-97562163D01*
X156670500Y-97562161D01*
X156639799Y-97447584D01*
X156639799Y-97447583D01*
X156580489Y-97344856D01*
X156510201Y-97274568D01*
X156482929Y-97227329D01*
X156481592Y-97227884D01*
X156478479Y-97220370D01*
X156466983Y-97200460D01*
X156412588Y-97106244D01*
X156319402Y-97013058D01*
X156245688Y-96970499D01*
X156205275Y-96947166D01*
X156141627Y-96930112D01*
X156077980Y-96913058D01*
X155946196Y-96913058D01*
X155818900Y-96947166D01*
X155704774Y-97013058D01*
X155704771Y-97013060D01*
X155611590Y-97106241D01*
X155611588Y-97106244D01*
X155545696Y-97220370D01*
X155531174Y-97274568D01*
X155511588Y-97347666D01*
X155511588Y-97479450D01*
X155512730Y-97483711D01*
X155545696Y-97606745D01*
X155578642Y-97663808D01*
X155611588Y-97720872D01*
X155704774Y-97814058D01*
X155704775Y-97814059D01*
X155704777Y-97814060D01*
X155707498Y-97815631D01*
X155709335Y-97817558D01*
X155711225Y-97819008D01*
X155710998Y-97819302D01*
X155755715Y-97866197D01*
X155769500Y-97923019D01*
X155769500Y-98779308D01*
X155791520Y-98861489D01*
X155791520Y-98861490D01*
X155800199Y-98893884D01*
X155800201Y-98893887D01*
X155859511Y-98996614D01*
X155859513Y-98996616D01*
X156183418Y-99320521D01*
X156216903Y-99381844D01*
X156211919Y-99451536D01*
X156170047Y-99507469D01*
X156127832Y-99527976D01*
X156106814Y-99533608D01*
X156106812Y-99533608D01*
X156106812Y-99533609D01*
X155992686Y-99599500D01*
X155992683Y-99599502D01*
X155899502Y-99692683D01*
X155899500Y-99692686D01*
X155833608Y-99806812D01*
X155799500Y-99934108D01*
X155799500Y-99976973D01*
X155779815Y-100044012D01*
X155727011Y-100089767D01*
X155675500Y-100100973D01*
X155584108Y-100100973D01*
X155456812Y-100135081D01*
X155342686Y-100200973D01*
X155342683Y-100200975D01*
X155249502Y-100294156D01*
X155249500Y-100294159D01*
X155183608Y-100408285D01*
X155149500Y-100535581D01*
X155149500Y-100561667D01*
X155129815Y-100628706D01*
X155113181Y-100649348D01*
X153959541Y-101802987D01*
X153959535Y-101802995D01*
X153919982Y-101871504D01*
X153919979Y-101871509D01*
X153899500Y-101947939D01*
X153899500Y-103625500D01*
X153879815Y-103692539D01*
X153827011Y-103738294D01*
X153808327Y-103745076D01*
X153792212Y-103749500D01*
X153780252Y-103749500D01*
X153721769Y-103761133D01*
X153702195Y-103774211D01*
X153682827Y-103779529D01*
X153667160Y-103779252D01*
X153652209Y-103783933D01*
X153632943Y-103778647D01*
X153612968Y-103778294D01*
X153599939Y-103769591D01*
X153584829Y-103765446D01*
X153581113Y-103763058D01*
X153578231Y-103761132D01*
X153578229Y-103761131D01*
X153519752Y-103749500D01*
X153513688Y-103748903D01*
X153513934Y-103746397D01*
X153457461Y-103729815D01*
X153411706Y-103677011D01*
X153400500Y-103625500D01*
X153400500Y-101460439D01*
X153400500Y-101460438D01*
X153380021Y-101384011D01*
X153368293Y-101363697D01*
X153340464Y-101315495D01*
X153340458Y-101315487D01*
X152443125Y-100418154D01*
X152443120Y-100418150D01*
X152433678Y-100412699D01*
X152433677Y-100412699D01*
X152415433Y-100402166D01*
X152374604Y-100378593D01*
X152374603Y-100378592D01*
X152346250Y-100370995D01*
X152298175Y-100358113D01*
X152298173Y-100358113D01*
X152216456Y-100358113D01*
X152194300Y-100351607D01*
X152171297Y-100349597D01*
X152158126Y-100340985D01*
X152149417Y-100338428D01*
X152140590Y-100332196D01*
X152134352Y-100327371D01*
X152065094Y-100258113D01*
X151985106Y-100211931D01*
X151978483Y-100206809D01*
X151962701Y-100185019D01*
X151944133Y-100165545D01*
X151942514Y-100157148D01*
X151937499Y-100150223D01*
X151936002Y-100123356D01*
X151930911Y-100096938D01*
X151934088Y-100089000D01*
X151933613Y-100080461D01*
X151946879Y-100057050D01*
X151956879Y-100032074D01*
X151963844Y-100027113D01*
X151968061Y-100019674D01*
X151991876Y-100007152D01*
X152013793Y-99991546D01*
X152022236Y-99988957D01*
X152106451Y-99966392D01*
X152220579Y-99900500D01*
X152313765Y-99807314D01*
X152379657Y-99693186D01*
X152413765Y-99565892D01*
X152413765Y-99434108D01*
X152379657Y-99306814D01*
X152313765Y-99192686D01*
X152220579Y-99099500D01*
X152131829Y-99048260D01*
X152106452Y-99033608D01*
X152032429Y-99013774D01*
X151979157Y-98999500D01*
X151847373Y-98999500D01*
X151720077Y-99033608D01*
X151605951Y-99099500D01*
X151605948Y-99099502D01*
X151512767Y-99192683D01*
X151512765Y-99192686D01*
X151446873Y-99306812D01*
X151412765Y-99434108D01*
X151412765Y-99524166D01*
X151393080Y-99591205D01*
X151376446Y-99611847D01*
X149051946Y-101936347D01*
X148990623Y-101969832D01*
X148920931Y-101964848D01*
X148864998Y-101922976D01*
X148840581Y-101857512D01*
X148840265Y-101848666D01*
X148840265Y-101742875D01*
X148840265Y-101742873D01*
X148806157Y-101615579D01*
X148803428Y-101610853D01*
X148781429Y-101572749D01*
X148740265Y-101501451D01*
X148647079Y-101408265D01*
X148590015Y-101375319D01*
X148532952Y-101342373D01*
X148469304Y-101325319D01*
X148405657Y-101308265D01*
X148273873Y-101308265D01*
X148146577Y-101342373D01*
X148032451Y-101408265D01*
X148032448Y-101408267D01*
X147968770Y-101471946D01*
X147907447Y-101505431D01*
X147881089Y-101508265D01*
X147732376Y-101508265D01*
X147665337Y-101488580D01*
X147619582Y-101435776D01*
X147609638Y-101366618D01*
X147638663Y-101303062D01*
X147686776Y-101272141D01*
X147685682Y-101269500D01*
X147693183Y-101266392D01*
X147693186Y-101266392D01*
X147807314Y-101200500D01*
X147900500Y-101107314D01*
X147966392Y-100993186D01*
X148000500Y-100865892D01*
X148000500Y-100734108D01*
X147966392Y-100606814D01*
X147900500Y-100492686D01*
X147807314Y-100399500D01*
X147735630Y-100358113D01*
X147693187Y-100333608D01*
X147629539Y-100316554D01*
X147565892Y-100299500D01*
X147434108Y-100299500D01*
X147306812Y-100333608D01*
X147192686Y-100399500D01*
X147192683Y-100399502D01*
X147099502Y-100492683D01*
X147099500Y-100492686D01*
X147033608Y-100606812D01*
X147023239Y-100645511D01*
X146999500Y-100734108D01*
X146999500Y-100865892D01*
X147009577Y-100903499D01*
X147033608Y-100993187D01*
X147066554Y-101050250D01*
X147099500Y-101107314D01*
X147192686Y-101200500D01*
X147294946Y-101259540D01*
X147306814Y-101266392D01*
X147314318Y-101269500D01*
X147313031Y-101272606D01*
X147359374Y-101300851D01*
X147389906Y-101363697D01*
X147381614Y-101433073D01*
X147337131Y-101486953D01*
X147270580Y-101508230D01*
X147267624Y-101508265D01*
X146912598Y-101508265D01*
X146845559Y-101488580D01*
X146824917Y-101471946D01*
X145842818Y-100489847D01*
X145809333Y-100428524D01*
X145806499Y-100402166D01*
X145806499Y-100181049D01*
X145799098Y-100130247D01*
X145796220Y-100110491D01*
X145743012Y-100001653D01*
X145743010Y-100001651D01*
X145743010Y-100001650D01*
X145657348Y-99915988D01*
X145548511Y-99862780D01*
X145530869Y-99860210D01*
X145477949Y-99852500D01*
X145477943Y-99852500D01*
X144635842Y-99852500D01*
X144614596Y-99846261D01*
X144592508Y-99844682D01*
X144581724Y-99836609D01*
X144568803Y-99832815D01*
X144554303Y-99816081D01*
X144536575Y-99802810D01*
X144531867Y-99790189D01*
X144523048Y-99780011D01*
X144519896Y-99758093D01*
X144512158Y-99737346D01*
X144515020Y-99724185D01*
X144513104Y-99710853D01*
X144522303Y-99690709D01*
X144527010Y-99669073D01*
X144540278Y-99651347D01*
X144542129Y-99647297D01*
X144548161Y-99640819D01*
X144719161Y-99469819D01*
X144780484Y-99436334D01*
X144806842Y-99433500D01*
X145337260Y-99433500D01*
X145366849Y-99430725D01*
X145391626Y-99422055D01*
X145491475Y-99387116D01*
X145597711Y-99308711D01*
X145676116Y-99202475D01*
X145719725Y-99077849D01*
X145722500Y-99048256D01*
X145722500Y-98442744D01*
X145719725Y-98413151D01*
X145676116Y-98288525D01*
X145597711Y-98182289D01*
X145558821Y-98153587D01*
X145491476Y-98103884D01*
X145366848Y-98060274D01*
X145366849Y-98060274D01*
X145337260Y-98057500D01*
X145337256Y-98057500D01*
X144756744Y-98057500D01*
X144756740Y-98057500D01*
X144727150Y-98060274D01*
X144602523Y-98103884D01*
X144496289Y-98182288D01*
X144496288Y-98182289D01*
X144417884Y-98288523D01*
X144374274Y-98413150D01*
X144371500Y-98442739D01*
X144371500Y-98916177D01*
X144351815Y-98983216D01*
X144335181Y-99003858D01*
X143504541Y-99834497D01*
X143504535Y-99834505D01*
X143464982Y-99903014D01*
X143464979Y-99903019D01*
X143452525Y-99949500D01*
X143447999Y-99966392D01*
X143444500Y-99979449D01*
X143444500Y-101263165D01*
X143424815Y-101330204D01*
X143408181Y-101350846D01*
X143010340Y-101748686D01*
X142949017Y-101782171D01*
X142879325Y-101777187D01*
X142868199Y-101772406D01*
X142848510Y-101762780D01*
X142838429Y-101761311D01*
X142777949Y-101752500D01*
X142777943Y-101752500D01*
X141474049Y-101752500D01*
X141403493Y-101762779D01*
X141294650Y-101815989D01*
X141208988Y-101901651D01*
X141155780Y-102010488D01*
X141155780Y-102010491D01*
X141145500Y-102081051D01*
X141145500Y-102081053D01*
X141145500Y-102081056D01*
X141145500Y-102474950D01*
X141155779Y-102545506D01*
X141208989Y-102654349D01*
X141294651Y-102740011D01*
X141403488Y-102793219D01*
X141403489Y-102793219D01*
X141403491Y-102793220D01*
X141474051Y-102803500D01*
X142175166Y-102803499D01*
X142242205Y-102823183D01*
X142262847Y-102839818D01*
X142670898Y-103247869D01*
X142704383Y-103309192D01*
X142699399Y-103378884D01*
X142682988Y-103409183D01*
X142627383Y-103484525D01*
X142583774Y-103609150D01*
X142581000Y-103638739D01*
X142581000Y-104219260D01*
X142583774Y-104248849D01*
X142627384Y-104373476D01*
X142705788Y-104479710D01*
X142705789Y-104479711D01*
X142812023Y-104558115D01*
X142812024Y-104558115D01*
X142812025Y-104558116D01*
X142936651Y-104601725D01*
X142936650Y-104601725D01*
X142966240Y-104604500D01*
X142966244Y-104604500D01*
X143571760Y-104604500D01*
X143601349Y-104601725D01*
X143725975Y-104558116D01*
X143832211Y-104479711D01*
X143910616Y-104373475D01*
X143954225Y-104248849D01*
X143957000Y-104219256D01*
X143957000Y-103638744D01*
X143956063Y-103628754D01*
X143954225Y-103609150D01*
X143910615Y-103484523D01*
X143832211Y-103378289D01*
X143832210Y-103378288D01*
X143725976Y-103299884D01*
X143601348Y-103256274D01*
X143601349Y-103256274D01*
X143568870Y-103253229D01*
X143568946Y-103252411D01*
X143506108Y-103230696D01*
X143490307Y-103217336D01*
X143067627Y-102794656D01*
X143057222Y-102775601D01*
X143042887Y-102759296D01*
X143040808Y-102745541D01*
X143034142Y-102733333D01*
X143035690Y-102711675D01*
X143032447Y-102690210D01*
X143038695Y-102669657D01*
X143039126Y-102663641D01*
X143042146Y-102656275D01*
X143043008Y-102654350D01*
X143043012Y-102654347D01*
X143096220Y-102545509D01*
X143098362Y-102530799D01*
X143105418Y-102515052D01*
X143117350Y-102501080D01*
X143125014Y-102484379D01*
X143130902Y-102478068D01*
X143146462Y-102462509D01*
X143635394Y-101973576D01*
X143696717Y-101940091D01*
X143766408Y-101945075D01*
X143822342Y-101986946D01*
X143846759Y-102052411D01*
X143845780Y-102079131D01*
X143845500Y-102081053D01*
X143845500Y-102474950D01*
X143855779Y-102545506D01*
X143908989Y-102654349D01*
X143994651Y-102740011D01*
X144103488Y-102793219D01*
X144103489Y-102793219D01*
X144103491Y-102793220D01*
X144174051Y-102803500D01*
X145443033Y-102803499D01*
X145510072Y-102823184D01*
X145530714Y-102839818D01*
X145772124Y-103081228D01*
X145786827Y-103108155D01*
X145803420Y-103133974D01*
X145804311Y-103140174D01*
X145805609Y-103142551D01*
X145808443Y-103168909D01*
X145808443Y-103244273D01*
X145788758Y-103311312D01*
X145735954Y-103357067D01*
X145666796Y-103367011D01*
X145610810Y-103344044D01*
X145550974Y-103299883D01*
X145426348Y-103256274D01*
X145426349Y-103256274D01*
X145396760Y-103253500D01*
X145396756Y-103253500D01*
X144791244Y-103253500D01*
X144791240Y-103253500D01*
X144761650Y-103256274D01*
X144637023Y-103299884D01*
X144530789Y-103378288D01*
X144530788Y-103378289D01*
X144452384Y-103484523D01*
X144408774Y-103609150D01*
X144406000Y-103638739D01*
X144406000Y-104219260D01*
X144408774Y-104248849D01*
X144452384Y-104373476D01*
X144452385Y-104373477D01*
X144530789Y-104479711D01*
X144637025Y-104558116D01*
X144680379Y-104573286D01*
X144710455Y-104583811D01*
X144767231Y-104624533D01*
X144792978Y-104689486D01*
X144793500Y-104700852D01*
X144793500Y-105285562D01*
X144803739Y-105323775D01*
X144813979Y-105361991D01*
X144813981Y-105361994D01*
X144835631Y-105399493D01*
X144835633Y-105399496D01*
X144835636Y-105399500D01*
X144853540Y-105430511D01*
X146663489Y-107240460D01*
X146732012Y-107280022D01*
X146808438Y-107300500D01*
X146887562Y-107300500D01*
X149170022Y-107300500D01*
X149237061Y-107320185D01*
X149282816Y-107372989D01*
X149287063Y-107383545D01*
X149308383Y-107444475D01*
X149308384Y-107444476D01*
X149386788Y-107550710D01*
X149386789Y-107550711D01*
X149493023Y-107629115D01*
X149493024Y-107629115D01*
X149493025Y-107629116D01*
X149617651Y-107672725D01*
X149617650Y-107672725D01*
X149647240Y-107675500D01*
X149647244Y-107675500D01*
X150352760Y-107675500D01*
X150382349Y-107672725D01*
X150506975Y-107629116D01*
X150613211Y-107550711D01*
X150691616Y-107444475D01*
X150735225Y-107319849D01*
X150738000Y-107290260D01*
X150738000Y-106738332D01*
X150757685Y-106671293D01*
X150774319Y-106650651D01*
X150937151Y-106487819D01*
X151140460Y-106284511D01*
X151170307Y-106232814D01*
X151180021Y-106215989D01*
X151200500Y-106139562D01*
X151200500Y-106061472D01*
X151203207Y-106048731D01*
X151213864Y-106028986D01*
X151220185Y-106007461D01*
X151230137Y-105998836D01*
X151236394Y-105987246D01*
X151256035Y-105976396D01*
X151272989Y-105961706D01*
X151288894Y-105958245D01*
X151297553Y-105953463D01*
X151307754Y-105954142D01*
X151313857Y-105952815D01*
X151313688Y-105951097D01*
X151319742Y-105950500D01*
X151319748Y-105950500D01*
X151334568Y-105947552D01*
X151378229Y-105938868D01*
X151378231Y-105938867D01*
X151381108Y-105936945D01*
X151388335Y-105934681D01*
X151389513Y-105934194D01*
X151389556Y-105934299D01*
X151447785Y-105916066D01*
X151515165Y-105934550D01*
X151518892Y-105936945D01*
X151521768Y-105938867D01*
X151521770Y-105938868D01*
X151580247Y-105950499D01*
X151580250Y-105950500D01*
X151580252Y-105950500D01*
X152419750Y-105950500D01*
X152419751Y-105950499D01*
X152434568Y-105947552D01*
X152478229Y-105938868D01*
X152478231Y-105938867D01*
X152481108Y-105936945D01*
X152488335Y-105934681D01*
X152489513Y-105934194D01*
X152489556Y-105934299D01*
X152547785Y-105916066D01*
X152615165Y-105934550D01*
X152618892Y-105936945D01*
X152621768Y-105938867D01*
X152621770Y-105938868D01*
X152680247Y-105950499D01*
X152680250Y-105950500D01*
X152680252Y-105950500D01*
X153519750Y-105950500D01*
X153519751Y-105950499D01*
X153534568Y-105947552D01*
X153578229Y-105938868D01*
X153578231Y-105938867D01*
X153581108Y-105936945D01*
X153588335Y-105934681D01*
X153589513Y-105934194D01*
X153589556Y-105934299D01*
X153647785Y-105916066D01*
X153715165Y-105934550D01*
X153718892Y-105936945D01*
X153721768Y-105938867D01*
X153721770Y-105938868D01*
X153780247Y-105950499D01*
X153780250Y-105950500D01*
X153780252Y-105950500D01*
X154619750Y-105950500D01*
X154619751Y-105950499D01*
X154634568Y-105947552D01*
X154678229Y-105938868D01*
X154678231Y-105938867D01*
X154681108Y-105936945D01*
X154688335Y-105934681D01*
X154689513Y-105934194D01*
X154689556Y-105934299D01*
X154747785Y-105916066D01*
X154815165Y-105934550D01*
X154818892Y-105936945D01*
X154821768Y-105938867D01*
X154821770Y-105938868D01*
X154880247Y-105950499D01*
X154880250Y-105950500D01*
X154880252Y-105950500D01*
X155719750Y-105950500D01*
X155719751Y-105950499D01*
X155734568Y-105947552D01*
X155778229Y-105938868D01*
X155778229Y-105938867D01*
X155778231Y-105938867D01*
X155844552Y-105894552D01*
X155888867Y-105828231D01*
X155888867Y-105828229D01*
X155888868Y-105828229D01*
X155900499Y-105769752D01*
X155900500Y-105769750D01*
X155900500Y-103930249D01*
X155900499Y-103930247D01*
X155888868Y-103871770D01*
X155888867Y-103871769D01*
X155844552Y-103805447D01*
X155778230Y-103761132D01*
X155778229Y-103761131D01*
X155719752Y-103749500D01*
X155713688Y-103748903D01*
X155713934Y-103746397D01*
X155657461Y-103729815D01*
X155611706Y-103677011D01*
X155600500Y-103625500D01*
X155600500Y-101975833D01*
X155620185Y-101908794D01*
X155636819Y-101888152D01*
X156069785Y-101455186D01*
X156540460Y-100984511D01*
X156580022Y-100915988D01*
X156600500Y-100839562D01*
X156600500Y-100760438D01*
X156600500Y-100458676D01*
X156620185Y-100391637D01*
X156636819Y-100370995D01*
X156666829Y-100340985D01*
X156700500Y-100307314D01*
X156766392Y-100193186D01*
X156772023Y-100172169D01*
X156808384Y-100112511D01*
X156871230Y-100081980D01*
X156940605Y-100090272D01*
X156979478Y-100116581D01*
X157413181Y-100550284D01*
X157446666Y-100611607D01*
X157449500Y-100637965D01*
X157449500Y-101869752D01*
X157461131Y-101928229D01*
X157461132Y-101928230D01*
X157505447Y-101994552D01*
X157571769Y-102038867D01*
X157571770Y-102038868D01*
X157630247Y-102050499D01*
X157630250Y-102050500D01*
X157630252Y-102050500D01*
X157925500Y-102050500D01*
X157992539Y-102070185D01*
X158038294Y-102122989D01*
X158049500Y-102174500D01*
X158049500Y-104130309D01*
X158059431Y-104167371D01*
X158080201Y-104244887D01*
X158139511Y-104347614D01*
X158139513Y-104347616D01*
X160192181Y-106400284D01*
X160225666Y-106461607D01*
X160228500Y-106487965D01*
X160228500Y-110483035D01*
X160208815Y-110550074D01*
X160192181Y-110570716D01*
X159799716Y-110963181D01*
X159738393Y-110996666D01*
X159712035Y-110999500D01*
X156517503Y-110999500D01*
X156409090Y-111021065D01*
X156409089Y-111021065D01*
X156395631Y-111023742D01*
X156382173Y-111026419D01*
X156382171Y-111026420D01*
X156329366Y-111048292D01*
X156329364Y-111048293D01*
X156329363Y-111048292D01*
X156254696Y-111079221D01*
X156254680Y-111079230D01*
X156216957Y-111104437D01*
X156216955Y-111104438D01*
X156139961Y-111155883D01*
X156139953Y-111155889D01*
X155706367Y-111589474D01*
X156002922Y-110330000D01*
X159906000Y-110330000D01*
X159906000Y-107358000D01*
X155334000Y-107358000D01*
X153673444Y-109493000D01*
X146368500Y-109493000D01*
X145939054Y-108634108D01*
X152293500Y-108634108D01*
X152293500Y-108765891D01*
X152327608Y-108893187D01*
X152360554Y-108950250D01*
X152393500Y-109007314D01*
X152486686Y-109100500D01*
X152600814Y-109166392D01*
X152728108Y-109200500D01*
X152728110Y-109200500D01*
X152859890Y-109200500D01*
X152859892Y-109200500D01*
X152987186Y-109166392D01*
X153101314Y-109100500D01*
X153194500Y-109007314D01*
X153260392Y-108893186D01*
X153294500Y-108765892D01*
X153294500Y-108634108D01*
X153260392Y-108506814D01*
X153194500Y-108392686D01*
X153101314Y-108299500D01*
X153044250Y-108266554D01*
X152987187Y-108233608D01*
X152923539Y-108216554D01*
X152859892Y-108199500D01*
X152728108Y-108199500D01*
X152600812Y-108233608D01*
X152486686Y-108299500D01*
X152486683Y-108299502D01*
X152393502Y-108392683D01*
X152393500Y-108392686D01*
X152327608Y-108506812D01*
X152293500Y-108634108D01*
X145939054Y-108634108D01*
X145809000Y-108374000D01*
X140094000Y-108374000D01*
X140094000Y-111268000D01*
X143544000Y-111268000D01*
X143544000Y-111271000D01*
X151037000Y-111271000D01*
X151037000Y-111604469D01*
X151036415Y-111603398D01*
X151034885Y-111594257D01*
X151034851Y-111594263D01*
X151034470Y-111591856D01*
X151029625Y-111561263D01*
X151028852Y-111556713D01*
X150992908Y-111472617D01*
X150956944Y-111423117D01*
X150932703Y-111395372D01*
X150932702Y-111395371D01*
X150854194Y-111348464D01*
X150796004Y-111329557D01*
X150732504Y-111319500D01*
X150732500Y-111319500D01*
X144278000Y-111319500D01*
X144277994Y-111319500D01*
X144245861Y-111322029D01*
X144215222Y-111326881D01*
X144210717Y-111327646D01*
X144210714Y-111327647D01*
X144126617Y-111363592D01*
X144077115Y-111399557D01*
X144049371Y-111423797D01*
X144002464Y-111502305D01*
X143983557Y-111560494D01*
X143983557Y-111560497D01*
X143973500Y-111623995D01*
X143973500Y-113077005D01*
X143976029Y-113109138D01*
X143980881Y-113139777D01*
X143981646Y-113144282D01*
X143981648Y-113144289D01*
X144001957Y-113191804D01*
X144010204Y-113261185D01*
X143979631Y-113324011D01*
X143927099Y-113358191D01*
X143914500Y-113362384D01*
X143914496Y-113362386D01*
X143793462Y-113440171D01*
X143793451Y-113440179D01*
X143740659Y-113485923D01*
X143646433Y-113594664D01*
X143646430Y-113594668D01*
X143586664Y-113725534D01*
X143566976Y-113792582D01*
X143557643Y-113857500D01*
X143548925Y-113918137D01*
X143546500Y-113935001D01*
X143546500Y-115731034D01*
X143540261Y-115752279D01*
X143538682Y-115774368D01*
X143530609Y-115785151D01*
X143526815Y-115798073D01*
X143510081Y-115812572D01*
X143496810Y-115830301D01*
X143484189Y-115835008D01*
X143474011Y-115843828D01*
X143452093Y-115846979D01*
X143431346Y-115854718D01*
X143418185Y-115851855D01*
X143404853Y-115853772D01*
X143384709Y-115844572D01*
X143363073Y-115839866D01*
X143345347Y-115826597D01*
X143341297Y-115824747D01*
X143334819Y-115818715D01*
X143236819Y-115720715D01*
X143203334Y-115659392D01*
X143200500Y-115633034D01*
X143200500Y-113505313D01*
X143200499Y-113505298D01*
X143199506Y-113492683D01*
X143197598Y-113468431D01*
X143185077Y-113425335D01*
X143153469Y-113316540D01*
X143151744Y-113310602D01*
X143068081Y-113169135D01*
X143068079Y-113169133D01*
X143068076Y-113169129D01*
X142951870Y-113052923D01*
X142951862Y-113052917D01*
X142810396Y-112969255D01*
X142810393Y-112969254D01*
X142652573Y-112923402D01*
X142652567Y-112923401D01*
X142615701Y-112920500D01*
X142615694Y-112920500D01*
X140384306Y-112920500D01*
X140384298Y-112920500D01*
X140347432Y-112923401D01*
X140347426Y-112923402D01*
X140189606Y-112969254D01*
X140189603Y-112969255D01*
X140048137Y-113052917D01*
X140048129Y-113052923D01*
X139931923Y-113169129D01*
X139931917Y-113169137D01*
X139848255Y-113310603D01*
X139848254Y-113310606D01*
X139802402Y-113468426D01*
X139802401Y-113468432D01*
X139799500Y-113505298D01*
X139799500Y-115736701D01*
X139802401Y-115773567D01*
X139802402Y-115773573D01*
X139848254Y-115931393D01*
X139848255Y-115931396D01*
X139848256Y-115931398D01*
X139850158Y-115934614D01*
X139931917Y-116072862D01*
X139931923Y-116072870D01*
X140048129Y-116189076D01*
X140048133Y-116189079D01*
X140048135Y-116189081D01*
X140189602Y-116272744D01*
X140231224Y-116284836D01*
X140347426Y-116318597D01*
X140347429Y-116318597D01*
X140347431Y-116318598D01*
X140384306Y-116321500D01*
X142356101Y-116321500D01*
X142423140Y-116341185D01*
X142468895Y-116393989D01*
X142478839Y-116463147D01*
X142449814Y-116526703D01*
X142429735Y-116545270D01*
X142424287Y-116549290D01*
X142345884Y-116655523D01*
X142302274Y-116780150D01*
X142299500Y-116809739D01*
X142299500Y-117390260D01*
X142302274Y-117419849D01*
X142345884Y-117544476D01*
X142424288Y-117650710D01*
X142424289Y-117650711D01*
X142530523Y-117729115D01*
X142530524Y-117729115D01*
X142530525Y-117729116D01*
X142655151Y-117772725D01*
X142655150Y-117772725D01*
X142684740Y-117775500D01*
X142684744Y-117775500D01*
X143290260Y-117775500D01*
X143319849Y-117772725D01*
X143444475Y-117729116D01*
X143488381Y-117696711D01*
X143554006Y-117672741D01*
X143622177Y-117688056D01*
X143666328Y-117729442D01*
X143681170Y-117752537D01*
X143681179Y-117752548D01*
X143726923Y-117805340D01*
X143726926Y-117805343D01*
X143726930Y-117805347D01*
X143835664Y-117899567D01*
X143835667Y-117899568D01*
X143835668Y-117899569D01*
X143942314Y-117948274D01*
X143966541Y-117959338D01*
X144033580Y-117979023D01*
X144033584Y-117979024D01*
X144176000Y-117999500D01*
X144176003Y-117999500D01*
X145679500Y-117999500D01*
X145688185Y-118002050D01*
X145697147Y-118000762D01*
X145721187Y-118011740D01*
X145746539Y-118019185D01*
X145752466Y-118026025D01*
X145760703Y-118029787D01*
X145774992Y-118052021D01*
X145792294Y-118071989D01*
X145794581Y-118082503D01*
X145798477Y-118088565D01*
X145803500Y-118123500D01*
X145803500Y-118134166D01*
X145783815Y-118201205D01*
X145767181Y-118221847D01*
X145535489Y-118453540D01*
X145479541Y-118509487D01*
X145479535Y-118509495D01*
X145439982Y-118578004D01*
X145439979Y-118578009D01*
X145431273Y-118610500D01*
X145421152Y-118648275D01*
X145419500Y-118654439D01*
X145419500Y-119204166D01*
X145399815Y-119271205D01*
X145383181Y-119291847D01*
X145194435Y-119480592D01*
X145133112Y-119514077D01*
X145063420Y-119509093D01*
X145007487Y-119467221D01*
X144998727Y-119453385D01*
X144997793Y-119452120D01*
X144997793Y-119452118D01*
X144917150Y-119342850D01*
X144807882Y-119262207D01*
X144807881Y-119262206D01*
X144679695Y-119217353D01*
X144679698Y-119217353D01*
X144649268Y-119214500D01*
X142650741Y-119214500D01*
X142620301Y-119217354D01*
X142620300Y-119217354D01*
X142492118Y-119262206D01*
X142382850Y-119342850D01*
X142302206Y-119452118D01*
X142257353Y-119580302D01*
X142254500Y-119610731D01*
X142254500Y-120734258D01*
X142257354Y-120764698D01*
X142257354Y-120764699D01*
X142302206Y-120892881D01*
X142302207Y-120892882D01*
X142382850Y-121002150D01*
X142492118Y-121082793D01*
X142620302Y-121127646D01*
X142620301Y-121127646D01*
X142624271Y-121128018D01*
X142650735Y-121130500D01*
X144649264Y-121130499D01*
X144679698Y-121127646D01*
X144807882Y-121082793D01*
X144917150Y-121002150D01*
X144997793Y-120892882D01*
X145042646Y-120764698D01*
X145043077Y-120760098D01*
X145045392Y-120735422D01*
X145071250Y-120670513D01*
X145128095Y-120629889D01*
X145168850Y-120623000D01*
X145625369Y-120623000D01*
X145692408Y-120642685D01*
X145738163Y-120695489D01*
X145748107Y-120764647D01*
X145735000Y-120804939D01*
X145731207Y-120812114D01*
X145686353Y-120940297D01*
X145686353Y-120940299D01*
X145683500Y-120970729D01*
X145683500Y-123229260D01*
X145683501Y-123229266D01*
X145686354Y-123259700D01*
X145686354Y-123259702D01*
X145686355Y-123259703D01*
X145686355Y-123259705D01*
X145731206Y-123387882D01*
X145791280Y-123469280D01*
X144920000Y-122598000D01*
X142380000Y-122598000D01*
X142380000Y-125593358D01*
X142305892Y-125573502D01*
X142174108Y-125573502D01*
X142046812Y-125607610D01*
X141932686Y-125673502D01*
X141932683Y-125673504D01*
X141839502Y-125766685D01*
X141839500Y-125766688D01*
X141773608Y-125880814D01*
X141739500Y-126008110D01*
X141739500Y-126139893D01*
X141773608Y-126267189D01*
X141806554Y-126324252D01*
X141839500Y-126381316D01*
X141932686Y-126474502D01*
X142031521Y-126531565D01*
X142041425Y-126537283D01*
X142046814Y-126540394D01*
X142174108Y-126574502D01*
X142174110Y-126574502D01*
X142305890Y-126574502D01*
X142305892Y-126574502D01*
X142433186Y-126540394D01*
X142433194Y-126540389D01*
X142440696Y-126537283D01*
X142441249Y-126538620D01*
X142493937Y-126524502D01*
X156885306Y-126524502D01*
X156885307Y-126524502D01*
X156975671Y-126500288D01*
X156999885Y-126493801D01*
X157102612Y-126434491D01*
X157360489Y-126176614D01*
X159010489Y-124526614D01*
X159069798Y-124423887D01*
X159069799Y-124423886D01*
X159100500Y-124309309D01*
X159100500Y-118887965D01*
X159120185Y-118820926D01*
X159136819Y-118800284D01*
X160591319Y-117345784D01*
X160652642Y-117312299D01*
X160722334Y-117317283D01*
X160742136Y-117326742D01*
X160755610Y-117334713D01*
X160791386Y-117370489D01*
X160894113Y-117429799D01*
X160918326Y-117436286D01*
X161008691Y-117460500D01*
X161008693Y-117460500D01*
X161616308Y-117460500D01*
X161616309Y-117460500D01*
X161706673Y-117436286D01*
X161730887Y-117429799D01*
X161822803Y-117376729D01*
X161826565Y-117374885D01*
X161830199Y-117374259D01*
X161849078Y-117366439D01*
X161864186Y-117362392D01*
X161978314Y-117296500D01*
X162071500Y-117203314D01*
X162137392Y-117089186D01*
X162155725Y-117020762D01*
X162192090Y-116961103D01*
X162254937Y-116930574D01*
X162324312Y-116938869D01*
X162378190Y-116983354D01*
X162399465Y-117049906D01*
X162399500Y-117052857D01*
X162399500Y-123922654D01*
X162379815Y-123989693D01*
X162327011Y-124035448D01*
X162257853Y-124045392D01*
X162194297Y-124016367D01*
X162156523Y-123957589D01*
X162153883Y-123946846D01*
X162153867Y-123946770D01*
X162153867Y-123946769D01*
X162109552Y-123880447D01*
X162043230Y-123836132D01*
X162043229Y-123836131D01*
X161984752Y-123824500D01*
X161984748Y-123824500D01*
X160595252Y-123824500D01*
X160595247Y-123824500D01*
X160536770Y-123836131D01*
X160536769Y-123836132D01*
X160470447Y-123880447D01*
X160426132Y-123946769D01*
X160426131Y-123946770D01*
X160414500Y-124005247D01*
X160414500Y-125394752D01*
X160426131Y-125453229D01*
X160426132Y-125453230D01*
X160470447Y-125519552D01*
X160536769Y-125563867D01*
X160536770Y-125563868D01*
X160595247Y-125575499D01*
X160595250Y-125575500D01*
X160595252Y-125575500D01*
X161984750Y-125575500D01*
X161984751Y-125575499D01*
X161999568Y-125572552D01*
X162043229Y-125563868D01*
X162043229Y-125563867D01*
X162043231Y-125563867D01*
X162109552Y-125519552D01*
X162153867Y-125453231D01*
X162153882Y-125453154D01*
X162153963Y-125453000D01*
X162158542Y-125441946D01*
X162159530Y-125442355D01*
X162186267Y-125391243D01*
X162246983Y-125356669D01*
X162316752Y-125360408D01*
X162373424Y-125401274D01*
X162399006Y-125466292D01*
X162399500Y-125477345D01*
X162399500Y-125895572D01*
X162399184Y-125904419D01*
X162383851Y-126118788D01*
X162381333Y-126136299D01*
X162336595Y-126341960D01*
X162331611Y-126358936D01*
X162258053Y-126556150D01*
X162250703Y-126572242D01*
X162149836Y-126756968D01*
X162140271Y-126771853D01*
X162014133Y-126940353D01*
X162002547Y-126953723D01*
X161853723Y-127102547D01*
X161840353Y-127114133D01*
X161671853Y-127240271D01*
X161656968Y-127249836D01*
X161472242Y-127350703D01*
X161456150Y-127358053D01*
X161258936Y-127431611D01*
X161241960Y-127436595D01*
X161036299Y-127481333D01*
X161018788Y-127483851D01*
X160823369Y-127497828D01*
X160804417Y-127499184D01*
X160795572Y-127499500D01*
X140804427Y-127499500D01*
X140795581Y-127499184D01*
X140771229Y-127497442D01*
X140581210Y-127483851D01*
X140563699Y-127481333D01*
X140358038Y-127436595D01*
X140341062Y-127431611D01*
X140143850Y-127358054D01*
X140127757Y-127350704D01*
X139943030Y-127249836D01*
X139943023Y-127249832D01*
X139928147Y-127240271D01*
X139759653Y-127114139D01*
X139746282Y-127102553D01*
X139597449Y-126953720D01*
X139585866Y-126940353D01*
X139459724Y-126771848D01*
X139450163Y-126756969D01*
X139349296Y-126572243D01*
X139341946Y-126556151D01*
X139336069Y-126540394D01*
X139268385Y-126358929D01*
X139263406Y-126341970D01*
X139218665Y-126136297D01*
X139216148Y-126118788D01*
X139200816Y-125904420D01*
X139200500Y-125895574D01*
X139200500Y-107334108D01*
X144199500Y-107334108D01*
X144199500Y-107465891D01*
X144233608Y-107593187D01*
X144254352Y-107629116D01*
X144299500Y-107707314D01*
X144392686Y-107800500D01*
X144506814Y-107866392D01*
X144634108Y-107900500D01*
X144634110Y-107900500D01*
X144765890Y-107900500D01*
X144765892Y-107900500D01*
X144893186Y-107866392D01*
X145007314Y-107800500D01*
X145100500Y-107707314D01*
X145166392Y-107593186D01*
X145200500Y-107465892D01*
X145200500Y-107334108D01*
X145166392Y-107206814D01*
X145100500Y-107092686D01*
X145007314Y-106999500D01*
X144950250Y-106966554D01*
X144893187Y-106933608D01*
X144829539Y-106916554D01*
X144765892Y-106899500D01*
X144634108Y-106899500D01*
X144506812Y-106933608D01*
X144392686Y-106999500D01*
X144392683Y-106999502D01*
X144299502Y-107092683D01*
X144299500Y-107092686D01*
X144233608Y-107206812D01*
X144199500Y-107334108D01*
X139200500Y-107334108D01*
X139200500Y-105180644D01*
X139220185Y-105113605D01*
X139272989Y-105067850D01*
X139342147Y-105057906D01*
X139405703Y-105086931D01*
X139431886Y-105118643D01*
X139466511Y-105178614D01*
X139466513Y-105178616D01*
X140852887Y-106564990D01*
X140880163Y-106612233D01*
X140881499Y-106611680D01*
X140884607Y-106619185D01*
X140902774Y-106650651D01*
X140950500Y-106733314D01*
X141043686Y-106826500D01*
X141157814Y-106892392D01*
X141285108Y-106926500D01*
X141285110Y-106926500D01*
X141416890Y-106926500D01*
X141416892Y-106926500D01*
X141544186Y-106892392D01*
X141658314Y-106826500D01*
X141751500Y-106733314D01*
X141817392Y-106619186D01*
X141851500Y-106491892D01*
X141851500Y-106360108D01*
X141817392Y-106232814D01*
X141751500Y-106118686D01*
X141658314Y-106025500D01*
X141571762Y-105975529D01*
X141544185Y-105959607D01*
X141536680Y-105956499D01*
X141537233Y-105955163D01*
X141489990Y-105927887D01*
X140313819Y-104751716D01*
X140280334Y-104690393D01*
X140277500Y-104664035D01*
X140277500Y-100181051D01*
X141145500Y-100181051D01*
X141145500Y-100181055D01*
X141145500Y-100181056D01*
X141145500Y-100574950D01*
X141155779Y-100645506D01*
X141208989Y-100754349D01*
X141294651Y-100840011D01*
X141403488Y-100893219D01*
X141403489Y-100893219D01*
X141403491Y-100893220D01*
X141474051Y-100903500D01*
X142777948Y-100903499D01*
X142777950Y-100903499D01*
X142806172Y-100899387D01*
X142848509Y-100893220D01*
X142957347Y-100840012D01*
X143043012Y-100754347D01*
X143096220Y-100645509D01*
X143106500Y-100574949D01*
X143106499Y-100181052D01*
X143103157Y-100158113D01*
X143099098Y-100130247D01*
X143096220Y-100110491D01*
X143043012Y-100001653D01*
X143043010Y-100001651D01*
X143043010Y-100001650D01*
X142957348Y-99915988D01*
X142848511Y-99862780D01*
X142830869Y-99860210D01*
X142777949Y-99852500D01*
X142777943Y-99852500D01*
X142423500Y-99852500D01*
X142414814Y-99849949D01*
X142405853Y-99851238D01*
X142381812Y-99840259D01*
X142356461Y-99832815D01*
X142350533Y-99825974D01*
X142342297Y-99822213D01*
X142328007Y-99799978D01*
X142310706Y-99780011D01*
X142308418Y-99769496D01*
X142304523Y-99763435D01*
X142299500Y-99728500D01*
X142299500Y-99525477D01*
X142319185Y-99458438D01*
X142371989Y-99412683D01*
X142382522Y-99408444D01*
X142443475Y-99387116D01*
X142549711Y-99308711D01*
X142628116Y-99202475D01*
X142671725Y-99077849D01*
X142674500Y-99048256D01*
X142674500Y-98442744D01*
X142671725Y-98413151D01*
X142628116Y-98288525D01*
X142549711Y-98182289D01*
X142510821Y-98153587D01*
X142443476Y-98103884D01*
X142318848Y-98060274D01*
X142318849Y-98060274D01*
X142289260Y-98057500D01*
X142289256Y-98057500D01*
X141708744Y-98057500D01*
X141708740Y-98057500D01*
X141679150Y-98060274D01*
X141554523Y-98103884D01*
X141448289Y-98182288D01*
X141448288Y-98182289D01*
X141369884Y-98288523D01*
X141326274Y-98413150D01*
X141323500Y-98442739D01*
X141323500Y-99048260D01*
X141326274Y-99077849D01*
X141369884Y-99202476D01*
X141448288Y-99308710D01*
X141448289Y-99308711D01*
X141547381Y-99381844D01*
X141554525Y-99387116D01*
X141615457Y-99408437D01*
X141634443Y-99422055D01*
X141655703Y-99431764D01*
X141662306Y-99442039D01*
X141672230Y-99449157D01*
X141680841Y-99470880D01*
X141693477Y-99490542D01*
X141696232Y-99509705D01*
X141697978Y-99514109D01*
X141698500Y-99525477D01*
X141698500Y-99728500D01*
X141678815Y-99795539D01*
X141626011Y-99841294D01*
X141574501Y-99852500D01*
X141474049Y-99852500D01*
X141403493Y-99862779D01*
X141294650Y-99915989D01*
X141208988Y-100001651D01*
X141155780Y-100110488D01*
X141153255Y-100127821D01*
X141145500Y-100181051D01*
X140277500Y-100181051D01*
X140277500Y-99747039D01*
X140297185Y-99680000D01*
X140339498Y-99639653D01*
X140407314Y-99600500D01*
X140500500Y-99507314D01*
X140566392Y-99393186D01*
X140600500Y-99265892D01*
X140600500Y-99134108D01*
X140566392Y-99006814D01*
X140500500Y-98892686D01*
X140407314Y-98799500D01*
X140350004Y-98766412D01*
X140293187Y-98733608D01*
X140229539Y-98716554D01*
X140165892Y-98699500D01*
X140034108Y-98699500D01*
X139906812Y-98733608D01*
X139792686Y-98799500D01*
X139792683Y-98799502D01*
X139699502Y-98892683D01*
X139699498Y-98892689D01*
X139633606Y-99006816D01*
X139630495Y-99014328D01*
X139629158Y-99013774D01*
X139601888Y-99061008D01*
X139466510Y-99196387D01*
X139466509Y-99196389D01*
X139431887Y-99256356D01*
X139381320Y-99304572D01*
X139312713Y-99317794D01*
X139247848Y-99291826D01*
X139207320Y-99234912D01*
X139200500Y-99194356D01*
X139200500Y-96617739D01*
X144371500Y-96617739D01*
X144371500Y-97223260D01*
X144374274Y-97252849D01*
X144417884Y-97377476D01*
X144496288Y-97483710D01*
X144496289Y-97483711D01*
X144602523Y-97562115D01*
X144602524Y-97562115D01*
X144602525Y-97562116D01*
X144727151Y-97605725D01*
X144727150Y-97605725D01*
X144756740Y-97608500D01*
X144756744Y-97608500D01*
X145337260Y-97608500D01*
X145366849Y-97605725D01*
X145491475Y-97562116D01*
X145597711Y-97483711D01*
X145676116Y-97377475D01*
X145719725Y-97252849D01*
X145722500Y-97223256D01*
X145722500Y-96721333D01*
X145742185Y-96654294D01*
X145758819Y-96633652D01*
X146157921Y-96234550D01*
X146557460Y-95835011D01*
X146568127Y-95816535D01*
X146597021Y-95766489D01*
X146617500Y-95690062D01*
X146617500Y-93207833D01*
X146637185Y-93140794D01*
X146653814Y-93120157D01*
X147745821Y-92028149D01*
X147807142Y-91994666D01*
X147876834Y-91999650D01*
X147932767Y-92041522D01*
X147957184Y-92106986D01*
X147957500Y-92115831D01*
X147957500Y-92337950D01*
X147967779Y-92408506D01*
X148020989Y-92517349D01*
X148031959Y-92528319D01*
X148065444Y-92589642D01*
X148060460Y-92659334D01*
X148031959Y-92703681D01*
X148020988Y-92714651D01*
X147967780Y-92823488D01*
X147967780Y-92823491D01*
X147957500Y-92894051D01*
X147957500Y-92894055D01*
X147957500Y-92894056D01*
X147957500Y-93287950D01*
X147967779Y-93358506D01*
X147967779Y-93358507D01*
X147967780Y-93358509D01*
X147986971Y-93397764D01*
X148020989Y-93467349D01*
X148106651Y-93553011D01*
X148106652Y-93553011D01*
X148106653Y-93553012D01*
X148215491Y-93606220D01*
X148216085Y-93606306D01*
X148216735Y-93606604D01*
X148224691Y-93609063D01*
X148224368Y-93610107D01*
X148247733Y-93620829D01*
X148279416Y-93635298D01*
X148279479Y-93635396D01*
X148279585Y-93635445D01*
X148298338Y-93664741D01*
X148317190Y-93694076D01*
X148317211Y-93694226D01*
X148317253Y-93694291D01*
X148322213Y-93729011D01*
X148322213Y-93939388D01*
X148302528Y-94006427D01*
X148249724Y-94052182D01*
X148222413Y-94061004D01*
X148221771Y-94061131D01*
X148221769Y-94061132D01*
X148155447Y-94105447D01*
X148111132Y-94171769D01*
X148111131Y-94171770D01*
X148099500Y-94230247D01*
X148099500Y-96069752D01*
X148111131Y-96128229D01*
X148111132Y-96128230D01*
X148155447Y-96194552D01*
X148221769Y-96238867D01*
X148221770Y-96238868D01*
X148280247Y-96250499D01*
X148280250Y-96250500D01*
X148761192Y-96250500D01*
X148828231Y-96270185D01*
X148873986Y-96322989D01*
X148883930Y-96392147D01*
X148854905Y-96455703D01*
X148823193Y-96481887D01*
X148792686Y-96499500D01*
X148792683Y-96499502D01*
X148699502Y-96592683D01*
X148699500Y-96592686D01*
X148633608Y-96706812D01*
X148599500Y-96834108D01*
X148599500Y-96965892D01*
X148600735Y-96970500D01*
X148633608Y-97093187D01*
X148666554Y-97150250D01*
X148699500Y-97207314D01*
X148792686Y-97300500D01*
X148906814Y-97366392D01*
X149034108Y-97400500D01*
X149034110Y-97400500D01*
X149165890Y-97400500D01*
X149165892Y-97400500D01*
X149293186Y-97366392D01*
X149407314Y-97300500D01*
X149500500Y-97207314D01*
X149566392Y-97093186D01*
X149600500Y-96965892D01*
X149600500Y-96834108D01*
X149566392Y-96706814D01*
X149500500Y-96592686D01*
X149407314Y-96499500D01*
X149331456Y-96455703D01*
X149293185Y-96433607D01*
X149267452Y-96426712D01*
X149207792Y-96390346D01*
X149177264Y-96327498D01*
X149185561Y-96258123D01*
X149230047Y-96204246D01*
X149230428Y-96203989D01*
X149244552Y-96194552D01*
X149288867Y-96128231D01*
X149288867Y-96128229D01*
X149288868Y-96128229D01*
X149300499Y-96069752D01*
X149300500Y-96069750D01*
X149300500Y-94230249D01*
X149300499Y-94230247D01*
X149288868Y-94171770D01*
X149288867Y-94171769D01*
X149244552Y-94105447D01*
X149178230Y-94061132D01*
X149178228Y-94061131D01*
X149177587Y-94061004D01*
X149176319Y-94060340D01*
X149166946Y-94056458D01*
X149167293Y-94055618D01*
X149149458Y-94046287D01*
X149120584Y-94033101D01*
X149118724Y-94030208D01*
X149115678Y-94028614D01*
X149099973Y-94001030D01*
X149082810Y-93974323D01*
X149082148Y-93969721D01*
X149081109Y-93967896D01*
X149077787Y-93939388D01*
X149077787Y-93740499D01*
X149097472Y-93673460D01*
X149150276Y-93627705D01*
X149201787Y-93616499D01*
X149589950Y-93616499D01*
X149633826Y-93610107D01*
X149660509Y-93606220D01*
X149689040Y-93592271D01*
X149757912Y-93580512D01*
X149822209Y-93607855D01*
X149861517Y-93665619D01*
X149867500Y-93703672D01*
X149867500Y-93791891D01*
X149901608Y-93919187D01*
X149924739Y-93959250D01*
X149967500Y-94033314D01*
X150060686Y-94126500D01*
X150174814Y-94192392D01*
X150207592Y-94201174D01*
X150267252Y-94237537D01*
X150297783Y-94300384D01*
X150299500Y-94320949D01*
X150299500Y-96069752D01*
X150311131Y-96128229D01*
X150311132Y-96128230D01*
X150355447Y-96194552D01*
X150421769Y-96238867D01*
X150421770Y-96238868D01*
X150480247Y-96250499D01*
X150480250Y-96250500D01*
X150480252Y-96250500D01*
X151319750Y-96250500D01*
X151319751Y-96250499D01*
X151334568Y-96247552D01*
X151378229Y-96238868D01*
X151378231Y-96238867D01*
X151381108Y-96236945D01*
X151388335Y-96234681D01*
X151389513Y-96234194D01*
X151389556Y-96234299D01*
X151447785Y-96216066D01*
X151515165Y-96234550D01*
X151518892Y-96236945D01*
X151521768Y-96238867D01*
X151521770Y-96238868D01*
X151580247Y-96250499D01*
X151580250Y-96250500D01*
X151580252Y-96250500D01*
X152419750Y-96250500D01*
X152419751Y-96250499D01*
X152434568Y-96247552D01*
X152478229Y-96238868D01*
X152478231Y-96238867D01*
X152481108Y-96236945D01*
X152488335Y-96234681D01*
X152489513Y-96234194D01*
X152489556Y-96234299D01*
X152547785Y-96216066D01*
X152615165Y-96234550D01*
X152618892Y-96236945D01*
X152621768Y-96238867D01*
X152621770Y-96238868D01*
X152680247Y-96250499D01*
X152680250Y-96250500D01*
X152680252Y-96250500D01*
X153519750Y-96250500D01*
X153519751Y-96250499D01*
X153534568Y-96247552D01*
X153578229Y-96238868D01*
X153578231Y-96238867D01*
X153581108Y-96236945D01*
X153588335Y-96234681D01*
X153589513Y-96234194D01*
X153589556Y-96234299D01*
X153647785Y-96216066D01*
X153715165Y-96234550D01*
X153718892Y-96236945D01*
X153721768Y-96238867D01*
X153721770Y-96238868D01*
X153780247Y-96250499D01*
X153780250Y-96250500D01*
X153780252Y-96250500D01*
X154619750Y-96250500D01*
X154619751Y-96250499D01*
X154634568Y-96247552D01*
X154678229Y-96238868D01*
X154678231Y-96238867D01*
X154681108Y-96236945D01*
X154688335Y-96234681D01*
X154689513Y-96234194D01*
X154689556Y-96234299D01*
X154747785Y-96216066D01*
X154815165Y-96234550D01*
X154818892Y-96236945D01*
X154821768Y-96238867D01*
X154821770Y-96238868D01*
X154880247Y-96250499D01*
X154880250Y-96250500D01*
X154880252Y-96250500D01*
X155719750Y-96250500D01*
X155719751Y-96250499D01*
X155734568Y-96247552D01*
X155778229Y-96238868D01*
X155778231Y-96238867D01*
X155781108Y-96236945D01*
X155788335Y-96234681D01*
X155789513Y-96234194D01*
X155789556Y-96234299D01*
X155847785Y-96216066D01*
X155915165Y-96234550D01*
X155918892Y-96236945D01*
X155921768Y-96238867D01*
X155921770Y-96238868D01*
X155980247Y-96250499D01*
X155980250Y-96250500D01*
X155980252Y-96250500D01*
X156819750Y-96250500D01*
X156819751Y-96250499D01*
X156834568Y-96247552D01*
X156878229Y-96238868D01*
X156878229Y-96238867D01*
X156878231Y-96238867D01*
X156944552Y-96194552D01*
X156988867Y-96128231D01*
X156988867Y-96128229D01*
X156988868Y-96128229D01*
X157000499Y-96069752D01*
X157000500Y-96069750D01*
X157000500Y-95816530D01*
X157449500Y-95816530D01*
X157449500Y-96023469D01*
X157489868Y-96226412D01*
X157489870Y-96226420D01*
X157561562Y-96399500D01*
X157569059Y-96417598D01*
X157594520Y-96455703D01*
X157684024Y-96589657D01*
X157830342Y-96735975D01*
X157830345Y-96735977D01*
X158002402Y-96850941D01*
X158193580Y-96930130D01*
X158373359Y-96965890D01*
X158396530Y-96970499D01*
X158396534Y-96970500D01*
X158396535Y-96970500D01*
X158603466Y-96970500D01*
X158603467Y-96970499D01*
X158806420Y-96930130D01*
X158997598Y-96850941D01*
X159169655Y-96735977D01*
X159315977Y-96589655D01*
X159430941Y-96417598D01*
X159510130Y-96226420D01*
X159550500Y-96023465D01*
X159550500Y-95816535D01*
X159510130Y-95613580D01*
X159430941Y-95422402D01*
X159315977Y-95250345D01*
X159315975Y-95250342D01*
X159169657Y-95104024D01*
X159083626Y-95046541D01*
X158997598Y-94989059D01*
X158806420Y-94909870D01*
X158806412Y-94909868D01*
X158603469Y-94869500D01*
X158603465Y-94869500D01*
X158396535Y-94869500D01*
X158396530Y-94869500D01*
X158193587Y-94909868D01*
X158193579Y-94909870D01*
X158002403Y-94989058D01*
X157830342Y-95104024D01*
X157684024Y-95250342D01*
X157569058Y-95422403D01*
X157489870Y-95613579D01*
X157489868Y-95613587D01*
X157449500Y-95816530D01*
X157000500Y-95816530D01*
X157000500Y-94230249D01*
X157000499Y-94230247D01*
X156988868Y-94171770D01*
X156988867Y-94171769D01*
X156944552Y-94105447D01*
X156878230Y-94061132D01*
X156878229Y-94061131D01*
X156819752Y-94049500D01*
X156819748Y-94049500D01*
X155980252Y-94049500D01*
X155980247Y-94049500D01*
X155921770Y-94061131D01*
X155921768Y-94061132D01*
X155918887Y-94063058D01*
X155911655Y-94065322D01*
X155910487Y-94065806D01*
X155910443Y-94065701D01*
X155852209Y-94083933D01*
X155784829Y-94065446D01*
X155781113Y-94063058D01*
X155778231Y-94061132D01*
X155778229Y-94061131D01*
X155719752Y-94049500D01*
X155719748Y-94049500D01*
X154880252Y-94049500D01*
X154880247Y-94049500D01*
X154821770Y-94061131D01*
X154821768Y-94061132D01*
X154818887Y-94063058D01*
X154811655Y-94065322D01*
X154810487Y-94065806D01*
X154810443Y-94065701D01*
X154752209Y-94083933D01*
X154684829Y-94065446D01*
X154681113Y-94063058D01*
X154678231Y-94061132D01*
X154678229Y-94061131D01*
X154619752Y-94049500D01*
X154619748Y-94049500D01*
X153780252Y-94049500D01*
X153780247Y-94049500D01*
X153721770Y-94061131D01*
X153721768Y-94061132D01*
X153718887Y-94063058D01*
X153711655Y-94065322D01*
X153710487Y-94065806D01*
X153710443Y-94065701D01*
X153652209Y-94083933D01*
X153584829Y-94065446D01*
X153581113Y-94063058D01*
X153578231Y-94061132D01*
X153578229Y-94061131D01*
X153519752Y-94049500D01*
X153519748Y-94049500D01*
X152680252Y-94049500D01*
X152680247Y-94049500D01*
X152621770Y-94061131D01*
X152621768Y-94061132D01*
X152618887Y-94063058D01*
X152611655Y-94065322D01*
X152610487Y-94065806D01*
X152610443Y-94065701D01*
X152552209Y-94083933D01*
X152484829Y-94065446D01*
X152481113Y-94063058D01*
X152478231Y-94061132D01*
X152478229Y-94061131D01*
X152419752Y-94049500D01*
X152419748Y-94049500D01*
X151580252Y-94049500D01*
X151580247Y-94049500D01*
X151521770Y-94061131D01*
X151521768Y-94061132D01*
X151518887Y-94063058D01*
X151511655Y-94065322D01*
X151510487Y-94065806D01*
X151510443Y-94065701D01*
X151452209Y-94083933D01*
X151384829Y-94065446D01*
X151381113Y-94063058D01*
X151378231Y-94061132D01*
X151378229Y-94061131D01*
X151319752Y-94049500D01*
X151319748Y-94049500D01*
X150961074Y-94049500D01*
X150894035Y-94029815D01*
X150848280Y-93977011D01*
X150838336Y-93907853D01*
X150841299Y-93893407D01*
X150868500Y-93791892D01*
X150868500Y-93660108D01*
X150834392Y-93532814D01*
X150768500Y-93418686D01*
X150704818Y-93355004D01*
X150671334Y-93293680D01*
X150668500Y-93267323D01*
X150668500Y-92751440D01*
X150655703Y-92703681D01*
X150648021Y-92675012D01*
X150648017Y-92675005D01*
X150608464Y-92606496D01*
X150608458Y-92606488D01*
X149942899Y-91940929D01*
X149920924Y-91911141D01*
X149910953Y-91892254D01*
X149908220Y-91873491D01*
X149855012Y-91764653D01*
X149830805Y-91740446D01*
X149822066Y-91723893D01*
X149818690Y-91707255D01*
X149810556Y-91692358D01*
X149811888Y-91673726D01*
X149808174Y-91655418D01*
X149814329Y-91639597D01*
X149815540Y-91622666D01*
X149829164Y-91601465D01*
X149833508Y-91590303D01*
X149838821Y-91586440D01*
X149844041Y-91578319D01*
X149855011Y-91567348D01*
X149855012Y-91567347D01*
X149908220Y-91458509D01*
X149918500Y-91387949D01*
X149918499Y-90994052D01*
X149918499Y-90994051D01*
X150657500Y-90994051D01*
X150657500Y-90994055D01*
X150657500Y-90994056D01*
X150657500Y-91387950D01*
X150667779Y-91458506D01*
X150667779Y-91458507D01*
X150667780Y-91458509D01*
X150714419Y-91553909D01*
X150720989Y-91567349D01*
X150806651Y-91653011D01*
X150915488Y-91706219D01*
X150915489Y-91706219D01*
X150915491Y-91706220D01*
X150986051Y-91716500D01*
X152289948Y-91716499D01*
X152289950Y-91716499D01*
X152318172Y-91712387D01*
X152360509Y-91706220D01*
X152469347Y-91653012D01*
X152517252Y-91605107D01*
X152578575Y-91571621D01*
X152604934Y-91568787D01*
X152952735Y-91568787D01*
X152952736Y-91568787D01*
X152952737Y-91568787D01*
X153017295Y-91551489D01*
X153048821Y-91543042D01*
X153091893Y-91518173D01*
X153134967Y-91493305D01*
X153205305Y-91422967D01*
X153205305Y-91422965D01*
X153215508Y-91412763D01*
X153215512Y-91412757D01*
X153292290Y-91335980D01*
X153353610Y-91302497D01*
X153423302Y-91307481D01*
X153453596Y-91323889D01*
X153555525Y-91399116D01*
X153680151Y-91442725D01*
X153680150Y-91442725D01*
X153709740Y-91445500D01*
X153709744Y-91445500D01*
X154290260Y-91445500D01*
X154319849Y-91442725D01*
X154444475Y-91399116D01*
X154550711Y-91320711D01*
X154629116Y-91214475D01*
X154672725Y-91089849D01*
X154675500Y-91060260D01*
X154675500Y-90379739D01*
X154672725Y-90350151D01*
X154657341Y-90306187D01*
X154657340Y-90306185D01*
X154648574Y-90281133D01*
X154644712Y-90270097D01*
X155649500Y-90270097D01*
X155649500Y-90529902D01*
X155690140Y-90786493D01*
X155770422Y-91033576D01*
X155851534Y-91192764D01*
X155875176Y-91239165D01*
X155888368Y-91265054D01*
X156019470Y-91445500D01*
X156041069Y-91475229D01*
X156224771Y-91658931D01*
X156434949Y-91811634D01*
X156556350Y-91873491D01*
X156666423Y-91929577D01*
X156666425Y-91929577D01*
X156666428Y-91929579D01*
X156913507Y-92009860D01*
X157045706Y-92030797D01*
X157170098Y-92050500D01*
X157170103Y-92050500D01*
X157429902Y-92050500D01*
X157543298Y-92032539D01*
X157686493Y-92009860D01*
X157933572Y-91929579D01*
X158165051Y-91811634D01*
X158375229Y-91658931D01*
X158558931Y-91475229D01*
X158711634Y-91265051D01*
X158829579Y-91033572D01*
X158909860Y-90786493D01*
X158947821Y-90546813D01*
X158950500Y-90529902D01*
X158950500Y-90270097D01*
X158924976Y-90108948D01*
X158909860Y-90013507D01*
X158829579Y-89766428D01*
X158829577Y-89766425D01*
X158829577Y-89766423D01*
X158769805Y-89649115D01*
X158711634Y-89534949D01*
X158558931Y-89324771D01*
X158375229Y-89141069D01*
X158165051Y-88988366D01*
X158092764Y-88951534D01*
X157933576Y-88870422D01*
X157686493Y-88790140D01*
X157429902Y-88749500D01*
X157429897Y-88749500D01*
X157170103Y-88749500D01*
X157170098Y-88749500D01*
X156913506Y-88790140D01*
X156666423Y-88870422D01*
X156434945Y-88988368D01*
X156224774Y-89141066D01*
X156224768Y-89141071D01*
X156041071Y-89324768D01*
X156041066Y-89324774D01*
X155888368Y-89534945D01*
X155770422Y-89766423D01*
X155690140Y-90013506D01*
X155649500Y-90270097D01*
X154644712Y-90270097D01*
X154629116Y-90225525D01*
X154626357Y-90221787D01*
X154550711Y-90119289D01*
X154550710Y-90119288D01*
X154444476Y-90040884D01*
X154319848Y-89997274D01*
X154319849Y-89997274D01*
X154290260Y-89994500D01*
X154290256Y-89994500D01*
X153709744Y-89994500D01*
X153709740Y-89994500D01*
X153680150Y-89997274D01*
X153555523Y-90040884D01*
X153449289Y-90119288D01*
X153449288Y-90119289D01*
X153370884Y-90225523D01*
X153328269Y-90347306D01*
X153287546Y-90404082D01*
X153243322Y-90426125D01*
X153143178Y-90452958D01*
X153143177Y-90452959D01*
X153090685Y-90483266D01*
X153057036Y-90502693D01*
X153057030Y-90502697D01*
X152782835Y-90776894D01*
X152755907Y-90791597D01*
X152730089Y-90808190D01*
X152723888Y-90809081D01*
X152721512Y-90810379D01*
X152695154Y-90813213D01*
X152604934Y-90813213D01*
X152537895Y-90793528D01*
X152517252Y-90776893D01*
X152469348Y-90728988D01*
X152360511Y-90675780D01*
X152342869Y-90673210D01*
X152289949Y-90665500D01*
X152289943Y-90665500D01*
X150986049Y-90665500D01*
X150915493Y-90675779D01*
X150806650Y-90728989D01*
X150720988Y-90814651D01*
X150667780Y-90923488D01*
X150663925Y-90949951D01*
X150657500Y-90994051D01*
X149918499Y-90994051D01*
X149917126Y-90984629D01*
X149908220Y-90923493D01*
X149908220Y-90923491D01*
X149855012Y-90814653D01*
X149855010Y-90814651D01*
X149855010Y-90814650D01*
X149769348Y-90728988D01*
X149660511Y-90675780D01*
X149642869Y-90673210D01*
X149589949Y-90665500D01*
X149589943Y-90665500D01*
X149100965Y-90665500D01*
X149071524Y-90656855D01*
X149041538Y-90650332D01*
X149036522Y-90646577D01*
X149033926Y-90645815D01*
X149013284Y-90629181D01*
X148949819Y-90565716D01*
X148916334Y-90504393D01*
X148913500Y-90478035D01*
X148913500Y-90281133D01*
X148933185Y-90214094D01*
X148985989Y-90168339D01*
X148996444Y-90164132D01*
X148996470Y-90164117D01*
X148996475Y-90164116D01*
X149102711Y-90085711D01*
X149181116Y-89979475D01*
X149224725Y-89854849D01*
X149227500Y-89825256D01*
X149227500Y-89244744D01*
X149224725Y-89215151D01*
X149181116Y-89090525D01*
X149102711Y-88984289D01*
X149102710Y-88984288D01*
X148996476Y-88905884D01*
X148871848Y-88862274D01*
X148871849Y-88862274D01*
X148842260Y-88859500D01*
X148842256Y-88859500D01*
X148136744Y-88859500D01*
X148136740Y-88859500D01*
X148107150Y-88862274D01*
X147982523Y-88905884D01*
X147876289Y-88984288D01*
X147876288Y-88984289D01*
X147797884Y-89090523D01*
X147754274Y-89215150D01*
X147751500Y-89244739D01*
X147751500Y-89825260D01*
X147754274Y-89854849D01*
X147797884Y-89979476D01*
X147843205Y-90040884D01*
X147876289Y-90085711D01*
X147962135Y-90149067D01*
X148004384Y-90204713D01*
X148012500Y-90248836D01*
X148012500Y-90775309D01*
X148013502Y-90782920D01*
X148011183Y-90799482D01*
X148013620Y-90814373D01*
X148005081Y-90843083D01*
X148004334Y-90848424D01*
X148003205Y-90851028D01*
X147967780Y-90923491D01*
X147965747Y-90937438D01*
X147959191Y-90952564D01*
X147946951Y-90967254D01*
X147938976Y-90984629D01*
X147933101Y-90990927D01*
X146132489Y-92791541D01*
X146076541Y-92847488D01*
X146076535Y-92847496D01*
X146036982Y-92916005D01*
X146036979Y-92916010D01*
X146016500Y-92992440D01*
X146016500Y-95474667D01*
X145996815Y-95541706D01*
X145980181Y-95562348D01*
X145346348Y-96196181D01*
X145285025Y-96229666D01*
X145258667Y-96232500D01*
X144756740Y-96232500D01*
X144727150Y-96235274D01*
X144602523Y-96278884D01*
X144496289Y-96357288D01*
X144496288Y-96357289D01*
X144417884Y-96463523D01*
X144374274Y-96588150D01*
X144371500Y-96617739D01*
X139200500Y-96617739D01*
X139200500Y-94403845D01*
X139200739Y-94396154D01*
X139209624Y-94253185D01*
X139214061Y-94181783D01*
X139215961Y-94166547D01*
X139255013Y-93959243D01*
X139258792Y-93944340D01*
X139275126Y-93893407D01*
X139323207Y-93743480D01*
X139328794Y-93729176D01*
X139417589Y-93537822D01*
X139424904Y-93524321D01*
X139536712Y-93345428D01*
X139545628Y-93332956D01*
X139678735Y-93169271D01*
X139689139Y-93157987D01*
X139841468Y-93012062D01*
X139853198Y-93002145D01*
X140022426Y-92876200D01*
X140035284Y-92867818D01*
X140222152Y-92761897D01*
X140228963Y-92758312D01*
X140357484Y-92695697D01*
X140605431Y-92538404D01*
X140834295Y-92354449D01*
X141041224Y-92146125D01*
X141223638Y-91916030D01*
X141379261Y-91667032D01*
X141506155Y-91402237D01*
X141602735Y-91124945D01*
X141667799Y-90838614D01*
X141700535Y-90546815D01*
X141700500Y-90403465D01*
X141700694Y-90396543D01*
X141707795Y-90270097D01*
X142649500Y-90270097D01*
X142649500Y-90529902D01*
X142690140Y-90786493D01*
X142770422Y-91033576D01*
X142851534Y-91192764D01*
X142875176Y-91239165D01*
X142888368Y-91265054D01*
X143019470Y-91445500D01*
X143041069Y-91475229D01*
X143224771Y-91658931D01*
X143434949Y-91811634D01*
X143556350Y-91873491D01*
X143666423Y-91929577D01*
X143666425Y-91929577D01*
X143666428Y-91929579D01*
X143913507Y-92009860D01*
X144045706Y-92030797D01*
X144170098Y-92050500D01*
X144170103Y-92050500D01*
X144429902Y-92050500D01*
X144543298Y-92032539D01*
X144686493Y-92009860D01*
X144933572Y-91929579D01*
X145165051Y-91811634D01*
X145375229Y-91658931D01*
X145558931Y-91475229D01*
X145711634Y-91265051D01*
X145829579Y-91033572D01*
X145909860Y-90786493D01*
X145947821Y-90546813D01*
X145950500Y-90529902D01*
X145950500Y-90270097D01*
X145924976Y-90108948D01*
X145909860Y-90013507D01*
X145829579Y-89766428D01*
X145829577Y-89766425D01*
X145829577Y-89766423D01*
X145769805Y-89649115D01*
X145711634Y-89534949D01*
X145558931Y-89324771D01*
X145375229Y-89141069D01*
X145165051Y-88988366D01*
X145092764Y-88951534D01*
X144933576Y-88870422D01*
X144686493Y-88790140D01*
X144429902Y-88749500D01*
X144429897Y-88749500D01*
X144170103Y-88749500D01*
X144170098Y-88749500D01*
X143913506Y-88790140D01*
X143666423Y-88870422D01*
X143434945Y-88988368D01*
X143224774Y-89141066D01*
X143224768Y-89141071D01*
X143041071Y-89324768D01*
X143041066Y-89324774D01*
X142888368Y-89534945D01*
X142770422Y-89766423D01*
X142690140Y-90013506D01*
X142649500Y-90270097D01*
X141707795Y-90270097D01*
X141716455Y-90115889D01*
X141718009Y-90102092D01*
X141764510Y-89828412D01*
X141767598Y-89814880D01*
X141844450Y-89548119D01*
X141849040Y-89535006D01*
X141929876Y-89339849D01*
X141955268Y-89278545D01*
X141961290Y-89266039D01*
X142095574Y-89023072D01*
X142102969Y-89011304D01*
X142119243Y-88988368D01*
X142263605Y-88784908D01*
X142272260Y-88774054D01*
X142457245Y-88567057D01*
X142467057Y-88557245D01*
X142674054Y-88372260D01*
X142684908Y-88363605D01*
X142911309Y-88202965D01*
X142923072Y-88195574D01*
X143166039Y-88061290D01*
X143178545Y-88055268D01*
X143435006Y-87949039D01*
X143448119Y-87944450D01*
X143714880Y-87867598D01*
X143728412Y-87864510D01*
X144002092Y-87818009D01*
X144015891Y-87816455D01*
X144262054Y-87802630D01*
X144296529Y-87800695D01*
X144303481Y-87800500D01*
X144424558Y-87800500D01*
X144424565Y-87800500D01*
X144671565Y-87767982D01*
X144912207Y-87703502D01*
X145142374Y-87608164D01*
X145358127Y-87483598D01*
X145555776Y-87331937D01*
X145731938Y-87155775D01*
X145867015Y-86979739D01*
X153324500Y-86979739D01*
X153324500Y-87685260D01*
X153327274Y-87714849D01*
X153370884Y-87839476D01*
X153449288Y-87945710D01*
X153449289Y-87945711D01*
X153555519Y-88024112D01*
X153555521Y-88024113D01*
X153555525Y-88024116D01*
X153555529Y-88024117D01*
X153556147Y-88024444D01*
X153556706Y-88024988D01*
X153563001Y-88029634D01*
X153562365Y-88030494D01*
X153566400Y-88034420D01*
X153579416Y-88040365D01*
X153590943Y-88058302D01*
X153606223Y-88073170D01*
X153610176Y-88088229D01*
X153617190Y-88099143D01*
X153622213Y-88134078D01*
X153622213Y-88180921D01*
X153602528Y-88247960D01*
X153562516Y-88284709D01*
X153563001Y-88285366D01*
X153556893Y-88289873D01*
X153556157Y-88290550D01*
X153555522Y-88290885D01*
X153449289Y-88369288D01*
X153449288Y-88369289D01*
X153370884Y-88475523D01*
X153327274Y-88600150D01*
X153324500Y-88629739D01*
X153324500Y-89310260D01*
X153327274Y-89339849D01*
X153370884Y-89464476D01*
X153449288Y-89570710D01*
X153449289Y-89570711D01*
X153555523Y-89649115D01*
X153555524Y-89649115D01*
X153555525Y-89649116D01*
X153680151Y-89692725D01*
X153680150Y-89692725D01*
X153709740Y-89695500D01*
X153709744Y-89695500D01*
X154290260Y-89695500D01*
X154319849Y-89692725D01*
X154444475Y-89649116D01*
X154550711Y-89570711D01*
X154629116Y-89464475D01*
X154672725Y-89339849D01*
X154675500Y-89310256D01*
X154675500Y-88629744D01*
X154672725Y-88600151D01*
X154629116Y-88475525D01*
X154550711Y-88369289D01*
X154543000Y-88363598D01*
X154444477Y-88290885D01*
X154443843Y-88290550D01*
X154443277Y-88289999D01*
X154436999Y-88285366D01*
X154437633Y-88284506D01*
X154433593Y-88280575D01*
X154420584Y-88274634D01*
X154409053Y-88256692D01*
X154393772Y-88241820D01*
X154389820Y-88226763D01*
X154382810Y-88215856D01*
X154377787Y-88180921D01*
X154377787Y-88134078D01*
X154397472Y-88067039D01*
X154437484Y-88030292D01*
X154436999Y-88029634D01*
X154443123Y-88025113D01*
X154443853Y-88024444D01*
X154444467Y-88024118D01*
X154444475Y-88024116D01*
X154550711Y-87945711D01*
X154629116Y-87839475D01*
X154672725Y-87714849D01*
X154675500Y-87685256D01*
X154675500Y-86979744D01*
X154672725Y-86950151D01*
X154660370Y-86914844D01*
X154629115Y-86825523D01*
X154550711Y-86719289D01*
X154550710Y-86719288D01*
X154444476Y-86640884D01*
X154319848Y-86597274D01*
X154319849Y-86597274D01*
X154290260Y-86594500D01*
X154290256Y-86594500D01*
X153709744Y-86594500D01*
X153709740Y-86594500D01*
X153680150Y-86597274D01*
X153555523Y-86640884D01*
X153449289Y-86719288D01*
X153449288Y-86719289D01*
X153370884Y-86825523D01*
X153327274Y-86950150D01*
X153324500Y-86979739D01*
X145867015Y-86979739D01*
X145883599Y-86958126D01*
X146008164Y-86742373D01*
X146103503Y-86512206D01*
X146167982Y-86271564D01*
X146200500Y-86024564D01*
X146200500Y-85899999D01*
X146200500Y-85842416D01*
X146200500Y-80903480D01*
X146200695Y-80896528D01*
X146201984Y-80873566D01*
X146216455Y-80615890D01*
X146218009Y-80602095D01*
X146264510Y-80328411D01*
X146267598Y-80314880D01*
X146344450Y-80048119D01*
X146349040Y-80035005D01*
X146455271Y-79778539D01*
X146461291Y-79766040D01*
X146595574Y-79523072D01*
X146602969Y-79511304D01*
X146763605Y-79284908D01*
X146772260Y-79274054D01*
X146957245Y-79067057D01*
X146967068Y-79057236D01*
X147116159Y-78924000D01*
X147174055Y-78872260D01*
X147184906Y-78863607D01*
X147242320Y-78822869D01*
X147308385Y-78800131D01*
X147314073Y-78800000D01*
X148876000Y-78800000D01*
X148943039Y-78819685D01*
G37*
G04 #@! TD.AperFunction*
G04 #@! TA.AperFunction,Conductor*
G36*
X155486410Y-120017185D02*
G01*
X155532165Y-120069989D01*
X155542109Y-120139147D01*
X155513084Y-120202703D01*
X155481823Y-120226751D01*
X155482014Y-120227018D01*
X155474557Y-120232341D01*
X155473833Y-120232899D01*
X155473654Y-120232986D01*
X155473651Y-120232988D01*
X155387988Y-120318651D01*
X155334780Y-120427488D01*
X155334504Y-120429383D01*
X155324500Y-120498051D01*
X155324500Y-120498055D01*
X155324500Y-120498056D01*
X155324500Y-121801950D01*
X155334779Y-121872506D01*
X155334779Y-121872507D01*
X155334780Y-121872509D01*
X155360807Y-121925748D01*
X155387989Y-121981349D01*
X155473651Y-122067011D01*
X155582488Y-122120219D01*
X155582489Y-122120219D01*
X155582491Y-122120220D01*
X155653051Y-122130500D01*
X156046948Y-122130499D01*
X156046950Y-122130499D01*
X156075172Y-122126387D01*
X156117509Y-122120220D01*
X156226347Y-122067012D01*
X156312012Y-121981347D01*
X156365220Y-121872509D01*
X156375500Y-121801949D01*
X156375500Y-121612000D01*
X156395185Y-121544961D01*
X156447989Y-121499206D01*
X156499500Y-121488000D01*
X156828148Y-121488000D01*
X156895187Y-121507685D01*
X156940942Y-121560489D01*
X156945189Y-121571045D01*
X156970884Y-121644475D01*
X156970884Y-121644476D01*
X157049288Y-121750710D01*
X157049289Y-121750711D01*
X157155523Y-121829115D01*
X157155524Y-121829115D01*
X157155525Y-121829116D01*
X157280151Y-121872725D01*
X157280150Y-121872725D01*
X157309740Y-121875500D01*
X157309744Y-121875500D01*
X157890260Y-121875500D01*
X157913930Y-121873280D01*
X157919849Y-121872725D01*
X158034547Y-121832589D01*
X158104322Y-121829027D01*
X158164950Y-121863755D01*
X158197178Y-121925748D01*
X158199500Y-121949631D01*
X158199500Y-124012035D01*
X158179815Y-124079074D01*
X158163181Y-124099716D01*
X156675714Y-125587183D01*
X156614391Y-125620668D01*
X156588033Y-125623502D01*
X147206000Y-125623502D01*
X147206000Y-124884000D01*
X145839717Y-123517717D01*
X145861249Y-123533608D01*
X145921117Y-123577793D01*
X145942271Y-123585195D01*
X146049298Y-123622646D01*
X146056323Y-123623304D01*
X146079733Y-123625500D01*
X147088266Y-123625499D01*
X147118700Y-123622646D01*
X147246883Y-123577793D01*
X147263326Y-123565656D01*
X147328955Y-123541685D01*
X147397125Y-123557000D01*
X147424641Y-123577744D01*
X148382385Y-124535489D01*
X148485112Y-124594798D01*
X148509320Y-124601283D01*
X148509323Y-124601285D01*
X148509324Y-124601285D01*
X148539446Y-124609356D01*
X148599690Y-124625499D01*
X153384285Y-124625499D01*
X153451324Y-124645184D01*
X153485204Y-124677447D01*
X153487992Y-124681352D01*
X153573651Y-124767011D01*
X153682488Y-124820219D01*
X153682489Y-124820219D01*
X153682491Y-124820220D01*
X153753051Y-124830500D01*
X154146948Y-124830499D01*
X154146950Y-124830499D01*
X154175172Y-124826387D01*
X154217509Y-124820220D01*
X154326347Y-124767012D01*
X154412012Y-124681347D01*
X154465220Y-124572509D01*
X154475500Y-124501949D01*
X154475499Y-124482676D01*
X154495181Y-124415640D01*
X154547983Y-124369883D01*
X154617141Y-124359936D01*
X154680698Y-124388959D01*
X154687180Y-124394994D01*
X154692686Y-124400500D01*
X154806814Y-124466392D01*
X154934108Y-124500500D01*
X154934110Y-124500500D01*
X155065889Y-124500500D01*
X155065892Y-124500500D01*
X155179888Y-124469955D01*
X155249735Y-124471618D01*
X155307598Y-124510780D01*
X155331018Y-124563586D01*
X155331935Y-124563303D01*
X155334330Y-124571056D01*
X155334683Y-124571850D01*
X155334778Y-124572503D01*
X155334778Y-124572504D01*
X155334779Y-124572507D01*
X155334780Y-124572509D01*
X155370309Y-124645184D01*
X155387989Y-124681349D01*
X155473651Y-124767011D01*
X155582488Y-124820219D01*
X155582489Y-124820219D01*
X155582491Y-124820220D01*
X155653051Y-124830500D01*
X156046948Y-124830499D01*
X156046950Y-124830499D01*
X156075172Y-124826387D01*
X156117509Y-124820220D01*
X156226347Y-124767012D01*
X156312012Y-124681347D01*
X156365220Y-124572509D01*
X156375500Y-124501949D01*
X156375499Y-123198052D01*
X156365220Y-123127491D01*
X156312012Y-123018653D01*
X156312010Y-123018651D01*
X156312010Y-123018650D01*
X156226348Y-122932988D01*
X156117511Y-122879780D01*
X156099869Y-122877210D01*
X156046949Y-122869500D01*
X156046943Y-122869500D01*
X155653049Y-122869500D01*
X155582493Y-122879779D01*
X155473650Y-122932989D01*
X155387988Y-123018651D01*
X155334780Y-123127488D01*
X155330925Y-123153951D01*
X155324500Y-123198051D01*
X155324500Y-123198056D01*
X155324500Y-123407193D01*
X155304815Y-123474232D01*
X155252011Y-123519987D01*
X155182853Y-123529931D01*
X155168408Y-123526968D01*
X155065893Y-123499500D01*
X155065892Y-123499500D01*
X154934108Y-123499500D01*
X154806812Y-123533608D01*
X154692686Y-123599500D01*
X154692681Y-123599504D01*
X154687176Y-123605009D01*
X154625852Y-123638491D01*
X154556160Y-123633504D01*
X154500229Y-123591630D01*
X154475815Y-123526165D01*
X154475499Y-123517324D01*
X154475499Y-123198049D01*
X154465220Y-123127493D01*
X154465220Y-123127491D01*
X154412012Y-123018653D01*
X154412010Y-123018651D01*
X154412010Y-123018650D01*
X154326348Y-122932988D01*
X154217511Y-122879780D01*
X154199869Y-122877210D01*
X154146949Y-122869500D01*
X154146943Y-122869500D01*
X153865931Y-122869500D01*
X153798892Y-122849815D01*
X153753137Y-122797011D01*
X153743193Y-122727853D01*
X153772218Y-122664297D01*
X153802134Y-122639171D01*
X154363519Y-122302340D01*
X154363517Y-122302340D01*
X154363526Y-122302336D01*
X154400855Y-122273650D01*
X154441373Y-122234360D01*
X154450843Y-122224546D01*
X154495490Y-122144729D01*
X154515175Y-122077690D01*
X154523500Y-122019792D01*
X154523500Y-120484966D01*
X154543185Y-120417927D01*
X154559819Y-120397285D01*
X154923285Y-120033819D01*
X154984608Y-120000334D01*
X155010966Y-119997500D01*
X155419371Y-119997500D01*
X155486410Y-120017185D01*
G37*
G04 #@! TD.AperFunction*
G04 #@! TA.AperFunction,Conductor*
G36*
X159779074Y-112420185D02*
G01*
X159799716Y-112436819D01*
X160192181Y-112829284D01*
X160225666Y-112890607D01*
X160228500Y-112916965D01*
X160228500Y-113030191D01*
X160208815Y-113097230D01*
X160156011Y-113142985D01*
X160086853Y-113152929D01*
X160023297Y-113123904D01*
X160016819Y-113117872D01*
X159951870Y-113052923D01*
X159951862Y-113052917D01*
X159810396Y-112969255D01*
X159810393Y-112969254D01*
X159652573Y-112923402D01*
X159652567Y-112923401D01*
X159615701Y-112920500D01*
X159615694Y-112920500D01*
X157384306Y-112920500D01*
X157384298Y-112920500D01*
X157347432Y-112923401D01*
X157347426Y-112923402D01*
X157189606Y-112969254D01*
X157189603Y-112969255D01*
X157048137Y-113052917D01*
X157048129Y-113052923D01*
X156931923Y-113169129D01*
X156931917Y-113169137D01*
X156848255Y-113310603D01*
X156848254Y-113310606D01*
X156802402Y-113468426D01*
X156802401Y-113468432D01*
X156799500Y-113505298D01*
X156799500Y-115736701D01*
X156802401Y-115773567D01*
X156802402Y-115773573D01*
X156848254Y-115931393D01*
X156848255Y-115931396D01*
X156848256Y-115931398D01*
X156850158Y-115934614D01*
X156931917Y-116072862D01*
X156931923Y-116072870D01*
X157048129Y-116189076D01*
X157048133Y-116189079D01*
X157048135Y-116189081D01*
X157189602Y-116272744D01*
X157231224Y-116284836D01*
X157347426Y-116318597D01*
X157347429Y-116318597D01*
X157347431Y-116318598D01*
X157384306Y-116321500D01*
X158366035Y-116321500D01*
X158433074Y-116341185D01*
X158478829Y-116393989D01*
X158488773Y-116463147D01*
X158459748Y-116526703D01*
X158453716Y-116533181D01*
X156852716Y-118134181D01*
X156791393Y-118167666D01*
X156765035Y-118170500D01*
X155315268Y-118170500D01*
X155248229Y-118150815D01*
X155215498Y-118120134D01*
X155187725Y-118082503D01*
X155178711Y-118070289D01*
X155178709Y-118070288D01*
X155178709Y-118070287D01*
X155072476Y-117991884D01*
X154947848Y-117948274D01*
X154947849Y-117948274D01*
X154918260Y-117945500D01*
X154918256Y-117945500D01*
X154312744Y-117945500D01*
X154312740Y-117945500D01*
X154283150Y-117948274D01*
X154158523Y-117991884D01*
X154052289Y-118070288D01*
X154052288Y-118070289D01*
X153973884Y-118176523D01*
X153930274Y-118301150D01*
X153927500Y-118330739D01*
X153927500Y-118911260D01*
X153930274Y-118940849D01*
X153973884Y-119065476D01*
X154052288Y-119171710D01*
X154052289Y-119171711D01*
X154158522Y-119250115D01*
X154158525Y-119250116D01*
X154175420Y-119256028D01*
X154232196Y-119296748D01*
X154257944Y-119361701D01*
X154244488Y-119430262D01*
X154222147Y-119460750D01*
X153866717Y-119816181D01*
X153805394Y-119849666D01*
X153779036Y-119852500D01*
X153312251Y-119852500D01*
X153295318Y-119853199D01*
X153274927Y-119854887D01*
X153258102Y-119856981D01*
X150323823Y-120346027D01*
X150323810Y-120346030D01*
X150297518Y-120352213D01*
X150297512Y-120352214D01*
X150266385Y-120361734D01*
X150191913Y-120402944D01*
X150191912Y-120402945D01*
X150139104Y-120448703D01*
X150121160Y-120466285D01*
X150121154Y-120466292D01*
X150076511Y-120546102D01*
X150076509Y-120546107D01*
X150056826Y-120613139D01*
X150056825Y-120613144D01*
X150056825Y-120613145D01*
X150048577Y-120670513D01*
X150048500Y-120671046D01*
X150048500Y-123490007D01*
X150053196Y-123533684D01*
X150061998Y-123574140D01*
X150057014Y-123643831D01*
X150015143Y-123699765D01*
X149949679Y-123724183D01*
X149940832Y-123724499D01*
X148896965Y-123724499D01*
X148829926Y-123704814D01*
X148809284Y-123688180D01*
X147520818Y-122399714D01*
X147487333Y-122338391D01*
X147484499Y-122312033D01*
X147484499Y-120970739D01*
X147484499Y-120970734D01*
X147481646Y-120940300D01*
X147465053Y-120892881D01*
X147436793Y-120812117D01*
X147356150Y-120702849D01*
X147280261Y-120646841D01*
X147246883Y-120622207D01*
X147246881Y-120622206D01*
X147118701Y-120577353D01*
X147088615Y-120574532D01*
X147023707Y-120548674D01*
X146992807Y-120513075D01*
X146944489Y-120429386D01*
X146327114Y-119812011D01*
X146275750Y-119782356D01*
X146224388Y-119752701D01*
X146204474Y-119747365D01*
X146204468Y-119747363D01*
X146200173Y-119746213D01*
X146109809Y-119722000D01*
X146072500Y-119722000D01*
X146060903Y-119719771D01*
X146039915Y-119708964D01*
X146017269Y-119702315D01*
X146009430Y-119693268D01*
X145998784Y-119687787D01*
X145986968Y-119667346D01*
X145971514Y-119649511D01*
X145969810Y-119637662D01*
X145963818Y-119627296D01*
X145964929Y-119603715D01*
X145961570Y-119580353D01*
X145966733Y-119565435D01*
X145967107Y-119557504D01*
X145971725Y-119551010D01*
X145976921Y-119536001D01*
X145992455Y-119509093D01*
X146000021Y-119495989D01*
X146020500Y-119419562D01*
X146020500Y-118869832D01*
X146029144Y-118840391D01*
X146035668Y-118810405D01*
X146039422Y-118805389D01*
X146040185Y-118802793D01*
X146056815Y-118782155D01*
X146192151Y-118646818D01*
X146253474Y-118613334D01*
X146279832Y-118610500D01*
X146369890Y-118610500D01*
X146369892Y-118610500D01*
X146497186Y-118576392D01*
X146611314Y-118510500D01*
X146704500Y-118417314D01*
X146770392Y-118303186D01*
X146804500Y-118175892D01*
X146804500Y-118123500D01*
X146824185Y-118056461D01*
X146876989Y-118010706D01*
X146928500Y-117999500D01*
X148496290Y-117999500D01*
X148563329Y-118019185D01*
X148609084Y-118071989D01*
X148619028Y-118141147D01*
X148600907Y-118184114D01*
X148603564Y-118185648D01*
X148599501Y-118192684D01*
X148599500Y-118192686D01*
X148597298Y-118196500D01*
X148533608Y-118306812D01*
X148527197Y-118330739D01*
X148499500Y-118434108D01*
X148499500Y-118565892D01*
X148502747Y-118578009D01*
X148533608Y-118693187D01*
X148566192Y-118749623D01*
X148599500Y-118807314D01*
X148692686Y-118900500D01*
X148806814Y-118966392D01*
X148934108Y-119000500D01*
X148934119Y-119000500D01*
X148940071Y-119001284D01*
X149003969Y-119029548D01*
X149011572Y-119036543D01*
X149548989Y-119573960D01*
X149548992Y-119573962D01*
X149554199Y-119577957D01*
X149595403Y-119634384D01*
X149602172Y-119664756D01*
X149602274Y-119665848D01*
X149645884Y-119790476D01*
X149724288Y-119896710D01*
X149724289Y-119896711D01*
X149830523Y-119975115D01*
X149830524Y-119975115D01*
X149830525Y-119975116D01*
X149955151Y-120018725D01*
X149955150Y-120018725D01*
X149984740Y-120021500D01*
X149984744Y-120021500D01*
X150565260Y-120021500D01*
X150594849Y-120018725D01*
X150627245Y-120007389D01*
X150719475Y-119975116D01*
X150825711Y-119896711D01*
X150904116Y-119790475D01*
X150947725Y-119665849D01*
X150947725Y-119665848D01*
X150950500Y-119636260D01*
X150950500Y-119103665D01*
X150970185Y-119036626D01*
X151022989Y-118990871D01*
X151092147Y-118980927D01*
X151136497Y-118996276D01*
X151213614Y-119040799D01*
X151328191Y-119071500D01*
X152090732Y-119071500D01*
X152157771Y-119091185D01*
X152190502Y-119121866D01*
X152227288Y-119171710D01*
X152227290Y-119171712D01*
X152333523Y-119250115D01*
X152333524Y-119250115D01*
X152333525Y-119250116D01*
X152458151Y-119293725D01*
X152458150Y-119293725D01*
X152487740Y-119296500D01*
X152487744Y-119296500D01*
X153093260Y-119296500D01*
X153122849Y-119293725D01*
X153128216Y-119291847D01*
X153247475Y-119250116D01*
X153353711Y-119171711D01*
X153432116Y-119065475D01*
X153475725Y-118940849D01*
X153478500Y-118911256D01*
X153478500Y-118330744D01*
X153475725Y-118301151D01*
X153432116Y-118176525D01*
X153431648Y-118175891D01*
X153353711Y-118070289D01*
X153353710Y-118070288D01*
X153247476Y-117991884D01*
X153122848Y-117948274D01*
X153122849Y-117948274D01*
X153093260Y-117945500D01*
X153093256Y-117945500D01*
X152487744Y-117945500D01*
X152487740Y-117945500D01*
X152458150Y-117948274D01*
X152333523Y-117991884D01*
X152227290Y-118070287D01*
X152190502Y-118120134D01*
X152134854Y-118162385D01*
X152090732Y-118170500D01*
X151625466Y-118170500D01*
X151596025Y-118161855D01*
X151566039Y-118155332D01*
X151561023Y-118151577D01*
X151558427Y-118150815D01*
X151537789Y-118134185D01*
X151371636Y-117968033D01*
X151338153Y-117906712D01*
X151343137Y-117837021D01*
X151365604Y-117799153D01*
X151442567Y-117710336D01*
X151502338Y-117579459D01*
X151522023Y-117512420D01*
X151522024Y-117512416D01*
X151542500Y-117370000D01*
X151542500Y-117292938D01*
X151537355Y-117220996D01*
X151532332Y-117186061D01*
X151530958Y-117179751D01*
X151530278Y-117176402D01*
X151529972Y-117174785D01*
X151529752Y-117173417D01*
X151529587Y-117172746D01*
X151529054Y-117169919D01*
X151529082Y-117169633D01*
X151527543Y-117159511D01*
X151524142Y-117126207D01*
X151523500Y-117113610D01*
X151523500Y-116604387D01*
X151524142Y-116591788D01*
X151527440Y-116559500D01*
X151527544Y-116558477D01*
X151529380Y-116546416D01*
X151529740Y-116544637D01*
X151529751Y-116544593D01*
X151534497Y-116515182D01*
X151536042Y-116505611D01*
X151536043Y-116505599D01*
X151536045Y-116505588D01*
X151542499Y-116425069D01*
X151542500Y-116425068D01*
X151542500Y-115748806D01*
X151540994Y-115720715D01*
X151539603Y-115694770D01*
X151539010Y-115689250D01*
X151551418Y-115620491D01*
X151599031Y-115569355D01*
X151662300Y-115552000D01*
X151794261Y-115552000D01*
X151816971Y-115548691D01*
X151862393Y-115542073D01*
X151967483Y-115490698D01*
X151977605Y-115480576D01*
X151998319Y-115459863D01*
X152059642Y-115426378D01*
X152129334Y-115431362D01*
X152173681Y-115459863D01*
X152204514Y-115490696D01*
X152204515Y-115490696D01*
X152204517Y-115490698D01*
X152309607Y-115542073D01*
X152341048Y-115546654D01*
X152377739Y-115552000D01*
X152377740Y-115552000D01*
X152744261Y-115552000D01*
X152780952Y-115546654D01*
X152812393Y-115542073D01*
X152819663Y-115538519D01*
X152851542Y-115522935D01*
X152920415Y-115511175D01*
X152984712Y-115538519D01*
X152993683Y-115546654D01*
X153458856Y-116011827D01*
X153492341Y-116073150D01*
X153487357Y-116142842D01*
X153445485Y-116198775D01*
X153412133Y-116216548D01*
X153374025Y-116229883D01*
X153374023Y-116229884D01*
X153267789Y-116308288D01*
X153267788Y-116308289D01*
X153189384Y-116414523D01*
X153145774Y-116539150D01*
X153143000Y-116568739D01*
X153143000Y-117149260D01*
X153145774Y-117178849D01*
X153189384Y-117303476D01*
X153267788Y-117409710D01*
X153267789Y-117409711D01*
X153374023Y-117488115D01*
X153374024Y-117488115D01*
X153374025Y-117488116D01*
X153498651Y-117531725D01*
X153498650Y-117531725D01*
X153528240Y-117534500D01*
X153528244Y-117534500D01*
X154133760Y-117534500D01*
X154163349Y-117531725D01*
X154185097Y-117524115D01*
X154287975Y-117488116D01*
X154394211Y-117409711D01*
X154472616Y-117303475D01*
X154481262Y-117278764D01*
X154485714Y-117266044D01*
X154499333Y-117247055D01*
X154509042Y-117225797D01*
X154519317Y-117219193D01*
X154526436Y-117209269D01*
X154548159Y-117200657D01*
X154567820Y-117188023D01*
X154586986Y-117185267D01*
X154591389Y-117183522D01*
X154602755Y-117183000D01*
X154631148Y-117183000D01*
X154698187Y-117202685D01*
X154743942Y-117255489D01*
X154748189Y-117266045D01*
X154773884Y-117339475D01*
X154773884Y-117339476D01*
X154852288Y-117445710D01*
X154852289Y-117445711D01*
X154958523Y-117524115D01*
X154958524Y-117524115D01*
X154958525Y-117524116D01*
X155083151Y-117567725D01*
X155083150Y-117567725D01*
X155112740Y-117570500D01*
X155112744Y-117570500D01*
X155693260Y-117570500D01*
X155722849Y-117567725D01*
X155847475Y-117524116D01*
X155953711Y-117445711D01*
X156032116Y-117339475D01*
X156075725Y-117214849D01*
X156076248Y-117209269D01*
X156078500Y-117185260D01*
X156078500Y-116772569D01*
X156098185Y-116705530D01*
X156150989Y-116659775D01*
X156170094Y-116653067D01*
X156171284Y-116652558D01*
X156171287Y-116652558D01*
X156255383Y-116616614D01*
X156304883Y-116580650D01*
X156332628Y-116556409D01*
X156379536Y-116477899D01*
X156398443Y-116419708D01*
X156404599Y-116380835D01*
X156408500Y-116356210D01*
X156408500Y-112920018D01*
X156428185Y-112852979D01*
X156444819Y-112832337D01*
X156840337Y-112436819D01*
X156901660Y-112403334D01*
X156928018Y-112400500D01*
X159631007Y-112400500D01*
X159712035Y-112400500D01*
X159779074Y-112420185D01*
G37*
G04 #@! TD.AperFunction*
G04 #@! TA.AperFunction,Conductor*
G36*
X149631539Y-112766185D02*
G01*
X149677294Y-112818989D01*
X149688191Y-112869081D01*
X149688213Y-112869080D01*
X149688309Y-112869073D01*
X149688309Y-112869076D01*
X149688405Y-112869073D01*
X149688452Y-112870281D01*
X149688500Y-112870500D01*
X149688500Y-112871505D01*
X149691029Y-112903638D01*
X149695881Y-112934277D01*
X149696646Y-112938782D01*
X149696647Y-112938785D01*
X149696648Y-112938787D01*
X149732592Y-113022883D01*
X149768556Y-113072383D01*
X149790265Y-113097230D01*
X149792797Y-113100128D01*
X149871102Y-113146914D01*
X149871307Y-113147036D01*
X149929498Y-113165943D01*
X149958268Y-113170499D01*
X149992996Y-113176000D01*
X148116000Y-113176000D01*
X148116000Y-113811000D01*
X150067306Y-113811000D01*
X150028961Y-113815421D01*
X149952269Y-113824264D01*
X149952267Y-113824264D01*
X149952260Y-113824265D01*
X149897315Y-113837106D01*
X149788310Y-113876202D01*
X149788305Y-113876205D01*
X149669715Y-113957682D01*
X149618347Y-114005037D01*
X149527515Y-114116624D01*
X149527508Y-114116634D01*
X149516911Y-114134297D01*
X149465540Y-114181656D01*
X149410582Y-114194500D01*
X147664938Y-114194500D01*
X147597899Y-114174815D01*
X147552144Y-114122011D01*
X147542200Y-114052853D01*
X147557551Y-114008500D01*
X147566390Y-113993189D01*
X147566392Y-113993186D01*
X147600500Y-113865892D01*
X147600500Y-113734108D01*
X147566392Y-113606814D01*
X147559379Y-113594668D01*
X147557563Y-113591521D01*
X147500500Y-113492686D01*
X147407314Y-113399500D01*
X147293186Y-113333608D01*
X147246929Y-113321213D01*
X147187270Y-113284848D01*
X147156741Y-113222001D01*
X147161093Y-113163121D01*
X147168443Y-113140502D01*
X147175296Y-113097230D01*
X147178500Y-113077004D01*
X147178500Y-112870500D01*
X147198185Y-112803461D01*
X147250989Y-112757706D01*
X147302500Y-112746500D01*
X149564500Y-112746500D01*
X149631539Y-112766185D01*
G37*
G04 #@! TD.AperFunction*
G04 #@! TA.AperFunction,Conductor*
G36*
X151280263Y-113869221D02*
G01*
X151278285Y-113870982D01*
X151265976Y-113881699D01*
X151254517Y-113887302D01*
X151220656Y-113921162D01*
X151217430Y-113923972D01*
X151189408Y-113936851D01*
X151162358Y-113951622D01*
X151157956Y-113951307D01*
X151153945Y-113953151D01*
X151123416Y-113948837D01*
X151092666Y-113946638D01*
X151088385Y-113943887D01*
X151084762Y-113943375D01*
X151076488Y-113936241D01*
X151048319Y-113918137D01*
X151017485Y-113887303D01*
X150994781Y-113876204D01*
X150912393Y-113835927D01*
X150912391Y-113835926D01*
X150844261Y-113826000D01*
X150844260Y-113826000D01*
X150799698Y-113826000D01*
X150782052Y-113824738D01*
X150686500Y-113811000D01*
X151315752Y-113811000D01*
X151280263Y-113869221D01*
G37*
G04 #@! TD.AperFunction*
G04 #@! TA.AperFunction,Conductor*
G36*
X153196000Y-112003000D02*
G01*
X153990162Y-112003000D01*
X153960036Y-112005221D01*
X153960023Y-112005222D01*
X153960020Y-112005223D01*
X153960007Y-112005225D01*
X153931290Y-112009483D01*
X153931281Y-112009484D01*
X153901793Y-112016106D01*
X153901769Y-112016112D01*
X153843981Y-112033641D01*
X153824973Y-112040442D01*
X153807073Y-112047858D01*
X153788861Y-112056472D01*
X153788838Y-112056484D01*
X153633153Y-112139699D01*
X153633138Y-112139708D01*
X153615863Y-112150062D01*
X153599737Y-112160836D01*
X153583545Y-112172844D01*
X153583516Y-112172867D01*
X153447076Y-112284840D01*
X153447047Y-112284866D01*
X153432112Y-112298403D01*
X153418403Y-112312112D01*
X153404866Y-112327047D01*
X153404840Y-112327076D01*
X153292867Y-112463516D01*
X153292848Y-112463541D01*
X153285096Y-112473993D01*
X153229348Y-112516112D01*
X153159680Y-112521406D01*
X153098209Y-112488193D01*
X153064452Y-112427019D01*
X153061500Y-112400124D01*
X153061500Y-111868239D01*
X153051573Y-111800108D01*
X153051573Y-111800107D01*
X153000198Y-111695017D01*
X153000196Y-111695015D01*
X153000196Y-111695014D01*
X152946679Y-111641497D01*
X152913194Y-111580174D01*
X152918178Y-111510482D01*
X152946679Y-111466135D01*
X152961500Y-111451314D01*
X153027392Y-111337186D01*
X153061500Y-111209892D01*
X153061500Y-111078108D01*
X153027392Y-110950814D01*
X152961500Y-110836686D01*
X152868314Y-110743500D01*
X152811250Y-110710554D01*
X152754187Y-110677608D01*
X152690539Y-110660554D01*
X152626892Y-110643500D01*
X152495108Y-110643500D01*
X152367812Y-110677608D01*
X152253686Y-110743500D01*
X152253683Y-110743502D01*
X152160502Y-110836683D01*
X152160500Y-110836686D01*
X152094608Y-110950812D01*
X152060500Y-111078108D01*
X152060500Y-111209891D01*
X152094608Y-111337187D01*
X152127554Y-111394250D01*
X152160500Y-111451314D01*
X152160502Y-111451316D01*
X152175321Y-111466135D01*
X152208806Y-111527458D01*
X152203822Y-111597150D01*
X152175321Y-111641497D01*
X152121803Y-111695014D01*
X152070426Y-111800108D01*
X152060500Y-111868239D01*
X152060500Y-112959760D01*
X152070426Y-113027892D01*
X152070426Y-113027893D01*
X152094942Y-113078041D01*
X152106700Y-113146914D01*
X152079357Y-113211211D01*
X152053000Y-113229145D01*
X152053000Y-110509000D01*
X153196000Y-110509000D01*
X153196000Y-112003000D01*
G37*
G04 #@! TD.AperFunction*
G04 #@! TD*
G04 #@! TA.AperFunction,Conductor*
G04 #@! TO.N,GND*
G36*
X159906000Y-110330000D02*
G01*
X155609000Y-110330000D01*
X153556000Y-109644000D01*
X155334000Y-107358000D01*
X159906000Y-107358000D01*
X159906000Y-110330000D01*
G37*
G04 #@! TD.AperFunction*
G04 #@! TD*
G04 #@! TA.AperFunction,Conductor*
G04 #@! TO.N,+3V3*
G36*
X155966674Y-112160402D02*
G01*
X155987928Y-112166122D01*
X156036389Y-112179165D01*
X156080895Y-112204993D01*
X156127122Y-112251530D01*
X156148475Y-112283719D01*
X156182331Y-112366232D01*
X156188908Y-112390999D01*
X156202167Y-112492582D01*
X156203000Y-112505395D01*
X156203000Y-116356206D01*
X156184093Y-116414397D01*
X156134593Y-116450361D01*
X156073407Y-116450361D01*
X156024345Y-116414994D01*
X155953715Y-116319294D01*
X155953713Y-116319292D01*
X155953711Y-116319289D01*
X155953706Y-116319285D01*
X155847476Y-116240884D01*
X155722852Y-116197276D01*
X155722851Y-116197275D01*
X155722849Y-116197275D01*
X155722847Y-116197274D01*
X155722844Y-116197274D01*
X155693266Y-116194500D01*
X155693256Y-116194500D01*
X155112744Y-116194500D01*
X155112733Y-116194500D01*
X155083155Y-116197274D01*
X155083147Y-116197276D01*
X154958523Y-116240884D01*
X154928788Y-116262830D01*
X154870740Y-116282172D01*
X154812410Y-116263700D01*
X154776077Y-116214471D01*
X154771000Y-116183175D01*
X154771000Y-115970001D01*
X154771000Y-115970000D01*
X154770999Y-115970000D01*
X154562128Y-115970000D01*
X154547951Y-115968980D01*
X154436059Y-115952790D01*
X154408868Y-115944753D01*
X154312696Y-115900520D01*
X154288899Y-115885105D01*
X154203792Y-115810690D01*
X154193791Y-115800590D01*
X153520599Y-115015199D01*
X153515194Y-115008297D01*
X153420047Y-114875034D01*
X153411170Y-114859935D01*
X153407519Y-114852237D01*
X153342880Y-114715960D01*
X153336807Y-114699543D01*
X153294959Y-114545789D01*
X153291873Y-114528549D01*
X153277388Y-114365443D01*
X153277000Y-114356686D01*
X153277000Y-113161861D01*
X153277477Y-113152157D01*
X153295259Y-112971613D01*
X153299045Y-112952579D01*
X153350293Y-112783635D01*
X153357711Y-112765727D01*
X153440938Y-112610020D01*
X153451707Y-112593902D01*
X153563710Y-112457426D01*
X153577426Y-112443710D01*
X153713902Y-112331707D01*
X153730020Y-112320938D01*
X153885727Y-112237711D01*
X153903634Y-112230293D01*
X153961430Y-112212761D01*
X153990164Y-112208500D01*
X155292843Y-112208500D01*
X155360716Y-112196968D01*
X155400173Y-112172174D01*
X155452845Y-112157000D01*
X155940945Y-112157000D01*
X155966674Y-112160402D01*
G37*
G04 #@! TD.AperFunction*
G04 #@! TD*
G04 #@! TA.AperFunction,Conductor*
G04 #@! TO.N,/V_SOLAR*
G36*
X146468226Y-113830685D02*
G01*
X146502090Y-113862926D01*
X147100000Y-114700000D01*
X149767000Y-114700000D01*
X149767001Y-114700000D01*
X149767000Y-114699999D01*
X149960978Y-114376702D01*
X150012349Y-114329344D01*
X150067307Y-114316500D01*
X150686500Y-114316500D01*
X150753539Y-114336185D01*
X150799294Y-114388989D01*
X150810500Y-114440500D01*
X150810500Y-115267201D01*
X150813401Y-115304067D01*
X150813402Y-115304073D01*
X150859254Y-115461893D01*
X150859255Y-115461896D01*
X150859256Y-115461898D01*
X150942919Y-115603365D01*
X151000682Y-115661128D01*
X151034166Y-115722449D01*
X151037000Y-115748808D01*
X151037000Y-116425060D01*
X151030706Y-116464065D01*
X151028326Y-116471247D01*
X151018000Y-116572315D01*
X151018000Y-117145669D01*
X151018001Y-117145687D01*
X151028325Y-117246749D01*
X151028325Y-117246751D01*
X151028326Y-117246753D01*
X151030706Y-117253937D01*
X151031156Y-117256726D01*
X151031977Y-117258003D01*
X151037000Y-117292938D01*
X151037000Y-117370000D01*
X151017315Y-117437039D01*
X150964511Y-117482794D01*
X150913000Y-117494000D01*
X146860568Y-117494000D01*
X146793529Y-117474315D01*
X146791677Y-117473102D01*
X146683185Y-117400609D01*
X146683172Y-117400602D01*
X146537501Y-117340264D01*
X146537489Y-117340261D01*
X146382845Y-117309500D01*
X146382842Y-117309500D01*
X146225158Y-117309500D01*
X146225155Y-117309500D01*
X146070510Y-117340261D01*
X146070498Y-117340264D01*
X145924827Y-117400602D01*
X145924814Y-117400609D01*
X145816323Y-117473102D01*
X145749646Y-117493980D01*
X145747432Y-117494000D01*
X144176000Y-117494000D01*
X144108961Y-117474315D01*
X144063206Y-117421511D01*
X144052000Y-117370000D01*
X144052000Y-113935000D01*
X144071685Y-113867961D01*
X144124489Y-113822206D01*
X144176000Y-113811000D01*
X146401187Y-113811000D01*
X146468226Y-113830685D01*
G37*
G04 #@! TD.AperFunction*
G04 #@! TD*
G04 #@! TA.AperFunction,Conductor*
G04 #@! TO.N,GND*
G36*
X147256000Y-111268000D02*
G01*
X140094000Y-111268000D01*
X140094000Y-108374000D01*
X145809000Y-108374000D01*
X147256000Y-111268000D01*
G37*
G04 #@! TD.AperFunction*
G04 #@! TD*
G04 #@! TA.AperFunction,Conductor*
G04 #@! TO.N,GND*
G36*
X145791280Y-123469280D02*
G01*
X145811849Y-123497150D01*
X145839717Y-123517717D01*
X147206000Y-124884000D01*
X147206000Y-125623502D01*
X142493937Y-125623502D01*
X142468640Y-125620894D01*
X142449165Y-125616835D01*
X142433186Y-125607610D01*
X142380000Y-125593358D01*
X142380000Y-124615731D01*
X142385874Y-124619355D01*
X142385881Y-124619358D01*
X142552303Y-124674505D01*
X142552310Y-124674506D01*
X142655014Y-124684999D01*
X142655027Y-124685000D01*
X143400000Y-124685000D01*
X143900000Y-124685000D01*
X144644973Y-124685000D01*
X144644985Y-124684999D01*
X144747689Y-124674506D01*
X144747696Y-124674505D01*
X144914118Y-124619358D01*
X144914123Y-124619356D01*
X145063344Y-124527315D01*
X145187315Y-124403344D01*
X145279356Y-124254123D01*
X145279358Y-124254118D01*
X145334505Y-124087696D01*
X145334506Y-124087689D01*
X145344999Y-123984985D01*
X145345000Y-123984972D01*
X145345000Y-123677500D01*
X143900000Y-123677500D01*
X143900000Y-124685000D01*
X143400000Y-124685000D01*
X143400000Y-123551500D01*
X143419685Y-123484461D01*
X143472489Y-123438706D01*
X143524000Y-123427500D01*
X143650000Y-123427500D01*
X143650000Y-123301500D01*
X143669685Y-123234461D01*
X143722489Y-123188706D01*
X143774000Y-123177500D01*
X145345000Y-123177500D01*
X145345000Y-123023000D01*
X145791280Y-123469280D01*
G37*
G04 #@! TD.AperFunction*
G04 #@! TD*
G04 #@! TA.AperFunction,Conductor*
G04 #@! TO.N,Net-(U5-SW)*
G36*
X150790691Y-111543907D02*
G01*
X150826655Y-111593407D01*
X150831500Y-111624000D01*
X150831500Y-111631818D01*
X150843031Y-111699689D01*
X150894648Y-111781837D01*
X150892267Y-111783332D01*
X150909898Y-111830245D01*
X150910000Y-111834731D01*
X150910000Y-112950000D01*
X150891093Y-113008191D01*
X150841593Y-113044155D01*
X150811000Y-113049000D01*
X150467488Y-113049000D01*
X150410198Y-113030740D01*
X150410132Y-113030693D01*
X150410129Y-113030690D01*
X150353982Y-112990851D01*
X150264819Y-112970500D01*
X150264818Y-112970500D01*
X149993000Y-112970500D01*
X149934809Y-112951593D01*
X149898845Y-112902093D01*
X149894000Y-112871500D01*
X149894000Y-112541001D01*
X149894000Y-112541000D01*
X149893999Y-112541000D01*
X146973001Y-112541000D01*
X146973000Y-112541000D01*
X146973000Y-112541001D01*
X146973000Y-113077000D01*
X146954093Y-113135191D01*
X146904593Y-113171155D01*
X146874000Y-113176000D01*
X144278000Y-113176000D01*
X144219809Y-113157093D01*
X144183845Y-113107593D01*
X144179000Y-113077000D01*
X144179000Y-111624000D01*
X144197907Y-111565809D01*
X144247407Y-111529845D01*
X144278000Y-111525000D01*
X150732500Y-111525000D01*
X150790691Y-111543907D01*
G37*
G04 #@! TD.AperFunction*
G04 #@! TD*
G04 #@! TA.AperFunction,Conductor*
G04 #@! TO.N,+3V3*
G36*
X154261039Y-120077685D02*
G01*
X154306794Y-120130489D01*
X154318000Y-120182000D01*
X154318000Y-122019792D01*
X154298315Y-122086831D01*
X154257797Y-122126121D01*
X151807450Y-123596329D01*
X151743655Y-123614000D01*
X150378000Y-123614000D01*
X150310961Y-123594315D01*
X150265206Y-123541511D01*
X150254000Y-123490000D01*
X150254000Y-120671043D01*
X150273685Y-120604004D01*
X150326489Y-120558249D01*
X150357609Y-120548731D01*
X153291878Y-120059687D01*
X153312263Y-120058000D01*
X154194000Y-120058000D01*
X154261039Y-120077685D01*
G37*
G04 #@! TD.AperFunction*
G04 #@! TD*
G04 #@! TA.AperFunction,Conductor*
G04 #@! TO.N,GND*
G36*
X153556000Y-109644000D02*
G01*
X155609000Y-110330000D01*
X156002921Y-110330000D01*
X155706368Y-111589474D01*
X155292843Y-112003000D01*
X153196000Y-112003000D01*
X153196000Y-110509000D01*
X152053000Y-110509000D01*
X152053000Y-113247926D01*
X152037460Y-113255524D01*
X152023591Y-113256500D01*
X151886435Y-113256500D01*
X151810014Y-113276977D01*
X151810009Y-113276979D01*
X151759484Y-113306150D01*
X151741489Y-113316539D01*
X151370539Y-113687489D01*
X151330980Y-113756007D01*
X151330978Y-113756011D01*
X151316243Y-113811000D01*
X148116000Y-113811000D01*
X148116000Y-113176000D01*
X150264819Y-113176000D01*
X150304517Y-113215698D01*
X150358285Y-113241983D01*
X150409604Y-113267072D01*
X150409605Y-113267072D01*
X150409607Y-113267073D01*
X150477740Y-113277000D01*
X150477743Y-113277000D01*
X150844257Y-113277000D01*
X150844260Y-113277000D01*
X150912393Y-113267073D01*
X151017483Y-113215698D01*
X151100198Y-113132983D01*
X151151573Y-113027893D01*
X151161500Y-112959760D01*
X151161500Y-111868240D01*
X151151573Y-111800107D01*
X151136362Y-111768993D01*
X151100198Y-111695018D01*
X151100198Y-111695017D01*
X151037000Y-111631819D01*
X151037000Y-111271000D01*
X143544000Y-111271000D01*
X143544000Y-111268000D01*
X147256000Y-111268000D01*
X146368500Y-109493000D01*
X153673444Y-109493000D01*
X153556000Y-109644000D01*
G37*
G04 #@! TD.AperFunction*
G04 #@! TD*
M02*
