%TF.GenerationSoftware,KiCad,Pcbnew,9.0.3-9.0.3-0~ubuntu24.04.1*%
%TF.CreationDate,2025-08-01T09:33:34+02:00*%
%TF.ProjectId,PicoBalloon,5069636f-4261-46c6-9c6f-6f6e2e6b6963,rev?*%
%TF.SameCoordinates,Original*%
%TF.FileFunction,Drillmap*%
%TF.FilePolarity,Positive*%
%FSLAX45Y45*%
G04 Gerber Fmt 4.5, Leading zero omitted, Abs format (unit mm)*
G04 Created by KiCad (PCBNEW 9.0.3-9.0.3-0~ubuntu24.04.1) date 2025-08-01 09:33:34*
%MOMM*%
%LPD*%
G01*
G04 APERTURE LIST*
%ADD10C,0.200000*%
%ADD11C,0.100000*%
G04 APERTURE END LIST*
D10*
X15280000Y-7790000D02*
G75*
G02*
X15580000Y-8090000I0J-300000D01*
G01*
X15730000Y-8740000D02*
G75*
G02*
X15580000Y-8590000I0J150000D01*
G01*
X14580000Y-8590000D02*
G75*
G02*
X14430000Y-8740000I-150000J0D01*
G01*
X14130000Y-9040000D02*
G75*
G02*
X14430000Y-8740000I300000J0D01*
G01*
X15580000Y-8090000D02*
X15580000Y-8590000D01*
X15730000Y-8740000D02*
G75*
G02*
X16030000Y-9040000I0J-300000D01*
G01*
X16180000Y-9190000D02*
G75*
G02*
X16030000Y-9040000I0J150000D01*
G01*
X13980000Y-12790000D02*
G75*
G02*
X13780000Y-12590000I0J200000D01*
G01*
X15855000Y-9040000D02*
G75*
G02*
X15605000Y-9040000I-125000J0D01*
G01*
X15605000Y-9040000D02*
G75*
G02*
X15855000Y-9040000I125000J0D01*
G01*
X14130000Y-9040000D02*
G75*
G02*
X13980000Y-9190000I-150000J0D01*
G01*
X13780000Y-9390000D02*
G75*
G02*
X13980000Y-9190000I200000J0D01*
G01*
X14580000Y-8090000D02*
G75*
G02*
X14880000Y-7790000I300000J0D01*
G01*
X13980000Y-12790000D02*
X16180000Y-12790000D01*
X16380000Y-12590000D02*
G75*
G02*
X16180000Y-12790000I-200000J0D01*
G01*
X14880000Y-7790000D02*
X15280000Y-7790000D01*
X16380000Y-9390000D02*
X16380000Y-12590000D01*
X13780000Y-9390000D02*
X13780000Y-12590000D01*
X16180000Y-9190000D02*
G75*
G02*
X16380000Y-9390000I0J-200000D01*
G01*
X14580000Y-8090000D02*
X14580000Y-8590000D01*
X14555000Y-9040000D02*
G75*
G02*
X14305000Y-9040000I-125000J0D01*
G01*
X14305000Y-9040000D02*
G75*
G02*
X14555000Y-9040000I125000J0D01*
G01*
D11*
X13867400Y-9831800D02*
X13897400Y-9861800D01*
X13897400Y-9831800D02*
X13867400Y-9861800D01*
X13918200Y-9781000D02*
X13948200Y-9811000D01*
X13948200Y-9781000D02*
X13918200Y-9811000D01*
X13955000Y-10455000D02*
X13985000Y-10485000D01*
X13985000Y-10455000D02*
X13955000Y-10485000D01*
X13969000Y-9730200D02*
X13999000Y-9760200D01*
X13999000Y-9730200D02*
X13969000Y-9760200D01*
X13969000Y-10644600D02*
X13999000Y-10674600D01*
X13999000Y-10644600D02*
X13969000Y-10674600D01*
X13994400Y-10035000D02*
X14024400Y-10065000D01*
X14024400Y-10035000D02*
X13994400Y-10065000D01*
X13994400Y-10136600D02*
X14024400Y-10166600D01*
X14024400Y-10136600D02*
X13994400Y-10166600D01*
X13994400Y-10238200D02*
X14024400Y-10268200D01*
X14024400Y-10238200D02*
X13994400Y-10268200D01*
X13994400Y-10339800D02*
X14024400Y-10369800D01*
X14024400Y-10339800D02*
X13994400Y-10369800D01*
X13995000Y-9905000D02*
X14025000Y-9935000D01*
X14025000Y-9905000D02*
X13995000Y-9935000D01*
X14019800Y-9679400D02*
X14049800Y-9709400D01*
X14049800Y-9679400D02*
X14019800Y-9709400D01*
X14070600Y-9577800D02*
X14100600Y-9607800D01*
X14100600Y-9577800D02*
X14070600Y-9607800D01*
X14172200Y-10416000D02*
X14202200Y-10446000D01*
X14202200Y-10416000D02*
X14172200Y-10446000D01*
X14172200Y-10543000D02*
X14202200Y-10573000D01*
X14202200Y-10543000D02*
X14172200Y-10573000D01*
X14273800Y-10543000D02*
X14303800Y-10573000D01*
X14303800Y-10543000D02*
X14273800Y-10573000D01*
X14350000Y-9501600D02*
X14380000Y-9531600D01*
X14380000Y-9501600D02*
X14350000Y-9531600D01*
X14400800Y-9450800D02*
X14430800Y-9480800D01*
X14430800Y-9450800D02*
X14400800Y-9480800D01*
X14451600Y-9400000D02*
X14481600Y-9430000D01*
X14481600Y-9400000D02*
X14451600Y-9430000D01*
X14451600Y-12498800D02*
X14481600Y-12528800D01*
X14481600Y-12498800D02*
X14451600Y-12528800D01*
X14455000Y-10725000D02*
X14485000Y-10755000D01*
X14485000Y-10725000D02*
X14455000Y-10755000D01*
X14458492Y-10133750D02*
X14488492Y-10163750D01*
X14488492Y-10133750D02*
X14458492Y-10163750D01*
X14477000Y-9298400D02*
X14507000Y-9328400D01*
X14507000Y-9298400D02*
X14477000Y-9328400D01*
X14477000Y-11025600D02*
X14507000Y-11055600D01*
X14507000Y-11025600D02*
X14477000Y-11055600D01*
X14542500Y-10925000D02*
X14572500Y-10955000D01*
X14572500Y-10925000D02*
X14542500Y-10955000D01*
X14553200Y-10543000D02*
X14583200Y-10573000D01*
X14583200Y-10543000D02*
X14553200Y-10573000D01*
X14553200Y-12498800D02*
X14583200Y-12528800D01*
X14583200Y-12498800D02*
X14553200Y-12528800D01*
X14578600Y-12422600D02*
X14608600Y-12452600D01*
X14608600Y-12422600D02*
X14578600Y-12452600D01*
X14625000Y-10847800D02*
X14655000Y-10877800D01*
X14655000Y-10847800D02*
X14625000Y-10877800D01*
X14625000Y-11855000D02*
X14655000Y-11885000D01*
X14655000Y-11855000D02*
X14625000Y-11885000D01*
X14629400Y-12498800D02*
X14659400Y-12528800D01*
X14659400Y-12498800D02*
X14629400Y-12528800D01*
X14695000Y-11365000D02*
X14725000Y-11395000D01*
X14725000Y-11365000D02*
X14695000Y-11395000D01*
X14731000Y-9171400D02*
X14761000Y-9201400D01*
X14761000Y-9171400D02*
X14731000Y-9201400D01*
X14731000Y-11990800D02*
X14761000Y-12020800D01*
X14761000Y-11990800D02*
X14731000Y-12020800D01*
X14735000Y-10065000D02*
X14765000Y-10095000D01*
X14765000Y-10065000D02*
X14735000Y-10095000D01*
X14755000Y-9675000D02*
X14785000Y-9705000D01*
X14785000Y-9675000D02*
X14755000Y-9705000D01*
X14756400Y-9247600D02*
X14786400Y-9277600D01*
X14786400Y-9247600D02*
X14756400Y-9277600D01*
X14832600Y-12117800D02*
X14862600Y-12147800D01*
X14862600Y-12117800D02*
X14832600Y-12147800D01*
X14832600Y-12219400D02*
X14862600Y-12249400D01*
X14862600Y-12219400D02*
X14832600Y-12249400D01*
X14835000Y-7925000D02*
X14865000Y-7955000D01*
X14865000Y-7925000D02*
X14835000Y-7955000D01*
X14835000Y-8005000D02*
X14865000Y-8035000D01*
X14865000Y-8005000D02*
X14835000Y-8035000D01*
X14835000Y-8085000D02*
X14865000Y-8115000D01*
X14865000Y-8085000D02*
X14835000Y-8115000D01*
X14835000Y-8165000D02*
X14865000Y-8195000D01*
X14865000Y-8165000D02*
X14835000Y-8195000D01*
X14835000Y-8245000D02*
X14865000Y-8275000D01*
X14865000Y-8245000D02*
X14835000Y-8275000D01*
X14845000Y-8335000D02*
X14875000Y-8365000D01*
X14875000Y-8335000D02*
X14845000Y-8365000D01*
X14885000Y-11835000D02*
X14915000Y-11865000D01*
X14915000Y-11835000D02*
X14885000Y-11865000D01*
X14895000Y-9675000D02*
X14925000Y-9705000D01*
X14925000Y-9675000D02*
X14895000Y-9705000D01*
X14935000Y-8335000D02*
X14965000Y-8365000D01*
X14965000Y-8335000D02*
X14935000Y-8365000D01*
X14959600Y-11330400D02*
X14989600Y-11360400D01*
X14989600Y-11330400D02*
X14959600Y-11360400D01*
X15015000Y-9685000D02*
X15045000Y-9715000D01*
X15045000Y-9685000D02*
X15015000Y-9715000D01*
X15025000Y-8335000D02*
X15055000Y-8365000D01*
X15055000Y-8335000D02*
X15025000Y-8365000D01*
X15038349Y-9328332D02*
X15068349Y-9358332D01*
X15068349Y-9328332D02*
X15038349Y-9358332D01*
X15112000Y-10175000D02*
X15142000Y-10205000D01*
X15142000Y-10175000D02*
X15112000Y-10205000D01*
X15125000Y-8335000D02*
X15155000Y-8365000D01*
X15155000Y-8335000D02*
X15125000Y-8365000D01*
X15125000Y-8975000D02*
X15155000Y-9005000D01*
X15155000Y-8975000D02*
X15125000Y-9005000D01*
X15137400Y-10924000D02*
X15167400Y-10954000D01*
X15167400Y-10924000D02*
X15137400Y-10954000D01*
X15160778Y-10050861D02*
X15190778Y-10080861D01*
X15190778Y-10050861D02*
X15160778Y-10080861D01*
X15176326Y-9935000D02*
X15206326Y-9965000D01*
X15206326Y-9935000D02*
X15176326Y-9965000D01*
X15205000Y-8975000D02*
X15235000Y-9005000D01*
X15235000Y-8975000D02*
X15205000Y-9005000D01*
X15215000Y-8335000D02*
X15245000Y-8365000D01*
X15245000Y-8335000D02*
X15215000Y-8365000D01*
X15225000Y-10185000D02*
X15255000Y-10215000D01*
X15255000Y-10185000D02*
X15225000Y-10215000D01*
X15241100Y-11099400D02*
X15271100Y-11129400D01*
X15271100Y-11099400D02*
X15241100Y-11129400D01*
X15264400Y-10855000D02*
X15294400Y-10885000D01*
X15294400Y-10855000D02*
X15264400Y-10885000D01*
X15264400Y-11609800D02*
X15294400Y-11639800D01*
X15294400Y-11609800D02*
X15264400Y-11639800D01*
X15275000Y-8505000D02*
X15305000Y-8535000D01*
X15305000Y-8505000D02*
X15275000Y-8535000D01*
X15275000Y-8585000D02*
X15305000Y-8615000D01*
X15305000Y-8585000D02*
X15275000Y-8615000D01*
X15275000Y-8655000D02*
X15305000Y-8685000D01*
X15305000Y-8655000D02*
X15275000Y-8685000D01*
X15275000Y-8725000D02*
X15305000Y-8755000D01*
X15305000Y-8725000D02*
X15275000Y-8755000D01*
X15275000Y-8805000D02*
X15305000Y-8835000D01*
X15305000Y-8805000D02*
X15275000Y-8835000D01*
X15275000Y-8875000D02*
X15305000Y-8905000D01*
X15305000Y-8875000D02*
X15275000Y-8905000D01*
X15275000Y-8945000D02*
X15305000Y-8975000D01*
X15305000Y-8945000D02*
X15275000Y-8975000D01*
X15289800Y-9679400D02*
X15319800Y-9709400D01*
X15319800Y-9679400D02*
X15289800Y-9709400D01*
X15289800Y-10974800D02*
X15319800Y-11004800D01*
X15319800Y-10974800D02*
X15289800Y-11004800D01*
X15295000Y-8365000D02*
X15325000Y-8395000D01*
X15325000Y-8365000D02*
X15295000Y-8395000D01*
X15295000Y-8435000D02*
X15325000Y-8465000D01*
X15325000Y-8435000D02*
X15295000Y-8465000D01*
X15365000Y-7965000D02*
X15395000Y-7995000D01*
X15395000Y-7965000D02*
X15365000Y-7995000D01*
X15391400Y-10974800D02*
X15421400Y-11004800D01*
X15421400Y-10974800D02*
X15391400Y-11004800D01*
X15425000Y-8015000D02*
X15455000Y-8045000D01*
X15455000Y-8015000D02*
X15425000Y-8045000D01*
X15465000Y-8085000D02*
X15495000Y-8115000D01*
X15495000Y-8085000D02*
X15465000Y-8115000D01*
X15465000Y-8165000D02*
X15495000Y-8195000D01*
X15495000Y-8165000D02*
X15465000Y-8195000D01*
X15465000Y-8255000D02*
X15495000Y-8285000D01*
X15495000Y-8255000D02*
X15465000Y-8285000D01*
X15465000Y-8335000D02*
X15495000Y-8365000D01*
X15495000Y-8335000D02*
X15465000Y-8365000D01*
X15465000Y-8415000D02*
X15495000Y-8445000D01*
X15495000Y-8415000D02*
X15465000Y-8445000D01*
X15467600Y-10974800D02*
X15497600Y-11004800D01*
X15497600Y-10974800D02*
X15467600Y-11004800D01*
X15475000Y-12365000D02*
X15505000Y-12395000D01*
X15505000Y-12365000D02*
X15475000Y-12395000D01*
X15475000Y-12465000D02*
X15505000Y-12495000D01*
X15505000Y-12465000D02*
X15475000Y-12495000D01*
X15485000Y-8805000D02*
X15515000Y-8835000D01*
X15515000Y-8805000D02*
X15485000Y-8835000D01*
X15495000Y-8485000D02*
X15525000Y-8515000D01*
X15525000Y-8485000D02*
X15495000Y-8515000D01*
X15495000Y-8555000D02*
X15525000Y-8585000D01*
X15525000Y-8555000D02*
X15495000Y-8585000D01*
X15495000Y-8625000D02*
X15525000Y-8655000D01*
X15525000Y-8625000D02*
X15495000Y-8655000D01*
X15495000Y-8695000D02*
X15525000Y-8725000D01*
X15525000Y-8695000D02*
X15495000Y-8725000D01*
X15495000Y-8885000D02*
X15525000Y-8915000D01*
X15525000Y-8885000D02*
X15495000Y-8915000D01*
X15495000Y-8955000D02*
X15525000Y-8985000D01*
X15525000Y-8955000D02*
X15495000Y-8985000D01*
X15495000Y-9025000D02*
X15525000Y-9055000D01*
X15525000Y-9025000D02*
X15495000Y-9055000D01*
X15543800Y-10847800D02*
X15573800Y-10877800D01*
X15573800Y-10847800D02*
X15543800Y-10877800D01*
X15543800Y-10924000D02*
X15573800Y-10954000D01*
X15573800Y-10924000D02*
X15543800Y-10954000D01*
X15555000Y-10033750D02*
X15585000Y-10063750D01*
X15585000Y-10033750D02*
X15555000Y-10063750D01*
X15575000Y-9655000D02*
X15605000Y-9685000D01*
X15605000Y-9655000D02*
X15575000Y-9685000D01*
X15615000Y-9977902D02*
X15645000Y-10007902D01*
X15645000Y-9977902D02*
X15615000Y-10007902D01*
X15620000Y-10771600D02*
X15650000Y-10801600D01*
X15650000Y-10771600D02*
X15620000Y-10801600D01*
X15620000Y-10847800D02*
X15650000Y-10877800D01*
X15650000Y-10847800D02*
X15620000Y-10877800D01*
X15765000Y-10285000D02*
X15795000Y-10315000D01*
X15795000Y-10285000D02*
X15765000Y-10315000D01*
X16045000Y-12365000D02*
X16075000Y-12395000D01*
X16075000Y-12365000D02*
X16045000Y-12395000D01*
X16045000Y-12565000D02*
X16075000Y-12595000D01*
X16075000Y-12565000D02*
X16045000Y-12595000D01*
X16128000Y-11152600D02*
X16158000Y-11182600D01*
X16158000Y-11152600D02*
X16128000Y-11182600D01*
X16178800Y-10746200D02*
X16208800Y-10776200D01*
X16208800Y-10746200D02*
X16178800Y-10776200D01*
X16178800Y-10847800D02*
X16208800Y-10877800D01*
X16208800Y-10847800D02*
X16178800Y-10877800D01*
X16178800Y-10949400D02*
X16208800Y-10979400D01*
X16208800Y-10949400D02*
X16178800Y-10979400D01*
X16178800Y-11889200D02*
X16208800Y-11919200D01*
X16208800Y-11889200D02*
X16178800Y-11919200D01*
X16204200Y-11686000D02*
X16234200Y-11716000D01*
X16234200Y-11686000D02*
X16204200Y-11716000D01*
X16230000Y-12270000D02*
G75*
G02*
X16150000Y-12270000I-40000J0D01*
G01*
X16150000Y-12270000D02*
G75*
G02*
X16230000Y-12270000I40000J0D01*
G01*
X16230000Y-12470000D02*
G75*
G02*
X16150000Y-12470000I-40000J0D01*
G01*
X16150000Y-12470000D02*
G75*
G02*
X16230000Y-12470000I40000J0D01*
G01*
X15920000Y-9296000D02*
X15920000Y-9396000D01*
X15870000Y-9346000D02*
X15970000Y-9346000D01*
X15920000Y-9550000D02*
X15920000Y-9650000D01*
X15870000Y-9600000D02*
X15970000Y-9600000D01*
X15920000Y-9804000D02*
X15920000Y-9904000D01*
X15870000Y-9854000D02*
X15970000Y-9854000D01*
X15920000Y-10058000D02*
X15920000Y-10158000D01*
X15870000Y-10108000D02*
X15970000Y-10108000D01*
D10*
X14030777Y-13111484D02*
X14030777Y-12911484D01*
X14030777Y-12911484D02*
X14078396Y-12911484D01*
X14078396Y-12911484D02*
X14106967Y-12921008D01*
X14106967Y-12921008D02*
X14126015Y-12940055D01*
X14126015Y-12940055D02*
X14135539Y-12959103D01*
X14135539Y-12959103D02*
X14145062Y-12997198D01*
X14145062Y-12997198D02*
X14145062Y-13025769D01*
X14145062Y-13025769D02*
X14135539Y-13063865D01*
X14135539Y-13063865D02*
X14126015Y-13082912D01*
X14126015Y-13082912D02*
X14106967Y-13101960D01*
X14106967Y-13101960D02*
X14078396Y-13111484D01*
X14078396Y-13111484D02*
X14030777Y-13111484D01*
X14230777Y-13111484D02*
X14230777Y-12978150D01*
X14230777Y-13016246D02*
X14240301Y-12997198D01*
X14240301Y-12997198D02*
X14249824Y-12987674D01*
X14249824Y-12987674D02*
X14268872Y-12978150D01*
X14268872Y-12978150D02*
X14287920Y-12978150D01*
X14354586Y-13111484D02*
X14354586Y-12978150D01*
X14354586Y-12911484D02*
X14345062Y-12921008D01*
X14345062Y-12921008D02*
X14354586Y-12930531D01*
X14354586Y-12930531D02*
X14364110Y-12921008D01*
X14364110Y-12921008D02*
X14354586Y-12911484D01*
X14354586Y-12911484D02*
X14354586Y-12930531D01*
X14478396Y-13111484D02*
X14459348Y-13101960D01*
X14459348Y-13101960D02*
X14449824Y-13082912D01*
X14449824Y-13082912D02*
X14449824Y-12911484D01*
X14583158Y-13111484D02*
X14564110Y-13101960D01*
X14564110Y-13101960D02*
X14554586Y-13082912D01*
X14554586Y-13082912D02*
X14554586Y-12911484D01*
X14811729Y-13111484D02*
X14811729Y-12911484D01*
X14811729Y-12911484D02*
X14878396Y-13054341D01*
X14878396Y-13054341D02*
X14945062Y-12911484D01*
X14945062Y-12911484D02*
X14945062Y-13111484D01*
X15126015Y-13111484D02*
X15126015Y-13006722D01*
X15126015Y-13006722D02*
X15116491Y-12987674D01*
X15116491Y-12987674D02*
X15097443Y-12978150D01*
X15097443Y-12978150D02*
X15059348Y-12978150D01*
X15059348Y-12978150D02*
X15040301Y-12987674D01*
X15126015Y-13101960D02*
X15106967Y-13111484D01*
X15106967Y-13111484D02*
X15059348Y-13111484D01*
X15059348Y-13111484D02*
X15040301Y-13101960D01*
X15040301Y-13101960D02*
X15030777Y-13082912D01*
X15030777Y-13082912D02*
X15030777Y-13063865D01*
X15030777Y-13063865D02*
X15040301Y-13044817D01*
X15040301Y-13044817D02*
X15059348Y-13035293D01*
X15059348Y-13035293D02*
X15106967Y-13035293D01*
X15106967Y-13035293D02*
X15126015Y-13025769D01*
X15221253Y-12978150D02*
X15221253Y-13178150D01*
X15221253Y-12987674D02*
X15240301Y-12978150D01*
X15240301Y-12978150D02*
X15278396Y-12978150D01*
X15278396Y-12978150D02*
X15297443Y-12987674D01*
X15297443Y-12987674D02*
X15306967Y-12997198D01*
X15306967Y-12997198D02*
X15316491Y-13016246D01*
X15316491Y-13016246D02*
X15316491Y-13073388D01*
X15316491Y-13073388D02*
X15306967Y-13092436D01*
X15306967Y-13092436D02*
X15297443Y-13101960D01*
X15297443Y-13101960D02*
X15278396Y-13111484D01*
X15278396Y-13111484D02*
X15240301Y-13111484D01*
X15240301Y-13111484D02*
X15221253Y-13101960D01*
X15402205Y-13092436D02*
X15411729Y-13101960D01*
X15411729Y-13101960D02*
X15402205Y-13111484D01*
X15402205Y-13111484D02*
X15392682Y-13101960D01*
X15392682Y-13101960D02*
X15402205Y-13092436D01*
X15402205Y-13092436D02*
X15402205Y-13111484D01*
X15402205Y-12987674D02*
X15411729Y-12997198D01*
X15411729Y-12997198D02*
X15402205Y-13006722D01*
X15402205Y-13006722D02*
X15392682Y-12997198D01*
X15392682Y-12997198D02*
X15402205Y-12987674D01*
X15402205Y-12987674D02*
X15402205Y-13006722D01*
D11*
X13740000Y-13425000D02*
X13770000Y-13455000D01*
X13770000Y-13425000D02*
X13740000Y-13455000D01*
D10*
X14068872Y-13331484D02*
X14087920Y-13331484D01*
X14087920Y-13331484D02*
X14106967Y-13341008D01*
X14106967Y-13341008D02*
X14116491Y-13350531D01*
X14116491Y-13350531D02*
X14126015Y-13369579D01*
X14126015Y-13369579D02*
X14135539Y-13407674D01*
X14135539Y-13407674D02*
X14135539Y-13455293D01*
X14135539Y-13455293D02*
X14126015Y-13493388D01*
X14126015Y-13493388D02*
X14116491Y-13512436D01*
X14116491Y-13512436D02*
X14106967Y-13521960D01*
X14106967Y-13521960D02*
X14087920Y-13531484D01*
X14087920Y-13531484D02*
X14068872Y-13531484D01*
X14068872Y-13531484D02*
X14049824Y-13521960D01*
X14049824Y-13521960D02*
X14040301Y-13512436D01*
X14040301Y-13512436D02*
X14030777Y-13493388D01*
X14030777Y-13493388D02*
X14021253Y-13455293D01*
X14021253Y-13455293D02*
X14021253Y-13407674D01*
X14021253Y-13407674D02*
X14030777Y-13369579D01*
X14030777Y-13369579D02*
X14040301Y-13350531D01*
X14040301Y-13350531D02*
X14049824Y-13341008D01*
X14049824Y-13341008D02*
X14068872Y-13331484D01*
X14221253Y-13512436D02*
X14230777Y-13521960D01*
X14230777Y-13521960D02*
X14221253Y-13531484D01*
X14221253Y-13531484D02*
X14211729Y-13521960D01*
X14211729Y-13521960D02*
X14221253Y-13512436D01*
X14221253Y-13512436D02*
X14221253Y-13531484D01*
X14297443Y-13331484D02*
X14421253Y-13331484D01*
X14421253Y-13331484D02*
X14354586Y-13407674D01*
X14354586Y-13407674D02*
X14383158Y-13407674D01*
X14383158Y-13407674D02*
X14402205Y-13417198D01*
X14402205Y-13417198D02*
X14411729Y-13426722D01*
X14411729Y-13426722D02*
X14421253Y-13445769D01*
X14421253Y-13445769D02*
X14421253Y-13493388D01*
X14421253Y-13493388D02*
X14411729Y-13512436D01*
X14411729Y-13512436D02*
X14402205Y-13521960D01*
X14402205Y-13521960D02*
X14383158Y-13531484D01*
X14383158Y-13531484D02*
X14326015Y-13531484D01*
X14326015Y-13531484D02*
X14306967Y-13521960D01*
X14306967Y-13521960D02*
X14297443Y-13512436D01*
X14545062Y-13331484D02*
X14564110Y-13331484D01*
X14564110Y-13331484D02*
X14583158Y-13341008D01*
X14583158Y-13341008D02*
X14592682Y-13350531D01*
X14592682Y-13350531D02*
X14602205Y-13369579D01*
X14602205Y-13369579D02*
X14611729Y-13407674D01*
X14611729Y-13407674D02*
X14611729Y-13455293D01*
X14611729Y-13455293D02*
X14602205Y-13493388D01*
X14602205Y-13493388D02*
X14592682Y-13512436D01*
X14592682Y-13512436D02*
X14583158Y-13521960D01*
X14583158Y-13521960D02*
X14564110Y-13531484D01*
X14564110Y-13531484D02*
X14545062Y-13531484D01*
X14545062Y-13531484D02*
X14526015Y-13521960D01*
X14526015Y-13521960D02*
X14516491Y-13512436D01*
X14516491Y-13512436D02*
X14506967Y-13493388D01*
X14506967Y-13493388D02*
X14497443Y-13455293D01*
X14497443Y-13455293D02*
X14497443Y-13407674D01*
X14497443Y-13407674D02*
X14506967Y-13369579D01*
X14506967Y-13369579D02*
X14516491Y-13350531D01*
X14516491Y-13350531D02*
X14526015Y-13341008D01*
X14526015Y-13341008D02*
X14545062Y-13331484D01*
X14735539Y-13331484D02*
X14754586Y-13331484D01*
X14754586Y-13331484D02*
X14773634Y-13341008D01*
X14773634Y-13341008D02*
X14783158Y-13350531D01*
X14783158Y-13350531D02*
X14792682Y-13369579D01*
X14792682Y-13369579D02*
X14802205Y-13407674D01*
X14802205Y-13407674D02*
X14802205Y-13455293D01*
X14802205Y-13455293D02*
X14792682Y-13493388D01*
X14792682Y-13493388D02*
X14783158Y-13512436D01*
X14783158Y-13512436D02*
X14773634Y-13521960D01*
X14773634Y-13521960D02*
X14754586Y-13531484D01*
X14754586Y-13531484D02*
X14735539Y-13531484D01*
X14735539Y-13531484D02*
X14716491Y-13521960D01*
X14716491Y-13521960D02*
X14706967Y-13512436D01*
X14706967Y-13512436D02*
X14697443Y-13493388D01*
X14697443Y-13493388D02*
X14687920Y-13455293D01*
X14687920Y-13455293D02*
X14687920Y-13407674D01*
X14687920Y-13407674D02*
X14697443Y-13369579D01*
X14697443Y-13369579D02*
X14706967Y-13350531D01*
X14706967Y-13350531D02*
X14716491Y-13341008D01*
X14716491Y-13341008D02*
X14735539Y-13331484D01*
X14887920Y-13531484D02*
X14887920Y-13398150D01*
X14887920Y-13417198D02*
X14897443Y-13407674D01*
X14897443Y-13407674D02*
X14916491Y-13398150D01*
X14916491Y-13398150D02*
X14945063Y-13398150D01*
X14945063Y-13398150D02*
X14964110Y-13407674D01*
X14964110Y-13407674D02*
X14973634Y-13426722D01*
X14973634Y-13426722D02*
X14973634Y-13531484D01*
X14973634Y-13426722D02*
X14983158Y-13407674D01*
X14983158Y-13407674D02*
X15002205Y-13398150D01*
X15002205Y-13398150D02*
X15030777Y-13398150D01*
X15030777Y-13398150D02*
X15049824Y-13407674D01*
X15049824Y-13407674D02*
X15059348Y-13426722D01*
X15059348Y-13426722D02*
X15059348Y-13531484D01*
X15154586Y-13531484D02*
X15154586Y-13398150D01*
X15154586Y-13417198D02*
X15164110Y-13407674D01*
X15164110Y-13407674D02*
X15183158Y-13398150D01*
X15183158Y-13398150D02*
X15211729Y-13398150D01*
X15211729Y-13398150D02*
X15230777Y-13407674D01*
X15230777Y-13407674D02*
X15240301Y-13426722D01*
X15240301Y-13426722D02*
X15240301Y-13531484D01*
X15240301Y-13426722D02*
X15249824Y-13407674D01*
X15249824Y-13407674D02*
X15268872Y-13398150D01*
X15268872Y-13398150D02*
X15297443Y-13398150D01*
X15297443Y-13398150D02*
X15316491Y-13407674D01*
X15316491Y-13407674D02*
X15326015Y-13426722D01*
X15326015Y-13426722D02*
X15326015Y-13531484D01*
X15716491Y-13321960D02*
X15545063Y-13579103D01*
X15973634Y-13331484D02*
X15992682Y-13331484D01*
X15992682Y-13331484D02*
X16011729Y-13341008D01*
X16011729Y-13341008D02*
X16021253Y-13350531D01*
X16021253Y-13350531D02*
X16030777Y-13369579D01*
X16030777Y-13369579D02*
X16040301Y-13407674D01*
X16040301Y-13407674D02*
X16040301Y-13455293D01*
X16040301Y-13455293D02*
X16030777Y-13493388D01*
X16030777Y-13493388D02*
X16021253Y-13512436D01*
X16021253Y-13512436D02*
X16011729Y-13521960D01*
X16011729Y-13521960D02*
X15992682Y-13531484D01*
X15992682Y-13531484D02*
X15973634Y-13531484D01*
X15973634Y-13531484D02*
X15954586Y-13521960D01*
X15954586Y-13521960D02*
X15945063Y-13512436D01*
X15945063Y-13512436D02*
X15935539Y-13493388D01*
X15935539Y-13493388D02*
X15926015Y-13455293D01*
X15926015Y-13455293D02*
X15926015Y-13407674D01*
X15926015Y-13407674D02*
X15935539Y-13369579D01*
X15935539Y-13369579D02*
X15945063Y-13350531D01*
X15945063Y-13350531D02*
X15954586Y-13341008D01*
X15954586Y-13341008D02*
X15973634Y-13331484D01*
X16126015Y-13512436D02*
X16135539Y-13521960D01*
X16135539Y-13521960D02*
X16126015Y-13531484D01*
X16126015Y-13531484D02*
X16116491Y-13521960D01*
X16116491Y-13521960D02*
X16126015Y-13512436D01*
X16126015Y-13512436D02*
X16126015Y-13531484D01*
X16259348Y-13331484D02*
X16278396Y-13331484D01*
X16278396Y-13331484D02*
X16297444Y-13341008D01*
X16297444Y-13341008D02*
X16306967Y-13350531D01*
X16306967Y-13350531D02*
X16316491Y-13369579D01*
X16316491Y-13369579D02*
X16326015Y-13407674D01*
X16326015Y-13407674D02*
X16326015Y-13455293D01*
X16326015Y-13455293D02*
X16316491Y-13493388D01*
X16316491Y-13493388D02*
X16306967Y-13512436D01*
X16306967Y-13512436D02*
X16297444Y-13521960D01*
X16297444Y-13521960D02*
X16278396Y-13531484D01*
X16278396Y-13531484D02*
X16259348Y-13531484D01*
X16259348Y-13531484D02*
X16240301Y-13521960D01*
X16240301Y-13521960D02*
X16230777Y-13512436D01*
X16230777Y-13512436D02*
X16221253Y-13493388D01*
X16221253Y-13493388D02*
X16211729Y-13455293D01*
X16211729Y-13455293D02*
X16211729Y-13407674D01*
X16211729Y-13407674D02*
X16221253Y-13369579D01*
X16221253Y-13369579D02*
X16230777Y-13350531D01*
X16230777Y-13350531D02*
X16240301Y-13341008D01*
X16240301Y-13341008D02*
X16259348Y-13331484D01*
X16516491Y-13531484D02*
X16402206Y-13531484D01*
X16459348Y-13531484D02*
X16459348Y-13331484D01*
X16459348Y-13331484D02*
X16440301Y-13360055D01*
X16440301Y-13360055D02*
X16421253Y-13379103D01*
X16421253Y-13379103D02*
X16402206Y-13388627D01*
X16706967Y-13531484D02*
X16592682Y-13531484D01*
X16649825Y-13531484D02*
X16649825Y-13331484D01*
X16649825Y-13331484D02*
X16630777Y-13360055D01*
X16630777Y-13360055D02*
X16611729Y-13379103D01*
X16611729Y-13379103D02*
X16592682Y-13388627D01*
X16821253Y-13417198D02*
X16802206Y-13407674D01*
X16802206Y-13407674D02*
X16792682Y-13398150D01*
X16792682Y-13398150D02*
X16783158Y-13379103D01*
X16783158Y-13379103D02*
X16783158Y-13369579D01*
X16783158Y-13369579D02*
X16792682Y-13350531D01*
X16792682Y-13350531D02*
X16802206Y-13341008D01*
X16802206Y-13341008D02*
X16821253Y-13331484D01*
X16821253Y-13331484D02*
X16859349Y-13331484D01*
X16859349Y-13331484D02*
X16878396Y-13341008D01*
X16878396Y-13341008D02*
X16887920Y-13350531D01*
X16887920Y-13350531D02*
X16897444Y-13369579D01*
X16897444Y-13369579D02*
X16897444Y-13379103D01*
X16897444Y-13379103D02*
X16887920Y-13398150D01*
X16887920Y-13398150D02*
X16878396Y-13407674D01*
X16878396Y-13407674D02*
X16859349Y-13417198D01*
X16859349Y-13417198D02*
X16821253Y-13417198D01*
X16821253Y-13417198D02*
X16802206Y-13426722D01*
X16802206Y-13426722D02*
X16792682Y-13436246D01*
X16792682Y-13436246D02*
X16783158Y-13455293D01*
X16783158Y-13455293D02*
X16783158Y-13493388D01*
X16783158Y-13493388D02*
X16792682Y-13512436D01*
X16792682Y-13512436D02*
X16802206Y-13521960D01*
X16802206Y-13521960D02*
X16821253Y-13531484D01*
X16821253Y-13531484D02*
X16859349Y-13531484D01*
X16859349Y-13531484D02*
X16878396Y-13521960D01*
X16878396Y-13521960D02*
X16887920Y-13512436D01*
X16887920Y-13512436D02*
X16897444Y-13493388D01*
X16897444Y-13493388D02*
X16897444Y-13455293D01*
X16897444Y-13455293D02*
X16887920Y-13436246D01*
X16887920Y-13436246D02*
X16878396Y-13426722D01*
X16878396Y-13426722D02*
X16859349Y-13417198D01*
X16973634Y-13331484D02*
X16973634Y-13369579D01*
X17049825Y-13331484D02*
X17049825Y-13369579D01*
X17345063Y-13607674D02*
X17335539Y-13598150D01*
X17335539Y-13598150D02*
X17316491Y-13569579D01*
X17316491Y-13569579D02*
X17306968Y-13550531D01*
X17306968Y-13550531D02*
X17297444Y-13521960D01*
X17297444Y-13521960D02*
X17287920Y-13474341D01*
X17287920Y-13474341D02*
X17287920Y-13436246D01*
X17287920Y-13436246D02*
X17297444Y-13388627D01*
X17297444Y-13388627D02*
X17306968Y-13360055D01*
X17306968Y-13360055D02*
X17316491Y-13341008D01*
X17316491Y-13341008D02*
X17335539Y-13312436D01*
X17335539Y-13312436D02*
X17345063Y-13302912D01*
X17526015Y-13531484D02*
X17411730Y-13531484D01*
X17468872Y-13531484D02*
X17468872Y-13331484D01*
X17468872Y-13331484D02*
X17449825Y-13360055D01*
X17449825Y-13360055D02*
X17430777Y-13379103D01*
X17430777Y-13379103D02*
X17411730Y-13388627D01*
X17649825Y-13331484D02*
X17668872Y-13331484D01*
X17668872Y-13331484D02*
X17687920Y-13341008D01*
X17687920Y-13341008D02*
X17697444Y-13350531D01*
X17697444Y-13350531D02*
X17706968Y-13369579D01*
X17706968Y-13369579D02*
X17716491Y-13407674D01*
X17716491Y-13407674D02*
X17716491Y-13455293D01*
X17716491Y-13455293D02*
X17706968Y-13493388D01*
X17706968Y-13493388D02*
X17697444Y-13512436D01*
X17697444Y-13512436D02*
X17687920Y-13521960D01*
X17687920Y-13521960D02*
X17668872Y-13531484D01*
X17668872Y-13531484D02*
X17649825Y-13531484D01*
X17649825Y-13531484D02*
X17630777Y-13521960D01*
X17630777Y-13521960D02*
X17621253Y-13512436D01*
X17621253Y-13512436D02*
X17611730Y-13493388D01*
X17611730Y-13493388D02*
X17602206Y-13455293D01*
X17602206Y-13455293D02*
X17602206Y-13407674D01*
X17602206Y-13407674D02*
X17611730Y-13369579D01*
X17611730Y-13369579D02*
X17621253Y-13350531D01*
X17621253Y-13350531D02*
X17630777Y-13341008D01*
X17630777Y-13341008D02*
X17649825Y-13331484D01*
X17811730Y-13531484D02*
X17849825Y-13531484D01*
X17849825Y-13531484D02*
X17868872Y-13521960D01*
X17868872Y-13521960D02*
X17878396Y-13512436D01*
X17878396Y-13512436D02*
X17897444Y-13483865D01*
X17897444Y-13483865D02*
X17906968Y-13445769D01*
X17906968Y-13445769D02*
X17906968Y-13369579D01*
X17906968Y-13369579D02*
X17897444Y-13350531D01*
X17897444Y-13350531D02*
X17887920Y-13341008D01*
X17887920Y-13341008D02*
X17868872Y-13331484D01*
X17868872Y-13331484D02*
X17830777Y-13331484D01*
X17830777Y-13331484D02*
X17811730Y-13341008D01*
X17811730Y-13341008D02*
X17802206Y-13350531D01*
X17802206Y-13350531D02*
X17792682Y-13369579D01*
X17792682Y-13369579D02*
X17792682Y-13417198D01*
X17792682Y-13417198D02*
X17802206Y-13436246D01*
X17802206Y-13436246D02*
X17811730Y-13445769D01*
X17811730Y-13445769D02*
X17830777Y-13455293D01*
X17830777Y-13455293D02*
X17868872Y-13455293D01*
X17868872Y-13455293D02*
X17887920Y-13445769D01*
X17887920Y-13445769D02*
X17897444Y-13436246D01*
X17897444Y-13436246D02*
X17906968Y-13417198D01*
X18145063Y-13531484D02*
X18145063Y-13331484D01*
X18230777Y-13531484D02*
X18230777Y-13426722D01*
X18230777Y-13426722D02*
X18221253Y-13407674D01*
X18221253Y-13407674D02*
X18202206Y-13398150D01*
X18202206Y-13398150D02*
X18173634Y-13398150D01*
X18173634Y-13398150D02*
X18154587Y-13407674D01*
X18154587Y-13407674D02*
X18145063Y-13417198D01*
X18354587Y-13531484D02*
X18335539Y-13521960D01*
X18335539Y-13521960D02*
X18326015Y-13512436D01*
X18326015Y-13512436D02*
X18316492Y-13493388D01*
X18316492Y-13493388D02*
X18316492Y-13436246D01*
X18316492Y-13436246D02*
X18326015Y-13417198D01*
X18326015Y-13417198D02*
X18335539Y-13407674D01*
X18335539Y-13407674D02*
X18354587Y-13398150D01*
X18354587Y-13398150D02*
X18383158Y-13398150D01*
X18383158Y-13398150D02*
X18402206Y-13407674D01*
X18402206Y-13407674D02*
X18411730Y-13417198D01*
X18411730Y-13417198D02*
X18421253Y-13436246D01*
X18421253Y-13436246D02*
X18421253Y-13493388D01*
X18421253Y-13493388D02*
X18411730Y-13512436D01*
X18411730Y-13512436D02*
X18402206Y-13521960D01*
X18402206Y-13521960D02*
X18383158Y-13531484D01*
X18383158Y-13531484D02*
X18354587Y-13531484D01*
X18535539Y-13531484D02*
X18516492Y-13521960D01*
X18516492Y-13521960D02*
X18506968Y-13502912D01*
X18506968Y-13502912D02*
X18506968Y-13331484D01*
X18687920Y-13521960D02*
X18668873Y-13531484D01*
X18668873Y-13531484D02*
X18630777Y-13531484D01*
X18630777Y-13531484D02*
X18611730Y-13521960D01*
X18611730Y-13521960D02*
X18602206Y-13502912D01*
X18602206Y-13502912D02*
X18602206Y-13426722D01*
X18602206Y-13426722D02*
X18611730Y-13407674D01*
X18611730Y-13407674D02*
X18630777Y-13398150D01*
X18630777Y-13398150D02*
X18668873Y-13398150D01*
X18668873Y-13398150D02*
X18687920Y-13407674D01*
X18687920Y-13407674D02*
X18697444Y-13426722D01*
X18697444Y-13426722D02*
X18697444Y-13445769D01*
X18697444Y-13445769D02*
X18602206Y-13464817D01*
X18773634Y-13521960D02*
X18792682Y-13531484D01*
X18792682Y-13531484D02*
X18830777Y-13531484D01*
X18830777Y-13531484D02*
X18849825Y-13521960D01*
X18849825Y-13521960D02*
X18859349Y-13502912D01*
X18859349Y-13502912D02*
X18859349Y-13493388D01*
X18859349Y-13493388D02*
X18849825Y-13474341D01*
X18849825Y-13474341D02*
X18830777Y-13464817D01*
X18830777Y-13464817D02*
X18802206Y-13464817D01*
X18802206Y-13464817D02*
X18783158Y-13455293D01*
X18783158Y-13455293D02*
X18773634Y-13436246D01*
X18773634Y-13436246D02*
X18773634Y-13426722D01*
X18773634Y-13426722D02*
X18783158Y-13407674D01*
X18783158Y-13407674D02*
X18802206Y-13398150D01*
X18802206Y-13398150D02*
X18830777Y-13398150D01*
X18830777Y-13398150D02*
X18849825Y-13407674D01*
X18926015Y-13607674D02*
X18935539Y-13598150D01*
X18935539Y-13598150D02*
X18954587Y-13569579D01*
X18954587Y-13569579D02*
X18964111Y-13550531D01*
X18964111Y-13550531D02*
X18973634Y-13521960D01*
X18973634Y-13521960D02*
X18983158Y-13474341D01*
X18983158Y-13474341D02*
X18983158Y-13436246D01*
X18983158Y-13436246D02*
X18973634Y-13388627D01*
X18973634Y-13388627D02*
X18964111Y-13360055D01*
X18964111Y-13360055D02*
X18954587Y-13341008D01*
X18954587Y-13341008D02*
X18935539Y-13312436D01*
X18935539Y-13312436D02*
X18926015Y-13302912D01*
D11*
X13770000Y-13704000D02*
G75*
G02*
X13690000Y-13704000I-40000J0D01*
G01*
X13690000Y-13704000D02*
G75*
G02*
X13770000Y-13704000I40000J0D01*
G01*
D10*
X14068872Y-13595484D02*
X14087920Y-13595484D01*
X14087920Y-13595484D02*
X14106967Y-13605008D01*
X14106967Y-13605008D02*
X14116491Y-13614531D01*
X14116491Y-13614531D02*
X14126015Y-13633579D01*
X14126015Y-13633579D02*
X14135539Y-13671674D01*
X14135539Y-13671674D02*
X14135539Y-13719293D01*
X14135539Y-13719293D02*
X14126015Y-13757388D01*
X14126015Y-13757388D02*
X14116491Y-13776436D01*
X14116491Y-13776436D02*
X14106967Y-13785960D01*
X14106967Y-13785960D02*
X14087920Y-13795484D01*
X14087920Y-13795484D02*
X14068872Y-13795484D01*
X14068872Y-13795484D02*
X14049824Y-13785960D01*
X14049824Y-13785960D02*
X14040301Y-13776436D01*
X14040301Y-13776436D02*
X14030777Y-13757388D01*
X14030777Y-13757388D02*
X14021253Y-13719293D01*
X14021253Y-13719293D02*
X14021253Y-13671674D01*
X14021253Y-13671674D02*
X14030777Y-13633579D01*
X14030777Y-13633579D02*
X14040301Y-13614531D01*
X14040301Y-13614531D02*
X14049824Y-13605008D01*
X14049824Y-13605008D02*
X14068872Y-13595484D01*
X14221253Y-13776436D02*
X14230777Y-13785960D01*
X14230777Y-13785960D02*
X14221253Y-13795484D01*
X14221253Y-13795484D02*
X14211729Y-13785960D01*
X14211729Y-13785960D02*
X14221253Y-13776436D01*
X14221253Y-13776436D02*
X14221253Y-13795484D01*
X14345062Y-13681198D02*
X14326015Y-13671674D01*
X14326015Y-13671674D02*
X14316491Y-13662150D01*
X14316491Y-13662150D02*
X14306967Y-13643103D01*
X14306967Y-13643103D02*
X14306967Y-13633579D01*
X14306967Y-13633579D02*
X14316491Y-13614531D01*
X14316491Y-13614531D02*
X14326015Y-13605008D01*
X14326015Y-13605008D02*
X14345062Y-13595484D01*
X14345062Y-13595484D02*
X14383158Y-13595484D01*
X14383158Y-13595484D02*
X14402205Y-13605008D01*
X14402205Y-13605008D02*
X14411729Y-13614531D01*
X14411729Y-13614531D02*
X14421253Y-13633579D01*
X14421253Y-13633579D02*
X14421253Y-13643103D01*
X14421253Y-13643103D02*
X14411729Y-13662150D01*
X14411729Y-13662150D02*
X14402205Y-13671674D01*
X14402205Y-13671674D02*
X14383158Y-13681198D01*
X14383158Y-13681198D02*
X14345062Y-13681198D01*
X14345062Y-13681198D02*
X14326015Y-13690722D01*
X14326015Y-13690722D02*
X14316491Y-13700246D01*
X14316491Y-13700246D02*
X14306967Y-13719293D01*
X14306967Y-13719293D02*
X14306967Y-13757388D01*
X14306967Y-13757388D02*
X14316491Y-13776436D01*
X14316491Y-13776436D02*
X14326015Y-13785960D01*
X14326015Y-13785960D02*
X14345062Y-13795484D01*
X14345062Y-13795484D02*
X14383158Y-13795484D01*
X14383158Y-13795484D02*
X14402205Y-13785960D01*
X14402205Y-13785960D02*
X14411729Y-13776436D01*
X14411729Y-13776436D02*
X14421253Y-13757388D01*
X14421253Y-13757388D02*
X14421253Y-13719293D01*
X14421253Y-13719293D02*
X14411729Y-13700246D01*
X14411729Y-13700246D02*
X14402205Y-13690722D01*
X14402205Y-13690722D02*
X14383158Y-13681198D01*
X14545062Y-13595484D02*
X14564110Y-13595484D01*
X14564110Y-13595484D02*
X14583158Y-13605008D01*
X14583158Y-13605008D02*
X14592682Y-13614531D01*
X14592682Y-13614531D02*
X14602205Y-13633579D01*
X14602205Y-13633579D02*
X14611729Y-13671674D01*
X14611729Y-13671674D02*
X14611729Y-13719293D01*
X14611729Y-13719293D02*
X14602205Y-13757388D01*
X14602205Y-13757388D02*
X14592682Y-13776436D01*
X14592682Y-13776436D02*
X14583158Y-13785960D01*
X14583158Y-13785960D02*
X14564110Y-13795484D01*
X14564110Y-13795484D02*
X14545062Y-13795484D01*
X14545062Y-13795484D02*
X14526015Y-13785960D01*
X14526015Y-13785960D02*
X14516491Y-13776436D01*
X14516491Y-13776436D02*
X14506967Y-13757388D01*
X14506967Y-13757388D02*
X14497443Y-13719293D01*
X14497443Y-13719293D02*
X14497443Y-13671674D01*
X14497443Y-13671674D02*
X14506967Y-13633579D01*
X14506967Y-13633579D02*
X14516491Y-13614531D01*
X14516491Y-13614531D02*
X14526015Y-13605008D01*
X14526015Y-13605008D02*
X14545062Y-13595484D01*
X14735539Y-13595484D02*
X14754586Y-13595484D01*
X14754586Y-13595484D02*
X14773634Y-13605008D01*
X14773634Y-13605008D02*
X14783158Y-13614531D01*
X14783158Y-13614531D02*
X14792682Y-13633579D01*
X14792682Y-13633579D02*
X14802205Y-13671674D01*
X14802205Y-13671674D02*
X14802205Y-13719293D01*
X14802205Y-13719293D02*
X14792682Y-13757388D01*
X14792682Y-13757388D02*
X14783158Y-13776436D01*
X14783158Y-13776436D02*
X14773634Y-13785960D01*
X14773634Y-13785960D02*
X14754586Y-13795484D01*
X14754586Y-13795484D02*
X14735539Y-13795484D01*
X14735539Y-13795484D02*
X14716491Y-13785960D01*
X14716491Y-13785960D02*
X14706967Y-13776436D01*
X14706967Y-13776436D02*
X14697443Y-13757388D01*
X14697443Y-13757388D02*
X14687920Y-13719293D01*
X14687920Y-13719293D02*
X14687920Y-13671674D01*
X14687920Y-13671674D02*
X14697443Y-13633579D01*
X14697443Y-13633579D02*
X14706967Y-13614531D01*
X14706967Y-13614531D02*
X14716491Y-13605008D01*
X14716491Y-13605008D02*
X14735539Y-13595484D01*
X14887920Y-13795484D02*
X14887920Y-13662150D01*
X14887920Y-13681198D02*
X14897443Y-13671674D01*
X14897443Y-13671674D02*
X14916491Y-13662150D01*
X14916491Y-13662150D02*
X14945063Y-13662150D01*
X14945063Y-13662150D02*
X14964110Y-13671674D01*
X14964110Y-13671674D02*
X14973634Y-13690722D01*
X14973634Y-13690722D02*
X14973634Y-13795484D01*
X14973634Y-13690722D02*
X14983158Y-13671674D01*
X14983158Y-13671674D02*
X15002205Y-13662150D01*
X15002205Y-13662150D02*
X15030777Y-13662150D01*
X15030777Y-13662150D02*
X15049824Y-13671674D01*
X15049824Y-13671674D02*
X15059348Y-13690722D01*
X15059348Y-13690722D02*
X15059348Y-13795484D01*
X15154586Y-13795484D02*
X15154586Y-13662150D01*
X15154586Y-13681198D02*
X15164110Y-13671674D01*
X15164110Y-13671674D02*
X15183158Y-13662150D01*
X15183158Y-13662150D02*
X15211729Y-13662150D01*
X15211729Y-13662150D02*
X15230777Y-13671674D01*
X15230777Y-13671674D02*
X15240301Y-13690722D01*
X15240301Y-13690722D02*
X15240301Y-13795484D01*
X15240301Y-13690722D02*
X15249824Y-13671674D01*
X15249824Y-13671674D02*
X15268872Y-13662150D01*
X15268872Y-13662150D02*
X15297443Y-13662150D01*
X15297443Y-13662150D02*
X15316491Y-13671674D01*
X15316491Y-13671674D02*
X15326015Y-13690722D01*
X15326015Y-13690722D02*
X15326015Y-13795484D01*
X15716491Y-13585960D02*
X15545063Y-13843103D01*
X15973634Y-13595484D02*
X15992682Y-13595484D01*
X15992682Y-13595484D02*
X16011729Y-13605008D01*
X16011729Y-13605008D02*
X16021253Y-13614531D01*
X16021253Y-13614531D02*
X16030777Y-13633579D01*
X16030777Y-13633579D02*
X16040301Y-13671674D01*
X16040301Y-13671674D02*
X16040301Y-13719293D01*
X16040301Y-13719293D02*
X16030777Y-13757388D01*
X16030777Y-13757388D02*
X16021253Y-13776436D01*
X16021253Y-13776436D02*
X16011729Y-13785960D01*
X16011729Y-13785960D02*
X15992682Y-13795484D01*
X15992682Y-13795484D02*
X15973634Y-13795484D01*
X15973634Y-13795484D02*
X15954586Y-13785960D01*
X15954586Y-13785960D02*
X15945063Y-13776436D01*
X15945063Y-13776436D02*
X15935539Y-13757388D01*
X15935539Y-13757388D02*
X15926015Y-13719293D01*
X15926015Y-13719293D02*
X15926015Y-13671674D01*
X15926015Y-13671674D02*
X15935539Y-13633579D01*
X15935539Y-13633579D02*
X15945063Y-13614531D01*
X15945063Y-13614531D02*
X15954586Y-13605008D01*
X15954586Y-13605008D02*
X15973634Y-13595484D01*
X16126015Y-13776436D02*
X16135539Y-13785960D01*
X16135539Y-13785960D02*
X16126015Y-13795484D01*
X16126015Y-13795484D02*
X16116491Y-13785960D01*
X16116491Y-13785960D02*
X16126015Y-13776436D01*
X16126015Y-13776436D02*
X16126015Y-13795484D01*
X16259348Y-13595484D02*
X16278396Y-13595484D01*
X16278396Y-13595484D02*
X16297444Y-13605008D01*
X16297444Y-13605008D02*
X16306967Y-13614531D01*
X16306967Y-13614531D02*
X16316491Y-13633579D01*
X16316491Y-13633579D02*
X16326015Y-13671674D01*
X16326015Y-13671674D02*
X16326015Y-13719293D01*
X16326015Y-13719293D02*
X16316491Y-13757388D01*
X16316491Y-13757388D02*
X16306967Y-13776436D01*
X16306967Y-13776436D02*
X16297444Y-13785960D01*
X16297444Y-13785960D02*
X16278396Y-13795484D01*
X16278396Y-13795484D02*
X16259348Y-13795484D01*
X16259348Y-13795484D02*
X16240301Y-13785960D01*
X16240301Y-13785960D02*
X16230777Y-13776436D01*
X16230777Y-13776436D02*
X16221253Y-13757388D01*
X16221253Y-13757388D02*
X16211729Y-13719293D01*
X16211729Y-13719293D02*
X16211729Y-13671674D01*
X16211729Y-13671674D02*
X16221253Y-13633579D01*
X16221253Y-13633579D02*
X16230777Y-13614531D01*
X16230777Y-13614531D02*
X16240301Y-13605008D01*
X16240301Y-13605008D02*
X16259348Y-13595484D01*
X16392682Y-13595484D02*
X16516491Y-13595484D01*
X16516491Y-13595484D02*
X16449825Y-13671674D01*
X16449825Y-13671674D02*
X16478396Y-13671674D01*
X16478396Y-13671674D02*
X16497444Y-13681198D01*
X16497444Y-13681198D02*
X16506967Y-13690722D01*
X16506967Y-13690722D02*
X16516491Y-13709769D01*
X16516491Y-13709769D02*
X16516491Y-13757388D01*
X16516491Y-13757388D02*
X16506967Y-13776436D01*
X16506967Y-13776436D02*
X16497444Y-13785960D01*
X16497444Y-13785960D02*
X16478396Y-13795484D01*
X16478396Y-13795484D02*
X16421253Y-13795484D01*
X16421253Y-13795484D02*
X16402206Y-13785960D01*
X16402206Y-13785960D02*
X16392682Y-13776436D01*
X16706967Y-13795484D02*
X16592682Y-13795484D01*
X16649825Y-13795484D02*
X16649825Y-13595484D01*
X16649825Y-13595484D02*
X16630777Y-13624055D01*
X16630777Y-13624055D02*
X16611729Y-13643103D01*
X16611729Y-13643103D02*
X16592682Y-13652627D01*
X16887920Y-13595484D02*
X16792682Y-13595484D01*
X16792682Y-13595484D02*
X16783158Y-13690722D01*
X16783158Y-13690722D02*
X16792682Y-13681198D01*
X16792682Y-13681198D02*
X16811729Y-13671674D01*
X16811729Y-13671674D02*
X16859349Y-13671674D01*
X16859349Y-13671674D02*
X16878396Y-13681198D01*
X16878396Y-13681198D02*
X16887920Y-13690722D01*
X16887920Y-13690722D02*
X16897444Y-13709769D01*
X16897444Y-13709769D02*
X16897444Y-13757388D01*
X16897444Y-13757388D02*
X16887920Y-13776436D01*
X16887920Y-13776436D02*
X16878396Y-13785960D01*
X16878396Y-13785960D02*
X16859349Y-13795484D01*
X16859349Y-13795484D02*
X16811729Y-13795484D01*
X16811729Y-13795484D02*
X16792682Y-13785960D01*
X16792682Y-13785960D02*
X16783158Y-13776436D01*
X16973634Y-13595484D02*
X16973634Y-13633579D01*
X17049825Y-13595484D02*
X17049825Y-13633579D01*
X17345063Y-13871674D02*
X17335539Y-13862150D01*
X17335539Y-13862150D02*
X17316491Y-13833579D01*
X17316491Y-13833579D02*
X17306968Y-13814531D01*
X17306968Y-13814531D02*
X17297444Y-13785960D01*
X17297444Y-13785960D02*
X17287920Y-13738341D01*
X17287920Y-13738341D02*
X17287920Y-13700246D01*
X17287920Y-13700246D02*
X17297444Y-13652627D01*
X17297444Y-13652627D02*
X17306968Y-13624055D01*
X17306968Y-13624055D02*
X17316491Y-13605008D01*
X17316491Y-13605008D02*
X17335539Y-13576436D01*
X17335539Y-13576436D02*
X17345063Y-13566912D01*
X17411730Y-13614531D02*
X17421253Y-13605008D01*
X17421253Y-13605008D02*
X17440301Y-13595484D01*
X17440301Y-13595484D02*
X17487920Y-13595484D01*
X17487920Y-13595484D02*
X17506968Y-13605008D01*
X17506968Y-13605008D02*
X17516491Y-13614531D01*
X17516491Y-13614531D02*
X17526015Y-13633579D01*
X17526015Y-13633579D02*
X17526015Y-13652627D01*
X17526015Y-13652627D02*
X17516491Y-13681198D01*
X17516491Y-13681198D02*
X17402206Y-13795484D01*
X17402206Y-13795484D02*
X17526015Y-13795484D01*
X17764111Y-13795484D02*
X17764111Y-13595484D01*
X17849825Y-13795484D02*
X17849825Y-13690722D01*
X17849825Y-13690722D02*
X17840301Y-13671674D01*
X17840301Y-13671674D02*
X17821253Y-13662150D01*
X17821253Y-13662150D02*
X17792682Y-13662150D01*
X17792682Y-13662150D02*
X17773634Y-13671674D01*
X17773634Y-13671674D02*
X17764111Y-13681198D01*
X17973634Y-13795484D02*
X17954587Y-13785960D01*
X17954587Y-13785960D02*
X17945063Y-13776436D01*
X17945063Y-13776436D02*
X17935539Y-13757388D01*
X17935539Y-13757388D02*
X17935539Y-13700246D01*
X17935539Y-13700246D02*
X17945063Y-13681198D01*
X17945063Y-13681198D02*
X17954587Y-13671674D01*
X17954587Y-13671674D02*
X17973634Y-13662150D01*
X17973634Y-13662150D02*
X18002206Y-13662150D01*
X18002206Y-13662150D02*
X18021253Y-13671674D01*
X18021253Y-13671674D02*
X18030777Y-13681198D01*
X18030777Y-13681198D02*
X18040301Y-13700246D01*
X18040301Y-13700246D02*
X18040301Y-13757388D01*
X18040301Y-13757388D02*
X18030777Y-13776436D01*
X18030777Y-13776436D02*
X18021253Y-13785960D01*
X18021253Y-13785960D02*
X18002206Y-13795484D01*
X18002206Y-13795484D02*
X17973634Y-13795484D01*
X18154587Y-13795484D02*
X18135539Y-13785960D01*
X18135539Y-13785960D02*
X18126015Y-13766912D01*
X18126015Y-13766912D02*
X18126015Y-13595484D01*
X18306968Y-13785960D02*
X18287920Y-13795484D01*
X18287920Y-13795484D02*
X18249825Y-13795484D01*
X18249825Y-13795484D02*
X18230777Y-13785960D01*
X18230777Y-13785960D02*
X18221253Y-13766912D01*
X18221253Y-13766912D02*
X18221253Y-13690722D01*
X18221253Y-13690722D02*
X18230777Y-13671674D01*
X18230777Y-13671674D02*
X18249825Y-13662150D01*
X18249825Y-13662150D02*
X18287920Y-13662150D01*
X18287920Y-13662150D02*
X18306968Y-13671674D01*
X18306968Y-13671674D02*
X18316492Y-13690722D01*
X18316492Y-13690722D02*
X18316492Y-13709769D01*
X18316492Y-13709769D02*
X18221253Y-13728817D01*
X18392682Y-13785960D02*
X18411730Y-13795484D01*
X18411730Y-13795484D02*
X18449825Y-13795484D01*
X18449825Y-13795484D02*
X18468873Y-13785960D01*
X18468873Y-13785960D02*
X18478396Y-13766912D01*
X18478396Y-13766912D02*
X18478396Y-13757388D01*
X18478396Y-13757388D02*
X18468873Y-13738341D01*
X18468873Y-13738341D02*
X18449825Y-13728817D01*
X18449825Y-13728817D02*
X18421253Y-13728817D01*
X18421253Y-13728817D02*
X18402206Y-13719293D01*
X18402206Y-13719293D02*
X18392682Y-13700246D01*
X18392682Y-13700246D02*
X18392682Y-13690722D01*
X18392682Y-13690722D02*
X18402206Y-13671674D01*
X18402206Y-13671674D02*
X18421253Y-13662150D01*
X18421253Y-13662150D02*
X18449825Y-13662150D01*
X18449825Y-13662150D02*
X18468873Y-13671674D01*
X18545063Y-13871674D02*
X18554587Y-13862150D01*
X18554587Y-13862150D02*
X18573634Y-13833579D01*
X18573634Y-13833579D02*
X18583158Y-13814531D01*
X18583158Y-13814531D02*
X18592682Y-13785960D01*
X18592682Y-13785960D02*
X18602206Y-13738341D01*
X18602206Y-13738341D02*
X18602206Y-13700246D01*
X18602206Y-13700246D02*
X18592682Y-13652627D01*
X18592682Y-13652627D02*
X18583158Y-13624055D01*
X18583158Y-13624055D02*
X18573634Y-13605008D01*
X18573634Y-13605008D02*
X18554587Y-13576436D01*
X18554587Y-13576436D02*
X18545063Y-13566912D01*
D11*
X13720000Y-13918000D02*
X13720000Y-14018000D01*
X13670000Y-13968000D02*
X13770000Y-13968000D01*
D10*
X14135539Y-14059484D02*
X14021253Y-14059484D01*
X14078396Y-14059484D02*
X14078396Y-13859484D01*
X14078396Y-13859484D02*
X14059348Y-13888055D01*
X14059348Y-13888055D02*
X14040301Y-13907103D01*
X14040301Y-13907103D02*
X14021253Y-13916627D01*
X14221253Y-14040436D02*
X14230777Y-14049960D01*
X14230777Y-14049960D02*
X14221253Y-14059484D01*
X14221253Y-14059484D02*
X14211729Y-14049960D01*
X14211729Y-14049960D02*
X14221253Y-14040436D01*
X14221253Y-14040436D02*
X14221253Y-14059484D01*
X14354586Y-13859484D02*
X14373634Y-13859484D01*
X14373634Y-13859484D02*
X14392682Y-13869008D01*
X14392682Y-13869008D02*
X14402205Y-13878531D01*
X14402205Y-13878531D02*
X14411729Y-13897579D01*
X14411729Y-13897579D02*
X14421253Y-13935674D01*
X14421253Y-13935674D02*
X14421253Y-13983293D01*
X14421253Y-13983293D02*
X14411729Y-14021388D01*
X14411729Y-14021388D02*
X14402205Y-14040436D01*
X14402205Y-14040436D02*
X14392682Y-14049960D01*
X14392682Y-14049960D02*
X14373634Y-14059484D01*
X14373634Y-14059484D02*
X14354586Y-14059484D01*
X14354586Y-14059484D02*
X14335539Y-14049960D01*
X14335539Y-14049960D02*
X14326015Y-14040436D01*
X14326015Y-14040436D02*
X14316491Y-14021388D01*
X14316491Y-14021388D02*
X14306967Y-13983293D01*
X14306967Y-13983293D02*
X14306967Y-13935674D01*
X14306967Y-13935674D02*
X14316491Y-13897579D01*
X14316491Y-13897579D02*
X14326015Y-13878531D01*
X14326015Y-13878531D02*
X14335539Y-13869008D01*
X14335539Y-13869008D02*
X14354586Y-13859484D01*
X14545062Y-13859484D02*
X14564110Y-13859484D01*
X14564110Y-13859484D02*
X14583158Y-13869008D01*
X14583158Y-13869008D02*
X14592682Y-13878531D01*
X14592682Y-13878531D02*
X14602205Y-13897579D01*
X14602205Y-13897579D02*
X14611729Y-13935674D01*
X14611729Y-13935674D02*
X14611729Y-13983293D01*
X14611729Y-13983293D02*
X14602205Y-14021388D01*
X14602205Y-14021388D02*
X14592682Y-14040436D01*
X14592682Y-14040436D02*
X14583158Y-14049960D01*
X14583158Y-14049960D02*
X14564110Y-14059484D01*
X14564110Y-14059484D02*
X14545062Y-14059484D01*
X14545062Y-14059484D02*
X14526015Y-14049960D01*
X14526015Y-14049960D02*
X14516491Y-14040436D01*
X14516491Y-14040436D02*
X14506967Y-14021388D01*
X14506967Y-14021388D02*
X14497443Y-13983293D01*
X14497443Y-13983293D02*
X14497443Y-13935674D01*
X14497443Y-13935674D02*
X14506967Y-13897579D01*
X14506967Y-13897579D02*
X14516491Y-13878531D01*
X14516491Y-13878531D02*
X14526015Y-13869008D01*
X14526015Y-13869008D02*
X14545062Y-13859484D01*
X14735539Y-13859484D02*
X14754586Y-13859484D01*
X14754586Y-13859484D02*
X14773634Y-13869008D01*
X14773634Y-13869008D02*
X14783158Y-13878531D01*
X14783158Y-13878531D02*
X14792682Y-13897579D01*
X14792682Y-13897579D02*
X14802205Y-13935674D01*
X14802205Y-13935674D02*
X14802205Y-13983293D01*
X14802205Y-13983293D02*
X14792682Y-14021388D01*
X14792682Y-14021388D02*
X14783158Y-14040436D01*
X14783158Y-14040436D02*
X14773634Y-14049960D01*
X14773634Y-14049960D02*
X14754586Y-14059484D01*
X14754586Y-14059484D02*
X14735539Y-14059484D01*
X14735539Y-14059484D02*
X14716491Y-14049960D01*
X14716491Y-14049960D02*
X14706967Y-14040436D01*
X14706967Y-14040436D02*
X14697443Y-14021388D01*
X14697443Y-14021388D02*
X14687920Y-13983293D01*
X14687920Y-13983293D02*
X14687920Y-13935674D01*
X14687920Y-13935674D02*
X14697443Y-13897579D01*
X14697443Y-13897579D02*
X14706967Y-13878531D01*
X14706967Y-13878531D02*
X14716491Y-13869008D01*
X14716491Y-13869008D02*
X14735539Y-13859484D01*
X14887920Y-14059484D02*
X14887920Y-13926150D01*
X14887920Y-13945198D02*
X14897443Y-13935674D01*
X14897443Y-13935674D02*
X14916491Y-13926150D01*
X14916491Y-13926150D02*
X14945063Y-13926150D01*
X14945063Y-13926150D02*
X14964110Y-13935674D01*
X14964110Y-13935674D02*
X14973634Y-13954722D01*
X14973634Y-13954722D02*
X14973634Y-14059484D01*
X14973634Y-13954722D02*
X14983158Y-13935674D01*
X14983158Y-13935674D02*
X15002205Y-13926150D01*
X15002205Y-13926150D02*
X15030777Y-13926150D01*
X15030777Y-13926150D02*
X15049824Y-13935674D01*
X15049824Y-13935674D02*
X15059348Y-13954722D01*
X15059348Y-13954722D02*
X15059348Y-14059484D01*
X15154586Y-14059484D02*
X15154586Y-13926150D01*
X15154586Y-13945198D02*
X15164110Y-13935674D01*
X15164110Y-13935674D02*
X15183158Y-13926150D01*
X15183158Y-13926150D02*
X15211729Y-13926150D01*
X15211729Y-13926150D02*
X15230777Y-13935674D01*
X15230777Y-13935674D02*
X15240301Y-13954722D01*
X15240301Y-13954722D02*
X15240301Y-14059484D01*
X15240301Y-13954722D02*
X15249824Y-13935674D01*
X15249824Y-13935674D02*
X15268872Y-13926150D01*
X15268872Y-13926150D02*
X15297443Y-13926150D01*
X15297443Y-13926150D02*
X15316491Y-13935674D01*
X15316491Y-13935674D02*
X15326015Y-13954722D01*
X15326015Y-13954722D02*
X15326015Y-14059484D01*
X15716491Y-13849960D02*
X15545063Y-14107103D01*
X15973634Y-13859484D02*
X15992682Y-13859484D01*
X15992682Y-13859484D02*
X16011729Y-13869008D01*
X16011729Y-13869008D02*
X16021253Y-13878531D01*
X16021253Y-13878531D02*
X16030777Y-13897579D01*
X16030777Y-13897579D02*
X16040301Y-13935674D01*
X16040301Y-13935674D02*
X16040301Y-13983293D01*
X16040301Y-13983293D02*
X16030777Y-14021388D01*
X16030777Y-14021388D02*
X16021253Y-14040436D01*
X16021253Y-14040436D02*
X16011729Y-14049960D01*
X16011729Y-14049960D02*
X15992682Y-14059484D01*
X15992682Y-14059484D02*
X15973634Y-14059484D01*
X15973634Y-14059484D02*
X15954586Y-14049960D01*
X15954586Y-14049960D02*
X15945063Y-14040436D01*
X15945063Y-14040436D02*
X15935539Y-14021388D01*
X15935539Y-14021388D02*
X15926015Y-13983293D01*
X15926015Y-13983293D02*
X15926015Y-13935674D01*
X15926015Y-13935674D02*
X15935539Y-13897579D01*
X15935539Y-13897579D02*
X15945063Y-13878531D01*
X15945063Y-13878531D02*
X15954586Y-13869008D01*
X15954586Y-13869008D02*
X15973634Y-13859484D01*
X16126015Y-14040436D02*
X16135539Y-14049960D01*
X16135539Y-14049960D02*
X16126015Y-14059484D01*
X16126015Y-14059484D02*
X16116491Y-14049960D01*
X16116491Y-14049960D02*
X16126015Y-14040436D01*
X16126015Y-14040436D02*
X16126015Y-14059484D01*
X16259348Y-13859484D02*
X16278396Y-13859484D01*
X16278396Y-13859484D02*
X16297444Y-13869008D01*
X16297444Y-13869008D02*
X16306967Y-13878531D01*
X16306967Y-13878531D02*
X16316491Y-13897579D01*
X16316491Y-13897579D02*
X16326015Y-13935674D01*
X16326015Y-13935674D02*
X16326015Y-13983293D01*
X16326015Y-13983293D02*
X16316491Y-14021388D01*
X16316491Y-14021388D02*
X16306967Y-14040436D01*
X16306967Y-14040436D02*
X16297444Y-14049960D01*
X16297444Y-14049960D02*
X16278396Y-14059484D01*
X16278396Y-14059484D02*
X16259348Y-14059484D01*
X16259348Y-14059484D02*
X16240301Y-14049960D01*
X16240301Y-14049960D02*
X16230777Y-14040436D01*
X16230777Y-14040436D02*
X16221253Y-14021388D01*
X16221253Y-14021388D02*
X16211729Y-13983293D01*
X16211729Y-13983293D02*
X16211729Y-13935674D01*
X16211729Y-13935674D02*
X16221253Y-13897579D01*
X16221253Y-13897579D02*
X16230777Y-13878531D01*
X16230777Y-13878531D02*
X16240301Y-13869008D01*
X16240301Y-13869008D02*
X16259348Y-13859484D01*
X16392682Y-13859484D02*
X16516491Y-13859484D01*
X16516491Y-13859484D02*
X16449825Y-13935674D01*
X16449825Y-13935674D02*
X16478396Y-13935674D01*
X16478396Y-13935674D02*
X16497444Y-13945198D01*
X16497444Y-13945198D02*
X16506967Y-13954722D01*
X16506967Y-13954722D02*
X16516491Y-13973769D01*
X16516491Y-13973769D02*
X16516491Y-14021388D01*
X16516491Y-14021388D02*
X16506967Y-14040436D01*
X16506967Y-14040436D02*
X16497444Y-14049960D01*
X16497444Y-14049960D02*
X16478396Y-14059484D01*
X16478396Y-14059484D02*
X16421253Y-14059484D01*
X16421253Y-14059484D02*
X16402206Y-14049960D01*
X16402206Y-14049960D02*
X16392682Y-14040436D01*
X16611729Y-14059484D02*
X16649825Y-14059484D01*
X16649825Y-14059484D02*
X16668872Y-14049960D01*
X16668872Y-14049960D02*
X16678396Y-14040436D01*
X16678396Y-14040436D02*
X16697444Y-14011865D01*
X16697444Y-14011865D02*
X16706967Y-13973769D01*
X16706967Y-13973769D02*
X16706967Y-13897579D01*
X16706967Y-13897579D02*
X16697444Y-13878531D01*
X16697444Y-13878531D02*
X16687920Y-13869008D01*
X16687920Y-13869008D02*
X16668872Y-13859484D01*
X16668872Y-13859484D02*
X16630777Y-13859484D01*
X16630777Y-13859484D02*
X16611729Y-13869008D01*
X16611729Y-13869008D02*
X16602206Y-13878531D01*
X16602206Y-13878531D02*
X16592682Y-13897579D01*
X16592682Y-13897579D02*
X16592682Y-13945198D01*
X16592682Y-13945198D02*
X16602206Y-13964246D01*
X16602206Y-13964246D02*
X16611729Y-13973769D01*
X16611729Y-13973769D02*
X16630777Y-13983293D01*
X16630777Y-13983293D02*
X16668872Y-13983293D01*
X16668872Y-13983293D02*
X16687920Y-13973769D01*
X16687920Y-13973769D02*
X16697444Y-13964246D01*
X16697444Y-13964246D02*
X16706967Y-13945198D01*
X16878396Y-13926150D02*
X16878396Y-14059484D01*
X16830777Y-13849960D02*
X16783158Y-13992817D01*
X16783158Y-13992817D02*
X16906968Y-13992817D01*
X16973634Y-13859484D02*
X16973634Y-13897579D01*
X17049825Y-13859484D02*
X17049825Y-13897579D01*
X17345063Y-14135674D02*
X17335539Y-14126150D01*
X17335539Y-14126150D02*
X17316491Y-14097579D01*
X17316491Y-14097579D02*
X17306968Y-14078531D01*
X17306968Y-14078531D02*
X17297444Y-14049960D01*
X17297444Y-14049960D02*
X17287920Y-14002341D01*
X17287920Y-14002341D02*
X17287920Y-13964246D01*
X17287920Y-13964246D02*
X17297444Y-13916627D01*
X17297444Y-13916627D02*
X17306968Y-13888055D01*
X17306968Y-13888055D02*
X17316491Y-13869008D01*
X17316491Y-13869008D02*
X17335539Y-13840436D01*
X17335539Y-13840436D02*
X17345063Y-13830912D01*
X17506968Y-13926150D02*
X17506968Y-14059484D01*
X17459349Y-13849960D02*
X17411730Y-13992817D01*
X17411730Y-13992817D02*
X17535539Y-13992817D01*
X17764111Y-14059484D02*
X17764111Y-13859484D01*
X17849825Y-14059484D02*
X17849825Y-13954722D01*
X17849825Y-13954722D02*
X17840301Y-13935674D01*
X17840301Y-13935674D02*
X17821253Y-13926150D01*
X17821253Y-13926150D02*
X17792682Y-13926150D01*
X17792682Y-13926150D02*
X17773634Y-13935674D01*
X17773634Y-13935674D02*
X17764111Y-13945198D01*
X17973634Y-14059484D02*
X17954587Y-14049960D01*
X17954587Y-14049960D02*
X17945063Y-14040436D01*
X17945063Y-14040436D02*
X17935539Y-14021388D01*
X17935539Y-14021388D02*
X17935539Y-13964246D01*
X17935539Y-13964246D02*
X17945063Y-13945198D01*
X17945063Y-13945198D02*
X17954587Y-13935674D01*
X17954587Y-13935674D02*
X17973634Y-13926150D01*
X17973634Y-13926150D02*
X18002206Y-13926150D01*
X18002206Y-13926150D02*
X18021253Y-13935674D01*
X18021253Y-13935674D02*
X18030777Y-13945198D01*
X18030777Y-13945198D02*
X18040301Y-13964246D01*
X18040301Y-13964246D02*
X18040301Y-14021388D01*
X18040301Y-14021388D02*
X18030777Y-14040436D01*
X18030777Y-14040436D02*
X18021253Y-14049960D01*
X18021253Y-14049960D02*
X18002206Y-14059484D01*
X18002206Y-14059484D02*
X17973634Y-14059484D01*
X18154587Y-14059484D02*
X18135539Y-14049960D01*
X18135539Y-14049960D02*
X18126015Y-14030912D01*
X18126015Y-14030912D02*
X18126015Y-13859484D01*
X18306968Y-14049960D02*
X18287920Y-14059484D01*
X18287920Y-14059484D02*
X18249825Y-14059484D01*
X18249825Y-14059484D02*
X18230777Y-14049960D01*
X18230777Y-14049960D02*
X18221253Y-14030912D01*
X18221253Y-14030912D02*
X18221253Y-13954722D01*
X18221253Y-13954722D02*
X18230777Y-13935674D01*
X18230777Y-13935674D02*
X18249825Y-13926150D01*
X18249825Y-13926150D02*
X18287920Y-13926150D01*
X18287920Y-13926150D02*
X18306968Y-13935674D01*
X18306968Y-13935674D02*
X18316492Y-13954722D01*
X18316492Y-13954722D02*
X18316492Y-13973769D01*
X18316492Y-13973769D02*
X18221253Y-13992817D01*
X18392682Y-14049960D02*
X18411730Y-14059484D01*
X18411730Y-14059484D02*
X18449825Y-14059484D01*
X18449825Y-14059484D02*
X18468873Y-14049960D01*
X18468873Y-14049960D02*
X18478396Y-14030912D01*
X18478396Y-14030912D02*
X18478396Y-14021388D01*
X18478396Y-14021388D02*
X18468873Y-14002341D01*
X18468873Y-14002341D02*
X18449825Y-13992817D01*
X18449825Y-13992817D02*
X18421253Y-13992817D01*
X18421253Y-13992817D02*
X18402206Y-13983293D01*
X18402206Y-13983293D02*
X18392682Y-13964246D01*
X18392682Y-13964246D02*
X18392682Y-13954722D01*
X18392682Y-13954722D02*
X18402206Y-13935674D01*
X18402206Y-13935674D02*
X18421253Y-13926150D01*
X18421253Y-13926150D02*
X18449825Y-13926150D01*
X18449825Y-13926150D02*
X18468873Y-13935674D01*
X18545063Y-14135674D02*
X18554587Y-14126150D01*
X18554587Y-14126150D02*
X18573634Y-14097579D01*
X18573634Y-14097579D02*
X18583158Y-14078531D01*
X18583158Y-14078531D02*
X18592682Y-14049960D01*
X18592682Y-14049960D02*
X18602206Y-14002341D01*
X18602206Y-14002341D02*
X18602206Y-13964246D01*
X18602206Y-13964246D02*
X18592682Y-13916627D01*
X18592682Y-13916627D02*
X18583158Y-13888055D01*
X18583158Y-13888055D02*
X18573634Y-13869008D01*
X18573634Y-13869008D02*
X18554587Y-13840436D01*
X18554587Y-13840436D02*
X18545063Y-13830912D01*
M02*
