M48
; DRILL file {KiCad 9.0.3-9.0.3-0~ubuntu24.04.1} date 2025-08-01T09:33:34+0200
; FORMAT={-:-/ absolute / metric / decimal}
; #@! TF.CreationDate,2025-08-01T09:33:34+02:00
; #@! TF.GenerationSoftware,Kicad,Pcbnew,9.0.3-9.0.3-0~ubuntu24.04.1
; #@! TF.FileFunction,Plated,1,4,PTH
FMAT,2
METRIC
; #@! TA.AperFunction,Plated,PTH,ViaDrill
T1C0.300
; #@! TA.AperFunction,Plated,PTH,ComponentDrill
T2C0.800
; #@! TA.AperFunction,Plated,PTH,ComponentDrill
T3C1.000
%
G90
G05
T1
X138.824Y-98.468
X139.332Y-97.96
X139.7Y-104.7
X139.84Y-97.452
X139.84Y-106.596
X140.094Y-100.5
X140.094Y-101.516
X140.094Y-102.532
X140.094Y-103.548
X140.1Y-99.2
X140.348Y-96.944
X140.856Y-95.928
X141.872Y-104.31
X141.872Y-105.58
X142.888Y-105.58
X143.65Y-95.166
X144.158Y-94.658
X144.666Y-94.15
X144.666Y-125.138
X144.7Y-107.4
X144.735Y-101.487
X144.92Y-93.134
X144.92Y-110.406
X145.575Y-109.4
X145.682Y-105.58
X145.682Y-125.138
X145.936Y-124.376
X146.4Y-108.628
X146.4Y-118.7
X146.444Y-125.138
X147.1Y-113.8
X147.46Y-91.864
X147.46Y-120.058
X147.5Y-100.8
X147.7Y-96.9
X147.714Y-92.626
X148.476Y-121.328
X148.476Y-122.344
X148.5Y-79.4
X148.5Y-80.2
X148.5Y-81.0
X148.5Y-81.8
X148.5Y-82.6
X148.6Y-83.5
X149.0Y-118.5
X149.1Y-96.9
X149.5Y-83.5
X149.746Y-113.454
X150.3Y-97.0
X150.4Y-83.5
X150.533Y-93.433
X151.27Y-101.9
X151.4Y-83.5
X151.4Y-89.9
X151.524Y-109.39
X151.758Y-100.659
X151.913Y-99.5
X152.2Y-89.9
X152.3Y-83.5
X152.4Y-102.0
X152.561Y-111.144
X152.794Y-108.7
X152.794Y-116.248
X152.9Y-85.2
X152.9Y-86.0
X152.9Y-86.7
X152.9Y-87.4
X152.9Y-88.2
X152.9Y-88.9
X152.9Y-89.6
X153.048Y-96.944
X153.048Y-109.898
X153.1Y-83.8
X153.1Y-84.5
X153.8Y-79.8
X154.064Y-109.898
X154.4Y-80.3
X154.8Y-81.0
X154.8Y-81.8
X154.8Y-82.7
X154.8Y-83.5
X154.8Y-84.3
X154.826Y-109.898
X154.9Y-123.8
X154.9Y-124.8
X155.0Y-88.2
X155.1Y-85.0
X155.1Y-85.7
X155.1Y-86.4
X155.1Y-87.1
X155.1Y-89.0
X155.1Y-89.7
X155.1Y-90.4
X155.588Y-108.628
X155.588Y-109.39
X155.7Y-100.487
X155.9Y-96.7
X156.3Y-99.929
X156.35Y-107.866
X156.35Y-108.628
X157.8Y-103.0
X160.6Y-123.8
X160.6Y-125.8
X161.43Y-111.676
X161.938Y-107.612
X161.938Y-108.628
X161.938Y-109.644
X161.938Y-119.042
X162.192Y-117.01
T2
X161.9Y-122.7
X161.9Y-124.7
T3
X159.2Y-93.46
X159.2Y-96.0
X159.2Y-98.54
X159.2Y-101.08
M30
