G04 #@! TF.GenerationSoftware,KiCad,Pcbnew,9.0.3-9.0.3-0~ubuntu24.04.1*
G04 #@! TF.CreationDate,2025-08-01T09:32:51+02:00*
G04 #@! TF.ProjectId,PicoBalloon,5069636f-4261-46c6-9c6f-6f6e2e6b6963,rev?*
G04 #@! TF.SameCoordinates,Original*
G04 #@! TF.FileFunction,Profile,NP*
%FSLAX46Y46*%
G04 Gerber Fmt 4.6, Leading zero omitted, Abs format (unit mm)*
G04 Created by KiCad (PCBNEW 9.0.3-9.0.3-0~ubuntu24.04.1) date 2025-08-01 09:32:51*
%MOMM*%
%LPD*%
G01*
G04 APERTURE LIST*
G04 #@! TA.AperFunction,Profile*
%ADD10C,0.200000*%
G04 #@! TD*
G04 APERTURE END LIST*
D10*
X152799999Y-77900000D02*
G75*
G02*
X155800000Y-80900001I1J-3000000D01*
G01*
X157300000Y-87400000D02*
G75*
G02*
X155800000Y-85899999I0J1500000D01*
G01*
X145800000Y-85900000D02*
G75*
G02*
X144300000Y-87400000I-1500000J0D01*
G01*
X141300000Y-90400000D02*
G75*
G02*
X144300000Y-87400000I3000000J0D01*
G01*
X155800000Y-80900001D02*
X155800000Y-85899999D01*
X157300000Y-87400000D02*
G75*
G02*
X160300000Y-90400000I0J-3000000D01*
G01*
X161800000Y-91900000D02*
G75*
G02*
X160300000Y-90400000I0J1500000D01*
G01*
X139800000Y-127900000D02*
G75*
G02*
X137800000Y-125900000I0J2000000D01*
G01*
X158550000Y-90400000D02*
G75*
G02*
X156050000Y-90400000I-1250000J0D01*
G01*
X156050000Y-90400000D02*
G75*
G02*
X158550000Y-90400000I1250000J0D01*
G01*
X141300000Y-90400000D02*
G75*
G02*
X139800000Y-91900000I-1500000J0D01*
G01*
X137800000Y-93900000D02*
G75*
G02*
X139800000Y-91900000I2000000J0D01*
G01*
X145800000Y-80900000D02*
G75*
G02*
X148800000Y-77900000I3000000J0D01*
G01*
X139800000Y-127900000D02*
X161800002Y-127900000D01*
X163800000Y-125900001D02*
G75*
G02*
X161800002Y-127900000I-2000000J1D01*
G01*
X148800000Y-77900000D02*
X152799999Y-77900000D01*
X163800000Y-93899998D02*
X163800000Y-125900001D01*
X137800000Y-93900000D02*
X137800000Y-125900000D01*
X161800000Y-91900000D02*
G75*
G02*
X163800000Y-93899998I0J-2000000D01*
G01*
X145800000Y-80900000D02*
X145800000Y-85900000D01*
X145550000Y-90400000D02*
G75*
G02*
X143050000Y-90400000I-1250000J0D01*
G01*
X143050000Y-90400000D02*
G75*
G02*
X145550000Y-90400000I1250000J0D01*
G01*
M02*
