G04 #@! TF.GenerationSoftware,KiCad,Pcbnew,9.0.5-9.0.5~ubuntu24.04.1*
G04 #@! TF.CreationDate,2025-10-20T13:53:23+02:00*
G04 #@! TF.ProjectId,PicoBalloon,5069636f-4261-46c6-9c6f-6f6e2e6b6963,rev?*
G04 #@! TF.SameCoordinates,Original*
G04 #@! TF.FileFunction,Copper,L1,Top*
G04 #@! TF.FilePolarity,Positive*
%FSLAX46Y46*%
G04 Gerber Fmt 4.6, Leading zero omitted, Abs format (unit mm)*
G04 Created by KiCad (PCBNEW 9.0.5-9.0.5~ubuntu24.04.1) date 2025-10-20 13:53:23*
%MOMM*%
%LPD*%
G01*
G04 APERTURE LIST*
G04 Aperture macros list*
%AMRoundRect*
0 Rectangle with rounded corners*
0 $1 Rounding radius*
0 $2 $3 $4 $5 $6 $7 $8 $9 X,Y pos of 4 corners*
0 Add a 4 corners polygon primitive as box body*
4,1,4,$2,$3,$4,$5,$6,$7,$8,$9,$2,$3,0*
0 Add four circle primitives for the rounded corners*
1,1,$1+$1,$2,$3*
1,1,$1+$1,$4,$5*
1,1,$1+$1,$6,$7*
1,1,$1+$1,$8,$9*
0 Add four rect primitives between the rounded corners*
20,1,$1+$1,$2,$3,$4,$5,0*
20,1,$1+$1,$4,$5,$6,$7,0*
20,1,$1+$1,$6,$7,$8,$9,0*
20,1,$1+$1,$8,$9,$2,$3,0*%
G04 Aperture macros list end*
G04 #@! TA.AperFunction,SMDPad,CuDef*
%ADD10RoundRect,0.237500X-0.300000X-0.237500X0.300000X-0.237500X0.300000X0.237500X-0.300000X0.237500X0*%
G04 #@! TD*
G04 #@! TA.AperFunction,SMDPad,CuDef*
%ADD11RoundRect,0.237500X0.237500X-0.300000X0.237500X0.300000X-0.237500X0.300000X-0.237500X-0.300000X0*%
G04 #@! TD*
G04 #@! TA.AperFunction,ComponentPad*
%ADD12R,1.700000X1.700000*%
G04 #@! TD*
G04 #@! TA.AperFunction,ComponentPad*
%ADD13C,1.700000*%
G04 #@! TD*
G04 #@! TA.AperFunction,SMDPad,CuDef*
%ADD14RoundRect,0.075000X-0.662500X-0.075000X0.662500X-0.075000X0.662500X0.075000X-0.662500X0.075000X0*%
G04 #@! TD*
G04 #@! TA.AperFunction,SMDPad,CuDef*
%ADD15RoundRect,0.075000X-0.075000X-0.662500X0.075000X-0.662500X0.075000X0.662500X-0.075000X0.662500X0*%
G04 #@! TD*
G04 #@! TA.AperFunction,SMDPad,CuDef*
%ADD16RoundRect,0.237500X-0.287500X-0.237500X0.287500X-0.237500X0.287500X0.237500X-0.287500X0.237500X0*%
G04 #@! TD*
G04 #@! TA.AperFunction,SMDPad,CuDef*
%ADD17RoundRect,0.237500X-0.237500X0.300000X-0.237500X-0.300000X0.237500X-0.300000X0.237500X0.300000X0*%
G04 #@! TD*
G04 #@! TA.AperFunction,SMDPad,CuDef*
%ADD18RoundRect,0.237500X-0.250000X-0.237500X0.250000X-0.237500X0.250000X0.237500X-0.250000X0.237500X0*%
G04 #@! TD*
G04 #@! TA.AperFunction,ComponentPad*
%ADD19R,1.350000X1.350000*%
G04 #@! TD*
G04 #@! TA.AperFunction,ComponentPad*
%ADD20C,1.350000*%
G04 #@! TD*
G04 #@! TA.AperFunction,SMDPad,CuDef*
%ADD21RoundRect,0.250000X0.475000X-0.337500X0.475000X0.337500X-0.475000X0.337500X-0.475000X-0.337500X0*%
G04 #@! TD*
G04 #@! TA.AperFunction,SMDPad,CuDef*
%ADD22RoundRect,0.237500X0.250000X0.237500X-0.250000X0.237500X-0.250000X-0.237500X0.250000X-0.237500X0*%
G04 #@! TD*
G04 #@! TA.AperFunction,SMDPad,CuDef*
%ADD23RoundRect,0.237500X0.237500X-0.250000X0.237500X0.250000X-0.237500X0.250000X-0.237500X-0.250000X0*%
G04 #@! TD*
G04 #@! TA.AperFunction,SMDPad,CuDef*
%ADD24R,4.000000X1.600000*%
G04 #@! TD*
G04 #@! TA.AperFunction,SMDPad,CuDef*
%ADD25RoundRect,0.100000X-0.100000X0.225000X-0.100000X-0.225000X0.100000X-0.225000X0.100000X0.225000X0*%
G04 #@! TD*
G04 #@! TA.AperFunction,ViaPad*
%ADD26C,0.600000*%
G04 #@! TD*
G04 #@! TA.AperFunction,Conductor*
%ADD27C,0.200000*%
G04 #@! TD*
G04 #@! TA.AperFunction,Conductor*
%ADD28C,0.500000*%
G04 #@! TD*
G04 #@! TA.AperFunction,Conductor*
%ADD29C,0.354575*%
G04 #@! TD*
G04 APERTURE END LIST*
D10*
G04 #@! TO.P,C7,1*
G04 #@! TO.N,GND*
X141988500Y-99572500D03*
G04 #@! TO.P,C7,2*
G04 #@! TO.N,Net-(U4-NRST)*
X143713500Y-99572500D03*
G04 #@! TD*
D11*
G04 #@! TO.P,C3,1*
G04 #@! TO.N,GND*
X160528000Y-118591500D03*
G04 #@! TO.P,C3,2*
G04 #@! TO.N,+3V3*
X160528000Y-116866500D03*
G04 #@! TD*
G04 #@! TO.P,C8,1*
G04 #@! TO.N,GND*
X153300000Y-107262500D03*
G04 #@! TO.P,C8,2*
G04 #@! TO.N,+3V3*
X153300000Y-105537500D03*
G04 #@! TD*
D12*
G04 #@! TO.P,J4,1,Pin_1*
G04 #@! TO.N,+3V3*
X158500000Y-101000000D03*
D13*
G04 #@! TO.P,J4,2,Pin_2*
G04 #@! TO.N,/SWDIO*
X158500000Y-98460000D03*
G04 #@! TO.P,J4,3,Pin_3*
G04 #@! TO.N,/SWCLK*
X158500000Y-95920000D03*
G04 #@! TO.P,J4,4,Pin_4*
G04 #@! TO.N,GND*
X158500000Y-93380000D03*
G04 #@! TD*
D14*
G04 #@! TO.P,U4,1,VBAT*
G04 #@! TO.N,+3V3*
X146087500Y-96587500D03*
G04 #@! TO.P,U4,2,PC13*
G04 #@! TO.N,unconnected-(U4-PC13-Pad2)*
X146087500Y-97087500D03*
G04 #@! TO.P,U4,3,PC14*
G04 #@! TO.N,unconnected-(U4-PC14-Pad3)*
X146087500Y-97587500D03*
G04 #@! TO.P,U4,4,PC15*
G04 #@! TO.N,unconnected-(U4-PC15-Pad4)*
X146087500Y-98087500D03*
G04 #@! TO.P,U4,5,PD0*
G04 #@! TO.N,unconnected-(U4-PD0-Pad5)*
X146087500Y-98587500D03*
G04 #@! TO.P,U4,6,PD1*
G04 #@! TO.N,unconnected-(U4-PD1-Pad6)*
X146087500Y-99087500D03*
G04 #@! TO.P,U4,7,NRST*
G04 #@! TO.N,Net-(U4-NRST)*
X146087500Y-99587500D03*
G04 #@! TO.P,U4,8,VSSA*
G04 #@! TO.N,GND*
X146087500Y-100087500D03*
G04 #@! TO.P,U4,9,VDDA*
G04 #@! TO.N,+3V3*
X146087500Y-100587500D03*
G04 #@! TO.P,U4,10,ADC1_IN0*
G04 #@! TO.N,/V_SOLAR*
X146087500Y-101087500D03*
G04 #@! TO.P,U4,11,ADC1_IN1*
G04 #@! TO.N,/V_SUPERCAP_SENSE*
X146087500Y-101587500D03*
G04 #@! TO.P,U4,12,ADC1_IN2*
G04 #@! TO.N,/TEMP_ADC*
X146087500Y-102087500D03*
D15*
G04 #@! TO.P,U4,13,PA3*
G04 #@! TO.N,/GPS_SUPPLY_ENABLE*
X147500000Y-103500000D03*
G04 #@! TO.P,U4,14,SPI1_NSS*
G04 #@! TO.N,/LORA_CS*
X148000000Y-103500000D03*
G04 #@! TO.P,U4,15,SPI1_SCK*
G04 #@! TO.N,/LORA_SCK*
X148500000Y-103500000D03*
G04 #@! TO.P,U4,16,SPI1_MISO*
G04 #@! TO.N,/LORA_MISO*
X149000000Y-103500000D03*
G04 #@! TO.P,U4,17,SPI1_MOSI*
G04 #@! TO.N,/LORA_MOSI*
X149500000Y-103500000D03*
G04 #@! TO.P,U4,18,PB0*
G04 #@! TO.N,/LORA_RST*
X150000000Y-103500000D03*
G04 #@! TO.P,U4,19,PB1*
G04 #@! TO.N,/LORA_DIO0*
X150500000Y-103500000D03*
G04 #@! TO.P,U4,20,PB2*
G04 #@! TO.N,unconnected-(U4-PB2-Pad20)*
X151000000Y-103500000D03*
G04 #@! TO.P,U4,21,PB10*
G04 #@! TO.N,unconnected-(U4-PB10-Pad21)*
X151500000Y-103500000D03*
G04 #@! TO.P,U4,22,PB11*
G04 #@! TO.N,unconnected-(U4-PB11-Pad22)*
X152000000Y-103500000D03*
G04 #@! TO.P,U4,23,VSS*
G04 #@! TO.N,GND*
X152500000Y-103500000D03*
G04 #@! TO.P,U4,24,VDD*
G04 #@! TO.N,+3V3*
X153000000Y-103500000D03*
D14*
G04 #@! TO.P,U4,25,PB12*
G04 #@! TO.N,unconnected-(U4-PB12-Pad25)*
X154412500Y-102087500D03*
G04 #@! TO.P,U4,26,PB13*
G04 #@! TO.N,Net-(U4-PB13)*
X154412500Y-101587500D03*
G04 #@! TO.P,U4,27,PB14*
G04 #@! TO.N,Net-(U4-PB14)*
X154412500Y-101087500D03*
G04 #@! TO.P,U4,28,PB15*
G04 #@! TO.N,unconnected-(U4-PB15-Pad28)*
X154412500Y-100587500D03*
G04 #@! TO.P,U4,29,PA8*
G04 #@! TO.N,unconnected-(U4-PA8-Pad29)*
X154412500Y-100087500D03*
G04 #@! TO.P,U4,30,USART1_TX*
G04 #@! TO.N,/GPS_RX*
X154412500Y-99587500D03*
G04 #@! TO.P,U4,31,USART1_RX*
G04 #@! TO.N,/GPS_TX*
X154412500Y-99087500D03*
G04 #@! TO.P,U4,32,PA11*
G04 #@! TO.N,/GPS_ONOFF*
X154412500Y-98587500D03*
G04 #@! TO.P,U4,33,PA12*
G04 #@! TO.N,/~{GPS_RESET}*
X154412500Y-98087500D03*
G04 #@! TO.P,U4,34,SYS_JTMS-SWDIO*
G04 #@! TO.N,/SWDIO*
X154412500Y-97587500D03*
G04 #@! TO.P,U4,35,VSS*
G04 #@! TO.N,GND*
X154412500Y-97087500D03*
G04 #@! TO.P,U4,36,VDD*
G04 #@! TO.N,+3V3*
X154412500Y-96587500D03*
D15*
G04 #@! TO.P,U4,37,SYS_JTCK-SWCLK*
G04 #@! TO.N,/SWCLK*
X153000000Y-95175000D03*
G04 #@! TO.P,U4,38,PA15*
G04 #@! TO.N,unconnected-(U4-PA15-Pad38)*
X152500000Y-95175000D03*
G04 #@! TO.P,U4,39,PB3*
G04 #@! TO.N,unconnected-(U4-PB3-Pad39)*
X152000000Y-95175000D03*
G04 #@! TO.P,U4,40,PB4*
G04 #@! TO.N,/~{LNA_SHDN}*
X151500000Y-95175000D03*
G04 #@! TO.P,U4,41,PB5*
G04 #@! TO.N,/1PPS*
X151000000Y-95175000D03*
G04 #@! TO.P,U4,42,PB6*
G04 #@! TO.N,unconnected-(U4-PB6-Pad42)*
X150500000Y-95175000D03*
G04 #@! TO.P,U4,43,PB7*
G04 #@! TO.N,unconnected-(U4-PB7-Pad43)*
X150000000Y-95175000D03*
G04 #@! TO.P,U4,44,BOOT0*
G04 #@! TO.N,Net-(U4-BOOT0)*
X149500000Y-95175000D03*
G04 #@! TO.P,U4,45,PB8*
G04 #@! TO.N,/SUPERCAP_EN*
X149000000Y-95175000D03*
G04 #@! TO.P,U4,46,PB9*
G04 #@! TO.N,/BOOST_EN*
X148500000Y-95175000D03*
G04 #@! TO.P,U4,47,VSS*
G04 #@! TO.N,GND*
X148000000Y-95175000D03*
G04 #@! TO.P,U4,48,VDD*
G04 #@! TO.N,+3V3*
X147500000Y-95175000D03*
G04 #@! TD*
D16*
G04 #@! TO.P,D1,1,K*
G04 #@! TO.N,Net-(D1-K)*
X158460440Y-105270371D03*
G04 #@! TO.P,D1,2,A*
G04 #@! TO.N,+3V3*
X160210440Y-105270371D03*
G04 #@! TD*
D10*
G04 #@! TO.P,C12,1*
G04 #@! TO.N,GND*
X141962000Y-96524500D03*
G04 #@! TO.P,C12,2*
G04 #@! TO.N,+3V3*
X143687000Y-96524500D03*
G04 #@! TD*
G04 #@! TO.P,C6,1*
G04 #@! TO.N,GND*
X141902379Y-103031655D03*
G04 #@! TO.P,C6,2*
G04 #@! TO.N,/TEMP_ADC*
X143627379Y-103031655D03*
G04 #@! TD*
D17*
G04 #@! TO.P,C9,1*
G04 #@! TO.N,GND*
X145999500Y-92614000D03*
G04 #@! TO.P,C9,2*
G04 #@! TO.N,+3V3*
X145999500Y-94339000D03*
G04 #@! TD*
D18*
G04 #@! TO.P,R6,1*
G04 #@! TO.N,+3V3*
X141912000Y-98048500D03*
G04 #@! TO.P,R6,2*
G04 #@! TO.N,Net-(U4-NRST)*
X143737000Y-98048500D03*
G04 #@! TD*
D16*
G04 #@! TO.P,D2,1,K*
G04 #@! TO.N,Net-(D2-K)*
X158474440Y-103619371D03*
G04 #@! TO.P,D2,2,A*
G04 #@! TO.N,+3V3*
X160224440Y-103619371D03*
G04 #@! TD*
D17*
G04 #@! TO.P,C11,1*
G04 #@! TO.N,GND*
X154600000Y-92937500D03*
G04 #@! TO.P,C11,2*
G04 #@! TO.N,+3V3*
X154600000Y-94662500D03*
G04 #@! TD*
D19*
G04 #@! TO.P,J3,1,Pin_1*
G04 #@! TO.N,Net-(J3-Pin_1)*
X161290000Y-124700000D03*
D20*
G04 #@! TO.P,J3,2,Pin_2*
G04 #@! TO.N,GND*
X161290000Y-122700000D03*
G04 #@! TD*
D21*
G04 #@! TO.P,C4,1*
G04 #@! TO.N,+3V3*
X161036000Y-115137500D03*
G04 #@! TO.P,C4,2*
G04 #@! TO.N,GND*
X161036000Y-113062500D03*
G04 #@! TD*
D22*
G04 #@! TO.P,R4,1*
G04 #@! TO.N,Net-(D2-K)*
X156904940Y-103619371D03*
G04 #@! TO.P,R4,2*
G04 #@! TO.N,Net-(U4-PB14)*
X155079940Y-103619371D03*
G04 #@! TD*
D23*
G04 #@! TO.P,R5,1*
G04 #@! TO.N,Net-(U4-BOOT0)*
X149428500Y-93142500D03*
G04 #@! TO.P,R5,2*
G04 #@! TO.N,GND*
X149428500Y-91317500D03*
G04 #@! TD*
D22*
G04 #@! TO.P,R3,1*
G04 #@! TO.N,Net-(D1-K)*
X156904940Y-105270371D03*
G04 #@! TO.P,R3,2*
G04 #@! TO.N,Net-(U4-PB13)*
X155079940Y-105270371D03*
G04 #@! TD*
D10*
G04 #@! TO.P,C10,1*
G04 #@! TO.N,GND*
X141988500Y-101096500D03*
G04 #@! TO.P,C10,2*
G04 #@! TO.N,+3V3*
X143713500Y-101096500D03*
G04 #@! TD*
D24*
G04 #@! TO.P,MOD1,1,GND*
G04 #@! TO.N,GND*
X142500000Y-110774000D03*
G04 #@! TO.P,MOD1,2,MISO*
G04 #@! TO.N,/LORA_MISO*
X142500000Y-112774000D03*
G04 #@! TO.P,MOD1,3,MOSI*
G04 #@! TO.N,/LORA_MOSI*
X142500000Y-114774000D03*
G04 #@! TO.P,MOD1,4,SCK*
G04 #@! TO.N,/LORA_SCK*
X142500000Y-116774000D03*
G04 #@! TO.P,MOD1,5,NSS*
G04 #@! TO.N,/LORA_CS*
X142500000Y-118774000D03*
G04 #@! TO.P,MOD1,6,RESET*
G04 #@! TO.N,/LORA_RST*
X142500000Y-120774000D03*
G04 #@! TO.P,MOD1,7,DIO5*
G04 #@! TO.N,unconnected-(MOD1-DIO5-Pad7)*
X142500000Y-122774000D03*
G04 #@! TO.P,MOD1,8,GND*
G04 #@! TO.N,GND*
X142500000Y-124774000D03*
G04 #@! TO.P,MOD1,9,ANT*
G04 #@! TO.N,Net-(J3-Pin_1)*
X157500000Y-124774000D03*
G04 #@! TO.P,MOD1,10,GND*
G04 #@! TO.N,GND*
X157500000Y-122774000D03*
G04 #@! TO.P,MOD1,11,DIO3*
G04 #@! TO.N,unconnected-(MOD1-DIO3-Pad11)*
X157500000Y-120774000D03*
G04 #@! TO.P,MOD1,12,DIO4*
G04 #@! TO.N,unconnected-(MOD1-DIO4-Pad12)*
X157500000Y-118774000D03*
G04 #@! TO.P,MOD1,13,3.3V*
G04 #@! TO.N,+3V3*
X157500000Y-116774000D03*
G04 #@! TO.P,MOD1,14,DIO0*
G04 #@! TO.N,/LORA_DIO0*
X157500000Y-114774000D03*
G04 #@! TO.P,MOD1,15,DIO1*
G04 #@! TO.N,unconnected-(MOD1-DIO1-Pad15)*
X157500000Y-112774000D03*
G04 #@! TO.P,MOD1,16,DIO2*
G04 #@! TO.N,unconnected-(MOD1-DIO2-Pad16)*
X157500000Y-110774000D03*
G04 #@! TD*
D25*
G04 #@! TO.P,U3,1,NC*
G04 #@! TO.N,unconnected-(U3-NC-Pad1)*
X145065879Y-104494655D03*
G04 #@! TO.P,U3,2,GND*
G04 #@! TO.N,GND*
X144415879Y-104494655D03*
G04 #@! TO.P,U3,3,V_{OUT}*
G04 #@! TO.N,/TEMP_ADC*
X143765879Y-104494655D03*
G04 #@! TO.P,U3,4,V_{DD}*
G04 #@! TO.N,+3V3*
X143765879Y-106394655D03*
G04 #@! TO.P,U3,5,GND*
G04 #@! TO.N,GND*
X145065879Y-106394655D03*
G04 #@! TD*
D26*
G04 #@! TO.N,GND*
X154800000Y-84300000D03*
X149746000Y-113454000D03*
X148500000Y-81800000D03*
X144920000Y-110406000D03*
X154826000Y-109898000D03*
X148600000Y-83500000D03*
X148500000Y-81000000D03*
X155100000Y-87100000D03*
X160287000Y-93134000D03*
X151400000Y-83500000D03*
X150300000Y-97000000D03*
X141872000Y-105580000D03*
X152900000Y-85200000D03*
X155588000Y-109390000D03*
X155100000Y-85000000D03*
X144666000Y-94150000D03*
X153800000Y-79800000D03*
X152900000Y-88900000D03*
X150400000Y-83500000D03*
X140716000Y-100500000D03*
X146571000Y-91483000D03*
X140716000Y-103548000D03*
X160287000Y-94912000D03*
X140716000Y-101516000D03*
X139840000Y-97452000D03*
X152900000Y-87400000D03*
X154900000Y-122900000D03*
X144666000Y-125138000D03*
X154800000Y-81800000D03*
X153100000Y-84500000D03*
X140856000Y-95928000D03*
X148500000Y-79400000D03*
X155588000Y-108628000D03*
X161500000Y-111676000D03*
X144158000Y-94658000D03*
X152794000Y-116248000D03*
X154400000Y-80300000D03*
X156350000Y-107866000D03*
X145936000Y-124376000D03*
X145800000Y-109898000D03*
X150762000Y-88435000D03*
X155000000Y-88200000D03*
X148500000Y-80200000D03*
X154064000Y-109898000D03*
X151524000Y-109390000D03*
X161500000Y-109532000D03*
X151400000Y-89900000D03*
X154800000Y-83500000D03*
X152900000Y-89600000D03*
X155100000Y-85700000D03*
X153175000Y-92880000D03*
X155100000Y-90400000D03*
X149873000Y-88435000D03*
X156350000Y-108628000D03*
X152200000Y-89900000D03*
X155100000Y-89700000D03*
X144920000Y-93134000D03*
X153100000Y-83800000D03*
X149500000Y-83500000D03*
X160287000Y-94023000D03*
X146444000Y-125138000D03*
X152900000Y-88200000D03*
X155842000Y-92245000D03*
X141999000Y-95293000D03*
X147700000Y-96900000D03*
X148476000Y-121328000D03*
X161719500Y-118823500D03*
X155100000Y-86400000D03*
X140348000Y-96944000D03*
X148476000Y-122344000D03*
X141872000Y-104310000D03*
X154800000Y-82700000D03*
X153048000Y-109898000D03*
X155100000Y-89000000D03*
X154800000Y-81000000D03*
X161500000Y-108516000D03*
X152900000Y-86000000D03*
X152900000Y-86700000D03*
X152300000Y-83500000D03*
X140716000Y-102532000D03*
X143650000Y-95166000D03*
X153048000Y-96944000D03*
X148500000Y-82600000D03*
X147460000Y-120058000D03*
X147333000Y-93261000D03*
X145682000Y-125138000D03*
X153175000Y-92118000D03*
X142888000Y-105580000D03*
X156500000Y-102000000D03*
X160147000Y-123800000D03*
X160147000Y-125800000D03*
X161500000Y-107500000D03*
X140843000Y-107569000D03*
G04 #@! TO.N,/V_SOLAR*
X147100000Y-113800000D03*
X147500000Y-100800000D03*
G04 #@! TO.N,+3V3*
X146258943Y-103860057D03*
X156012088Y-97413558D03*
X141351000Y-106426000D03*
X144700000Y-107400000D03*
X140100000Y-99200000D03*
X142240000Y-126074002D03*
X161671000Y-116896000D03*
G04 #@! TO.N,/V_SUPERCAP_SENSE*
X146304000Y-118110000D03*
X144793000Y-101262000D03*
G04 #@! TO.N,/BOOST_EN*
X152561000Y-111144000D03*
X149000000Y-118500000D03*
X152794000Y-108700000D03*
X151270000Y-101900000D03*
G04 #@! TO.N,/SUPERCAP_EN*
X149100000Y-96900000D03*
X155000000Y-124000000D03*
G04 #@! TO.N,/~{GPS_RESET}*
X151913265Y-99500000D03*
G04 #@! TO.N,/~{LNA_SHDN}*
X150368000Y-93726000D03*
G04 #@! TO.N,/GPS_RX*
X155650000Y-100601473D03*
G04 #@! TO.N,/GPS_ONOFF*
X152400000Y-102000000D03*
G04 #@! TO.N,/1PPS*
X151757780Y-100658613D03*
G04 #@! TO.N,/GPS_TX*
X156300000Y-100000000D03*
G04 #@! TO.N,/GPS_SUPPLY_ENABLE*
X148339765Y-101808765D03*
G04 #@! TD*
D27*
G04 #@! TO.N,GND*
X152500000Y-103500000D02*
X152500000Y-106462500D01*
D28*
X144552000Y-110774000D02*
X144920000Y-110406000D01*
D27*
X144415879Y-105744655D02*
X144415879Y-104494655D01*
D28*
X161036000Y-112069000D02*
X161429000Y-111676000D01*
X161517000Y-118621000D02*
X160557500Y-118621000D01*
X161719500Y-118823500D02*
X161517000Y-118621000D01*
D27*
X145065879Y-106394655D02*
X145065879Y-106196121D01*
D28*
X141962000Y-96524500D02*
X141452500Y-96524500D01*
D27*
X154412500Y-97087500D02*
X153191500Y-97087500D01*
X148000000Y-96658000D02*
X148000000Y-95175000D01*
X147110500Y-100087500D02*
X146087500Y-100087500D01*
D28*
X145682000Y-125138000D02*
X142364000Y-125138000D01*
X145999500Y-92614000D02*
X145440000Y-92614000D01*
D27*
X145065879Y-106394655D02*
X144415879Y-105744655D01*
X153191500Y-97087500D02*
X153048000Y-96944000D01*
D28*
X145936000Y-124376000D02*
X142398000Y-124376000D01*
D27*
X147968000Y-97168000D02*
X147968000Y-99230000D01*
X158500000Y-93380000D02*
X158057500Y-92937500D01*
D28*
X141988500Y-102945534D02*
X141902379Y-103031655D01*
D27*
X147700000Y-96900000D02*
X147968000Y-97168000D01*
D28*
X141902379Y-104279621D02*
X141872000Y-104310000D01*
D27*
X152500000Y-106462500D02*
X153300000Y-107262500D01*
D28*
X145440000Y-92614000D02*
X144920000Y-93134000D01*
X141988500Y-99572500D02*
X141988500Y-102945534D01*
X142398000Y-124376000D02*
X142000000Y-124774000D01*
X141452500Y-96524500D02*
X140856000Y-95928000D01*
X160557500Y-118621000D02*
X160528000Y-118591500D01*
X144666000Y-125138000D02*
X142364000Y-125138000D01*
D27*
X147758000Y-96900000D02*
X148000000Y-96658000D01*
D28*
X142000000Y-110774000D02*
X144552000Y-110774000D01*
D27*
X147968000Y-99230000D02*
X147110500Y-100087500D01*
X158057500Y-92937500D02*
X154600000Y-92937500D01*
D28*
X161036000Y-113062500D02*
X161036000Y-112069000D01*
D27*
X153300000Y-107262500D02*
X153903500Y-107866000D01*
D28*
X142364000Y-125138000D02*
X142000000Y-124774000D01*
X141902379Y-103031655D02*
X141902379Y-104279621D01*
D27*
X153903500Y-107866000D02*
X156350000Y-107866000D01*
X147700000Y-96900000D02*
X147758000Y-96900000D01*
D28*
X146444000Y-125138000D02*
X142364000Y-125138000D01*
D27*
G04 #@! TO.N,/V_SOLAR*
X147187500Y-101087500D02*
X146087500Y-101087500D01*
X147475000Y-100800000D02*
X147187500Y-101087500D01*
X147500000Y-100800000D02*
X147475000Y-100800000D01*
G04 #@! TO.N,+3V3*
X161143000Y-116848000D02*
X161095000Y-116896000D01*
X144222500Y-100587500D02*
X146087500Y-100587500D01*
D28*
X143765879Y-106865879D02*
X143765879Y-106394655D01*
X142163000Y-98048500D02*
X143687000Y-96524500D01*
X145167538Y-107400000D02*
X144700000Y-107400000D01*
D27*
X153000000Y-105237500D02*
X153300000Y-105537500D01*
D28*
X161036000Y-115137500D02*
X161036000Y-116358500D01*
X145999500Y-94339000D02*
X145872500Y-94339000D01*
X140100000Y-99200000D02*
X141251500Y-98048500D01*
X160210440Y-105270371D02*
X158580811Y-106900000D01*
X160557500Y-116896000D02*
X160528000Y-116866500D01*
D27*
X143750000Y-96587500D02*
X143687000Y-96524500D01*
D28*
X158000000Y-116774000D02*
X160435500Y-116774000D01*
D27*
X143713500Y-101096500D02*
X144222500Y-100587500D01*
D28*
X160210440Y-103633371D02*
X160224440Y-103619371D01*
X146563000Y-94339000D02*
X147399000Y-95175000D01*
X145872500Y-94339000D02*
X143687000Y-96524500D01*
D27*
X156012088Y-97012088D02*
X156012088Y-97413558D01*
D28*
X144300000Y-107400000D02*
X143765879Y-106865879D01*
X141251500Y-98048500D02*
X141912000Y-98048500D01*
X161671000Y-116896000D02*
X160557500Y-116896000D01*
D27*
X155587500Y-96587500D02*
X156012088Y-97012088D01*
X142875000Y-99011500D02*
X141912000Y-98048500D01*
D28*
X145999500Y-94339000D02*
X146563000Y-94339000D01*
D27*
X143713500Y-101096500D02*
X142875000Y-100258000D01*
D28*
X159120000Y-101000000D02*
X158500000Y-101000000D01*
X160435500Y-116774000D02*
X160528000Y-116866500D01*
D27*
X154600000Y-94662500D02*
X154600000Y-96400000D01*
D28*
X160210440Y-105270371D02*
X160210440Y-103633371D01*
X141394655Y-106394655D02*
X143765879Y-106394655D01*
X141351000Y-106426000D02*
X141363310Y-106426000D01*
X144700000Y-107400000D02*
X144300000Y-107400000D01*
D27*
X146087500Y-96587500D02*
X143750000Y-96587500D01*
D28*
X154662500Y-106900000D02*
X153300000Y-105537500D01*
D27*
X154600000Y-96400000D02*
X154412500Y-96587500D01*
D28*
X146258943Y-103860057D02*
X146258943Y-106308595D01*
X158580811Y-106900000D02*
X154662500Y-106900000D01*
X141912000Y-98048500D02*
X142163000Y-98048500D01*
X141363310Y-106426000D02*
X141394655Y-106394655D01*
X160224440Y-103619371D02*
X160224440Y-102104440D01*
D27*
X153000000Y-103500000D02*
X153000000Y-105237500D01*
X142875000Y-100258000D02*
X142875000Y-99011500D01*
X154412500Y-96587500D02*
X155587500Y-96587500D01*
D28*
X146258943Y-106308595D02*
X145167538Y-107400000D01*
X160224440Y-102104440D02*
X159120000Y-101000000D01*
X161036000Y-116358500D02*
X160528000Y-116866500D01*
D27*
G04 #@! TO.N,Net-(U4-NRST)*
X143737000Y-99549000D02*
X143713500Y-99572500D01*
X143737000Y-98048500D02*
X143737000Y-99549000D01*
X146072500Y-99572500D02*
X146087500Y-99587500D01*
X143713500Y-99572500D02*
X146072500Y-99572500D01*
G04 #@! TO.N,/TEMP_ADC*
X143765879Y-104494655D02*
X143765879Y-103170155D01*
X145143345Y-103031655D02*
X146087500Y-102087500D01*
X143765879Y-103170155D02*
X143627379Y-103031655D01*
X143627379Y-103031655D02*
X145143345Y-103031655D01*
G04 #@! TO.N,Net-(D1-K)*
X158460440Y-105270371D02*
X156904940Y-105270371D01*
G04 #@! TO.N,Net-(D2-K)*
X156904940Y-103619371D02*
X158474440Y-103619371D01*
D29*
G04 #@! TO.N,Net-(J3-Pin_1)*
X158000000Y-124774000D02*
X161216000Y-124774000D01*
X161216000Y-124774000D02*
X161290000Y-124700000D01*
D27*
G04 #@! TO.N,/LORA_MOSI*
X149500000Y-109474000D02*
X149500000Y-103500000D01*
X142000000Y-114774000D02*
X144200000Y-114774000D01*
X144200000Y-114774000D02*
X149500000Y-109474000D01*
G04 #@! TO.N,/LORA_DIO0*
X150500000Y-109932943D02*
X150500000Y-103500000D01*
X155341057Y-114774000D02*
X150500000Y-109932943D01*
X158000000Y-114774000D02*
X155341057Y-114774000D01*
G04 #@! TO.N,/LORA_MISO*
X149000000Y-103500000D02*
X149000000Y-107974000D01*
X149000000Y-107974000D02*
X144200000Y-112774000D01*
X144200000Y-112774000D02*
X142000000Y-112774000D01*
G04 #@! TO.N,/LORA_CS*
X139426000Y-109621000D02*
X139426000Y-117455000D01*
X148000000Y-103500000D02*
X148000000Y-106564000D01*
X140745000Y-118774000D02*
X142000000Y-118774000D01*
X148000000Y-106564000D02*
X145829000Y-108735000D01*
X140312000Y-108735000D02*
X139426000Y-109621000D01*
X145829000Y-108735000D02*
X140312000Y-108735000D01*
X139426000Y-117455000D02*
X140745000Y-118774000D01*
G04 #@! TO.N,/LORA_SCK*
X139827000Y-109855000D02*
X140546000Y-109136000D01*
X148500000Y-106953000D02*
X148500000Y-103500000D01*
X146317000Y-109136000D02*
X148500000Y-106953000D01*
X140546000Y-109136000D02*
X146317000Y-109136000D01*
X139827000Y-116078000D02*
X139827000Y-109855000D01*
X140523000Y-116774000D02*
X139827000Y-116078000D01*
X142000000Y-116774000D02*
X140523000Y-116774000D01*
G04 #@! TO.N,/LORA_RST*
X145164000Y-120774000D02*
X142500000Y-120774000D01*
X150000000Y-110406000D02*
X148476000Y-111930000D01*
X150000000Y-103500000D02*
X150000000Y-110406000D01*
X148476000Y-111930000D02*
X148476000Y-117462000D01*
X148476000Y-117462000D02*
X145164000Y-120774000D01*
G04 #@! TO.N,/V_SUPERCAP_SENSE*
X145118500Y-101587500D02*
X146087500Y-101587500D01*
X144793000Y-101262000D02*
X145118500Y-101587500D01*
G04 #@! TO.N,/BOOST_EN*
X152447000Y-109649057D02*
X152447000Y-111030000D01*
X152794000Y-108700000D02*
X152794000Y-109302057D01*
X148500000Y-99130000D02*
X148500000Y-95175000D01*
X151270000Y-101900000D02*
X148500000Y-99130000D01*
X152794000Y-109302057D02*
X152447000Y-109649057D01*
X152447000Y-111030000D02*
X152561000Y-111144000D01*
G04 #@! TO.N,Net-(U4-PB13)*
X153750000Y-103940431D02*
X155079940Y-105270371D01*
X153250000Y-101739338D02*
X153250000Y-102348162D01*
X154412500Y-101587500D02*
X153401838Y-101587500D01*
X153401838Y-101587500D02*
X153250000Y-101739338D01*
X153750000Y-102848162D02*
X153750000Y-103940431D01*
X153250000Y-102348162D02*
X153750000Y-102848162D01*
G04 #@! TO.N,Net-(U4-PB14)*
X155183824Y-101087500D02*
X155451000Y-101354676D01*
X155451000Y-101354676D02*
X155451000Y-103248311D01*
X154412500Y-101087500D02*
X155183824Y-101087500D01*
X155451000Y-103248311D02*
X155079940Y-103619371D01*
G04 #@! TO.N,Net-(U4-BOOT0)*
X149428500Y-93142500D02*
X149500000Y-93214000D01*
X149500000Y-93214000D02*
X149500000Y-95175000D01*
G04 #@! TO.N,/SWDIO*
X156250000Y-98500000D02*
X158460000Y-98500000D01*
X155337500Y-97587500D02*
X156250000Y-98500000D01*
X158460000Y-98500000D02*
X158500000Y-98460000D01*
X154412500Y-97587500D02*
X155337500Y-97587500D01*
G04 #@! TO.N,/SUPERCAP_EN*
X149000000Y-96106062D02*
X149000000Y-95175000D01*
X149100000Y-96900000D02*
X149100000Y-96206062D01*
X149100000Y-96206062D02*
X149000000Y-96106062D01*
G04 #@! TO.N,/~{GPS_RESET}*
X151913265Y-99466881D02*
X153292646Y-98087500D01*
X153292646Y-98087500D02*
X154412500Y-98087500D01*
X151913265Y-99500000D02*
X151913265Y-99466881D01*
G04 #@! TO.N,/~{LNA_SHDN}*
X151500000Y-94403676D02*
X151500000Y-95175000D01*
X150822324Y-93726000D02*
X151500000Y-94403676D01*
X150368000Y-93726000D02*
X150822324Y-93726000D01*
G04 #@! TO.N,/SWCLK*
X157024000Y-93824000D02*
X158500000Y-95300000D01*
X153000000Y-95175000D02*
X153000000Y-94437501D01*
X158500000Y-95300000D02*
X158500000Y-95920000D01*
X153000000Y-94437501D02*
X153613501Y-93824000D01*
X153613501Y-93824000D02*
X157024000Y-93824000D01*
G04 #@! TO.N,/GPS_RX*
X155700000Y-100551473D02*
X155700000Y-99900000D01*
X155387500Y-99587500D02*
X154412500Y-99587500D01*
X155650000Y-100601473D02*
X155700000Y-100551473D01*
X155700000Y-99900000D02*
X155387500Y-99587500D01*
G04 #@! TO.N,/GPS_ONOFF*
X152500000Y-99728676D02*
X153641176Y-98587500D01*
X152400000Y-102000000D02*
X152500000Y-101900000D01*
X152500000Y-101900000D02*
X152500000Y-99728676D01*
X153641176Y-98587500D02*
X154412500Y-98587500D01*
G04 #@! TO.N,/1PPS*
X151313265Y-97749265D02*
X151000000Y-97436000D01*
X151313265Y-100214098D02*
X151313265Y-97749265D01*
X151757780Y-100658613D02*
X151313265Y-100214098D01*
X151000000Y-97436000D02*
X151000000Y-95175000D01*
G04 #@! TO.N,/GPS_TX*
X156300000Y-100000000D02*
X156300000Y-99673272D01*
X155714228Y-99087500D02*
X154412500Y-99087500D01*
X156300000Y-99673272D02*
X155714228Y-99087500D01*
G04 #@! TO.N,/GPS_SUPPLY_ENABLE*
X147500000Y-102648530D02*
X148339765Y-101808765D01*
X147500000Y-103500000D02*
X147500000Y-102648530D01*
G04 #@! TD*
G04 #@! TA.AperFunction,Conductor*
G04 #@! TO.N,GND*
G36*
X155299500Y-121593752D02*
G01*
X155311131Y-121652229D01*
X155311132Y-121652230D01*
X155355447Y-121718552D01*
X155421769Y-121762867D01*
X155421770Y-121762868D01*
X155480247Y-121774499D01*
X155480250Y-121774500D01*
X155480252Y-121774500D01*
X159519750Y-121774500D01*
X159519751Y-121774499D01*
X159534568Y-121771552D01*
X159578229Y-121762868D01*
X159578229Y-121762867D01*
X159578231Y-121762867D01*
X159644552Y-121718552D01*
X159688867Y-121652231D01*
X159688867Y-121652229D01*
X159688868Y-121652229D01*
X159700499Y-121593752D01*
X159700500Y-121593750D01*
X159700500Y-121400000D01*
X162399500Y-121400000D01*
X162399500Y-122533737D01*
X162379815Y-122600776D01*
X162327011Y-122646531D01*
X162257853Y-122656475D01*
X162194297Y-122627450D01*
X162156523Y-122568672D01*
X162153883Y-122557929D01*
X162131375Y-122444777D01*
X162131372Y-122444767D01*
X162065417Y-122285536D01*
X162065416Y-122285534D01*
X161991646Y-122175129D01*
X161647524Y-122519250D01*
X161610080Y-122454394D01*
X161535606Y-122379920D01*
X161470748Y-122342474D01*
X161814869Y-121998353D01*
X161814869Y-121998352D01*
X161704474Y-121924588D01*
X161704461Y-121924581D01*
X161545232Y-121858627D01*
X161545220Y-121858624D01*
X161376183Y-121825000D01*
X161203817Y-121825000D01*
X161034779Y-121858624D01*
X161034767Y-121858627D01*
X160875533Y-121924583D01*
X160875530Y-121924585D01*
X160765130Y-121998351D01*
X160765130Y-121998353D01*
X161109251Y-122342474D01*
X161044394Y-122379920D01*
X160969920Y-122454394D01*
X160932474Y-122519251D01*
X160588353Y-122175130D01*
X160588351Y-122175130D01*
X160514585Y-122285530D01*
X160514583Y-122285533D01*
X160448627Y-122444767D01*
X160448624Y-122444779D01*
X160415000Y-122613815D01*
X160415000Y-122786184D01*
X160448624Y-122955220D01*
X160448627Y-122955232D01*
X160514581Y-123114461D01*
X160514588Y-123114474D01*
X160588352Y-123224869D01*
X160588353Y-123224869D01*
X160932474Y-122880748D01*
X160969920Y-122945606D01*
X161044394Y-123020080D01*
X161109250Y-123057524D01*
X160765129Y-123401646D01*
X160875534Y-123475416D01*
X160875536Y-123475417D01*
X161034767Y-123541372D01*
X161034779Y-123541375D01*
X161203815Y-123574999D01*
X161203818Y-123575000D01*
X161376182Y-123575000D01*
X161376184Y-123574999D01*
X161545220Y-123541375D01*
X161545232Y-123541372D01*
X161704463Y-123475417D01*
X161704464Y-123475416D01*
X161814869Y-123401646D01*
X161814869Y-123401645D01*
X161470749Y-123057524D01*
X161535606Y-123020080D01*
X161610080Y-122945606D01*
X161647525Y-122880749D01*
X161991645Y-123224869D01*
X161991646Y-123224869D01*
X162065416Y-123114464D01*
X162065417Y-123114463D01*
X162131372Y-122955232D01*
X162131375Y-122955220D01*
X162153883Y-122842071D01*
X162186268Y-122780160D01*
X162246984Y-122745586D01*
X162316753Y-122749325D01*
X162373425Y-122790192D01*
X162399006Y-122855210D01*
X162399500Y-122866262D01*
X162399500Y-123922654D01*
X162379815Y-123989693D01*
X162327011Y-124035448D01*
X162257853Y-124045392D01*
X162194297Y-124016367D01*
X162156523Y-123957589D01*
X162153883Y-123946846D01*
X162153867Y-123946770D01*
X162153867Y-123946769D01*
X162109552Y-123880447D01*
X162043230Y-123836132D01*
X162043229Y-123836131D01*
X161984752Y-123824500D01*
X161984748Y-123824500D01*
X160595252Y-123824500D01*
X160595247Y-123824500D01*
X160536770Y-123836131D01*
X160536769Y-123836132D01*
X160470447Y-123880447D01*
X160426132Y-123946769D01*
X160426131Y-123946770D01*
X160414500Y-124005247D01*
X160414500Y-124272213D01*
X160394815Y-124339252D01*
X160342011Y-124385007D01*
X160290500Y-124396213D01*
X159824500Y-124396213D01*
X159757461Y-124376528D01*
X159711706Y-124323724D01*
X159700500Y-124272213D01*
X159700500Y-123954249D01*
X159700499Y-123954247D01*
X159688868Y-123895770D01*
X159688867Y-123895769D01*
X159644552Y-123829447D01*
X159578230Y-123785132D01*
X159578229Y-123785131D01*
X159519752Y-123773500D01*
X159519748Y-123773500D01*
X155518749Y-123773500D01*
X155451710Y-123753815D01*
X155411362Y-123711501D01*
X155400500Y-123692686D01*
X155307314Y-123599500D01*
X155250250Y-123566554D01*
X155193187Y-123533608D01*
X155129539Y-123516554D01*
X155065892Y-123499500D01*
X154934108Y-123499500D01*
X154806812Y-123533608D01*
X154692686Y-123599500D01*
X154692683Y-123599502D01*
X154599502Y-123692683D01*
X154599500Y-123692686D01*
X154533608Y-123806812D01*
X154499500Y-123934108D01*
X154499500Y-124065891D01*
X154533608Y-124193187D01*
X154566554Y-124250250D01*
X154599500Y-124307314D01*
X154692686Y-124400500D01*
X154806814Y-124466392D01*
X154934108Y-124500500D01*
X154934110Y-124500500D01*
X155065889Y-124500500D01*
X155065892Y-124500500D01*
X155143410Y-124479729D01*
X155213256Y-124481392D01*
X155271118Y-124520554D01*
X155298623Y-124584782D01*
X155299500Y-124599504D01*
X155299500Y-125593752D01*
X155311131Y-125652229D01*
X155311132Y-125652230D01*
X155355447Y-125718552D01*
X155421769Y-125762867D01*
X155421770Y-125762868D01*
X155480247Y-125774499D01*
X155480250Y-125774500D01*
X155480252Y-125774500D01*
X159519750Y-125774500D01*
X159519751Y-125774499D01*
X159534568Y-125771552D01*
X159578229Y-125762868D01*
X159578229Y-125762867D01*
X159578231Y-125762867D01*
X159644552Y-125718552D01*
X159688867Y-125652231D01*
X159688867Y-125652229D01*
X159688868Y-125652229D01*
X159700499Y-125593752D01*
X159700500Y-125593750D01*
X159700500Y-125275787D01*
X159720185Y-125208748D01*
X159772989Y-125162993D01*
X159824500Y-125151787D01*
X160290500Y-125151787D01*
X160357539Y-125171472D01*
X160403294Y-125224276D01*
X160414500Y-125275787D01*
X160414500Y-125394752D01*
X160426131Y-125453229D01*
X160426132Y-125453230D01*
X160470447Y-125519552D01*
X160536769Y-125563867D01*
X160536770Y-125563868D01*
X160595247Y-125575499D01*
X160595250Y-125575500D01*
X160595252Y-125575500D01*
X161984750Y-125575500D01*
X161984751Y-125575499D01*
X161999568Y-125572552D01*
X162043229Y-125563868D01*
X162043229Y-125563867D01*
X162043231Y-125563867D01*
X162109552Y-125519552D01*
X162153867Y-125453231D01*
X162153882Y-125453154D01*
X162153963Y-125453000D01*
X162158542Y-125441946D01*
X162159530Y-125442355D01*
X162186267Y-125391243D01*
X162246983Y-125356669D01*
X162316752Y-125360408D01*
X162373424Y-125401274D01*
X162399006Y-125466292D01*
X162399500Y-125477345D01*
X162399500Y-125895572D01*
X162399184Y-125904419D01*
X162383851Y-126118788D01*
X162381333Y-126136299D01*
X162345723Y-126300000D01*
X153900000Y-126300000D01*
X153900000Y-121400000D01*
X155299500Y-121400000D01*
X155299500Y-121593752D01*
G37*
G04 #@! TD.AperFunction*
G04 #@! TD*
G04 #@! TA.AperFunction,Conductor*
G04 #@! TO.N,GND*
G36*
X150511705Y-110369619D02*
G01*
X155100597Y-114958511D01*
X155156546Y-115014460D01*
X155156548Y-115014461D01*
X155156552Y-115014464D01*
X155232106Y-115058085D01*
X155231144Y-115059750D01*
X155277347Y-115096971D01*
X155299420Y-115163262D01*
X155299500Y-115167705D01*
X155299500Y-115593752D01*
X155311131Y-115652229D01*
X155311132Y-115652230D01*
X155346465Y-115705109D01*
X155367343Y-115771786D01*
X155348859Y-115839166D01*
X155346465Y-115842891D01*
X155311132Y-115895769D01*
X155311131Y-115895770D01*
X155299500Y-115954247D01*
X155299500Y-117593752D01*
X155311131Y-117652229D01*
X155311132Y-117652230D01*
X155346465Y-117705109D01*
X155367343Y-117771786D01*
X155348859Y-117839166D01*
X155346465Y-117842891D01*
X155311132Y-117895769D01*
X155311131Y-117895770D01*
X155299500Y-117954247D01*
X155299500Y-119593752D01*
X155311131Y-119652229D01*
X155311132Y-119652230D01*
X155346465Y-119705109D01*
X155367343Y-119771786D01*
X155348859Y-119839166D01*
X155346465Y-119842891D01*
X155311132Y-119895769D01*
X155311131Y-119895770D01*
X155299500Y-119954247D01*
X155299500Y-121400000D01*
X153900000Y-121400000D01*
X153900000Y-126300000D01*
X162345723Y-126300000D01*
X162336595Y-126341960D01*
X162331611Y-126358936D01*
X162258053Y-126556150D01*
X162250703Y-126572242D01*
X162149836Y-126756968D01*
X162140271Y-126771853D01*
X162014133Y-126940353D01*
X162002547Y-126953723D01*
X161853723Y-127102547D01*
X161840353Y-127114133D01*
X161671853Y-127240271D01*
X161656968Y-127249836D01*
X161472242Y-127350703D01*
X161456150Y-127358053D01*
X161258936Y-127431611D01*
X161241960Y-127436595D01*
X161036299Y-127481333D01*
X161018788Y-127483851D01*
X160823369Y-127497828D01*
X160804417Y-127499184D01*
X160795572Y-127499500D01*
X140804427Y-127499500D01*
X140795581Y-127499184D01*
X140771229Y-127497442D01*
X140581210Y-127483851D01*
X140563699Y-127481333D01*
X140358038Y-127436595D01*
X140341062Y-127431611D01*
X140143850Y-127358054D01*
X140127757Y-127350704D01*
X139943030Y-127249836D01*
X139943023Y-127249832D01*
X139928147Y-127240271D01*
X139759653Y-127114139D01*
X139746282Y-127102553D01*
X139597449Y-126953720D01*
X139585866Y-126940353D01*
X139459724Y-126771848D01*
X139450163Y-126756969D01*
X139349296Y-126572243D01*
X139341946Y-126556151D01*
X139336069Y-126540394D01*
X139268385Y-126358929D01*
X139263406Y-126341970D01*
X139218665Y-126136297D01*
X139216148Y-126118788D01*
X139208284Y-126008829D01*
X139208233Y-126008110D01*
X141739500Y-126008110D01*
X141739500Y-126139893D01*
X141773608Y-126267189D01*
X141806554Y-126324252D01*
X141839500Y-126381316D01*
X141932686Y-126474502D01*
X142046814Y-126540394D01*
X142174108Y-126574502D01*
X142174110Y-126574502D01*
X142305890Y-126574502D01*
X142305892Y-126574502D01*
X142433186Y-126540394D01*
X142547314Y-126474502D01*
X142640500Y-126381316D01*
X142706392Y-126267188D01*
X142740500Y-126139894D01*
X142740500Y-126008110D01*
X142706392Y-125880816D01*
X142640500Y-125766688D01*
X142547314Y-125673502D01*
X142490250Y-125640556D01*
X142433187Y-125607610D01*
X142369539Y-125590556D01*
X142305892Y-125573502D01*
X142174108Y-125573502D01*
X142046812Y-125607610D01*
X141932686Y-125673502D01*
X141932683Y-125673504D01*
X141839502Y-125766685D01*
X141839500Y-125766688D01*
X141773608Y-125880814D01*
X141739500Y-126008110D01*
X139208233Y-126008110D01*
X139200816Y-125904421D01*
X139200500Y-125895574D01*
X139200500Y-117953833D01*
X139220185Y-117886794D01*
X139272989Y-117841039D01*
X139342147Y-117831095D01*
X139405703Y-117860120D01*
X139412181Y-117866152D01*
X140263181Y-118717152D01*
X140296666Y-118778475D01*
X140299500Y-118804833D01*
X140299500Y-119593752D01*
X140311131Y-119652229D01*
X140311132Y-119652230D01*
X140346465Y-119705109D01*
X140367343Y-119771786D01*
X140348859Y-119839166D01*
X140346465Y-119842891D01*
X140311132Y-119895769D01*
X140311131Y-119895770D01*
X140299500Y-119954247D01*
X140299500Y-121593752D01*
X140311131Y-121652229D01*
X140311132Y-121652230D01*
X140346465Y-121705109D01*
X140367343Y-121771786D01*
X140348859Y-121839166D01*
X140346465Y-121842891D01*
X140311132Y-121895769D01*
X140311131Y-121895770D01*
X140299500Y-121954247D01*
X140299500Y-123593752D01*
X140311131Y-123652229D01*
X140311132Y-123652230D01*
X140355447Y-123718552D01*
X140421769Y-123762867D01*
X140421770Y-123762868D01*
X140480247Y-123774499D01*
X140480250Y-123774500D01*
X140480252Y-123774500D01*
X144519750Y-123774500D01*
X144519751Y-123774499D01*
X144534568Y-123771552D01*
X144578229Y-123762868D01*
X144578229Y-123762867D01*
X144578231Y-123762867D01*
X144644552Y-123718552D01*
X144688867Y-123652231D01*
X144688867Y-123652229D01*
X144688868Y-123652229D01*
X144700499Y-123593752D01*
X144700500Y-123593750D01*
X144700500Y-121954249D01*
X144700499Y-121954247D01*
X144688868Y-121895770D01*
X144688867Y-121895768D01*
X144653535Y-121842892D01*
X144632656Y-121776215D01*
X144651140Y-121708835D01*
X144653535Y-121705108D01*
X144688867Y-121652231D01*
X144688868Y-121652229D01*
X144700499Y-121593752D01*
X144700500Y-121593750D01*
X144700500Y-121198500D01*
X144720185Y-121131461D01*
X144772989Y-121085706D01*
X144824500Y-121074500D01*
X145203560Y-121074500D01*
X145203562Y-121074500D01*
X145279989Y-121054021D01*
X145348511Y-121014460D01*
X145404460Y-120958511D01*
X147928863Y-118434108D01*
X148499500Y-118434108D01*
X148499500Y-118565892D01*
X148511452Y-118610499D01*
X148533608Y-118693187D01*
X148566554Y-118750250D01*
X148599500Y-118807314D01*
X148692686Y-118900500D01*
X148806814Y-118966392D01*
X148934108Y-119000500D01*
X148934110Y-119000500D01*
X149065890Y-119000500D01*
X149065892Y-119000500D01*
X149193186Y-118966392D01*
X149307314Y-118900500D01*
X149400500Y-118807314D01*
X149466392Y-118693186D01*
X149500500Y-118565892D01*
X149500500Y-118434108D01*
X149466392Y-118306814D01*
X149400500Y-118192686D01*
X149307314Y-118099500D01*
X149250250Y-118066554D01*
X149193187Y-118033608D01*
X149129539Y-118016554D01*
X149065892Y-117999500D01*
X148934108Y-117999500D01*
X148806812Y-118033608D01*
X148692686Y-118099500D01*
X148692683Y-118099502D01*
X148599502Y-118192683D01*
X148599500Y-118192686D01*
X148533608Y-118306812D01*
X148525171Y-118338300D01*
X148499500Y-118434108D01*
X147928863Y-118434108D01*
X148716460Y-117646511D01*
X148742317Y-117601725D01*
X148756021Y-117577989D01*
X148776500Y-117501562D01*
X148776500Y-112105833D01*
X148796185Y-112038794D01*
X148812819Y-112018152D01*
X149493785Y-111337186D01*
X150240460Y-110590511D01*
X150280021Y-110521989D01*
X150300500Y-110445562D01*
X150300500Y-110445548D01*
X150301084Y-110441119D01*
X150329349Y-110377221D01*
X150387672Y-110338748D01*
X150457536Y-110337914D01*
X150511705Y-110369619D01*
G37*
G04 #@! TD.AperFunction*
G04 #@! TA.AperFunction,Conductor*
G36*
X162324312Y-116938869D02*
G01*
X162378190Y-116983354D01*
X162399465Y-117049906D01*
X162399500Y-117052857D01*
X162399500Y-121400000D01*
X159700500Y-121400000D01*
X159700500Y-119954249D01*
X159700499Y-119954247D01*
X159688868Y-119895770D01*
X159688867Y-119895768D01*
X159653535Y-119842892D01*
X159632656Y-119776215D01*
X159651140Y-119708835D01*
X159653535Y-119705108D01*
X159688867Y-119652231D01*
X159688868Y-119652229D01*
X159700499Y-119593752D01*
X159700500Y-119593750D01*
X159700500Y-117954249D01*
X159700499Y-117954247D01*
X159688868Y-117895770D01*
X159688867Y-117895768D01*
X159653535Y-117842892D01*
X159632656Y-117776215D01*
X159651140Y-117708835D01*
X159653535Y-117705108D01*
X159688867Y-117652231D01*
X159688868Y-117652229D01*
X159700499Y-117593752D01*
X159700500Y-117593750D01*
X159700500Y-117481505D01*
X159720185Y-117414466D01*
X159772989Y-117368711D01*
X159842147Y-117358767D01*
X159905703Y-117387792D01*
X159924265Y-117407866D01*
X159977289Y-117479711D01*
X160030407Y-117518913D01*
X160083523Y-117558115D01*
X160083524Y-117558115D01*
X160083525Y-117558116D01*
X160208151Y-117601725D01*
X160208150Y-117601725D01*
X160237740Y-117604500D01*
X160237744Y-117604500D01*
X160818260Y-117604500D01*
X160847849Y-117601725D01*
X160870640Y-117593750D01*
X160972475Y-117558116D01*
X161078711Y-117479711D01*
X161139853Y-117396866D01*
X161143833Y-117393843D01*
X161145910Y-117389297D01*
X161171384Y-117372925D01*
X161195500Y-117354616D01*
X161201629Y-117353488D01*
X161204688Y-117351523D01*
X161239623Y-117346500D01*
X161417063Y-117346500D01*
X161469750Y-117360618D01*
X161470304Y-117359281D01*
X161477807Y-117362388D01*
X161477814Y-117362392D01*
X161605108Y-117396500D01*
X161605110Y-117396500D01*
X161736890Y-117396500D01*
X161736892Y-117396500D01*
X161864186Y-117362392D01*
X161978314Y-117296500D01*
X162071500Y-117203314D01*
X162137392Y-117089186D01*
X162155725Y-117020762D01*
X162192090Y-116961103D01*
X162254937Y-116930574D01*
X162324312Y-116938869D01*
G37*
G04 #@! TD.AperFunction*
G04 #@! TA.AperFunction,Conductor*
G36*
X148943039Y-78819685D02*
G01*
X148988794Y-78872489D01*
X149000000Y-78924000D01*
X149000000Y-83000000D01*
X153000000Y-83000000D01*
X153000000Y-78924000D01*
X153019685Y-78856961D01*
X153072489Y-78811206D01*
X153124000Y-78800000D01*
X154285927Y-78800000D01*
X154305697Y-78805805D01*
X154326284Y-78806751D01*
X154349489Y-78818664D01*
X154352966Y-78819685D01*
X154357641Y-78822842D01*
X154415093Y-78863607D01*
X154425948Y-78872264D01*
X154632931Y-79057236D01*
X154642764Y-79067068D01*
X154827731Y-79274046D01*
X154836401Y-79284918D01*
X154997030Y-79511304D01*
X155004428Y-79523078D01*
X155138701Y-79766025D01*
X155144734Y-79778554D01*
X155250959Y-80035006D01*
X155255552Y-80048130D01*
X155332397Y-80314865D01*
X155335491Y-80328422D01*
X155381988Y-80602082D01*
X155383545Y-80615900D01*
X155399305Y-80896527D01*
X155399500Y-80903480D01*
X155399500Y-86024558D01*
X155399501Y-86024575D01*
X155432017Y-86271561D01*
X155496498Y-86512207D01*
X155591830Y-86742361D01*
X155591837Y-86742376D01*
X155716400Y-86958126D01*
X155868060Y-87155774D01*
X155868066Y-87155781D01*
X156044218Y-87331933D01*
X156044225Y-87331939D01*
X156241873Y-87483599D01*
X156457623Y-87608162D01*
X156457638Y-87608169D01*
X156556825Y-87649253D01*
X156687793Y-87703502D01*
X156928435Y-87767982D01*
X157175435Y-87800500D01*
X157242417Y-87800500D01*
X157296519Y-87800500D01*
X157303471Y-87800695D01*
X157341470Y-87802828D01*
X157584106Y-87816454D01*
X157597909Y-87818010D01*
X157871584Y-87864509D01*
X157885123Y-87867599D01*
X158151874Y-87944449D01*
X158164993Y-87949040D01*
X158421445Y-88055265D01*
X158433967Y-88061294D01*
X158620623Y-88164456D01*
X158676921Y-88195571D01*
X158688695Y-88202969D01*
X158915081Y-88363598D01*
X158925953Y-88372268D01*
X159132931Y-88557235D01*
X159142764Y-88567068D01*
X159327731Y-88774046D01*
X159336401Y-88784918D01*
X159497030Y-89011304D01*
X159504428Y-89023078D01*
X159638701Y-89266025D01*
X159644734Y-89278554D01*
X159750959Y-89535006D01*
X159755552Y-89548130D01*
X159832397Y-89814865D01*
X159835491Y-89828422D01*
X159881988Y-90102082D01*
X159883545Y-90115900D01*
X159899304Y-90396512D01*
X159899499Y-90403495D01*
X159899464Y-90546813D01*
X159932199Y-90838604D01*
X159932200Y-90838608D01*
X159932201Y-90838614D01*
X159954824Y-90938173D01*
X159997265Y-91124948D01*
X159997266Y-91124951D01*
X160093841Y-91402227D01*
X160093846Y-91402240D01*
X160220737Y-91667029D01*
X160220739Y-91667032D01*
X160376362Y-91916030D01*
X160376364Y-91916032D01*
X160376365Y-91916034D01*
X160558771Y-92146119D01*
X160558780Y-92146130D01*
X160765701Y-92354445D01*
X160765705Y-92354449D01*
X160994569Y-92538404D01*
X161242516Y-92695697D01*
X161371036Y-92758312D01*
X161377860Y-92761904D01*
X161564708Y-92867813D01*
X161577580Y-92876205D01*
X161746792Y-93002138D01*
X161758538Y-93012069D01*
X161884742Y-93132968D01*
X161910847Y-93157975D01*
X161921274Y-93169285D01*
X162054354Y-93332937D01*
X162063295Y-93345445D01*
X162063299Y-93345450D01*
X162175087Y-93524309D01*
X162182416Y-93537834D01*
X162271199Y-93729162D01*
X162276796Y-93743491D01*
X162341207Y-93944340D01*
X162344987Y-93959250D01*
X162384035Y-94166530D01*
X162385939Y-94181794D01*
X162399261Y-94396153D01*
X162399500Y-94403845D01*
X162399500Y-116739142D01*
X162379815Y-116806181D01*
X162327011Y-116851936D01*
X162257853Y-116861880D01*
X162194297Y-116832855D01*
X162156523Y-116774077D01*
X162155725Y-116771236D01*
X162137392Y-116702814D01*
X162071500Y-116588686D01*
X161978314Y-116495500D01*
X161921250Y-116462554D01*
X161864187Y-116429608D01*
X161762908Y-116402471D01*
X161736892Y-116395500D01*
X161610500Y-116395500D01*
X161601814Y-116392949D01*
X161592853Y-116394238D01*
X161568812Y-116383259D01*
X161543461Y-116375815D01*
X161537533Y-116368974D01*
X161529297Y-116365213D01*
X161515007Y-116342978D01*
X161497706Y-116323011D01*
X161495418Y-116312496D01*
X161491523Y-116306435D01*
X161486500Y-116271500D01*
X161486500Y-116045802D01*
X161506185Y-115978763D01*
X161558989Y-115933008D01*
X161588519Y-115925122D01*
X161588330Y-115924256D01*
X161595701Y-115922646D01*
X161672512Y-115895768D01*
X161723882Y-115877793D01*
X161833150Y-115797150D01*
X161913793Y-115687882D01*
X161936219Y-115623790D01*
X161958646Y-115559701D01*
X161958646Y-115559699D01*
X161961500Y-115529269D01*
X161961500Y-114745730D01*
X161958646Y-114715300D01*
X161958646Y-114715298D01*
X161913793Y-114587119D01*
X161913792Y-114587117D01*
X161833150Y-114477850D01*
X161723882Y-114397207D01*
X161723880Y-114397206D01*
X161595700Y-114352353D01*
X161565270Y-114349500D01*
X161565266Y-114349500D01*
X160506734Y-114349500D01*
X160506730Y-114349500D01*
X160476300Y-114352353D01*
X160476298Y-114352353D01*
X160348119Y-114397206D01*
X160348117Y-114397207D01*
X160238850Y-114477850D01*
X160158207Y-114587117D01*
X160158206Y-114587119D01*
X160113353Y-114715298D01*
X160113353Y-114715300D01*
X160110500Y-114745730D01*
X160110500Y-115529269D01*
X160113353Y-115559699D01*
X160113353Y-115559701D01*
X160145732Y-115652231D01*
X160158207Y-115687882D01*
X160238850Y-115797150D01*
X160348118Y-115877793D01*
X160375742Y-115887459D01*
X160432518Y-115928181D01*
X160458265Y-115993133D01*
X160444809Y-116061695D01*
X160396421Y-116112098D01*
X160334787Y-116128500D01*
X160237740Y-116128500D01*
X160208150Y-116131274D01*
X160083523Y-116174884D01*
X159977291Y-116253286D01*
X159977285Y-116253293D01*
X159962644Y-116273132D01*
X159958663Y-116276154D01*
X159956586Y-116280703D01*
X159931110Y-116297075D01*
X159906997Y-116315384D01*
X159900866Y-116316511D01*
X159897808Y-116318477D01*
X159862873Y-116323500D01*
X159824500Y-116323500D01*
X159757461Y-116303815D01*
X159711706Y-116251011D01*
X159700500Y-116199500D01*
X159700500Y-115954249D01*
X159700499Y-115954247D01*
X159688868Y-115895770D01*
X159688867Y-115895768D01*
X159653535Y-115842892D01*
X159632656Y-115776215D01*
X159651140Y-115708835D01*
X159653535Y-115705108D01*
X159688867Y-115652231D01*
X159688868Y-115652229D01*
X159700499Y-115593752D01*
X159700500Y-115593750D01*
X159700500Y-113954249D01*
X159700499Y-113954247D01*
X159688868Y-113895770D01*
X159688867Y-113895768D01*
X159653535Y-113842892D01*
X159632656Y-113776215D01*
X159651140Y-113708835D01*
X159653535Y-113705108D01*
X159688867Y-113652231D01*
X159688868Y-113652229D01*
X159700499Y-113593752D01*
X159700500Y-113593750D01*
X159700500Y-111954249D01*
X159700499Y-111954247D01*
X159688868Y-111895770D01*
X159688867Y-111895768D01*
X159653535Y-111842892D01*
X159632656Y-111776215D01*
X159651140Y-111708835D01*
X159653535Y-111705108D01*
X159663938Y-111689540D01*
X159688867Y-111652231D01*
X159688867Y-111652230D01*
X159688868Y-111652229D01*
X159700499Y-111593752D01*
X159700500Y-111593750D01*
X159700500Y-109954249D01*
X159700499Y-109954247D01*
X159688868Y-109895770D01*
X159688867Y-109895769D01*
X159644552Y-109829447D01*
X159578230Y-109785132D01*
X159578229Y-109785131D01*
X159519752Y-109773500D01*
X159519748Y-109773500D01*
X155480252Y-109773500D01*
X155480247Y-109773500D01*
X155421770Y-109785131D01*
X155421769Y-109785132D01*
X155355447Y-109829447D01*
X155311132Y-109895769D01*
X155311131Y-109895770D01*
X155299500Y-109954247D01*
X155299500Y-111593752D01*
X155311131Y-111652229D01*
X155311132Y-111652230D01*
X155346465Y-111705109D01*
X155367343Y-111771786D01*
X155348859Y-111839166D01*
X155346465Y-111842891D01*
X155311132Y-111895769D01*
X155311131Y-111895770D01*
X155299500Y-111954247D01*
X155299500Y-113593752D01*
X155311131Y-113652229D01*
X155311132Y-113652230D01*
X155346465Y-113705109D01*
X155367343Y-113771786D01*
X155362460Y-113808523D01*
X155356621Y-113828663D01*
X155355448Y-113829448D01*
X155311133Y-113895769D01*
X155299500Y-113954252D01*
X155299500Y-114025718D01*
X155294597Y-114042633D01*
X155284896Y-114057842D01*
X155279815Y-114075149D01*
X155266501Y-114086685D01*
X155257026Y-114101542D01*
X155240641Y-114109092D01*
X155227011Y-114120904D01*
X155209572Y-114123411D01*
X155193571Y-114130786D01*
X155175707Y-114128280D01*
X155157853Y-114130848D01*
X155141826Y-114123528D01*
X155124379Y-114121082D01*
X155110705Y-114109316D01*
X155094297Y-114101823D01*
X155087819Y-114095791D01*
X152772238Y-111780210D01*
X152738753Y-111718887D01*
X152743737Y-111649195D01*
X152785609Y-111593262D01*
X152797920Y-111585142D01*
X152868314Y-111544500D01*
X152961500Y-111451314D01*
X153027392Y-111337186D01*
X153061500Y-111209892D01*
X153061500Y-111078108D01*
X153027392Y-110950814D01*
X152961500Y-110836686D01*
X152868314Y-110743500D01*
X152809499Y-110709543D01*
X152761284Y-110658975D01*
X152747500Y-110602156D01*
X152747500Y-109824890D01*
X152767185Y-109757851D01*
X152783819Y-109737209D01*
X152821557Y-109699471D01*
X153034460Y-109486568D01*
X153047174Y-109464546D01*
X153074021Y-109418046D01*
X153094500Y-109341619D01*
X153094500Y-109158676D01*
X153114185Y-109091637D01*
X153130819Y-109070995D01*
X153147045Y-109054769D01*
X153194500Y-109007314D01*
X153260392Y-108893186D01*
X153294500Y-108765892D01*
X153294500Y-108634108D01*
X153260392Y-108506814D01*
X153194500Y-108392686D01*
X153101314Y-108299500D01*
X153044250Y-108266554D01*
X152987187Y-108233608D01*
X152923539Y-108216554D01*
X152859892Y-108199500D01*
X152728108Y-108199500D01*
X152600812Y-108233608D01*
X152486686Y-108299500D01*
X152486683Y-108299502D01*
X152393502Y-108392683D01*
X152393500Y-108392686D01*
X152327608Y-108506812D01*
X152293500Y-108634108D01*
X152293500Y-108765891D01*
X152327608Y-108893187D01*
X152360554Y-108950250D01*
X152393500Y-109007314D01*
X152393502Y-109007316D01*
X152440955Y-109054769D01*
X152474440Y-109116092D01*
X152469456Y-109185784D01*
X152440955Y-109230131D01*
X152206541Y-109464544D01*
X152206535Y-109464552D01*
X152166982Y-109533061D01*
X152166979Y-109533066D01*
X152146500Y-109609496D01*
X152146500Y-110827708D01*
X152142349Y-110843197D01*
X152143004Y-110856944D01*
X152129886Y-110889709D01*
X152119856Y-110907081D01*
X152069289Y-110955296D01*
X152000682Y-110968518D01*
X151935817Y-110942550D01*
X151924789Y-110932761D01*
X150836819Y-109844791D01*
X150803334Y-109783468D01*
X150800500Y-109757110D01*
X150800500Y-104561999D01*
X150820185Y-104494960D01*
X150872989Y-104449205D01*
X150924496Y-104437999D01*
X151102132Y-104437999D01*
X151182495Y-104422015D01*
X151182498Y-104422012D01*
X151193778Y-104417341D01*
X151194376Y-104418786D01*
X151247782Y-104402063D01*
X151305943Y-104418016D01*
X151306223Y-104417342D01*
X151311590Y-104419565D01*
X151315162Y-104420545D01*
X151317351Y-104421951D01*
X151317506Y-104422016D01*
X151370957Y-104432647D01*
X151397867Y-104438000D01*
X151602132Y-104437999D01*
X151682495Y-104422015D01*
X151682498Y-104422012D01*
X151693778Y-104417341D01*
X151694376Y-104418786D01*
X151747782Y-104402063D01*
X151805943Y-104418016D01*
X151806223Y-104417342D01*
X151811590Y-104419565D01*
X151815162Y-104420545D01*
X151817351Y-104421951D01*
X151817506Y-104422016D01*
X151870957Y-104432647D01*
X151897867Y-104438000D01*
X152102132Y-104437999D01*
X152182495Y-104422015D01*
X152273624Y-104361124D01*
X152334515Y-104269995D01*
X152350500Y-104189633D01*
X152350499Y-102810368D01*
X152334515Y-102730005D01*
X152310049Y-102693390D01*
X152289172Y-102626713D01*
X152307657Y-102559333D01*
X152359636Y-102512643D01*
X152391922Y-102502331D01*
X152402458Y-102500500D01*
X152465892Y-102500500D01*
X152582953Y-102469133D01*
X152588436Y-102468181D01*
X152617836Y-102471533D01*
X152647423Y-102472238D01*
X152652166Y-102475448D01*
X152657855Y-102476097D01*
X152680776Y-102494812D01*
X152705285Y-102511401D01*
X152707539Y-102516665D01*
X152711975Y-102520287D01*
X152721139Y-102548425D01*
X152732789Y-102575629D01*
X152731839Y-102581276D01*
X152733613Y-102586722D01*
X152726108Y-102615351D01*
X152721202Y-102644531D01*
X152716152Y-102653336D01*
X152715898Y-102654309D01*
X152715258Y-102654896D01*
X152712768Y-102659240D01*
X152665486Y-102730002D01*
X152665483Y-102730009D01*
X152649500Y-102810362D01*
X152649500Y-104189629D01*
X152665485Y-104269995D01*
X152678602Y-104289625D01*
X152699480Y-104356302D01*
X152699500Y-104358516D01*
X152699500Y-104950947D01*
X152679815Y-105017986D01*
X152675273Y-105024576D01*
X152670888Y-105030517D01*
X152670883Y-105030526D01*
X152627274Y-105155150D01*
X152624500Y-105184739D01*
X152624500Y-105890260D01*
X152627274Y-105919849D01*
X152670884Y-106044476D01*
X152749288Y-106150710D01*
X152749289Y-106150711D01*
X152855523Y-106229115D01*
X152855524Y-106229115D01*
X152855525Y-106229116D01*
X152980151Y-106272725D01*
X152980150Y-106272725D01*
X153009740Y-106275500D01*
X153009744Y-106275500D01*
X153349535Y-106275500D01*
X153416574Y-106295185D01*
X153437216Y-106311819D01*
X154385886Y-107260489D01*
X154488613Y-107319799D01*
X154512821Y-107326284D01*
X154512824Y-107326286D01*
X154512825Y-107326286D01*
X154542947Y-107334357D01*
X154603191Y-107350500D01*
X154603193Y-107350500D01*
X158640119Y-107350500D01*
X158640120Y-107350500D01*
X158730484Y-107326286D01*
X158754698Y-107319799D01*
X158857425Y-107260489D01*
X160135724Y-105982190D01*
X160197047Y-105948705D01*
X160223405Y-105945871D01*
X160550700Y-105945871D01*
X160580289Y-105943096D01*
X160589337Y-105939930D01*
X160704915Y-105899487D01*
X160811151Y-105821082D01*
X160889556Y-105714846D01*
X160933165Y-105590220D01*
X160934508Y-105575897D01*
X160935940Y-105560631D01*
X160935940Y-104980110D01*
X160933165Y-104950521D01*
X160896550Y-104845884D01*
X160889556Y-104825896D01*
X160872123Y-104802275D01*
X160811152Y-104719661D01*
X160811149Y-104719659D01*
X160751316Y-104675500D01*
X160711306Y-104645971D01*
X160708283Y-104641990D01*
X160703737Y-104639914D01*
X160687366Y-104614440D01*
X160669055Y-104590323D01*
X160667927Y-104584192D01*
X160665963Y-104581136D01*
X160660940Y-104546201D01*
X160660940Y-104353845D01*
X160680625Y-104286806D01*
X160713435Y-104256713D01*
X160711437Y-104254006D01*
X160733914Y-104237417D01*
X160825151Y-104170082D01*
X160903556Y-104063846D01*
X160947165Y-103939220D01*
X160949940Y-103909631D01*
X160949940Y-103329110D01*
X160947165Y-103299521D01*
X160903555Y-103174894D01*
X160825152Y-103068661D01*
X160825149Y-103068659D01*
X160798739Y-103049167D01*
X160725306Y-102994971D01*
X160683055Y-102939323D01*
X160674940Y-102895201D01*
X160674940Y-102045133D01*
X160674940Y-102045131D01*
X160646234Y-101937999D01*
X160644239Y-101930553D01*
X160642898Y-101928231D01*
X160622915Y-101893619D01*
X160584929Y-101827826D01*
X159586819Y-100829716D01*
X159553334Y-100768393D01*
X159550500Y-100742035D01*
X159550500Y-100130249D01*
X159550499Y-100130247D01*
X159538868Y-100071770D01*
X159538867Y-100071769D01*
X159494552Y-100005447D01*
X159428230Y-99961132D01*
X159428229Y-99961131D01*
X159369752Y-99949500D01*
X159369748Y-99949500D01*
X157630252Y-99949500D01*
X157630247Y-99949500D01*
X157571770Y-99961131D01*
X157571769Y-99961132D01*
X157505447Y-100005447D01*
X157461132Y-100071769D01*
X157461131Y-100071770D01*
X157449500Y-100130247D01*
X157449500Y-101869752D01*
X157461131Y-101928229D01*
X157461132Y-101928230D01*
X157505447Y-101994552D01*
X157571769Y-102038867D01*
X157571770Y-102038868D01*
X157630247Y-102050499D01*
X157630250Y-102050500D01*
X157630252Y-102050500D01*
X159369750Y-102050500D01*
X159369751Y-102050499D01*
X159384485Y-102047568D01*
X159440210Y-102036485D01*
X159441047Y-102040696D01*
X159487125Y-102035679D01*
X159549646Y-102066869D01*
X159552955Y-102070058D01*
X159737621Y-102254724D01*
X159771106Y-102316047D01*
X159773940Y-102342405D01*
X159773940Y-102895201D01*
X159754255Y-102962240D01*
X159723574Y-102994971D01*
X159623727Y-103068661D01*
X159545324Y-103174894D01*
X159501714Y-103299521D01*
X159498940Y-103329110D01*
X159498940Y-103909631D01*
X159501714Y-103939220D01*
X159545324Y-104063847D01*
X159569711Y-104096890D01*
X159623729Y-104170082D01*
X159709575Y-104233438D01*
X159712595Y-104237417D01*
X159717143Y-104239494D01*
X159733515Y-104264969D01*
X159751824Y-104289084D01*
X159752951Y-104295213D01*
X159754917Y-104298272D01*
X159759940Y-104333207D01*
X159759940Y-104546201D01*
X159740255Y-104613240D01*
X159709574Y-104645971D01*
X159609727Y-104719661D01*
X159531324Y-104825894D01*
X159487714Y-104950521D01*
X159484940Y-104980110D01*
X159484940Y-105307405D01*
X159476295Y-105336845D01*
X159469772Y-105366832D01*
X159466017Y-105371847D01*
X159465255Y-105374444D01*
X159448621Y-105395086D01*
X159397621Y-105446086D01*
X159336298Y-105479571D01*
X159266606Y-105474587D01*
X159210673Y-105432715D01*
X159186256Y-105367251D01*
X159185940Y-105358405D01*
X159185940Y-104980110D01*
X159183165Y-104950521D01*
X159146550Y-104845884D01*
X159139556Y-104825896D01*
X159122122Y-104802274D01*
X159061151Y-104719660D01*
X159061150Y-104719659D01*
X158954916Y-104641255D01*
X158830288Y-104597645D01*
X158830289Y-104597645D01*
X158800700Y-104594871D01*
X158800696Y-104594871D01*
X158120184Y-104594871D01*
X158120180Y-104594871D01*
X158090590Y-104597645D01*
X157965963Y-104641255D01*
X157859729Y-104719659D01*
X157859728Y-104719660D01*
X157781324Y-104825894D01*
X157781323Y-104825896D01*
X157780980Y-104826878D01*
X157780314Y-104827806D01*
X157776982Y-104834111D01*
X157776119Y-104833654D01*
X157740257Y-104883653D01*
X157675303Y-104909398D01*
X157606742Y-104895940D01*
X157556341Y-104847551D01*
X157546900Y-104826878D01*
X157546556Y-104825896D01*
X157546555Y-104825894D01*
X157468151Y-104719660D01*
X157468150Y-104719659D01*
X157361916Y-104641255D01*
X157237288Y-104597645D01*
X157237289Y-104597645D01*
X157207700Y-104594871D01*
X157207696Y-104594871D01*
X156602184Y-104594871D01*
X156602180Y-104594871D01*
X156572590Y-104597645D01*
X156447963Y-104641255D01*
X156341729Y-104719659D01*
X156341728Y-104719660D01*
X156263324Y-104825894D01*
X156219714Y-104950521D01*
X156216940Y-104980110D01*
X156216940Y-105560631D01*
X156219714Y-105590220D01*
X156263324Y-105714847D01*
X156341728Y-105821081D01*
X156341729Y-105821082D01*
X156447963Y-105899486D01*
X156447964Y-105899486D01*
X156447965Y-105899487D01*
X156572591Y-105943096D01*
X156572590Y-105943096D01*
X156602180Y-105945871D01*
X156602184Y-105945871D01*
X157207700Y-105945871D01*
X157237289Y-105943096D01*
X157246337Y-105939930D01*
X157361915Y-105899487D01*
X157468151Y-105821082D01*
X157546556Y-105714846D01*
X157546899Y-105713865D01*
X157547565Y-105712936D01*
X157550898Y-105706631D01*
X157551760Y-105707087D01*
X157587620Y-105657091D01*
X157652573Y-105631343D01*
X157721134Y-105644799D01*
X157771537Y-105693186D01*
X157780979Y-105713861D01*
X157781324Y-105714846D01*
X157781325Y-105714848D01*
X157859728Y-105821081D01*
X157859729Y-105821082D01*
X157965963Y-105899486D01*
X157965964Y-105899486D01*
X157965965Y-105899487D01*
X158090591Y-105943096D01*
X158090590Y-105943096D01*
X158120180Y-105945871D01*
X158598474Y-105945871D01*
X158665513Y-105965556D01*
X158711268Y-106018360D01*
X158721212Y-106087518D01*
X158692187Y-106151074D01*
X158686155Y-106157552D01*
X158430527Y-106413181D01*
X158369204Y-106446666D01*
X158342846Y-106449500D01*
X154900465Y-106449500D01*
X154833426Y-106429815D01*
X154812784Y-106413181D01*
X154508916Y-106109313D01*
X154475431Y-106047990D01*
X154480415Y-105978298D01*
X154522287Y-105922365D01*
X154587751Y-105897948D01*
X154637550Y-105904590D01*
X154747591Y-105943096D01*
X154747590Y-105943096D01*
X154777180Y-105945871D01*
X154777184Y-105945871D01*
X155382700Y-105945871D01*
X155412289Y-105943096D01*
X155421337Y-105939930D01*
X155536915Y-105899487D01*
X155643151Y-105821082D01*
X155721556Y-105714846D01*
X155765165Y-105590220D01*
X155766508Y-105575897D01*
X155767940Y-105560631D01*
X155767940Y-104980110D01*
X155765165Y-104950521D01*
X155728550Y-104845884D01*
X155721556Y-104825896D01*
X155704122Y-104802274D01*
X155643151Y-104719660D01*
X155643150Y-104719659D01*
X155536916Y-104641255D01*
X155412288Y-104597645D01*
X155412289Y-104597645D01*
X155382700Y-104594871D01*
X155382696Y-104594871D01*
X154880773Y-104594871D01*
X154851332Y-104586226D01*
X154821346Y-104579703D01*
X154816330Y-104575948D01*
X154813734Y-104575186D01*
X154793092Y-104558552D01*
X154741092Y-104506552D01*
X154707607Y-104445229D01*
X154712591Y-104375537D01*
X154754463Y-104319604D01*
X154819927Y-104295187D01*
X154828773Y-104294871D01*
X155382700Y-104294871D01*
X155412289Y-104292096D01*
X155427407Y-104286806D01*
X155536915Y-104248487D01*
X155643151Y-104170082D01*
X155721556Y-104063846D01*
X155765165Y-103939220D01*
X155767940Y-103909631D01*
X155767940Y-103337855D01*
X155767940Y-103329115D01*
X155767940Y-103329110D01*
X156216940Y-103329110D01*
X156216940Y-103909631D01*
X156219714Y-103939220D01*
X156263324Y-104063847D01*
X156341728Y-104170081D01*
X156341729Y-104170082D01*
X156447963Y-104248486D01*
X156447964Y-104248486D01*
X156447965Y-104248487D01*
X156572591Y-104292096D01*
X156572590Y-104292096D01*
X156602180Y-104294871D01*
X156602184Y-104294871D01*
X157207700Y-104294871D01*
X157237289Y-104292096D01*
X157252407Y-104286806D01*
X157361915Y-104248487D01*
X157468151Y-104170082D01*
X157546556Y-104063846D01*
X157553899Y-104042860D01*
X157594620Y-103986086D01*
X157659573Y-103960338D01*
X157728134Y-103973794D01*
X157778537Y-104022181D01*
X157787979Y-104042855D01*
X157795324Y-104063846D01*
X157795325Y-104063848D01*
X157873728Y-104170081D01*
X157873729Y-104170082D01*
X157979963Y-104248486D01*
X157979964Y-104248486D01*
X157979965Y-104248487D01*
X158104591Y-104292096D01*
X158104590Y-104292096D01*
X158134180Y-104294871D01*
X158134184Y-104294871D01*
X158814700Y-104294871D01*
X158844289Y-104292096D01*
X158859407Y-104286806D01*
X158968915Y-104248487D01*
X159075151Y-104170082D01*
X159153556Y-104063846D01*
X159197165Y-103939220D01*
X159199940Y-103909631D01*
X159199940Y-103329110D01*
X159197165Y-103299521D01*
X159153555Y-103174894D01*
X159075151Y-103068660D01*
X159075150Y-103068659D01*
X158968916Y-102990255D01*
X158844288Y-102946645D01*
X158844289Y-102946645D01*
X158814700Y-102943871D01*
X158814696Y-102943871D01*
X158134184Y-102943871D01*
X158134180Y-102943871D01*
X158104590Y-102946645D01*
X157979963Y-102990255D01*
X157873729Y-103068659D01*
X157873728Y-103068660D01*
X157795324Y-103174894D01*
X157787981Y-103195881D01*
X157747259Y-103252656D01*
X157682306Y-103278403D01*
X157613745Y-103264946D01*
X157563342Y-103216559D01*
X157553899Y-103195881D01*
X157546555Y-103174894D01*
X157468151Y-103068660D01*
X157468150Y-103068659D01*
X157361916Y-102990255D01*
X157237288Y-102946645D01*
X157237289Y-102946645D01*
X157207700Y-102943871D01*
X157207696Y-102943871D01*
X156602184Y-102943871D01*
X156602180Y-102943871D01*
X156572590Y-102946645D01*
X156447963Y-102990255D01*
X156341729Y-103068659D01*
X156341728Y-103068660D01*
X156263324Y-103174894D01*
X156219714Y-103299521D01*
X156216940Y-103329110D01*
X155767940Y-103329110D01*
X155765165Y-103299522D01*
X155755391Y-103271592D01*
X155753665Y-103262473D01*
X155754310Y-103255940D01*
X155751500Y-103239401D01*
X155751500Y-101315115D01*
X155751500Y-101315114D01*
X155731021Y-101238687D01*
X155731020Y-101238685D01*
X155728917Y-101230837D01*
X155731313Y-101230194D01*
X155725177Y-101173153D01*
X155756447Y-101110671D01*
X155815113Y-101075386D01*
X155843186Y-101067865D01*
X155957314Y-101001973D01*
X156050500Y-100908787D01*
X156116392Y-100794659D01*
X156150500Y-100667365D01*
X156150500Y-100624500D01*
X156170185Y-100557461D01*
X156222989Y-100511706D01*
X156274500Y-100500500D01*
X156365890Y-100500500D01*
X156365892Y-100500500D01*
X156493186Y-100466392D01*
X156607314Y-100400500D01*
X156700500Y-100307314D01*
X156766392Y-100193186D01*
X156800500Y-100065892D01*
X156800500Y-99934108D01*
X156766392Y-99806814D01*
X156700500Y-99692686D01*
X156608016Y-99600202D01*
X156581134Y-99559968D01*
X156580023Y-99557286D01*
X156580022Y-99557284D01*
X156540460Y-99488761D01*
X156048304Y-98996605D01*
X156014819Y-98935282D01*
X156019803Y-98865590D01*
X156061675Y-98809657D01*
X156127139Y-98785240D01*
X156168080Y-98789150D01*
X156210438Y-98800500D01*
X156289562Y-98800500D01*
X157421132Y-98800500D01*
X157488171Y-98820185D01*
X157533926Y-98872989D01*
X157535693Y-98877047D01*
X157569057Y-98957595D01*
X157684024Y-99129657D01*
X157830342Y-99275975D01*
X157830345Y-99275977D01*
X158002402Y-99390941D01*
X158193580Y-99470130D01*
X158380498Y-99507310D01*
X158396530Y-99510499D01*
X158396534Y-99510500D01*
X158396535Y-99510500D01*
X158603466Y-99510500D01*
X158603467Y-99510499D01*
X158806420Y-99470130D01*
X158997598Y-99390941D01*
X159169655Y-99275977D01*
X159315977Y-99129655D01*
X159430941Y-98957598D01*
X159510130Y-98766420D01*
X159550500Y-98563465D01*
X159550500Y-98356535D01*
X159510130Y-98153580D01*
X159430941Y-97962402D01*
X159315977Y-97790345D01*
X159315975Y-97790342D01*
X159169657Y-97644024D01*
X159031915Y-97551989D01*
X158997598Y-97529059D01*
X158926246Y-97499504D01*
X158806420Y-97449870D01*
X158806412Y-97449868D01*
X158603469Y-97409500D01*
X158603465Y-97409500D01*
X158396535Y-97409500D01*
X158396530Y-97409500D01*
X158193587Y-97449868D01*
X158193579Y-97449870D01*
X158002403Y-97529058D01*
X157830342Y-97644024D01*
X157684024Y-97790342D01*
X157569057Y-97962403D01*
X157502556Y-98122953D01*
X157458715Y-98177356D01*
X157392421Y-98199421D01*
X157387995Y-98199500D01*
X156425833Y-98199500D01*
X156396392Y-98190855D01*
X156366406Y-98184332D01*
X156361390Y-98180577D01*
X156358794Y-98179815D01*
X156338152Y-98163181D01*
X156224222Y-98049251D01*
X156190737Y-97987928D01*
X156195721Y-97918236D01*
X156237593Y-97862303D01*
X156249898Y-97854185D01*
X156319402Y-97814058D01*
X156412588Y-97720872D01*
X156478480Y-97606744D01*
X156512588Y-97479450D01*
X156512588Y-97347666D01*
X156478480Y-97220372D01*
X156412588Y-97106244D01*
X156347463Y-97041119D01*
X156313978Y-96979796D01*
X156312941Y-96973845D01*
X156312045Y-96970500D01*
X156292109Y-96896099D01*
X156287763Y-96888571D01*
X156252552Y-96827583D01*
X156252546Y-96827575D01*
X155772012Y-96347041D01*
X155772011Y-96347040D01*
X155759798Y-96339989D01*
X155759798Y-96339988D01*
X155759796Y-96339988D01*
X155714569Y-96313876D01*
X155703490Y-96307479D01*
X155678013Y-96300652D01*
X155627062Y-96287000D01*
X155627060Y-96287000D01*
X155271017Y-96287000D01*
X155203978Y-96267315D01*
X155202127Y-96266103D01*
X155202124Y-96266101D01*
X155182495Y-96252985D01*
X155182492Y-96252984D01*
X155182492Y-96252983D01*
X155102136Y-96237000D01*
X155102133Y-96237000D01*
X155024500Y-96237000D01*
X154957461Y-96217315D01*
X154911706Y-96164511D01*
X154900500Y-96113000D01*
X154900500Y-95492477D01*
X154920185Y-95425438D01*
X154972989Y-95379683D01*
X154983522Y-95375444D01*
X155044475Y-95354116D01*
X155150711Y-95275711D01*
X155229116Y-95169475D01*
X155272725Y-95044849D01*
X155275500Y-95015256D01*
X155275500Y-94309744D01*
X155274407Y-94298090D01*
X155272725Y-94280149D01*
X155271591Y-94274955D01*
X155276520Y-94205259D01*
X155318346Y-94149292D01*
X155383791Y-94124823D01*
X155392736Y-94124500D01*
X156848167Y-94124500D01*
X156915206Y-94144185D01*
X156935848Y-94160819D01*
X157767017Y-94991988D01*
X157800502Y-95053311D01*
X157795518Y-95123003D01*
X157767017Y-95167350D01*
X157684025Y-95250341D01*
X157684024Y-95250342D01*
X157569058Y-95422403D01*
X157489870Y-95613579D01*
X157489868Y-95613587D01*
X157449500Y-95816530D01*
X157449500Y-96023469D01*
X157489868Y-96226412D01*
X157489870Y-96226420D01*
X157506306Y-96266101D01*
X157569059Y-96417598D01*
X157621155Y-96495565D01*
X157684024Y-96589657D01*
X157830342Y-96735975D01*
X157830345Y-96735977D01*
X158002402Y-96850941D01*
X158193580Y-96930130D01*
X158352018Y-96961645D01*
X158396530Y-96970499D01*
X158396534Y-96970500D01*
X158396535Y-96970500D01*
X158603466Y-96970500D01*
X158603467Y-96970499D01*
X158806420Y-96930130D01*
X158997598Y-96850941D01*
X159169655Y-96735977D01*
X159315977Y-96589655D01*
X159430941Y-96417598D01*
X159510130Y-96226420D01*
X159550500Y-96023465D01*
X159550500Y-95816535D01*
X159510130Y-95613580D01*
X159430941Y-95422402D01*
X159315977Y-95250345D01*
X159315975Y-95250342D01*
X159169657Y-95104024D01*
X159008466Y-94996321D01*
X158997598Y-94989059D01*
X158806420Y-94909870D01*
X158806412Y-94909868D01*
X158603469Y-94869500D01*
X158603465Y-94869500D01*
X158545833Y-94869500D01*
X158478794Y-94849815D01*
X158458152Y-94833181D01*
X157208512Y-93583541D01*
X157208504Y-93583535D01*
X157187506Y-93571412D01*
X157187506Y-93571411D01*
X157187503Y-93571411D01*
X157139994Y-93543981D01*
X157139991Y-93543979D01*
X157090973Y-93530845D01*
X157063562Y-93523500D01*
X153573939Y-93523500D01*
X153546528Y-93530845D01*
X153497509Y-93543979D01*
X153497508Y-93543980D01*
X153449996Y-93571412D01*
X153449995Y-93571412D01*
X153428996Y-93583535D01*
X153428988Y-93583541D01*
X152815489Y-94197041D01*
X152815487Y-94197043D01*
X152793626Y-94218903D01*
X152732302Y-94252387D01*
X152681756Y-94252838D01*
X152602133Y-94237000D01*
X152602130Y-94237000D01*
X152397870Y-94237000D01*
X152337867Y-94248934D01*
X152317505Y-94252985D01*
X152317504Y-94252985D01*
X152317501Y-94252986D01*
X152306220Y-94257659D01*
X152305621Y-94256214D01*
X152252204Y-94272936D01*
X152194061Y-94256981D01*
X152193781Y-94257659D01*
X152188383Y-94255423D01*
X152184825Y-94254447D01*
X152182648Y-94253047D01*
X152182494Y-94252984D01*
X152102135Y-94237000D01*
X151897869Y-94237000D01*
X151846455Y-94247227D01*
X151776864Y-94240998D01*
X151734585Y-94213290D01*
X151007920Y-93486625D01*
X151006835Y-93485540D01*
X150997390Y-93480087D01*
X150938313Y-93445979D01*
X150861886Y-93425500D01*
X150808133Y-93425500D01*
X150790398Y-93420074D01*
X150776083Y-93410644D01*
X150759637Y-93405815D01*
X150738995Y-93389181D01*
X150675316Y-93325502D01*
X150675314Y-93325500D01*
X150618250Y-93292554D01*
X150561187Y-93259608D01*
X150497539Y-93242554D01*
X150433892Y-93225500D01*
X150302108Y-93225500D01*
X150260092Y-93236757D01*
X150190243Y-93235095D01*
X150132381Y-93195932D01*
X150104877Y-93131704D01*
X150104000Y-93116983D01*
X150104000Y-92839739D01*
X150101225Y-92810150D01*
X150061174Y-92695693D01*
X150057616Y-92685525D01*
X150034257Y-92653875D01*
X149979211Y-92579289D01*
X149979210Y-92579288D01*
X149872976Y-92500884D01*
X149748348Y-92457274D01*
X149748349Y-92457274D01*
X149718760Y-92454500D01*
X149718756Y-92454500D01*
X149138244Y-92454500D01*
X149138240Y-92454500D01*
X149108650Y-92457274D01*
X148984023Y-92500884D01*
X148877789Y-92579288D01*
X148877788Y-92579289D01*
X148799384Y-92685523D01*
X148755774Y-92810150D01*
X148753000Y-92839739D01*
X148753000Y-93445260D01*
X148755774Y-93474849D01*
X148799384Y-93599476D01*
X148877788Y-93705710D01*
X148877789Y-93705711D01*
X148984023Y-93784115D01*
X148984024Y-93784115D01*
X148984025Y-93784116D01*
X149031817Y-93800839D01*
X149115774Y-93830218D01*
X149114706Y-93833268D01*
X149128755Y-93840930D01*
X149156703Y-93853694D01*
X149159155Y-93857510D01*
X149163137Y-93859682D01*
X149177869Y-93886629D01*
X149194477Y-93912472D01*
X149195361Y-93918626D01*
X149196653Y-93920988D01*
X149199500Y-93947407D01*
X149199500Y-94113000D01*
X149179815Y-94180039D01*
X149127011Y-94225794D01*
X149075501Y-94237000D01*
X148897870Y-94237000D01*
X148837867Y-94248934D01*
X148817505Y-94252985D01*
X148817504Y-94252985D01*
X148817501Y-94252986D01*
X148806220Y-94257659D01*
X148805621Y-94256214D01*
X148752204Y-94272936D01*
X148694061Y-94256981D01*
X148693781Y-94257659D01*
X148688383Y-94255423D01*
X148684825Y-94254447D01*
X148682648Y-94253047D01*
X148682494Y-94252984D01*
X148602135Y-94237000D01*
X148397870Y-94237000D01*
X148317504Y-94252985D01*
X148226375Y-94313875D01*
X148165485Y-94405005D01*
X148165483Y-94405009D01*
X148149500Y-94485362D01*
X148149500Y-95864629D01*
X148165485Y-95944995D01*
X148178602Y-95964625D01*
X148199480Y-96031302D01*
X148199500Y-96033516D01*
X148199500Y-99169562D01*
X148204879Y-99189636D01*
X148219980Y-99245993D01*
X148219981Y-99245994D01*
X148246818Y-99292476D01*
X148246819Y-99292478D01*
X148259537Y-99314507D01*
X148259541Y-99314512D01*
X150733181Y-101788152D01*
X150766666Y-101849475D01*
X150769500Y-101875833D01*
X150769500Y-101965892D01*
X150786554Y-102029539D01*
X150803608Y-102093187D01*
X150816825Y-102116079D01*
X150869500Y-102207314D01*
X150962686Y-102300500D01*
X151010588Y-102328156D01*
X151014843Y-102330613D01*
X151063059Y-102381180D01*
X151076281Y-102449787D01*
X151050313Y-102514652D01*
X150993399Y-102555180D01*
X150974486Y-102560097D01*
X150963746Y-102562000D01*
X150897868Y-102562001D01*
X150817505Y-102577985D01*
X150797260Y-102591512D01*
X150771643Y-102596053D01*
X150761724Y-102594955D01*
X150752204Y-102597936D01*
X150727578Y-102591178D01*
X150702197Y-102588371D01*
X150694448Y-102582087D01*
X150694061Y-102581981D01*
X150693781Y-102582659D01*
X150688383Y-102580423D01*
X150684825Y-102579447D01*
X150682648Y-102578047D01*
X150682494Y-102577984D01*
X150602135Y-102562000D01*
X150397870Y-102562000D01*
X150347681Y-102571983D01*
X150317505Y-102577985D01*
X150317504Y-102577985D01*
X150317501Y-102577986D01*
X150306220Y-102582659D01*
X150305621Y-102581214D01*
X150252204Y-102597936D01*
X150194061Y-102581981D01*
X150193781Y-102582659D01*
X150188383Y-102580423D01*
X150184825Y-102579447D01*
X150182648Y-102578047D01*
X150182494Y-102577984D01*
X150102135Y-102562000D01*
X149897870Y-102562000D01*
X149847681Y-102571983D01*
X149817505Y-102577985D01*
X149817504Y-102577985D01*
X149817501Y-102577986D01*
X149806220Y-102582659D01*
X149805621Y-102581214D01*
X149752204Y-102597936D01*
X149694061Y-102581981D01*
X149693781Y-102582659D01*
X149688383Y-102580423D01*
X149684825Y-102579447D01*
X149682648Y-102578047D01*
X149682494Y-102577984D01*
X149602135Y-102562000D01*
X149397870Y-102562000D01*
X149347681Y-102571983D01*
X149317505Y-102577985D01*
X149317504Y-102577985D01*
X149317501Y-102577986D01*
X149306220Y-102582659D01*
X149305621Y-102581214D01*
X149252204Y-102597936D01*
X149194061Y-102581981D01*
X149193781Y-102582659D01*
X149188383Y-102580423D01*
X149184825Y-102579447D01*
X149182648Y-102578047D01*
X149182494Y-102577984D01*
X149102135Y-102562000D01*
X148897870Y-102562000D01*
X148847681Y-102571983D01*
X148817505Y-102577985D01*
X148817504Y-102577985D01*
X148817501Y-102577986D01*
X148806220Y-102582659D01*
X148805621Y-102581214D01*
X148752204Y-102597936D01*
X148694061Y-102581981D01*
X148693781Y-102582659D01*
X148688383Y-102580423D01*
X148684825Y-102579447D01*
X148682648Y-102578047D01*
X148682494Y-102577984D01*
X148602135Y-102562000D01*
X148397869Y-102562000D01*
X148316479Y-102578189D01*
X148246888Y-102571960D01*
X148191711Y-102529096D01*
X148168468Y-102463206D01*
X148184537Y-102395209D01*
X148204607Y-102368892D01*
X148227918Y-102345582D01*
X148289242Y-102312098D01*
X148315597Y-102309265D01*
X148405655Y-102309265D01*
X148405657Y-102309265D01*
X148532951Y-102275157D01*
X148647079Y-102209265D01*
X148740265Y-102116079D01*
X148806157Y-102001951D01*
X148840265Y-101874657D01*
X148840265Y-101742873D01*
X148806157Y-101615579D01*
X148740265Y-101501451D01*
X148647079Y-101408265D01*
X148576505Y-101367519D01*
X148532952Y-101342373D01*
X148463993Y-101323896D01*
X148405657Y-101308265D01*
X148273873Y-101308265D01*
X148146577Y-101342373D01*
X148032451Y-101408265D01*
X148032448Y-101408267D01*
X147939267Y-101501448D01*
X147939265Y-101501451D01*
X147873373Y-101615577D01*
X147839265Y-101742873D01*
X147839265Y-101832931D01*
X147819580Y-101899970D01*
X147802946Y-101920612D01*
X147315489Y-102408070D01*
X147259541Y-102464017D01*
X147259535Y-102464025D01*
X147219982Y-102532534D01*
X147219979Y-102532539D01*
X147212085Y-102562000D01*
X147200499Y-102605242D01*
X147199500Y-102608969D01*
X147199500Y-102641483D01*
X147179815Y-102708522D01*
X147178617Y-102710350D01*
X147166611Y-102728321D01*
X147165484Y-102730007D01*
X147165483Y-102730007D01*
X147149500Y-102810362D01*
X147149500Y-104189629D01*
X147165485Y-104269995D01*
X147226375Y-104361124D01*
X147262876Y-104385513D01*
X147317505Y-104422015D01*
X147317508Y-104422015D01*
X147317509Y-104422016D01*
X147344533Y-104427391D01*
X147397867Y-104438000D01*
X147575499Y-104437999D01*
X147642539Y-104457683D01*
X147688294Y-104510487D01*
X147699500Y-104561999D01*
X147699500Y-106388167D01*
X147679815Y-106455206D01*
X147663181Y-106475848D01*
X145740848Y-108398181D01*
X145679525Y-108431666D01*
X145653167Y-108434500D01*
X140272438Y-108434500D01*
X140234224Y-108444739D01*
X140196009Y-108454979D01*
X140196004Y-108454982D01*
X140127495Y-108494535D01*
X140127487Y-108494541D01*
X139412181Y-109209848D01*
X139350858Y-109243333D01*
X139281166Y-109238349D01*
X139225233Y-109196477D01*
X139200816Y-109131013D01*
X139200500Y-109122167D01*
X139200500Y-106360108D01*
X140850500Y-106360108D01*
X140850500Y-106491891D01*
X140884608Y-106619187D01*
X140889647Y-106627914D01*
X140950500Y-106733314D01*
X141043686Y-106826500D01*
X141097586Y-106857619D01*
X141157810Y-106892390D01*
X141157814Y-106892392D01*
X141285108Y-106926500D01*
X141285110Y-106926500D01*
X141416890Y-106926500D01*
X141416892Y-106926500D01*
X141544186Y-106892392D01*
X141597228Y-106861767D01*
X141659228Y-106845155D01*
X143198786Y-106845155D01*
X143225503Y-106853000D01*
X143252969Y-106857619D01*
X143258568Y-106862709D01*
X143265825Y-106864840D01*
X143284056Y-106885880D01*
X143304668Y-106904618D01*
X143308942Y-106914600D01*
X143311580Y-106917644D01*
X143318558Y-106937054D01*
X143318559Y-106937058D01*
X143324522Y-106959309D01*
X143346080Y-107039766D01*
X143405390Y-107142493D01*
X144023386Y-107760489D01*
X144126113Y-107819799D01*
X144150321Y-107826284D01*
X144150324Y-107826286D01*
X144150325Y-107826286D01*
X144180447Y-107834357D01*
X144240691Y-107850500D01*
X144446063Y-107850500D01*
X144498750Y-107864618D01*
X144499304Y-107863281D01*
X144506807Y-107866388D01*
X144506814Y-107866392D01*
X144634108Y-107900500D01*
X144634110Y-107900500D01*
X144765890Y-107900500D01*
X144765892Y-107900500D01*
X144893186Y-107866392D01*
X144893194Y-107866387D01*
X144900696Y-107863281D01*
X144901249Y-107864618D01*
X144953937Y-107850500D01*
X145226846Y-107850500D01*
X145226847Y-107850500D01*
X145317211Y-107826286D01*
X145341425Y-107819799D01*
X145444152Y-107760489D01*
X146619433Y-106585209D01*
X146678742Y-106482482D01*
X146687580Y-106449500D01*
X146688497Y-106446079D01*
X146698969Y-106406992D01*
X146709443Y-106367904D01*
X146709443Y-104113993D01*
X146723561Y-104061303D01*
X146722225Y-104060750D01*
X146725331Y-104053249D01*
X146725335Y-104053243D01*
X146759443Y-103925949D01*
X146759443Y-103794165D01*
X146725335Y-103666871D01*
X146659443Y-103552743D01*
X146566257Y-103459557D01*
X146489429Y-103415200D01*
X146452130Y-103393665D01*
X146388482Y-103376611D01*
X146324835Y-103359557D01*
X146193051Y-103359557D01*
X146065755Y-103393665D01*
X145951629Y-103459557D01*
X145951626Y-103459559D01*
X145858445Y-103552740D01*
X145858443Y-103552743D01*
X145792551Y-103666869D01*
X145767684Y-103759676D01*
X145758443Y-103794165D01*
X145758443Y-103925949D01*
X145770801Y-103972070D01*
X145792551Y-104053243D01*
X145795661Y-104060750D01*
X145794324Y-104061303D01*
X145808443Y-104113993D01*
X145808443Y-106070629D01*
X145788758Y-106137668D01*
X145772124Y-106158310D01*
X145025057Y-106905377D01*
X144963734Y-106938862D01*
X144901387Y-106934403D01*
X144901037Y-106935712D01*
X144894247Y-106933892D01*
X144894042Y-106933878D01*
X144893721Y-106933751D01*
X144787825Y-106905377D01*
X144765892Y-106899500D01*
X144634108Y-106899500D01*
X144634106Y-106899500D01*
X144547490Y-106922708D01*
X144535490Y-106922422D01*
X144524244Y-106926617D01*
X144501209Y-106921606D01*
X144477640Y-106921045D01*
X144465992Y-106913945D01*
X144455971Y-106911765D01*
X144427717Y-106890614D01*
X144252698Y-106715595D01*
X144219213Y-106654272D01*
X144216379Y-106627914D01*
X144216379Y-106335348D01*
X144216379Y-106335346D01*
X144185678Y-106220769D01*
X144182990Y-106216114D01*
X144166378Y-106154115D01*
X144166378Y-106124798D01*
X144166378Y-106124791D01*
X144166376Y-106124772D01*
X144163465Y-106099667D01*
X144163464Y-106099665D01*
X144163464Y-106099664D01*
X144118085Y-105996890D01*
X144038644Y-105917449D01*
X144011000Y-105905243D01*
X143935871Y-105872070D01*
X143910744Y-105869155D01*
X143621022Y-105869155D01*
X143620996Y-105869157D01*
X143595891Y-105872068D01*
X143595887Y-105872070D01*
X143493115Y-105917448D01*
X143485805Y-105922456D01*
X143419373Y-105944101D01*
X143415730Y-105944155D01*
X141502839Y-105944155D01*
X141470746Y-105939930D01*
X141468241Y-105939258D01*
X141416892Y-105925500D01*
X141285108Y-105925500D01*
X141157812Y-105959608D01*
X141043686Y-106025500D01*
X141043683Y-106025502D01*
X140950502Y-106118683D01*
X140950500Y-106118686D01*
X140884608Y-106232812D01*
X140850500Y-106360108D01*
X139200500Y-106360108D01*
X139200500Y-99134108D01*
X139599500Y-99134108D01*
X139599500Y-99265892D01*
X139603697Y-99281556D01*
X139633608Y-99393187D01*
X139655043Y-99430313D01*
X139699500Y-99507314D01*
X139792686Y-99600500D01*
X139906814Y-99666392D01*
X140034108Y-99700500D01*
X140034110Y-99700500D01*
X140165890Y-99700500D01*
X140165892Y-99700500D01*
X140293186Y-99666392D01*
X140407314Y-99600500D01*
X140500500Y-99507314D01*
X140566392Y-99393186D01*
X140566393Y-99393180D01*
X140569504Y-99385674D01*
X140570842Y-99386228D01*
X140598111Y-99338990D01*
X141267065Y-98670036D01*
X141328386Y-98636553D01*
X141398078Y-98641537D01*
X141428373Y-98657946D01*
X141444757Y-98670038D01*
X141455025Y-98677616D01*
X141579651Y-98721225D01*
X141579650Y-98721225D01*
X141609240Y-98724000D01*
X141609244Y-98724000D01*
X142111167Y-98724000D01*
X142178206Y-98743685D01*
X142198848Y-98760319D01*
X142538181Y-99099652D01*
X142571666Y-99160975D01*
X142574500Y-99187333D01*
X142574500Y-100297562D01*
X142587758Y-100347040D01*
X142594979Y-100373989D01*
X142610284Y-100400499D01*
X142619840Y-100417049D01*
X142632025Y-100438154D01*
X142634540Y-100442511D01*
X142939181Y-100747152D01*
X142972666Y-100808475D01*
X142975500Y-100834833D01*
X142975500Y-101386760D01*
X142978274Y-101416349D01*
X143021884Y-101540976D01*
X143100288Y-101647210D01*
X143100289Y-101647211D01*
X143206523Y-101725615D01*
X143206524Y-101725615D01*
X143206525Y-101725616D01*
X143331151Y-101769225D01*
X143331150Y-101769225D01*
X143360740Y-101772000D01*
X143360744Y-101772000D01*
X144066260Y-101772000D01*
X144095849Y-101769225D01*
X144220475Y-101725616D01*
X144323525Y-101649562D01*
X144389152Y-101625592D01*
X144457323Y-101640907D01*
X144484838Y-101661652D01*
X144485686Y-101662500D01*
X144562440Y-101706814D01*
X144598658Y-101727725D01*
X144599814Y-101728392D01*
X144727108Y-101762500D01*
X144727110Y-101762500D01*
X144817167Y-101762500D01*
X144877313Y-101778064D01*
X144892537Y-101786508D01*
X144933989Y-101827960D01*
X145002512Y-101867522D01*
X145072317Y-101886225D01*
X145085646Y-101893619D01*
X145099910Y-101908073D01*
X145117253Y-101918644D01*
X145123953Y-101932436D01*
X145134723Y-101943350D01*
X145138908Y-101963222D01*
X145147783Y-101981491D01*
X145149500Y-102002054D01*
X145149500Y-102189629D01*
X145165485Y-102269995D01*
X145230498Y-102367294D01*
X145231544Y-102368077D01*
X145232204Y-102369847D01*
X145233161Y-102371279D01*
X145232822Y-102371505D01*
X145240780Y-102392839D01*
X145253443Y-102416030D01*
X145252797Y-102425058D01*
X145255961Y-102433541D01*
X145250344Y-102459363D01*
X145248459Y-102485722D01*
X145242641Y-102494774D01*
X145241110Y-102501814D01*
X145219959Y-102530069D01*
X145055191Y-102694837D01*
X144993871Y-102728321D01*
X144967512Y-102731155D01*
X144457357Y-102731155D01*
X144390318Y-102711470D01*
X144344563Y-102658666D01*
X144340316Y-102648110D01*
X144318995Y-102587179D01*
X144318994Y-102587178D01*
X144240590Y-102480944D01*
X144240589Y-102480943D01*
X144134355Y-102402539D01*
X144009727Y-102358929D01*
X144009728Y-102358929D01*
X143980139Y-102356155D01*
X143980135Y-102356155D01*
X143274623Y-102356155D01*
X143274619Y-102356155D01*
X143245029Y-102358929D01*
X143120402Y-102402539D01*
X143014168Y-102480943D01*
X143014167Y-102480944D01*
X142935763Y-102587178D01*
X142892153Y-102711805D01*
X142889379Y-102741394D01*
X142889379Y-103321915D01*
X142892153Y-103351504D01*
X142935763Y-103476131D01*
X143014167Y-103582365D01*
X143014168Y-103582366D01*
X143120402Y-103660770D01*
X143120403Y-103660770D01*
X143120404Y-103660771D01*
X143245030Y-103704380D01*
X143245029Y-103704380D01*
X143274619Y-103707155D01*
X143274623Y-103707155D01*
X143341379Y-103707155D01*
X143350064Y-103709705D01*
X143359026Y-103708417D01*
X143383066Y-103719395D01*
X143408418Y-103726840D01*
X143414345Y-103733680D01*
X143422582Y-103737442D01*
X143436871Y-103759676D01*
X143454173Y-103779644D01*
X143456460Y-103790158D01*
X143460356Y-103796220D01*
X143465379Y-103831155D01*
X143465379Y-103993822D01*
X143445694Y-104060861D01*
X143429060Y-104081503D01*
X143413673Y-104096889D01*
X143368294Y-104199661D01*
X143368294Y-104199663D01*
X143365379Y-104224786D01*
X143365379Y-104764511D01*
X143365381Y-104764537D01*
X143368292Y-104789642D01*
X143368294Y-104789646D01*
X143413672Y-104892419D01*
X143413673Y-104892420D01*
X143493114Y-104971861D01*
X143595888Y-105017240D01*
X143621014Y-105020155D01*
X143910743Y-105020154D01*
X143910758Y-105020152D01*
X143910761Y-105020152D01*
X143935866Y-105017241D01*
X143935867Y-105017240D01*
X143935870Y-105017240D01*
X144038644Y-104971861D01*
X144118085Y-104892420D01*
X144163464Y-104789646D01*
X144166379Y-104764520D01*
X144166378Y-104224791D01*
X144166378Y-104224790D01*
X144166378Y-104224786D01*
X144665379Y-104224786D01*
X144665379Y-104764511D01*
X144665381Y-104764537D01*
X144668292Y-104789642D01*
X144668294Y-104789646D01*
X144713672Y-104892419D01*
X144713673Y-104892420D01*
X144793114Y-104971861D01*
X144895888Y-105017240D01*
X144921014Y-105020155D01*
X145210743Y-105020154D01*
X145210758Y-105020152D01*
X145210761Y-105020152D01*
X145235866Y-105017241D01*
X145235867Y-105017240D01*
X145235870Y-105017240D01*
X145338644Y-104971861D01*
X145418085Y-104892420D01*
X145463464Y-104789646D01*
X145466379Y-104764520D01*
X145466378Y-104224791D01*
X145466376Y-104224772D01*
X145463465Y-104199667D01*
X145463464Y-104199665D01*
X145463464Y-104199664D01*
X145418085Y-104096890D01*
X145338644Y-104017449D01*
X145285134Y-103993822D01*
X145235871Y-103972070D01*
X145210744Y-103969155D01*
X144921022Y-103969155D01*
X144920996Y-103969157D01*
X144895891Y-103972068D01*
X144895887Y-103972070D01*
X144793114Y-104017448D01*
X144713673Y-104096889D01*
X144668294Y-104199661D01*
X144668294Y-104199663D01*
X144665379Y-104224786D01*
X144166378Y-104224786D01*
X144166378Y-104224785D01*
X144163465Y-104199667D01*
X144163464Y-104199665D01*
X144163464Y-104199664D01*
X144118085Y-104096890D01*
X144102698Y-104081503D01*
X144087994Y-104054575D01*
X144071402Y-104028757D01*
X144070510Y-104022556D01*
X144069213Y-104020180D01*
X144066379Y-103993822D01*
X144066379Y-103771414D01*
X144086064Y-103704375D01*
X144127141Y-103666649D01*
X144126876Y-103666290D01*
X144130218Y-103663823D01*
X144132441Y-103661782D01*
X144134351Y-103660772D01*
X144134354Y-103660771D01*
X144240590Y-103582366D01*
X144318995Y-103476130D01*
X144340316Y-103415200D01*
X144381038Y-103358424D01*
X144445991Y-103332677D01*
X144457357Y-103332155D01*
X145182905Y-103332155D01*
X145182907Y-103332155D01*
X145259334Y-103311676D01*
X145327856Y-103272115D01*
X145383805Y-103216166D01*
X146125652Y-102474317D01*
X146186975Y-102440833D01*
X146213333Y-102437999D01*
X146777130Y-102437999D01*
X146777132Y-102437999D01*
X146857495Y-102422015D01*
X146948624Y-102361124D01*
X147009515Y-102269995D01*
X147025500Y-102189633D01*
X147025499Y-101985368D01*
X147009515Y-101905005D01*
X147009513Y-101905002D01*
X147004841Y-101893722D01*
X147006285Y-101893123D01*
X146989563Y-101839711D01*
X147005517Y-101781556D01*
X147004842Y-101781277D01*
X147007070Y-101775896D01*
X147008049Y-101772331D01*
X147009452Y-101770147D01*
X147009516Y-101769993D01*
X147023482Y-101699776D01*
X147025500Y-101689633D01*
X147025499Y-101512000D01*
X147045183Y-101444961D01*
X147097987Y-101399206D01*
X147149499Y-101388000D01*
X147227060Y-101388000D01*
X147227062Y-101388000D01*
X147303489Y-101367521D01*
X147372011Y-101327960D01*
X147372021Y-101327949D01*
X147374398Y-101326127D01*
X147376782Y-101325204D01*
X147379050Y-101323896D01*
X147379254Y-101324249D01*
X147439567Y-101300930D01*
X147449889Y-101300500D01*
X147565890Y-101300500D01*
X147565892Y-101300500D01*
X147693186Y-101266392D01*
X147807314Y-101200500D01*
X147900500Y-101107314D01*
X147966392Y-100993186D01*
X148000500Y-100865892D01*
X148000500Y-100734108D01*
X147966392Y-100606814D01*
X147900500Y-100492686D01*
X147807314Y-100399500D01*
X147716451Y-100347040D01*
X147693187Y-100333608D01*
X147619541Y-100313875D01*
X147565892Y-100299500D01*
X147434108Y-100299500D01*
X147306812Y-100333608D01*
X147192686Y-100399500D01*
X147192680Y-100399504D01*
X147187513Y-100404672D01*
X147126189Y-100438154D01*
X147056497Y-100433167D01*
X147000565Y-100391293D01*
X146996750Y-100385901D01*
X146948624Y-100313876D01*
X146938806Y-100307316D01*
X146918385Y-100293670D01*
X146857495Y-100252985D01*
X146857493Y-100252984D01*
X146857490Y-100252983D01*
X146777136Y-100237000D01*
X145397870Y-100237000D01*
X145317503Y-100252985D01*
X145317500Y-100252986D01*
X145297875Y-100266101D01*
X145296263Y-100266605D01*
X145295146Y-100267874D01*
X145256976Y-100278907D01*
X145231198Y-100286980D01*
X145230097Y-100286677D01*
X145228983Y-100287000D01*
X144451459Y-100287000D01*
X144384420Y-100267315D01*
X144338665Y-100214511D01*
X144328721Y-100145353D01*
X144351689Y-100089367D01*
X144405115Y-100016976D01*
X144405116Y-100016975D01*
X144426437Y-99956045D01*
X144467159Y-99899269D01*
X144532112Y-99873522D01*
X144543478Y-99873000D01*
X145206534Y-99873000D01*
X145207052Y-99873152D01*
X145207573Y-99873004D01*
X145240578Y-99882996D01*
X145273573Y-99892685D01*
X145274427Y-99893244D01*
X145274445Y-99893250D01*
X145274456Y-99893263D01*
X145275425Y-99893898D01*
X145317505Y-99922015D01*
X145317506Y-99922016D01*
X145381530Y-99934750D01*
X145397867Y-99938000D01*
X146777132Y-99937999D01*
X146857495Y-99922015D01*
X146948624Y-99861124D01*
X147009515Y-99769995D01*
X147025500Y-99689633D01*
X147025499Y-99485368D01*
X147009515Y-99405005D01*
X147009513Y-99405002D01*
X147004841Y-99393722D01*
X147006285Y-99393123D01*
X146989563Y-99339711D01*
X147005517Y-99281556D01*
X147004842Y-99281277D01*
X147007070Y-99275896D01*
X147008049Y-99272331D01*
X147009452Y-99270147D01*
X147009516Y-99269993D01*
X147025499Y-99189636D01*
X147025500Y-99189633D01*
X147025499Y-98985368D01*
X147009515Y-98905005D01*
X147009513Y-98905002D01*
X147004841Y-98893722D01*
X147006285Y-98893123D01*
X146989563Y-98839711D01*
X147005517Y-98781556D01*
X147004842Y-98781277D01*
X147007070Y-98775896D01*
X147008049Y-98772331D01*
X147009452Y-98770147D01*
X147009516Y-98769993D01*
X147020551Y-98714511D01*
X147025500Y-98689633D01*
X147025499Y-98485368D01*
X147009515Y-98405005D01*
X147009513Y-98405002D01*
X147004841Y-98393722D01*
X147006285Y-98393123D01*
X146989563Y-98339711D01*
X147005517Y-98281556D01*
X147004842Y-98281277D01*
X147007070Y-98275896D01*
X147008049Y-98272331D01*
X147009452Y-98270147D01*
X147009516Y-98269993D01*
X147023563Y-98199371D01*
X147025500Y-98189633D01*
X147025499Y-97985368D01*
X147009515Y-97905005D01*
X147009513Y-97905002D01*
X147004841Y-97893722D01*
X147006285Y-97893123D01*
X146989563Y-97839711D01*
X147005517Y-97781556D01*
X147004842Y-97781277D01*
X147007070Y-97775896D01*
X147008049Y-97772331D01*
X147009452Y-97770147D01*
X147009516Y-97769993D01*
X147022745Y-97703481D01*
X147025500Y-97689633D01*
X147025499Y-97485368D01*
X147009515Y-97405005D01*
X147009513Y-97405002D01*
X147004841Y-97393722D01*
X147006285Y-97393123D01*
X146989563Y-97339711D01*
X147005517Y-97281556D01*
X147004842Y-97281277D01*
X147007070Y-97275896D01*
X147008049Y-97272331D01*
X147009452Y-97270147D01*
X147009516Y-97269993D01*
X147019386Y-97220370D01*
X147025500Y-97189633D01*
X147025499Y-96985368D01*
X147009515Y-96905005D01*
X147009513Y-96905002D01*
X147004841Y-96893722D01*
X147006285Y-96893123D01*
X146989563Y-96839711D01*
X147005517Y-96781556D01*
X147004842Y-96781277D01*
X147007070Y-96775896D01*
X147008049Y-96772331D01*
X147009452Y-96770147D01*
X147009516Y-96769993D01*
X147025499Y-96689636D01*
X147025500Y-96689633D01*
X147025499Y-96485368D01*
X147009515Y-96405005D01*
X146989309Y-96374766D01*
X146948624Y-96313875D01*
X146877124Y-96266101D01*
X146857495Y-96252985D01*
X146857493Y-96252984D01*
X146857490Y-96252983D01*
X146777136Y-96237000D01*
X145397870Y-96237000D01*
X145317503Y-96252985D01*
X145317500Y-96252986D01*
X145297875Y-96266101D01*
X145231198Y-96286980D01*
X145228983Y-96287000D01*
X144860965Y-96287000D01*
X144793926Y-96267315D01*
X144748171Y-96214511D01*
X144738227Y-96145353D01*
X144767252Y-96081797D01*
X144773284Y-96075319D01*
X145234639Y-95613965D01*
X145735285Y-95113319D01*
X145796608Y-95079834D01*
X145822966Y-95077000D01*
X146289760Y-95077000D01*
X146319349Y-95074225D01*
X146443975Y-95030616D01*
X146457963Y-95020291D01*
X146523592Y-94996321D01*
X146591762Y-95011636D01*
X146619278Y-95032381D01*
X147113181Y-95526284D01*
X147146666Y-95587607D01*
X147149500Y-95613965D01*
X147149500Y-95864629D01*
X147165485Y-95944995D01*
X147226375Y-96036124D01*
X147262876Y-96060513D01*
X147317505Y-96097015D01*
X147317508Y-96097015D01*
X147317509Y-96097016D01*
X147344533Y-96102391D01*
X147397867Y-96113000D01*
X147602132Y-96112999D01*
X147682495Y-96097015D01*
X147773624Y-96036124D01*
X147834515Y-95944995D01*
X147850500Y-95864633D01*
X147850499Y-94485368D01*
X147834515Y-94405005D01*
X147794211Y-94344686D01*
X147773624Y-94313875D01*
X147715375Y-94274955D01*
X147682495Y-94252985D01*
X147682493Y-94252984D01*
X147682490Y-94252983D01*
X147602135Y-94237000D01*
X147397870Y-94237000D01*
X147317504Y-94252985D01*
X147280178Y-94277926D01*
X147213500Y-94298803D01*
X147146120Y-94280318D01*
X147123607Y-94262504D01*
X146839616Y-93978513D01*
X146839614Y-93978511D01*
X146736887Y-93919201D01*
X146734741Y-93918626D01*
X146714374Y-93913168D01*
X146654714Y-93876801D01*
X146629430Y-93834349D01*
X146628618Y-93832029D01*
X146628614Y-93832022D01*
X146550211Y-93725789D01*
X146550210Y-93725788D01*
X146443976Y-93647384D01*
X146319348Y-93603774D01*
X146319349Y-93603774D01*
X146289760Y-93601000D01*
X146289756Y-93601000D01*
X145709244Y-93601000D01*
X145709240Y-93601000D01*
X145679650Y-93603774D01*
X145555023Y-93647384D01*
X145448789Y-93725788D01*
X145448788Y-93725789D01*
X145370384Y-93832023D01*
X145326774Y-93956650D01*
X145324000Y-93986239D01*
X145324000Y-94199034D01*
X145304315Y-94266073D01*
X145287681Y-94286715D01*
X143761716Y-95812681D01*
X143700393Y-95846166D01*
X143674035Y-95849000D01*
X143334240Y-95849000D01*
X143304650Y-95851774D01*
X143180023Y-95895384D01*
X143073789Y-95973788D01*
X143073788Y-95973789D01*
X142995384Y-96080023D01*
X142951774Y-96204650D01*
X142949000Y-96234239D01*
X142949000Y-96574035D01*
X142929315Y-96641074D01*
X142912681Y-96661716D01*
X142237716Y-97336681D01*
X142176393Y-97370166D01*
X142150035Y-97373000D01*
X141609240Y-97373000D01*
X141579650Y-97375774D01*
X141455023Y-97419384D01*
X141348790Y-97497787D01*
X141312002Y-97547634D01*
X141256354Y-97589885D01*
X141212232Y-97598000D01*
X141192191Y-97598000D01*
X141101825Y-97622213D01*
X141101824Y-97622212D01*
X141077616Y-97628699D01*
X141077613Y-97628700D01*
X140974886Y-97688011D01*
X140974883Y-97688013D01*
X139961009Y-98701886D01*
X139913775Y-98729161D01*
X139914328Y-98730495D01*
X139906816Y-98733606D01*
X139792689Y-98799498D01*
X139792683Y-98799502D01*
X139699502Y-98892683D01*
X139699500Y-98892686D01*
X139633608Y-99006812D01*
X139609982Y-99094988D01*
X139599500Y-99134108D01*
X139200500Y-99134108D01*
X139200500Y-94403845D01*
X139200739Y-94396154D01*
X139200739Y-94396153D01*
X139214061Y-94181783D01*
X139215961Y-94166547D01*
X139255013Y-93959243D01*
X139258792Y-93944340D01*
X139277300Y-93886629D01*
X139323207Y-93743480D01*
X139328794Y-93729176D01*
X139417589Y-93537822D01*
X139424904Y-93524321D01*
X139536712Y-93345428D01*
X139545628Y-93332956D01*
X139678735Y-93169271D01*
X139689139Y-93157987D01*
X139841468Y-93012062D01*
X139853198Y-93002145D01*
X140022426Y-92876200D01*
X140035284Y-92867818D01*
X140222152Y-92761897D01*
X140228963Y-92758312D01*
X140357484Y-92695697D01*
X140605431Y-92538404D01*
X140834295Y-92354449D01*
X141041224Y-92146125D01*
X141223638Y-91916030D01*
X141379261Y-91667032D01*
X141506155Y-91402237D01*
X141602735Y-91124945D01*
X141667799Y-90838614D01*
X141700535Y-90546815D01*
X141700500Y-90403465D01*
X141700694Y-90396543D01*
X141707795Y-90270097D01*
X142649500Y-90270097D01*
X142649500Y-90529902D01*
X142690140Y-90786493D01*
X142770422Y-91033576D01*
X142851534Y-91192764D01*
X142888366Y-91265051D01*
X143041069Y-91475229D01*
X143224771Y-91658931D01*
X143434949Y-91811634D01*
X143582445Y-91886787D01*
X143666423Y-91929577D01*
X143666425Y-91929577D01*
X143666428Y-91929579D01*
X143913507Y-92009860D01*
X144045706Y-92030797D01*
X144170098Y-92050500D01*
X144170103Y-92050500D01*
X144429902Y-92050500D01*
X144543298Y-92032539D01*
X144686493Y-92009860D01*
X144933572Y-91929579D01*
X145165051Y-91811634D01*
X145375229Y-91658931D01*
X145558931Y-91475229D01*
X145711634Y-91265051D01*
X145829579Y-91033572D01*
X145909860Y-90786493D01*
X145947821Y-90546813D01*
X145950500Y-90529902D01*
X145950500Y-90270097D01*
X155649500Y-90270097D01*
X155649500Y-90529902D01*
X155690140Y-90786493D01*
X155770422Y-91033576D01*
X155851534Y-91192764D01*
X155888366Y-91265051D01*
X156041069Y-91475229D01*
X156224771Y-91658931D01*
X156434949Y-91811634D01*
X156582445Y-91886787D01*
X156666423Y-91929577D01*
X156666425Y-91929577D01*
X156666428Y-91929579D01*
X156913507Y-92009860D01*
X157045706Y-92030797D01*
X157170098Y-92050500D01*
X157170103Y-92050500D01*
X157429902Y-92050500D01*
X157543298Y-92032539D01*
X157686493Y-92009860D01*
X157933572Y-91929579D01*
X158165051Y-91811634D01*
X158375229Y-91658931D01*
X158558931Y-91475229D01*
X158711634Y-91265051D01*
X158829579Y-91033572D01*
X158909860Y-90786493D01*
X158947821Y-90546813D01*
X158950500Y-90529902D01*
X158950500Y-90270097D01*
X158924976Y-90108948D01*
X158909860Y-90013507D01*
X158829579Y-89766428D01*
X158829577Y-89766425D01*
X158829577Y-89766423D01*
X158770667Y-89650808D01*
X158711634Y-89534949D01*
X158558931Y-89324771D01*
X158375229Y-89141069D01*
X158165051Y-88988366D01*
X158092764Y-88951534D01*
X157933576Y-88870422D01*
X157686493Y-88790140D01*
X157429902Y-88749500D01*
X157429897Y-88749500D01*
X157170103Y-88749500D01*
X157170098Y-88749500D01*
X156913506Y-88790140D01*
X156666423Y-88870422D01*
X156434945Y-88988368D01*
X156224774Y-89141066D01*
X156224768Y-89141071D01*
X156041071Y-89324768D01*
X156041066Y-89324774D01*
X155888368Y-89534945D01*
X155770422Y-89766423D01*
X155690140Y-90013506D01*
X155649500Y-90270097D01*
X145950500Y-90270097D01*
X145924976Y-90108948D01*
X145909860Y-90013507D01*
X145829579Y-89766428D01*
X145829577Y-89766425D01*
X145829577Y-89766423D01*
X145770667Y-89650808D01*
X145711634Y-89534949D01*
X145558931Y-89324771D01*
X145375229Y-89141069D01*
X145165051Y-88988366D01*
X145092764Y-88951534D01*
X144933576Y-88870422D01*
X144686493Y-88790140D01*
X144429902Y-88749500D01*
X144429897Y-88749500D01*
X144170103Y-88749500D01*
X144170098Y-88749500D01*
X143913506Y-88790140D01*
X143666423Y-88870422D01*
X143434945Y-88988368D01*
X143224774Y-89141066D01*
X143224768Y-89141071D01*
X143041071Y-89324768D01*
X143041066Y-89324774D01*
X142888368Y-89534945D01*
X142770422Y-89766423D01*
X142690140Y-90013506D01*
X142649500Y-90270097D01*
X141707795Y-90270097D01*
X141716455Y-90115889D01*
X141718009Y-90102092D01*
X141764510Y-89828412D01*
X141767598Y-89814880D01*
X141844450Y-89548119D01*
X141849040Y-89535006D01*
X141855803Y-89518678D01*
X141955268Y-89278545D01*
X141961290Y-89266039D01*
X142095574Y-89023072D01*
X142102969Y-89011304D01*
X142119243Y-88988368D01*
X142263605Y-88784908D01*
X142272260Y-88774054D01*
X142457245Y-88567057D01*
X142467057Y-88557245D01*
X142674054Y-88372260D01*
X142684908Y-88363605D01*
X142911309Y-88202965D01*
X142923072Y-88195574D01*
X143166039Y-88061290D01*
X143178545Y-88055268D01*
X143435006Y-87949039D01*
X143448119Y-87944450D01*
X143714880Y-87867598D01*
X143728412Y-87864510D01*
X144002092Y-87818009D01*
X144015891Y-87816455D01*
X144262054Y-87802630D01*
X144296529Y-87800695D01*
X144303481Y-87800500D01*
X144424558Y-87800500D01*
X144424565Y-87800500D01*
X144671565Y-87767982D01*
X144912207Y-87703502D01*
X145142374Y-87608164D01*
X145358127Y-87483598D01*
X145555776Y-87331937D01*
X145731938Y-87155775D01*
X145883599Y-86958126D01*
X146008164Y-86742373D01*
X146103503Y-86512206D01*
X146167982Y-86271564D01*
X146200500Y-86024564D01*
X146200500Y-85899999D01*
X146200500Y-85842416D01*
X146200500Y-80903480D01*
X146200695Y-80896528D01*
X146210508Y-80721787D01*
X146216455Y-80615890D01*
X146218009Y-80602095D01*
X146264510Y-80328411D01*
X146267598Y-80314880D01*
X146344450Y-80048119D01*
X146349040Y-80035005D01*
X146455271Y-79778539D01*
X146461291Y-79766040D01*
X146595574Y-79523072D01*
X146602969Y-79511304D01*
X146763605Y-79284908D01*
X146772260Y-79274054D01*
X146957245Y-79067057D01*
X146967068Y-79057236D01*
X147116159Y-78924000D01*
X147174055Y-78872260D01*
X147184906Y-78863607D01*
X147242320Y-78822869D01*
X147308385Y-78800131D01*
X147314073Y-78800000D01*
X148876000Y-78800000D01*
X148943039Y-78819685D01*
G37*
G04 #@! TD.AperFunction*
G04 #@! TA.AperFunction,Conductor*
G36*
X148618834Y-107361651D02*
G01*
X148674767Y-107403523D01*
X148699184Y-107468987D01*
X148699500Y-107477833D01*
X148699500Y-107798166D01*
X148679815Y-107865205D01*
X148663181Y-107885847D01*
X144761486Y-111787541D01*
X144700163Y-111821026D01*
X144630471Y-111816042D01*
X144604914Y-111802962D01*
X144578230Y-111785132D01*
X144578229Y-111785131D01*
X144519752Y-111773500D01*
X144519748Y-111773500D01*
X140480252Y-111773500D01*
X140480247Y-111773500D01*
X140421770Y-111785131D01*
X140421769Y-111785132D01*
X140355447Y-111829447D01*
X140354601Y-111830715D01*
X140352038Y-111832856D01*
X140346812Y-111838083D01*
X140346344Y-111837615D01*
X140300987Y-111875519D01*
X140231662Y-111884225D01*
X140168635Y-111854069D01*
X140131917Y-111794625D01*
X140127500Y-111761822D01*
X140127500Y-110030833D01*
X140147185Y-109963794D01*
X140163819Y-109943152D01*
X140634152Y-109472819D01*
X140695475Y-109439334D01*
X140721833Y-109436500D01*
X146356560Y-109436500D01*
X146356562Y-109436500D01*
X146432989Y-109416021D01*
X146501511Y-109376460D01*
X146557460Y-109320511D01*
X148487819Y-107390152D01*
X148549142Y-107356667D01*
X148618834Y-107361651D01*
G37*
G04 #@! TD.AperFunction*
G04 #@! TA.AperFunction,Conductor*
G36*
X150305943Y-96093016D02*
G01*
X150306223Y-96092342D01*
X150311590Y-96094565D01*
X150315162Y-96095545D01*
X150317351Y-96096951D01*
X150317506Y-96097016D01*
X150370957Y-96107647D01*
X150397867Y-96113000D01*
X150575499Y-96112999D01*
X150642539Y-96132683D01*
X150688294Y-96185487D01*
X150699500Y-96236999D01*
X150699500Y-97475562D01*
X150713152Y-97526513D01*
X150719979Y-97551990D01*
X150727347Y-97564751D01*
X150746544Y-97598001D01*
X150755208Y-97613007D01*
X150759539Y-97620510D01*
X150976446Y-97837417D01*
X151009931Y-97898740D01*
X151012765Y-97925098D01*
X151012765Y-100253660D01*
X151033244Y-100330087D01*
X151035277Y-100333608D01*
X151043030Y-100347038D01*
X151043033Y-100347041D01*
X151072804Y-100398608D01*
X151220961Y-100546765D01*
X151254446Y-100608088D01*
X151257280Y-100634446D01*
X151257280Y-100724504D01*
X151291388Y-100851800D01*
X151320757Y-100902668D01*
X151357280Y-100965927D01*
X151450466Y-101059113D01*
X151564594Y-101125005D01*
X151691888Y-101159113D01*
X151691890Y-101159113D01*
X151823670Y-101159113D01*
X151823672Y-101159113D01*
X151950966Y-101125005D01*
X152013500Y-101088900D01*
X152081399Y-101072428D01*
X152147426Y-101095280D01*
X152190617Y-101150201D01*
X152199500Y-101196288D01*
X152199500Y-101466238D01*
X152179815Y-101533277D01*
X152137503Y-101573624D01*
X152092686Y-101599500D01*
X152092683Y-101599502D01*
X151999502Y-101692683D01*
X151999500Y-101692686D01*
X151970525Y-101742873D01*
X151966889Y-101749170D01*
X151916321Y-101797385D01*
X151847714Y-101810607D01*
X151782850Y-101784639D01*
X151742322Y-101727725D01*
X151739727Y-101719262D01*
X151736391Y-101706812D01*
X151710807Y-101662500D01*
X151670500Y-101592686D01*
X151577314Y-101499500D01*
X151516701Y-101464505D01*
X151463187Y-101433608D01*
X151368611Y-101408267D01*
X151335892Y-101399500D01*
X151245833Y-101399500D01*
X151178794Y-101379815D01*
X151158152Y-101363181D01*
X148836819Y-99041848D01*
X148803334Y-98980525D01*
X148800500Y-98954167D01*
X148800500Y-97499504D01*
X148820185Y-97432465D01*
X148872989Y-97386710D01*
X148942147Y-97376766D01*
X148956571Y-97379724D01*
X149034108Y-97400500D01*
X149034111Y-97400500D01*
X149165890Y-97400500D01*
X149165892Y-97400500D01*
X149293186Y-97366392D01*
X149407314Y-97300500D01*
X149500500Y-97207314D01*
X149566392Y-97093186D01*
X149600500Y-96965892D01*
X149600500Y-96834108D01*
X149566392Y-96706814D01*
X149500500Y-96592686D01*
X149436818Y-96529004D01*
X149422113Y-96502073D01*
X149405523Y-96476258D01*
X149404631Y-96470055D01*
X149403334Y-96467680D01*
X149400500Y-96441323D01*
X149400500Y-96236999D01*
X149420185Y-96169960D01*
X149472989Y-96124205D01*
X149524498Y-96112999D01*
X149602132Y-96112999D01*
X149682495Y-96097015D01*
X149682498Y-96097012D01*
X149693778Y-96092341D01*
X149694376Y-96093786D01*
X149747782Y-96077063D01*
X149805943Y-96093016D01*
X149806223Y-96092342D01*
X149811590Y-96094565D01*
X149815162Y-96095545D01*
X149817351Y-96096951D01*
X149817506Y-96097016D01*
X149870957Y-96107647D01*
X149897867Y-96113000D01*
X150102132Y-96112999D01*
X150182495Y-96097015D01*
X150182498Y-96097012D01*
X150193778Y-96092341D01*
X150194376Y-96093786D01*
X150247782Y-96077063D01*
X150305943Y-96093016D01*
G37*
G04 #@! TD.AperFunction*
G04 #@! TA.AperFunction,Conductor*
G36*
X153874303Y-94144185D02*
G01*
X153920058Y-94196989D01*
X153930002Y-94266147D01*
X153928409Y-94274955D01*
X153927274Y-94280149D01*
X153924500Y-94309739D01*
X153924500Y-95015260D01*
X153927274Y-95044849D01*
X153970884Y-95169476D01*
X154030565Y-95250341D01*
X154049289Y-95275711D01*
X154155525Y-95354116D01*
X154216457Y-95375437D01*
X154273230Y-95416157D01*
X154298978Y-95481109D01*
X154299500Y-95492477D01*
X154299500Y-96113000D01*
X154279815Y-96180039D01*
X154227011Y-96225794D01*
X154175500Y-96237000D01*
X153722870Y-96237000D01*
X153642504Y-96252985D01*
X153551375Y-96313875D01*
X153490485Y-96405005D01*
X153490483Y-96405009D01*
X153474500Y-96485363D01*
X153474500Y-96689629D01*
X153490485Y-96769995D01*
X153551375Y-96861124D01*
X153587876Y-96885513D01*
X153642505Y-96922015D01*
X153642508Y-96922015D01*
X153642509Y-96922016D01*
X153682686Y-96930007D01*
X153722867Y-96938000D01*
X155102132Y-96937999D01*
X155182495Y-96922015D01*
X155182496Y-96922013D01*
X155182499Y-96922013D01*
X155202125Y-96908899D01*
X155220171Y-96903247D01*
X155236082Y-96893023D01*
X155267039Y-96888571D01*
X155268802Y-96888020D01*
X155271017Y-96888000D01*
X155411667Y-96888000D01*
X155478706Y-96907685D01*
X155499348Y-96924319D01*
X155569813Y-96994784D01*
X155603298Y-97056107D01*
X155598314Y-97125799D01*
X155589520Y-97144464D01*
X155545693Y-97220375D01*
X155545618Y-97220558D01*
X155545513Y-97220687D01*
X155541633Y-97227409D01*
X155540584Y-97226803D01*
X155501772Y-97274957D01*
X155435476Y-97297016D01*
X155398969Y-97292870D01*
X155377062Y-97287000D01*
X155377060Y-97287000D01*
X155271017Y-97287000D01*
X155203978Y-97267315D01*
X155202127Y-97266103D01*
X155182495Y-97252985D01*
X155182492Y-97252984D01*
X155182492Y-97252983D01*
X155102136Y-97237000D01*
X153722870Y-97237000D01*
X153642504Y-97252985D01*
X153551375Y-97313875D01*
X153490485Y-97405005D01*
X153490483Y-97405009D01*
X153474500Y-97485363D01*
X153474500Y-97485365D01*
X153474501Y-97662999D01*
X153454817Y-97730039D01*
X153402013Y-97775794D01*
X153350501Y-97787000D01*
X153253084Y-97787000D01*
X153222513Y-97795191D01*
X153176654Y-97807479D01*
X153176653Y-97807480D01*
X153141184Y-97827959D01*
X153108138Y-97847037D01*
X153108133Y-97847041D01*
X151991994Y-98963181D01*
X151930671Y-98996666D01*
X151922716Y-98998127D01*
X151913567Y-98999500D01*
X151847373Y-98999500D01*
X151763091Y-99022082D01*
X151756168Y-99023122D01*
X151728214Y-99019278D01*
X151700008Y-99018607D01*
X151694062Y-99014582D01*
X151686950Y-99013605D01*
X151665512Y-98995259D01*
X151642146Y-98979444D01*
X151639319Y-98972844D01*
X151633865Y-98968176D01*
X151625748Y-98941152D01*
X151614642Y-98915216D01*
X151613821Y-98901440D01*
X151613767Y-98901260D01*
X151613803Y-98901134D01*
X151613765Y-98900495D01*
X151613765Y-97709700D01*
X151612099Y-97703481D01*
X151612099Y-97703480D01*
X151593287Y-97633277D01*
X151586899Y-97622213D01*
X151553725Y-97564754D01*
X151336819Y-97347848D01*
X151303334Y-97286525D01*
X151300500Y-97260167D01*
X151300500Y-96236999D01*
X151320185Y-96169960D01*
X151372989Y-96124205D01*
X151424496Y-96112999D01*
X151602132Y-96112999D01*
X151682495Y-96097015D01*
X151682498Y-96097012D01*
X151693778Y-96092341D01*
X151694376Y-96093786D01*
X151747782Y-96077063D01*
X151805943Y-96093016D01*
X151806223Y-96092342D01*
X151811590Y-96094565D01*
X151815162Y-96095545D01*
X151817351Y-96096951D01*
X151817506Y-96097016D01*
X151870957Y-96107647D01*
X151897867Y-96113000D01*
X152102132Y-96112999D01*
X152182495Y-96097015D01*
X152182498Y-96097012D01*
X152193778Y-96092341D01*
X152194376Y-96093786D01*
X152247782Y-96077063D01*
X152305943Y-96093016D01*
X152306223Y-96092342D01*
X152311590Y-96094565D01*
X152315162Y-96095545D01*
X152317351Y-96096951D01*
X152317506Y-96097016D01*
X152370957Y-96107647D01*
X152397867Y-96113000D01*
X152602132Y-96112999D01*
X152682495Y-96097015D01*
X152682498Y-96097012D01*
X152693778Y-96092341D01*
X152694376Y-96093786D01*
X152747782Y-96077063D01*
X152805943Y-96093016D01*
X152806223Y-96092342D01*
X152811590Y-96094565D01*
X152815162Y-96095545D01*
X152817351Y-96096951D01*
X152817506Y-96097016D01*
X152870957Y-96107647D01*
X152897867Y-96113000D01*
X153102132Y-96112999D01*
X153182495Y-96097015D01*
X153273624Y-96036124D01*
X153334515Y-95944995D01*
X153350500Y-95864633D01*
X153350499Y-94563333D01*
X153370184Y-94496295D01*
X153386818Y-94475653D01*
X153701653Y-94160819D01*
X153728580Y-94146115D01*
X153754399Y-94129523D01*
X153760599Y-94128631D01*
X153762976Y-94127334D01*
X153789334Y-94124500D01*
X153807264Y-94124500D01*
X153874303Y-94144185D01*
G37*
G04 #@! TD.AperFunction*
G04 #@! TD*
M02*
